%TF.GenerationSoftware,KiCad,Pcbnew,7.0.8*%
%TF.CreationDate,2024-04-18T13:17:51+02:00*%
%TF.ProjectId,pendulo_invertido,70656e64-756c-46f5-9f69-6e7665727469,rev?*%
%TF.SameCoordinates,Original*%
%TF.FileFunction,Soldermask,Top*%
%TF.FilePolarity,Negative*%
%FSLAX46Y46*%
G04 Gerber Fmt 4.6, Leading zero omitted, Abs format (unit mm)*
G04 Created by KiCad (PCBNEW 7.0.8) date 2024-04-18 13:17:51*
%MOMM*%
%LPD*%
G01*
G04 APERTURE LIST*
%ADD10R,1.905000X2.000000*%
%ADD11O,1.905000X2.000000*%
%ADD12C,3.200000*%
%ADD13R,2.600000X2.600000*%
%ADD14C,2.600000*%
%ADD15O,1.270000X2.032000*%
%ADD16O,2.032000X1.270000*%
%ADD17C,1.600000*%
%ADD18R,2.000000X1.200000*%
%ADD19O,2.000000X1.200000*%
G04 APERTURE END LIST*
D10*
%TO.C,U5*%
X101740000Y-87000000D03*
D11*
X104280000Y-87000000D03*
X106820000Y-87000000D03*
%TD*%
D12*
%TO.C,H4*%
X162560000Y-116840000D03*
%TD*%
D13*
%TO.C,J3*%
X83900000Y-85700000D03*
D14*
X83900000Y-90700000D03*
%TD*%
D13*
%TO.C,J2*%
X160020000Y-106600000D03*
D14*
X160020000Y-101600000D03*
%TD*%
D15*
%TO.C,U2*%
X100070000Y-78740000D03*
X102610000Y-78740000D03*
X105150000Y-78740000D03*
X107690000Y-78740000D03*
X110230000Y-78740000D03*
X112770000Y-78740000D03*
X115310000Y-78740000D03*
X117850000Y-78740000D03*
%TD*%
D16*
%TO.C,U3*%
X99170000Y-97360000D03*
X99170000Y-99900000D03*
X99170000Y-102440000D03*
X99170000Y-104980000D03*
X99170000Y-107520000D03*
X99170000Y-110060000D03*
X99170000Y-112600000D03*
X99170000Y-115140000D03*
X114410000Y-115140000D03*
X114410000Y-112600000D03*
X114410000Y-110060000D03*
X114410000Y-107520000D03*
X114410000Y-104980000D03*
X114410000Y-102440000D03*
X114410000Y-99900000D03*
X114410000Y-97360000D03*
%TD*%
D12*
%TO.C,H1*%
X81280000Y-66040000D03*
%TD*%
D13*
%TO.C,J1*%
X83900000Y-101500000D03*
D14*
X83900000Y-106500000D03*
%TD*%
D12*
%TO.C,H3*%
X81280000Y-116840000D03*
%TD*%
%TO.C,H2*%
X162560000Y-66040000D03*
%TD*%
D17*
%TO.C,C2*%
X114000000Y-87000000D03*
X114000000Y-85000000D03*
%TD*%
D18*
%TO.C,U1*%
X125044200Y-71120000D03*
D19*
X125044200Y-73660000D03*
X125044200Y-76200000D03*
X125044200Y-78740000D03*
X125044200Y-81280000D03*
X125044200Y-83820000D03*
X125044200Y-86360000D03*
X125044200Y-88900000D03*
X125044200Y-91440000D03*
X125044200Y-93980000D03*
X125044200Y-96520000D03*
X125044200Y-99060000D03*
X125044200Y-101600000D03*
X125044200Y-104140000D03*
X125044200Y-106680000D03*
X125044200Y-109220000D03*
X125044200Y-111760000D03*
X125044200Y-114300000D03*
X125044200Y-116840000D03*
X150440520Y-116837280D03*
X150440520Y-114297280D03*
X150444200Y-111760000D03*
X150444200Y-109220000D03*
X150444200Y-106680000D03*
X150444200Y-104140000D03*
X150444200Y-101600000D03*
X150444200Y-99060000D03*
X150444200Y-96520000D03*
X150444200Y-93980000D03*
X150444200Y-91440000D03*
X150444200Y-88900000D03*
X150444200Y-86360000D03*
X150444200Y-83820000D03*
X150444200Y-81280000D03*
X150444200Y-78740000D03*
X150444200Y-76200000D03*
X150444200Y-73660000D03*
X150444200Y-71120000D03*
%TD*%
D17*
%TO.C,C1*%
X94260000Y-87000000D03*
X94260000Y-85000000D03*
%TD*%
M02*
