M48
; DRILL file {KiCad 7.0.8} date Thu Apr 18 13:10:44 2024
; FORMAT={-:-/ absolute / inch / decimal}
; #@! TF.CreationDate,2024-04-18T13:10:44+02:00
; #@! TF.GenerationSoftware,Kicad,Pcbnew,7.0.8
; #@! TF.FileFunction,Plated,1,2,PTH
FMAT,2
INCH
; #@! TA.AperFunction,Plated,PTH,ViaDrill
T1C0.0157
; #@! TA.AperFunction,Plated,PTH,ComponentDrill
T2C0.0300
; #@! TA.AperFunction,Plated,PTH,ComponentDrill
T3C0.0315
; #@! TA.AperFunction,Plated,PTH,ComponentDrill
T4C0.0433
; #@! TA.AperFunction,Plated,PTH,ComponentDrill
T5C0.0512
%
G90
G05
T1
X4.0Y-3.6
X4.1654Y-3.2008
X4.2756Y-2.9665
X4.3307Y-4.685
X4.5079Y-3.563
X4.685Y-4.4882
X4.7559Y-4.3642
X4.8031Y-4.2657
X6.1417Y-4.3898
T2
X3.9043Y-3.8331
X3.9043Y-3.9331
X3.9043Y-4.0331
X3.9043Y-4.1331
X3.9043Y-4.2331
X3.9043Y-4.3331
X3.9043Y-4.4331
X3.9043Y-4.5331
X3.9398Y-3.1
X4.0398Y-3.1
X4.1398Y-3.1
X4.2398Y-3.1
X4.3398Y-3.1
X4.4398Y-3.1
X4.5043Y-3.8331
X4.5043Y-3.9331
X4.5043Y-4.0331
X4.5043Y-4.1331
X4.5043Y-4.2331
X4.5043Y-4.3331
X4.5043Y-4.4331
X4.5043Y-4.5331
X4.5398Y-3.1
X4.6398Y-3.1
T3
X3.711Y-3.3465
X3.711Y-3.4252
X4.4882Y-3.3465
X4.4882Y-3.4252
X4.923Y-2.8
X4.923Y-2.9
X4.923Y-3.0
X4.923Y-3.1
X4.923Y-3.2
X4.923Y-3.3
X4.923Y-3.4
X4.923Y-3.5
X4.923Y-3.6
X4.923Y-3.7
X4.923Y-3.8
X4.923Y-3.9
X4.923Y-4.0
X4.923Y-4.1
X4.923Y-4.2
X4.923Y-4.3
X4.923Y-4.4
X4.923Y-4.5
X4.923Y-4.6
X5.9229Y-4.4999
X5.9229Y-4.5999
X5.923Y-2.8
X5.923Y-2.9
X5.923Y-3.0
X5.923Y-3.1
X5.923Y-3.2
X5.923Y-3.3
X5.923Y-3.4
X5.923Y-3.5
X5.923Y-3.6
X5.923Y-3.7
X5.923Y-3.8
X5.923Y-3.9
X5.923Y-4.0
X5.923Y-4.1
X5.923Y-4.2
X5.923Y-4.3
X5.923Y-4.4
T4
X4.0055Y-3.4252
X4.1055Y-3.4252
X4.2055Y-3.4252
T5
X3.3031Y-3.374
X3.3031Y-3.5709
X3.3031Y-3.9961
X3.3031Y-4.1929
X6.3Y-4.0
X6.3Y-4.1969
T0
M30
