%TF.GenerationSoftware,KiCad,Pcbnew,7.0.8*%
%TF.CreationDate,2024-04-18T13:17:51+02:00*%
%TF.ProjectId,pendulo_invertido,70656e64-756c-46f5-9f69-6e7665727469,rev?*%
%TF.SameCoordinates,Original*%
%TF.FileFunction,Copper,L1,Top*%
%TF.FilePolarity,Positive*%
%FSLAX46Y46*%
G04 Gerber Fmt 4.6, Leading zero omitted, Abs format (unit mm)*
G04 Created by KiCad (PCBNEW 7.0.8) date 2024-04-18 13:17:51*
%MOMM*%
%LPD*%
G01*
G04 APERTURE LIST*
%TA.AperFunction,ComponentPad*%
%ADD10R,1.905000X2.000000*%
%TD*%
%TA.AperFunction,ComponentPad*%
%ADD11O,1.905000X2.000000*%
%TD*%
%TA.AperFunction,ComponentPad*%
%ADD12R,2.600000X2.600000*%
%TD*%
%TA.AperFunction,ComponentPad*%
%ADD13C,2.600000*%
%TD*%
%TA.AperFunction,ComponentPad*%
%ADD14O,1.270000X2.032000*%
%TD*%
%TA.AperFunction,ComponentPad*%
%ADD15O,2.032000X1.270000*%
%TD*%
%TA.AperFunction,ComponentPad*%
%ADD16C,1.600000*%
%TD*%
%TA.AperFunction,ComponentPad*%
%ADD17R,2.000000X1.200000*%
%TD*%
%TA.AperFunction,ComponentPad*%
%ADD18O,2.000000X1.200000*%
%TD*%
%TA.AperFunction,ViaPad*%
%ADD19C,0.800000*%
%TD*%
%TA.AperFunction,Conductor*%
%ADD20C,1.500000*%
%TD*%
%TA.AperFunction,Conductor*%
%ADD21C,0.250000*%
%TD*%
G04 APERTURE END LIST*
D10*
%TO.P,U5,1,IN*%
%TO.N,+6V*%
X101740000Y-87000000D03*
D11*
%TO.P,U5,2,GND*%
%TO.N,GND*%
X104280000Y-87000000D03*
%TO.P,U5,3,OUT*%
%TO.N,Net-(U1-5V)*%
X106820000Y-87000000D03*
%TD*%
D12*
%TO.P,J3,1*%
%TO.N,+6V*%
X83900000Y-85700000D03*
D13*
%TO.P,J3,2*%
%TO.N,GND*%
X83900000Y-90700000D03*
%TD*%
D12*
%TO.P,J2,1,Pin_1*%
%TO.N,Net-(J2-Pin_1)*%
X160020000Y-106600000D03*
D13*
%TO.P,J2,2,Pin_2*%
%TO.N,Net-(J2-Pin_2)*%
X160020000Y-101600000D03*
%TD*%
D14*
%TO.P,U2,1,VCC*%
%TO.N,Net-(U1-3V3)*%
X100070000Y-78740000D03*
%TO.P,U2,2,GND*%
%TO.N,GND*%
X102610000Y-78740000D03*
%TO.P,U2,3,SCL*%
%TO.N,Net-(U1-D3)*%
X105150000Y-78740000D03*
%TO.P,U2,4,SDA*%
%TO.N,Net-(U1-D2)*%
X107690000Y-78740000D03*
%TO.P,U2,5,XDA*%
%TO.N,unconnected-(U2-XDA-Pad5)*%
X110230000Y-78740000D03*
%TO.P,U2,6,XCL*%
%TO.N,unconnected-(U2-XCL-Pad6)*%
X112770000Y-78740000D03*
%TO.P,U2,7,ADO*%
%TO.N,unconnected-(U2-ADO-Pad7)*%
X115310000Y-78740000D03*
%TO.P,U2,8,INT*%
%TO.N,unconnected-(U2-INT-Pad8)*%
X117850000Y-78740000D03*
%TD*%
D15*
%TO.P,U3,1,VM*%
%TO.N,+6V*%
X99170000Y-97360000D03*
%TO.P,U3,2,VCC*%
%TO.N,Net-(U1-3V3)*%
X99170000Y-99900000D03*
%TO.P,U3,3,GND*%
%TO.N,GND*%
X99170000Y-102440000D03*
%TO.P,U3,4,A01*%
%TO.N,Net-(J1-Pin_1)*%
X99170000Y-104980000D03*
%TO.P,U3,5,A02*%
%TO.N,Net-(J1-Pin_2)*%
X99170000Y-107520000D03*
%TO.P,U3,6,B01*%
%TO.N,Net-(J2-Pin_1)*%
X99170000Y-110060000D03*
%TO.P,U3,7,B02*%
%TO.N,Net-(J2-Pin_2)*%
X99170000Y-112600000D03*
%TO.P,U3,8,GND*%
%TO.N,GND*%
X99170000Y-115140000D03*
%TO.P,U3,9,GND*%
X114410000Y-115140000D03*
%TO.P,U3,10,PWMB*%
%TO.N,Net-(U1-12)*%
X114410000Y-112600000D03*
%TO.P,U3,11,BIN1*%
%TO.N,Net-(U1-14)*%
X114410000Y-110060000D03*
%TO.P,U3,12,BIN2*%
%TO.N,Net-(U1-27)*%
X114410000Y-107520000D03*
%TO.P,U3,13,STBY*%
%TO.N,Net-(U1-26)*%
X114410000Y-104980000D03*
%TO.P,U3,14,AIN1*%
%TO.N,Net-(U1-25)*%
X114410000Y-102440000D03*
%TO.P,U3,15,AIN2*%
%TO.N,Net-(U1-33)*%
X114410000Y-99900000D03*
%TO.P,U3,16,PWMA*%
%TO.N,Net-(U1-32)*%
X114410000Y-97360000D03*
%TD*%
D12*
%TO.P,J1,1,Pin_1*%
%TO.N,Net-(J1-Pin_1)*%
X83900000Y-101500000D03*
D13*
%TO.P,J1,2,Pin_2*%
%TO.N,Net-(J1-Pin_2)*%
X83900000Y-106500000D03*
%TD*%
D16*
%TO.P,C2,1*%
%TO.N,Net-(U1-5V)*%
X114000000Y-87000000D03*
%TO.P,C2,2*%
%TO.N,GND*%
X114000000Y-85000000D03*
%TD*%
D17*
%TO.P,U1,1,3V3*%
%TO.N,Net-(U1-3V3)*%
X125044200Y-71120000D03*
D18*
%TO.P,U1,2,EN*%
%TO.N,unconnected-(U1-EN-Pad2)*%
X125044200Y-73660000D03*
%TO.P,U1,3,VP*%
%TO.N,unconnected-(U1-VP-Pad3)*%
X125044200Y-76200000D03*
%TO.P,U1,4,VN*%
%TO.N,unconnected-(U1-VN-Pad4)*%
X125044200Y-78740000D03*
%TO.P,U1,5,34*%
%TO.N,unconnected-(U1-34-Pad5)*%
X125044200Y-81280000D03*
%TO.P,U1,6,35*%
%TO.N,unconnected-(U1-35-Pad6)*%
X125044200Y-83820000D03*
%TO.P,U1,7,32*%
%TO.N,Net-(U1-32)*%
X125044200Y-86360000D03*
%TO.P,U1,8,33*%
%TO.N,Net-(U1-33)*%
X125044200Y-88900000D03*
%TO.P,U1,9,25*%
%TO.N,Net-(U1-25)*%
X125044200Y-91440000D03*
%TO.P,U1,10,26*%
%TO.N,Net-(U1-26)*%
X125044200Y-93980000D03*
%TO.P,U1,11,27*%
%TO.N,Net-(U1-27)*%
X125044200Y-96520000D03*
%TO.P,U1,12,14*%
%TO.N,Net-(U1-14)*%
X125044200Y-99060000D03*
%TO.P,U1,13,12*%
%TO.N,Net-(U1-12)*%
X125044200Y-101600000D03*
%TO.P,U1,14,GND*%
%TO.N,GND*%
X125044200Y-104140000D03*
%TO.P,U1,15,13*%
%TO.N,unconnected-(U1-13-Pad15)*%
X125044200Y-106680000D03*
%TO.P,U1,16,D2*%
%TO.N,Net-(U1-D2)*%
X125044200Y-109220000D03*
%TO.P,U1,17,D3*%
%TO.N,Net-(U1-D3)*%
X125044200Y-111760000D03*
%TO.P,U1,18,CMD*%
%TO.N,unconnected-(U1-CMD-Pad18)*%
X125044200Y-114300000D03*
%TO.P,U1,19,5V*%
%TO.N,Net-(U1-5V)*%
X125044200Y-116840000D03*
%TO.P,U1,20,CLK*%
%TO.N,unconnected-(U1-CLK-Pad20)*%
X150440520Y-116837280D03*
%TO.P,U1,21,D0*%
%TO.N,unconnected-(U1-D0-Pad21)*%
X150440520Y-114297280D03*
%TO.P,U1,22,D1*%
%TO.N,unconnected-(U1-D1-Pad22)*%
X150444200Y-111760000D03*
%TO.P,U1,23,15*%
%TO.N,unconnected-(U1-15-Pad23)*%
X150444200Y-109220000D03*
%TO.P,U1,24,2*%
%TO.N,unconnected-(U1-2-Pad24)*%
X150444200Y-106680000D03*
%TO.P,U1,25,0*%
%TO.N,unconnected-(U1-0-Pad25)*%
X150444200Y-104140000D03*
%TO.P,U1,26,4*%
%TO.N,unconnected-(U1-4-Pad26)*%
X150444200Y-101600000D03*
%TO.P,U1,27,16*%
%TO.N,unconnected-(U1-16-Pad27)*%
X150444200Y-99060000D03*
%TO.P,U1,28,17*%
%TO.N,unconnected-(U1-17-Pad28)*%
X150444200Y-96520000D03*
%TO.P,U1,29,5*%
%TO.N,unconnected-(U1-5-Pad29)*%
X150444200Y-93980000D03*
%TO.P,U1,30,18*%
%TO.N,unconnected-(U1-18-Pad30)*%
X150444200Y-91440000D03*
%TO.P,U1,31,19*%
%TO.N,unconnected-(U1-19-Pad31)*%
X150444200Y-88900000D03*
%TO.P,U1,32,GND*%
%TO.N,GND*%
X150444200Y-86360000D03*
%TO.P,U1,33,21*%
%TO.N,unconnected-(U1-21-Pad33)*%
X150444200Y-83820000D03*
%TO.P,U1,34,RX*%
%TO.N,unconnected-(U1-RX-Pad34)*%
X150444200Y-81280000D03*
%TO.P,U1,35,TX*%
%TO.N,unconnected-(U1-TX-Pad35)*%
X150444200Y-78740000D03*
%TO.P,U1,36,22*%
%TO.N,unconnected-(U1-22-Pad36)*%
X150444200Y-76200000D03*
%TO.P,U1,37,23*%
%TO.N,unconnected-(U1-23-Pad37)*%
X150444200Y-73660000D03*
%TO.P,U1,38,GND*%
%TO.N,GND*%
X150444200Y-71120000D03*
%TD*%
D16*
%TO.P,C1,1*%
%TO.N,+6V*%
X94260000Y-87000000D03*
%TO.P,C1,2*%
%TO.N,GND*%
X94260000Y-85000000D03*
%TD*%
D19*
%TO.N,GND*%
X101600000Y-91440000D03*
%TO.N,Net-(U1-5V)*%
X114500000Y-90500000D03*
X119000000Y-114000000D03*
%TO.N,Net-(J2-Pin_2)*%
X110000000Y-119000000D03*
X156000000Y-111500000D03*
%TO.N,Net-(U1-D2)*%
X108600000Y-75350000D03*
X122000000Y-108350000D03*
%TO.N,Net-(U1-D3)*%
X105800000Y-81300000D03*
X120800000Y-110850000D03*
%TD*%
D20*
%TO.N,Net-(J1-Pin_2)*%
X90200000Y-106500000D02*
X83900000Y-106500000D01*
X91260000Y-107560000D02*
X90200000Y-106500000D01*
X91300000Y-107520000D02*
X91260000Y-107560000D01*
X99170000Y-107520000D02*
X91300000Y-107520000D01*
%TO.N,Net-(J1-Pin_1)*%
X88664164Y-101500000D02*
X83900000Y-101500000D01*
X92184164Y-105020000D02*
X88664164Y-101500000D01*
X99170000Y-104980000D02*
X92224164Y-104980000D01*
X92224164Y-104980000D02*
X92184164Y-105020000D01*
%TO.N,+6V*%
X94260000Y-87000000D02*
X87500000Y-87000000D01*
X97860000Y-97360000D02*
X99170000Y-97360000D01*
X94260000Y-87000000D02*
X101740000Y-87000000D01*
X86000000Y-85500000D02*
X97860000Y-97360000D01*
X86000000Y-85500000D02*
X84720000Y-85500000D01*
X87500000Y-87000000D02*
X86000000Y-85500000D01*
D21*
%TO.N,Net-(U1-5V)*%
X106820000Y-87000000D02*
X114000000Y-87000000D01*
X119000000Y-114000000D02*
X121840000Y-116840000D01*
X114000000Y-90000000D02*
X114500000Y-90500000D01*
X114000000Y-87360000D02*
X114000000Y-90000000D01*
X121840000Y-116840000D02*
X125044200Y-116840000D01*
D20*
%TO.N,Net-(J2-Pin_1)*%
X115000000Y-120000000D02*
X105060000Y-110060000D01*
X105060000Y-110060000D02*
X99170000Y-110060000D01*
X152000000Y-120000000D02*
X115000000Y-120000000D01*
X152000000Y-120000000D02*
X160020000Y-111980000D01*
X160020000Y-111980000D02*
X160020000Y-106600000D01*
%TO.N,Net-(J2-Pin_2)*%
X156000000Y-111500000D02*
X156000000Y-105620000D01*
X103600000Y-112600000D02*
X99170000Y-112600000D01*
X156000000Y-105620000D02*
X160020000Y-101600000D01*
X110000000Y-119000000D02*
X103600000Y-112600000D01*
D21*
%TO.N,Net-(U1-3V3)*%
X107020000Y-99900000D02*
X99170000Y-99900000D01*
X122000000Y-72120000D02*
X122000000Y-85000000D01*
X123000000Y-71120000D02*
X122000000Y-72120000D01*
X107060000Y-99940000D02*
X107020000Y-99900000D01*
X125044200Y-71120000D02*
X123000000Y-71120000D01*
X104000000Y-82500000D02*
X122000000Y-82500000D01*
X100100000Y-78600000D02*
X104000000Y-82500000D01*
X122000000Y-85000000D02*
X107060000Y-99940000D01*
%TO.N,Net-(U1-32)*%
X116620000Y-97380000D02*
X117000000Y-97000000D01*
X114300000Y-97380000D02*
X116620000Y-97380000D01*
X117000000Y-92000000D02*
X122640000Y-86360000D01*
X122640000Y-86360000D02*
X125044200Y-86360000D01*
X117000000Y-97000000D02*
X117000000Y-92000000D01*
%TO.N,Net-(U1-33)*%
X125044200Y-88900000D02*
X123100000Y-88900000D01*
X117080000Y-99920000D02*
X114300000Y-99920000D01*
X118000000Y-99000000D02*
X117080000Y-99920000D01*
X123100000Y-88900000D02*
X118000000Y-94000000D01*
X118000000Y-94000000D02*
X118000000Y-99000000D01*
%TO.N,Net-(U1-25)*%
X117540000Y-102460000D02*
X119000000Y-101000000D01*
X119000000Y-101000000D02*
X119000000Y-97000000D01*
X119000000Y-96000000D02*
X119000000Y-97000000D01*
X125044200Y-91440000D02*
X123560000Y-91440000D01*
X114300000Y-102460000D02*
X117540000Y-102460000D01*
X123560000Y-91440000D02*
X119000000Y-96000000D01*
%TO.N,Net-(U1-26)*%
X124020000Y-93980000D02*
X125044200Y-93980000D01*
X114300000Y-105000000D02*
X118000000Y-105000000D01*
X118000000Y-105000000D02*
X120000000Y-103000000D01*
X120000000Y-98000000D02*
X124020000Y-93980000D01*
X120000000Y-103000000D02*
X120000000Y-98000000D01*
%TO.N,Net-(U1-27)*%
X123480000Y-96520000D02*
X121000000Y-99000000D01*
X125044200Y-96520000D02*
X123480000Y-96520000D01*
X121000000Y-104000000D02*
X117460000Y-107540000D01*
X121000000Y-99000000D02*
X121000000Y-104000000D01*
X117460000Y-107540000D02*
X114300000Y-107540000D01*
%TO.N,Net-(U1-14)*%
X114300000Y-110080000D02*
X117920000Y-110080000D01*
X122000000Y-106000000D02*
X122000000Y-101000000D01*
X122000000Y-101000000D02*
X123940000Y-99060000D01*
X117920000Y-110080000D02*
X122000000Y-106000000D01*
X123940000Y-99060000D02*
X125044200Y-99060000D01*
%TO.N,Net-(U1-12)*%
X123400000Y-101600000D02*
X123000000Y-102000000D01*
X123000000Y-102000000D02*
X123000000Y-106000000D01*
X116380000Y-112620000D02*
X114300000Y-112620000D01*
X123000000Y-106000000D02*
X116380000Y-112620000D01*
X125044200Y-101600000D02*
X123400000Y-101600000D01*
%TO.N,Net-(U1-D2)*%
X125044200Y-109220000D02*
X122870000Y-109220000D01*
X108600000Y-75350000D02*
X107690000Y-76260000D01*
X107690000Y-76260000D02*
X107690000Y-78740000D01*
X122870000Y-109220000D02*
X122000000Y-108350000D01*
%TO.N,Net-(U1-D3)*%
X121710000Y-111760000D02*
X120800000Y-110850000D01*
X125044200Y-111760000D02*
X121710000Y-111760000D01*
X105800000Y-81300000D02*
X105150000Y-80650000D01*
X105150000Y-80650000D02*
X105150000Y-78740000D01*
%TD*%
%TA.AperFunction,Conductor*%
%TO.N,GND*%
G36*
X104530000Y-88478365D02*
G01*
X104637792Y-88460379D01*
X104865454Y-88382221D01*
X104865468Y-88382215D01*
X105077159Y-88267655D01*
X105077168Y-88267649D01*
X105267116Y-88119806D01*
X105267126Y-88119797D01*
X105430154Y-87942702D01*
X105430155Y-87942701D01*
X105445891Y-87918616D01*
X105499036Y-87873258D01*
X105568267Y-87863833D01*
X105631604Y-87893333D01*
X105653510Y-87918614D01*
X105669446Y-87943007D01*
X105669448Y-87943009D01*
X105669449Y-87943010D01*
X105832537Y-88120171D01*
X105953331Y-88214188D01*
X106022017Y-88267649D01*
X106022561Y-88268072D01*
X106168871Y-88347251D01*
X106233478Y-88382215D01*
X106234336Y-88382679D01*
X106331397Y-88416000D01*
X106462083Y-88460865D01*
X106462085Y-88460865D01*
X106462087Y-88460866D01*
X106699601Y-88500500D01*
X106699602Y-88500500D01*
X106940398Y-88500500D01*
X106940399Y-88500500D01*
X107177913Y-88460866D01*
X107405664Y-88382679D01*
X107617439Y-88268072D01*
X107807463Y-88120171D01*
X107970551Y-87943010D01*
X108102255Y-87741422D01*
X108120560Y-87699691D01*
X108165515Y-87646205D01*
X108232251Y-87625514D01*
X108234116Y-87625500D01*
X112785812Y-87625500D01*
X112852851Y-87645185D01*
X112887387Y-87678377D01*
X112999954Y-87839141D01*
X113160858Y-88000045D01*
X113321623Y-88112613D01*
X113365248Y-88167189D01*
X113374500Y-88214188D01*
X113374500Y-89917255D01*
X113372775Y-89932872D01*
X113373061Y-89932899D01*
X113372326Y-89940665D01*
X113374500Y-90009814D01*
X113374500Y-90039343D01*
X113374501Y-90039360D01*
X113375368Y-90046231D01*
X113375826Y-90052050D01*
X113377290Y-90098624D01*
X113377291Y-90098627D01*
X113382880Y-90117867D01*
X113386824Y-90136911D01*
X113389336Y-90156792D01*
X113406490Y-90200119D01*
X113408382Y-90205647D01*
X113421381Y-90250388D01*
X113431580Y-90267634D01*
X113440138Y-90285103D01*
X113447514Y-90303732D01*
X113474898Y-90341423D01*
X113478106Y-90346307D01*
X113501827Y-90386416D01*
X113501833Y-90386424D01*
X113515990Y-90400580D01*
X113528628Y-90415376D01*
X113540405Y-90431586D01*
X113540406Y-90431587D01*
X113552828Y-90441863D01*
X113591936Y-90499763D01*
X113597109Y-90524445D01*
X113614326Y-90688256D01*
X113614327Y-90688259D01*
X113672818Y-90868277D01*
X113672821Y-90868284D01*
X113767467Y-91032216D01*
X113894129Y-91172888D01*
X114047265Y-91284148D01*
X114047270Y-91284151D01*
X114220192Y-91361142D01*
X114220197Y-91361144D01*
X114405354Y-91400500D01*
X114405355Y-91400500D01*
X114415547Y-91400500D01*
X114482586Y-91420185D01*
X114528341Y-91472989D01*
X114538285Y-91542147D01*
X114509260Y-91605703D01*
X114503228Y-91612181D01*
X106877228Y-99238181D01*
X106815905Y-99271666D01*
X106789547Y-99274500D01*
X100563487Y-99274500D01*
X100496448Y-99254815D01*
X100462480Y-99222427D01*
X100413061Y-99153027D01*
X100413050Y-99153015D01*
X100256114Y-99003378D01*
X100195302Y-98964297D01*
X100073683Y-98886137D01*
X100073680Y-98886136D01*
X100073679Y-98886135D01*
X100073678Y-98886134D01*
X99872375Y-98805544D01*
X99872363Y-98805540D01*
X99872362Y-98805540D01*
X99872360Y-98805539D01*
X99872358Y-98805539D01*
X99653627Y-98763382D01*
X99654130Y-98760772D01*
X99599801Y-98738885D01*
X99559396Y-98681884D01*
X99556223Y-98612086D01*
X99591289Y-98551653D01*
X99622858Y-98529863D01*
X99696298Y-98494497D01*
X99738311Y-98482778D01*
X99766872Y-98480052D01*
X99974942Y-98418957D01*
X100167690Y-98319588D01*
X100338149Y-98185538D01*
X100480158Y-98021651D01*
X100588585Y-97833849D01*
X100659511Y-97628922D01*
X100690373Y-97414275D01*
X100680055Y-97197666D01*
X100628929Y-96986925D01*
X100538845Y-96789668D01*
X100413057Y-96613023D01*
X100413055Y-96613021D01*
X100413050Y-96613015D01*
X100256114Y-96463378D01*
X100195302Y-96424297D01*
X100073683Y-96346137D01*
X100073680Y-96346136D01*
X100073679Y-96346135D01*
X100073678Y-96346134D01*
X99872370Y-96265542D01*
X99872363Y-96265540D01*
X99751938Y-96242329D01*
X99720242Y-96230239D01*
X99719780Y-96231201D01*
X99714766Y-96228786D01*
X99714764Y-96228785D01*
X99714760Y-96228783D01*
X99714755Y-96228781D01*
X99504025Y-96149692D01*
X99282550Y-96109500D01*
X99282547Y-96109500D01*
X98429336Y-96109500D01*
X98362297Y-96089815D01*
X98341655Y-96073181D01*
X90730655Y-88462181D01*
X90697170Y-88400858D01*
X90702154Y-88331166D01*
X90744026Y-88275233D01*
X90809490Y-88250816D01*
X90818336Y-88250500D01*
X93885857Y-88250500D01*
X93917949Y-88254724D01*
X94033308Y-88285635D01*
X94195230Y-88299801D01*
X94259998Y-88305468D01*
X94260000Y-88305468D01*
X94260002Y-88305468D01*
X94316673Y-88300509D01*
X94486692Y-88285635D01*
X94602050Y-88254724D01*
X94634143Y-88250500D01*
X100287749Y-88250500D01*
X100354788Y-88270185D01*
X100387015Y-88300188D01*
X100422244Y-88347247D01*
X100429954Y-88357546D01*
X100429957Y-88357548D01*
X100545164Y-88443793D01*
X100545171Y-88443797D01*
X100680017Y-88494091D01*
X100680016Y-88494091D01*
X100686944Y-88494835D01*
X100739627Y-88500500D01*
X102740372Y-88500499D01*
X102799983Y-88494091D01*
X102934831Y-88443796D01*
X103050046Y-88357546D01*
X103136296Y-88242331D01*
X103136296Y-88242329D01*
X103136298Y-88242327D01*
X103142308Y-88226209D01*
X103147907Y-88211197D01*
X103189776Y-88155264D01*
X103255240Y-88130844D01*
X103323513Y-88145694D01*
X103340252Y-88156675D01*
X103482831Y-88267649D01*
X103482840Y-88267655D01*
X103694531Y-88382215D01*
X103694545Y-88382221D01*
X103922207Y-88460379D01*
X104030000Y-88478366D01*
X104030000Y-87491683D01*
X104058819Y-87509209D01*
X104204404Y-87550000D01*
X104317622Y-87550000D01*
X104429783Y-87534584D01*
X104530000Y-87491053D01*
X104530000Y-88478365D01*
G37*
%TD.AperFunction*%
%TA.AperFunction,Conductor*%
G36*
X128443039Y-60980185D02*
G01*
X128488794Y-61032989D01*
X128500000Y-61084500D01*
X128500000Y-70000000D01*
X147000000Y-70000000D01*
X147000000Y-66107763D01*
X160705787Y-66107763D01*
X160735413Y-66377013D01*
X160735415Y-66377024D01*
X160803926Y-66639082D01*
X160803928Y-66639088D01*
X160909870Y-66888390D01*
X160981998Y-67006575D01*
X161050979Y-67119605D01*
X161050986Y-67119615D01*
X161224253Y-67327819D01*
X161224259Y-67327824D01*
X161425998Y-67508582D01*
X161651910Y-67658044D01*
X161897176Y-67773020D01*
X161897183Y-67773022D01*
X161897185Y-67773023D01*
X162156557Y-67851057D01*
X162156564Y-67851058D01*
X162156569Y-67851060D01*
X162424561Y-67890500D01*
X162424566Y-67890500D01*
X162627636Y-67890500D01*
X162679133Y-67886730D01*
X162830156Y-67875677D01*
X162942758Y-67850593D01*
X163094546Y-67816782D01*
X163094548Y-67816781D01*
X163094553Y-67816780D01*
X163347558Y-67720014D01*
X163583777Y-67587441D01*
X163798177Y-67421888D01*
X163986186Y-67226881D01*
X164143799Y-67006579D01*
X164217787Y-66862669D01*
X164267649Y-66765690D01*
X164267651Y-66765684D01*
X164267656Y-66765675D01*
X164355118Y-66509305D01*
X164404319Y-66242933D01*
X164414212Y-65972235D01*
X164384586Y-65702982D01*
X164316072Y-65440912D01*
X164210130Y-65191610D01*
X164069018Y-64960390D01*
X163979747Y-64853119D01*
X163895746Y-64752180D01*
X163895740Y-64752175D01*
X163694002Y-64571418D01*
X163468092Y-64421957D01*
X163401391Y-64390689D01*
X163222824Y-64306980D01*
X163222819Y-64306978D01*
X163222814Y-64306976D01*
X162963442Y-64228942D01*
X162963428Y-64228939D01*
X162847791Y-64211921D01*
X162695439Y-64189500D01*
X162492369Y-64189500D01*
X162492364Y-64189500D01*
X162289844Y-64204323D01*
X162289831Y-64204325D01*
X162025453Y-64263217D01*
X162025446Y-64263220D01*
X161772439Y-64359987D01*
X161536226Y-64492557D01*
X161321822Y-64658112D01*
X161133822Y-64853109D01*
X161133816Y-64853116D01*
X160976202Y-65073419D01*
X160976199Y-65073424D01*
X160852350Y-65314309D01*
X160852343Y-65314327D01*
X160764884Y-65570685D01*
X160764881Y-65570699D01*
X160715681Y-65837068D01*
X160715680Y-65837075D01*
X160705787Y-66107763D01*
X147000000Y-66107763D01*
X147000000Y-61084500D01*
X147019685Y-61017461D01*
X147072489Y-60971706D01*
X147124000Y-60960500D01*
X162559500Y-60960500D01*
X162560000Y-60960500D01*
X162777525Y-60969496D01*
X162982732Y-60978456D01*
X162987654Y-60978870D01*
X163205755Y-61006056D01*
X163410849Y-61033058D01*
X163415420Y-61033837D01*
X163630399Y-61078913D01*
X163832714Y-61123766D01*
X163836969Y-61124869D01*
X163955715Y-61160222D01*
X164047449Y-61187533D01*
X164100220Y-61204171D01*
X164245378Y-61249939D01*
X164249180Y-61251277D01*
X164453265Y-61330912D01*
X164453908Y-61331163D01*
X164645763Y-61410632D01*
X164649234Y-61412196D01*
X164846710Y-61508737D01*
X164846733Y-61508748D01*
X165031061Y-61604704D01*
X165034169Y-61606437D01*
X165156039Y-61679054D01*
X165223108Y-61719019D01*
X165398522Y-61830771D01*
X165401212Y-61832586D01*
X165580304Y-61960456D01*
X165745405Y-62087142D01*
X165747733Y-62089019D01*
X165915753Y-62231323D01*
X166070324Y-62372962D01*
X166227037Y-62529675D01*
X166368676Y-62684246D01*
X166510979Y-62852265D01*
X166512856Y-62854593D01*
X166639543Y-63019695D01*
X166767412Y-63198786D01*
X166769244Y-63201501D01*
X166880986Y-63376901D01*
X166993561Y-63565829D01*
X166995294Y-63568937D01*
X167091251Y-63753266D01*
X167187786Y-63950731D01*
X167189366Y-63954235D01*
X167268836Y-64146091D01*
X167300362Y-64226886D01*
X167348708Y-64350785D01*
X167350072Y-64354657D01*
X167412466Y-64552549D01*
X167475124Y-64763014D01*
X167476232Y-64767286D01*
X167521099Y-64969663D01*
X167566157Y-65184559D01*
X167566946Y-65189191D01*
X167593952Y-65394318D01*
X167621126Y-65612322D01*
X167621543Y-65617288D01*
X167630512Y-65822701D01*
X167639500Y-66040000D01*
X167639500Y-116840000D01*
X167630512Y-117057298D01*
X167621543Y-117262710D01*
X167621126Y-117267676D01*
X167593952Y-117485681D01*
X167566946Y-117690807D01*
X167566157Y-117695439D01*
X167521099Y-117910336D01*
X167476232Y-118112712D01*
X167475124Y-118116984D01*
X167412466Y-118327450D01*
X167350072Y-118525341D01*
X167348700Y-118529236D01*
X167268836Y-118733908D01*
X167189366Y-118925763D01*
X167187786Y-118929267D01*
X167091251Y-119126733D01*
X166995294Y-119311061D01*
X166993561Y-119314169D01*
X166880986Y-119503098D01*
X166769244Y-119678497D01*
X166767412Y-119681212D01*
X166639543Y-119860304D01*
X166512856Y-120025405D01*
X166510979Y-120027733D01*
X166368676Y-120195753D01*
X166227037Y-120350324D01*
X166070324Y-120507037D01*
X165915753Y-120648676D01*
X165747733Y-120790979D01*
X165745405Y-120792856D01*
X165580304Y-120919543D01*
X165401212Y-121047412D01*
X165398497Y-121049244D01*
X165223098Y-121160986D01*
X165034169Y-121273561D01*
X165031061Y-121275294D01*
X164846733Y-121371251D01*
X164649267Y-121467786D01*
X164645763Y-121469366D01*
X164453908Y-121548836D01*
X164249236Y-121628700D01*
X164245341Y-121630072D01*
X164047450Y-121692466D01*
X163836984Y-121755124D01*
X163832712Y-121756232D01*
X163630336Y-121801099D01*
X163415439Y-121846157D01*
X163410807Y-121846946D01*
X163205681Y-121873952D01*
X162987676Y-121901126D01*
X162982710Y-121901543D01*
X162777298Y-121910512D01*
X162560000Y-121919500D01*
X81280000Y-121919500D01*
X81062701Y-121910512D01*
X80857288Y-121901543D01*
X80852322Y-121901126D01*
X80634318Y-121873952D01*
X80429191Y-121846946D01*
X80424559Y-121846157D01*
X80209663Y-121801099D01*
X80007286Y-121756232D01*
X80003014Y-121755124D01*
X79792549Y-121692466D01*
X79594657Y-121630072D01*
X79590785Y-121628708D01*
X79458255Y-121576995D01*
X79386091Y-121548836D01*
X79194235Y-121469366D01*
X79190731Y-121467786D01*
X78993266Y-121371251D01*
X78808937Y-121275294D01*
X78805829Y-121273561D01*
X78616901Y-121160986D01*
X78441501Y-121049244D01*
X78438786Y-121047412D01*
X78259695Y-120919543D01*
X78094593Y-120792856D01*
X78092265Y-120790979D01*
X77924246Y-120648676D01*
X77769675Y-120507037D01*
X77612962Y-120350324D01*
X77523515Y-120252710D01*
X77471319Y-120195748D01*
X77329019Y-120027733D01*
X77327142Y-120025405D01*
X77200456Y-119860304D01*
X77072586Y-119681212D01*
X77070771Y-119678522D01*
X76959013Y-119503098D01*
X76919054Y-119436039D01*
X76846437Y-119314169D01*
X76844704Y-119311061D01*
X76748748Y-119126733D01*
X76652196Y-118929234D01*
X76650632Y-118925763D01*
X76571163Y-118733908D01*
X76554225Y-118690500D01*
X76491277Y-118529180D01*
X76489939Y-118525378D01*
X76427533Y-118327449D01*
X76388203Y-118195345D01*
X76364869Y-118116969D01*
X76363766Y-118112712D01*
X76344738Y-118026883D01*
X76318913Y-117910399D01*
X76273837Y-117695420D01*
X76273058Y-117690849D01*
X76246047Y-117485681D01*
X76218870Y-117267654D01*
X76218456Y-117262732D01*
X76209487Y-117057298D01*
X76203303Y-116907763D01*
X79425787Y-116907763D01*
X79455413Y-117177013D01*
X79455415Y-117177024D01*
X79523507Y-117437479D01*
X79523928Y-117439088D01*
X79629870Y-117688390D01*
X79736797Y-117863596D01*
X79770979Y-117919605D01*
X79770986Y-117919615D01*
X79944253Y-118127819D01*
X79944259Y-118127824D01*
X80049240Y-118221887D01*
X80145998Y-118308582D01*
X80371910Y-118458044D01*
X80617176Y-118573020D01*
X80617183Y-118573022D01*
X80617185Y-118573023D01*
X80876557Y-118651057D01*
X80876564Y-118651058D01*
X80876569Y-118651060D01*
X81144561Y-118690500D01*
X81144566Y-118690500D01*
X81347636Y-118690500D01*
X81399133Y-118686730D01*
X81550156Y-118675677D01*
X81662758Y-118650593D01*
X81814546Y-118616782D01*
X81814548Y-118616781D01*
X81814553Y-118616780D01*
X82067558Y-118520014D01*
X82303777Y-118387441D01*
X82518177Y-118221888D01*
X82706186Y-118026881D01*
X82863799Y-117806579D01*
X82950795Y-117637370D01*
X82987649Y-117565690D01*
X82987651Y-117565684D01*
X82987656Y-117565675D01*
X83075118Y-117309305D01*
X83124319Y-117042933D01*
X83134212Y-116772235D01*
X83104586Y-116502982D01*
X83036072Y-116240912D01*
X82930130Y-115991610D01*
X82789018Y-115760390D01*
X82769370Y-115736780D01*
X82615746Y-115552180D01*
X82615740Y-115552175D01*
X82414002Y-115371418D01*
X82188092Y-115221957D01*
X82188090Y-115221956D01*
X81942824Y-115106980D01*
X81942819Y-115106978D01*
X81942814Y-115106976D01*
X81683442Y-115028942D01*
X81683428Y-115028939D01*
X81567791Y-115011921D01*
X81415439Y-114989500D01*
X81212369Y-114989500D01*
X81212364Y-114989500D01*
X81009844Y-115004323D01*
X81009831Y-115004325D01*
X80745453Y-115063217D01*
X80745446Y-115063220D01*
X80492439Y-115159987D01*
X80256226Y-115292557D01*
X80256224Y-115292558D01*
X80256223Y-115292559D01*
X80212506Y-115326316D01*
X80041822Y-115458112D01*
X79853822Y-115653109D01*
X79853816Y-115653116D01*
X79696202Y-115873419D01*
X79696199Y-115873424D01*
X79572350Y-116114309D01*
X79572343Y-116114327D01*
X79484884Y-116370685D01*
X79484881Y-116370699D01*
X79465486Y-116475704D01*
X79446842Y-116576645D01*
X79435681Y-116637068D01*
X79435680Y-116637075D01*
X79425787Y-116907763D01*
X76203303Y-116907763D01*
X76200500Y-116840000D01*
X76200500Y-116839500D01*
X76200500Y-106500004D01*
X82094451Y-106500004D01*
X82114616Y-106769101D01*
X82155830Y-106949669D01*
X82174666Y-107032195D01*
X82273257Y-107283398D01*
X82408185Y-107517102D01*
X82482278Y-107610011D01*
X82576442Y-107728089D01*
X82754252Y-107893071D01*
X82774259Y-107911635D01*
X82997226Y-108063651D01*
X83240359Y-108180738D01*
X83498228Y-108260280D01*
X83498229Y-108260280D01*
X83498232Y-108260281D01*
X83765063Y-108300499D01*
X83765068Y-108300499D01*
X83765071Y-108300500D01*
X83765072Y-108300500D01*
X84034928Y-108300500D01*
X84034929Y-108300500D01*
X84034936Y-108300499D01*
X84301767Y-108260281D01*
X84301768Y-108260280D01*
X84301772Y-108260280D01*
X84559641Y-108180738D01*
X84751765Y-108088216D01*
X84802767Y-108063655D01*
X84802767Y-108063654D01*
X84802775Y-108063651D01*
X85025741Y-107911635D01*
X85157994Y-107788922D01*
X85163728Y-107783602D01*
X85226260Y-107752433D01*
X85248069Y-107750500D01*
X89630664Y-107750500D01*
X89697703Y-107770185D01*
X89718345Y-107786819D01*
X90354928Y-108423402D01*
X90356851Y-108425413D01*
X90412906Y-108486740D01*
X90412911Y-108486745D01*
X90412914Y-108486748D01*
X90479043Y-108537098D01*
X90481170Y-108538794D01*
X90544981Y-108592068D01*
X90565905Y-108603941D01*
X90572858Y-108608530D01*
X90592005Y-108623108D01*
X90625256Y-108640050D01*
X90666052Y-108660837D01*
X90668474Y-108662139D01*
X90740755Y-108703153D01*
X90756468Y-108708651D01*
X90763451Y-108711095D01*
X90771129Y-108714377D01*
X90792563Y-108725298D01*
X90792565Y-108725299D01*
X90872160Y-108749199D01*
X90874765Y-108750045D01*
X90953217Y-108777498D01*
X90976975Y-108781260D01*
X90985104Y-108783115D01*
X91008149Y-108790036D01*
X91090761Y-108799343D01*
X91093451Y-108799708D01*
X91175540Y-108812710D01*
X91199596Y-108812169D01*
X91207912Y-108812543D01*
X91231827Y-108815238D01*
X91314778Y-108809644D01*
X91317465Y-108809523D01*
X91400578Y-108807659D01*
X91424153Y-108802831D01*
X91432397Y-108801714D01*
X91456412Y-108800096D01*
X91536972Y-108779796D01*
X91539678Y-108779177D01*
X91550770Y-108776906D01*
X91569756Y-108773020D01*
X91594627Y-108770500D01*
X98301115Y-108770500D01*
X98368154Y-108790185D01*
X98413909Y-108842989D01*
X98423853Y-108912147D01*
X98394828Y-108975703D01*
X98357938Y-109004713D01*
X98245519Y-109062670D01*
X98172309Y-109100412D01*
X98001848Y-109234464D01*
X97859846Y-109398344D01*
X97859837Y-109398355D01*
X97751416Y-109586148D01*
X97680489Y-109791076D01*
X97680489Y-109791078D01*
X97652053Y-109988857D01*
X97649627Y-110005727D01*
X97659944Y-110222331D01*
X97711070Y-110433071D01*
X97711070Y-110433073D01*
X97733285Y-110481716D01*
X97801155Y-110630332D01*
X97905872Y-110777387D01*
X97926944Y-110806978D01*
X97926949Y-110806984D01*
X98083885Y-110956621D01*
X98083887Y-110956622D01*
X98083888Y-110956623D01*
X98266317Y-111073863D01*
X98467638Y-111154460D01*
X98588059Y-111177669D01*
X98619754Y-111189761D01*
X98620219Y-111188798D01*
X98625228Y-111191210D01*
X98625236Y-111191215D01*
X98684100Y-111213307D01*
X98739948Y-111255293D01*
X98764231Y-111320807D01*
X98749239Y-111389050D01*
X98699733Y-111438354D01*
X98694330Y-111441121D01*
X98643699Y-111465503D01*
X98601687Y-111477220D01*
X98573138Y-111479946D01*
X98573129Y-111479947D01*
X98573128Y-111479948D01*
X98573126Y-111479948D01*
X98573124Y-111479949D01*
X98365061Y-111541041D01*
X98172309Y-111640412D01*
X98001848Y-111774464D01*
X97859846Y-111938344D01*
X97859837Y-111938355D01*
X97751416Y-112126148D01*
X97680489Y-112331076D01*
X97672664Y-112385499D01*
X97658510Y-112483947D01*
X97649627Y-112545727D01*
X97659944Y-112762331D01*
X97711070Y-112973071D01*
X97711070Y-112973073D01*
X97741345Y-113039365D01*
X97801155Y-113170332D01*
X97926943Y-113346977D01*
X97926944Y-113346978D01*
X97926949Y-113346984D01*
X98083885Y-113496621D01*
X98083887Y-113496622D01*
X98083888Y-113496623D01*
X98266317Y-113613863D01*
X98467638Y-113694460D01*
X98588059Y-113717669D01*
X98619754Y-113729761D01*
X98620219Y-113728798D01*
X98625224Y-113731207D01*
X98625236Y-113731215D01*
X98726687Y-113769290D01*
X98782535Y-113811275D01*
X98806819Y-113876789D01*
X98791828Y-113945032D01*
X98742322Y-113994336D01*
X98694904Y-114008821D01*
X98573233Y-114020439D01*
X98573219Y-114020442D01*
X98365246Y-114081508D01*
X98172580Y-114180834D01*
X98002195Y-114314826D01*
X97860246Y-114478647D01*
X97751874Y-114666353D01*
X97751868Y-114666366D01*
X97680976Y-114871194D01*
X97678272Y-114890000D01*
X98882283Y-114890000D01*
X98846629Y-114928731D01*
X98795552Y-115045177D01*
X98785051Y-115171898D01*
X98816266Y-115295162D01*
X98878227Y-115390000D01*
X97681727Y-115390000D01*
X97711545Y-115512913D01*
X97711547Y-115512917D01*
X97801584Y-115710071D01*
X97801591Y-115710083D01*
X97927321Y-115886647D01*
X97927324Y-115886650D01*
X98084195Y-116036226D01*
X98084197Y-116036227D01*
X98266546Y-116153416D01*
X98467780Y-116233978D01*
X98680620Y-116275000D01*
X98920000Y-116275000D01*
X98920000Y-115428220D01*
X98986157Y-115479713D01*
X99106422Y-115521000D01*
X99201569Y-115521000D01*
X99295421Y-115505339D01*
X99407251Y-115444820D01*
X99420000Y-115430970D01*
X99420000Y-116275000D01*
X99605063Y-116275000D01*
X99766776Y-116259558D01*
X99766780Y-116259557D01*
X99974753Y-116198491D01*
X100167419Y-116099165D01*
X100337804Y-115965173D01*
X100479753Y-115801352D01*
X100588125Y-115613646D01*
X100588131Y-115613633D01*
X100659023Y-115408805D01*
X100661728Y-115390000D01*
X99457717Y-115390000D01*
X99493371Y-115351269D01*
X99544448Y-115234823D01*
X99554949Y-115108102D01*
X99523734Y-114984838D01*
X99461773Y-114890000D01*
X100658273Y-114890000D01*
X100628454Y-114767086D01*
X100628452Y-114767082D01*
X100538415Y-114569928D01*
X100538408Y-114569916D01*
X100412678Y-114393352D01*
X100412675Y-114393349D01*
X100255804Y-114243773D01*
X100255802Y-114243772D01*
X100073453Y-114126583D01*
X99981117Y-114089618D01*
X99926196Y-114046427D01*
X99903343Y-113980400D01*
X99919816Y-113912500D01*
X99970383Y-113864285D01*
X100027203Y-113850500D01*
X103030664Y-113850500D01*
X103097703Y-113870185D01*
X103118345Y-113886819D01*
X109155473Y-119923947D01*
X109155482Y-119923955D01*
X109284981Y-120032068D01*
X109382868Y-120087611D01*
X109480755Y-120143154D01*
X109693218Y-120217498D01*
X109915540Y-120252711D01*
X110140578Y-120247660D01*
X110361096Y-120202508D01*
X110570010Y-120118707D01*
X110760602Y-119998950D01*
X110926748Y-119847086D01*
X111063108Y-119667995D01*
X111165299Y-119467435D01*
X111230036Y-119251851D01*
X111255238Y-119028173D01*
X111240096Y-118803588D01*
X111185096Y-118585317D01*
X111092007Y-118380374D01*
X110963820Y-118195346D01*
X104536356Y-111767882D01*
X104531719Y-111762693D01*
X104507507Y-111732332D01*
X104456031Y-111687359D01*
X104452997Y-111684523D01*
X104444529Y-111676055D01*
X104412181Y-111649049D01*
X104370404Y-111612549D01*
X104338002Y-111584240D01*
X104337997Y-111584236D01*
X104337996Y-111584235D01*
X104334241Y-111581991D01*
X104318373Y-111570732D01*
X104315019Y-111567932D01*
X104315018Y-111567931D01*
X104315013Y-111567927D01*
X104269932Y-111542348D01*
X104221339Y-111492144D01*
X104207603Y-111423637D01*
X104233084Y-111358580D01*
X104289694Y-111317627D01*
X104331126Y-111310500D01*
X104490664Y-111310500D01*
X104557703Y-111330185D01*
X104578345Y-111346819D01*
X114063642Y-120832116D01*
X114068279Y-120837304D01*
X114092492Y-120867666D01*
X114143967Y-120912639D01*
X114147000Y-120915474D01*
X114155471Y-120923945D01*
X114155475Y-120923949D01*
X114155479Y-120923952D01*
X114184381Y-120948081D01*
X114187811Y-120950944D01*
X114262002Y-121015764D01*
X114265755Y-121018006D01*
X114281626Y-121029266D01*
X114284982Y-121032068D01*
X114365619Y-121077823D01*
X114370663Y-121080685D01*
X114455227Y-121131210D01*
X114455230Y-121131211D01*
X114455236Y-121131215D01*
X114459327Y-121132750D01*
X114476946Y-121140992D01*
X114480755Y-121143154D01*
X114573762Y-121175698D01*
X114665976Y-121210307D01*
X114670266Y-121211085D01*
X114689094Y-121216055D01*
X114693218Y-121217498D01*
X114790542Y-121232913D01*
X114804114Y-121235376D01*
X114887450Y-121250500D01*
X114887453Y-121250500D01*
X114891824Y-121250500D01*
X114911221Y-121252026D01*
X114915540Y-121252711D01*
X115014047Y-121250500D01*
X151926293Y-121250500D01*
X151933231Y-121250889D01*
X151971827Y-121255238D01*
X151971829Y-121255237D01*
X151971830Y-121255238D01*
X151989586Y-121254040D01*
X152040032Y-121250639D01*
X152044188Y-121250500D01*
X152056147Y-121250500D01*
X152056155Y-121250500D01*
X152098123Y-121246722D01*
X152196412Y-121240096D01*
X152200646Y-121239028D01*
X152219841Y-121235767D01*
X152224188Y-121235377D01*
X152319165Y-121209164D01*
X152414683Y-121185096D01*
X152418655Y-121183291D01*
X152436962Y-121176654D01*
X152441170Y-121175493D01*
X152529935Y-121132746D01*
X152619626Y-121092007D01*
X152623220Y-121089516D01*
X152640035Y-121079724D01*
X152643973Y-121077829D01*
X152723676Y-121019921D01*
X152804654Y-120963820D01*
X152807743Y-120960730D01*
X152822545Y-120948088D01*
X152826078Y-120945522D01*
X152894153Y-120874320D01*
X156860710Y-116907763D01*
X160705787Y-116907763D01*
X160735413Y-117177013D01*
X160735415Y-117177024D01*
X160803507Y-117437479D01*
X160803928Y-117439088D01*
X160909870Y-117688390D01*
X161016797Y-117863596D01*
X161050979Y-117919605D01*
X161050986Y-117919615D01*
X161224253Y-118127819D01*
X161224259Y-118127824D01*
X161329240Y-118221887D01*
X161425998Y-118308582D01*
X161651910Y-118458044D01*
X161897176Y-118573020D01*
X161897183Y-118573022D01*
X161897185Y-118573023D01*
X162156557Y-118651057D01*
X162156564Y-118651058D01*
X162156569Y-118651060D01*
X162424561Y-118690500D01*
X162424566Y-118690500D01*
X162627636Y-118690500D01*
X162679133Y-118686730D01*
X162830156Y-118675677D01*
X162942758Y-118650593D01*
X163094546Y-118616782D01*
X163094548Y-118616781D01*
X163094553Y-118616780D01*
X163347558Y-118520014D01*
X163583777Y-118387441D01*
X163798177Y-118221888D01*
X163986186Y-118026881D01*
X164143799Y-117806579D01*
X164230795Y-117637370D01*
X164267649Y-117565690D01*
X164267651Y-117565684D01*
X164267656Y-117565675D01*
X164355118Y-117309305D01*
X164404319Y-117042933D01*
X164414212Y-116772235D01*
X164384586Y-116502982D01*
X164316072Y-116240912D01*
X164210130Y-115991610D01*
X164069018Y-115760390D01*
X164049370Y-115736780D01*
X163895746Y-115552180D01*
X163895740Y-115552175D01*
X163694002Y-115371418D01*
X163468092Y-115221957D01*
X163468090Y-115221956D01*
X163222824Y-115106980D01*
X163222819Y-115106978D01*
X163222814Y-115106976D01*
X162963442Y-115028942D01*
X162963428Y-115028939D01*
X162847791Y-115011921D01*
X162695439Y-114989500D01*
X162492369Y-114989500D01*
X162492364Y-114989500D01*
X162289844Y-115004323D01*
X162289831Y-115004325D01*
X162025453Y-115063217D01*
X162025446Y-115063220D01*
X161772439Y-115159987D01*
X161536226Y-115292557D01*
X161536224Y-115292558D01*
X161536223Y-115292559D01*
X161492506Y-115326316D01*
X161321822Y-115458112D01*
X161133822Y-115653109D01*
X161133816Y-115653116D01*
X160976202Y-115873419D01*
X160976199Y-115873424D01*
X160852350Y-116114309D01*
X160852343Y-116114327D01*
X160764884Y-116370685D01*
X160764881Y-116370699D01*
X160745486Y-116475704D01*
X160726842Y-116576645D01*
X160715681Y-116637068D01*
X160715680Y-116637075D01*
X160705787Y-116907763D01*
X156860710Y-116907763D01*
X160852127Y-112916345D01*
X160857287Y-112911733D01*
X160887666Y-112887508D01*
X160932645Y-112836023D01*
X160935462Y-112833010D01*
X160943945Y-112824529D01*
X160970945Y-112792187D01*
X161035765Y-112717996D01*
X161038002Y-112714250D01*
X161049269Y-112698369D01*
X161052068Y-112695018D01*
X161100685Y-112609336D01*
X161151215Y-112524764D01*
X161152749Y-112520675D01*
X161160998Y-112503044D01*
X161163154Y-112499245D01*
X161195698Y-112406237D01*
X161230307Y-112314024D01*
X161231085Y-112309735D01*
X161236057Y-112290896D01*
X161237498Y-112286782D01*
X161252912Y-112189460D01*
X161261167Y-112143973D01*
X161270500Y-112092550D01*
X161270500Y-112088175D01*
X161272027Y-112068777D01*
X161272710Y-112064464D01*
X161272711Y-112064459D01*
X161270500Y-111965952D01*
X161270500Y-108522351D01*
X161290185Y-108455312D01*
X161342989Y-108409557D01*
X161381247Y-108399061D01*
X161427483Y-108394091D01*
X161562331Y-108343796D01*
X161677546Y-108257546D01*
X161763796Y-108142331D01*
X161814091Y-108007483D01*
X161820500Y-107947873D01*
X161820499Y-105252128D01*
X161814091Y-105192517D01*
X161796274Y-105144748D01*
X161763797Y-105057671D01*
X161763793Y-105057664D01*
X161677547Y-104942455D01*
X161677544Y-104942452D01*
X161562335Y-104856206D01*
X161562328Y-104856202D01*
X161427482Y-104805908D01*
X161427483Y-104805908D01*
X161367883Y-104799501D01*
X161367881Y-104799500D01*
X161367873Y-104799500D01*
X161367865Y-104799500D01*
X158888334Y-104799500D01*
X158821295Y-104779815D01*
X158775540Y-104727011D01*
X158765596Y-104657853D01*
X158794621Y-104594297D01*
X158800637Y-104587835D01*
X159951655Y-103436819D01*
X160012978Y-103403334D01*
X160039336Y-103400500D01*
X160154928Y-103400500D01*
X160154929Y-103400500D01*
X160160980Y-103399588D01*
X160421767Y-103360281D01*
X160421768Y-103360280D01*
X160421772Y-103360280D01*
X160679641Y-103280738D01*
X160922775Y-103163651D01*
X161145741Y-103011635D01*
X161307822Y-102861246D01*
X161343557Y-102828089D01*
X161343557Y-102828087D01*
X161343561Y-102828085D01*
X161511815Y-102617102D01*
X161646743Y-102383398D01*
X161745334Y-102132195D01*
X161805383Y-101869103D01*
X161816424Y-101721770D01*
X161825549Y-101600004D01*
X161825549Y-101599995D01*
X161805383Y-101330898D01*
X161805383Y-101330897D01*
X161745334Y-101067805D01*
X161646743Y-100816602D01*
X161511815Y-100582898D01*
X161343561Y-100371915D01*
X161343560Y-100371914D01*
X161343557Y-100371910D01*
X161145741Y-100188365D01*
X161129088Y-100177011D01*
X160922775Y-100036349D01*
X160922769Y-100036346D01*
X160922768Y-100036345D01*
X160922767Y-100036344D01*
X160679643Y-99919263D01*
X160679645Y-99919263D01*
X160421773Y-99839720D01*
X160421767Y-99839718D01*
X160154936Y-99799500D01*
X160154929Y-99799500D01*
X159885071Y-99799500D01*
X159885063Y-99799500D01*
X159618232Y-99839718D01*
X159618226Y-99839720D01*
X159360358Y-99919262D01*
X159117230Y-100036346D01*
X158894258Y-100188365D01*
X158696442Y-100371910D01*
X158528185Y-100582898D01*
X158393258Y-100816599D01*
X158393256Y-100816603D01*
X158294666Y-101067804D01*
X158294664Y-101067811D01*
X158234616Y-101330899D01*
X158214885Y-101594196D01*
X158190246Y-101659577D01*
X158178913Y-101672611D01*
X155167885Y-104683639D01*
X155162699Y-104688274D01*
X155132337Y-104712488D01*
X155132333Y-104712492D01*
X155087365Y-104763960D01*
X155084521Y-104767003D01*
X155076064Y-104775461D01*
X155076054Y-104775472D01*
X155049049Y-104807818D01*
X154984234Y-104882004D01*
X154984230Y-104882010D01*
X154981981Y-104885774D01*
X154970746Y-104901608D01*
X154967934Y-104904977D01*
X154967932Y-104904981D01*
X154919316Y-104990659D01*
X154893259Y-105034272D01*
X154868783Y-105075238D01*
X154867247Y-105079332D01*
X154859008Y-105096945D01*
X154856850Y-105100747D01*
X154856846Y-105100757D01*
X154824307Y-105193746D01*
X154789694Y-105285970D01*
X154789689Y-105285988D01*
X154788909Y-105290288D01*
X154783952Y-105309069D01*
X154782503Y-105313209D01*
X154782502Y-105313215D01*
X154767089Y-105410527D01*
X154749500Y-105507448D01*
X154749500Y-105511827D01*
X154747973Y-105531229D01*
X154747289Y-105535540D01*
X154749500Y-105634021D01*
X154749500Y-111556155D01*
X154753686Y-111602670D01*
X154764622Y-111724186D01*
X154764623Y-111724192D01*
X154824503Y-111941160D01*
X154824508Y-111941173D01*
X154922167Y-112143966D01*
X154922171Y-112143974D01*
X155054473Y-112326072D01*
X155054474Y-112326074D01*
X155054477Y-112326077D01*
X155054478Y-112326078D01*
X155116628Y-112385499D01*
X155217176Y-112481633D01*
X155405033Y-112605636D01*
X155612004Y-112694100D01*
X155612007Y-112694101D01*
X155612012Y-112694103D01*
X155831463Y-112744191D01*
X156056330Y-112754290D01*
X156279387Y-112724075D01*
X156493464Y-112654517D01*
X156691681Y-112547852D01*
X156867666Y-112407508D01*
X157015765Y-112237996D01*
X157131215Y-112044764D01*
X157210307Y-111834024D01*
X157234016Y-111703378D01*
X157250500Y-111612549D01*
X157250500Y-106189335D01*
X157270185Y-106122296D01*
X157286815Y-106101658D01*
X158007819Y-105380653D01*
X158069142Y-105347169D01*
X158138834Y-105352153D01*
X158194767Y-105394025D01*
X158219184Y-105459489D01*
X158219500Y-105468335D01*
X158219500Y-107947870D01*
X158219501Y-107947876D01*
X158225908Y-108007483D01*
X158276202Y-108142328D01*
X158276206Y-108142335D01*
X158362452Y-108257544D01*
X158362455Y-108257547D01*
X158477664Y-108343793D01*
X158477671Y-108343797D01*
X158612516Y-108394091D01*
X158658757Y-108399063D01*
X158723307Y-108425801D01*
X158763155Y-108483194D01*
X158769500Y-108522352D01*
X158769500Y-111410664D01*
X158749815Y-111477703D01*
X158733181Y-111498345D01*
X151518345Y-118713181D01*
X151457022Y-118746666D01*
X151430664Y-118749500D01*
X115569336Y-118749500D01*
X115502297Y-118729815D01*
X115481655Y-118713181D01*
X111658474Y-114890000D01*
X112918272Y-114890000D01*
X114122283Y-114890000D01*
X114086629Y-114928731D01*
X114035552Y-115045177D01*
X114025051Y-115171898D01*
X114056266Y-115295162D01*
X114118227Y-115390000D01*
X112921727Y-115390000D01*
X112951545Y-115512913D01*
X112951547Y-115512917D01*
X113041584Y-115710071D01*
X113041591Y-115710083D01*
X113167321Y-115886647D01*
X113167324Y-115886650D01*
X113324195Y-116036226D01*
X113324197Y-116036227D01*
X113506546Y-116153416D01*
X113707780Y-116233978D01*
X113920620Y-116275000D01*
X114160000Y-116275000D01*
X114160000Y-115428220D01*
X114226157Y-115479713D01*
X114346422Y-115521000D01*
X114441569Y-115521000D01*
X114535421Y-115505339D01*
X114647251Y-115444820D01*
X114660000Y-115430970D01*
X114660000Y-116275000D01*
X114845063Y-116275000D01*
X115006776Y-116259558D01*
X115006780Y-116259557D01*
X115214753Y-116198491D01*
X115407419Y-116099165D01*
X115577804Y-115965173D01*
X115719753Y-115801352D01*
X115828125Y-115613646D01*
X115828131Y-115613633D01*
X115899023Y-115408805D01*
X115901728Y-115390000D01*
X114697717Y-115390000D01*
X114733371Y-115351269D01*
X114784448Y-115234823D01*
X114794949Y-115108102D01*
X114763734Y-114984838D01*
X114701773Y-114890000D01*
X115898273Y-114890000D01*
X115868454Y-114767086D01*
X115868452Y-114767082D01*
X115778415Y-114569928D01*
X115778408Y-114569916D01*
X115652678Y-114393352D01*
X115652675Y-114393349D01*
X115495804Y-114243773D01*
X115495802Y-114243772D01*
X115313453Y-114126583D01*
X115112219Y-114046021D01*
X114899380Y-114005000D01*
X114660000Y-114005000D01*
X114660000Y-114851779D01*
X114593843Y-114800287D01*
X114473578Y-114759000D01*
X114378431Y-114759000D01*
X114284579Y-114774661D01*
X114172749Y-114835180D01*
X114160000Y-114849029D01*
X114160000Y-114005000D01*
X113974937Y-114005000D01*
X113813223Y-114020441D01*
X113813219Y-114020442D01*
X113605246Y-114081508D01*
X113412580Y-114180834D01*
X113242195Y-114314826D01*
X113100246Y-114478647D01*
X112991874Y-114666353D01*
X112991868Y-114666366D01*
X112920976Y-114871194D01*
X112918272Y-114890000D01*
X111658474Y-114890000D01*
X110768474Y-114000000D01*
X118094540Y-114000000D01*
X118114326Y-114188256D01*
X118114327Y-114188259D01*
X118172818Y-114368277D01*
X118172821Y-114368284D01*
X118267467Y-114532216D01*
X118381496Y-114658858D01*
X118394129Y-114672888D01*
X118547265Y-114784148D01*
X118547270Y-114784151D01*
X118720192Y-114861142D01*
X118720197Y-114861144D01*
X118905354Y-114900500D01*
X118964548Y-114900500D01*
X119031587Y-114920185D01*
X119052229Y-114936819D01*
X121339194Y-117223784D01*
X121349019Y-117236048D01*
X121349240Y-117235866D01*
X121354210Y-117241873D01*
X121354213Y-117241876D01*
X121354214Y-117241877D01*
X121404651Y-117289241D01*
X121425530Y-117310120D01*
X121431004Y-117314366D01*
X121435442Y-117318156D01*
X121469418Y-117350062D01*
X121469422Y-117350064D01*
X121486973Y-117359713D01*
X121503231Y-117370392D01*
X121519064Y-117382674D01*
X121536048Y-117390023D01*
X121561837Y-117401183D01*
X121567081Y-117403752D01*
X121607908Y-117426197D01*
X121627312Y-117431179D01*
X121645710Y-117437478D01*
X121664105Y-117445438D01*
X121710129Y-117452726D01*
X121715832Y-117453907D01*
X121760981Y-117465500D01*
X121781016Y-117465500D01*
X121800413Y-117467026D01*
X121820196Y-117470160D01*
X121866584Y-117465775D01*
X121872422Y-117465500D01*
X123674680Y-117465500D01*
X123741719Y-117485185D01*
X123775687Y-117517573D01*
X123808709Y-117563947D01*
X123808720Y-117563959D01*
X123960820Y-117708985D01*
X124055778Y-117770011D01*
X124137628Y-117822613D01*
X124332743Y-117900725D01*
X124435929Y-117920612D01*
X124539114Y-117940500D01*
X124539115Y-117940500D01*
X125496619Y-117940500D01*
X125496625Y-117940500D01*
X125653418Y-117925528D01*
X125855075Y-117866316D01*
X126041882Y-117770011D01*
X126207086Y-117640092D01*
X126344719Y-117481256D01*
X126346290Y-117478536D01*
X126449801Y-117299249D01*
X126449800Y-117299249D01*
X126449804Y-117299244D01*
X126518544Y-117100633D01*
X126548454Y-116892602D01*
X126543313Y-116784681D01*
X148936266Y-116784681D01*
X148946265Y-116994607D01*
X148995816Y-117198858D01*
X148995818Y-117198862D01*
X149083118Y-117390023D01*
X149083121Y-117390028D01*
X149083122Y-117390030D01*
X149083124Y-117390033D01*
X149173945Y-117517573D01*
X149205035Y-117561233D01*
X149205040Y-117561239D01*
X149357140Y-117706265D01*
X149498317Y-117796994D01*
X149533948Y-117819893D01*
X149729063Y-117898005D01*
X149832249Y-117917892D01*
X149935434Y-117937780D01*
X149935435Y-117937780D01*
X150892939Y-117937780D01*
X150892945Y-117937780D01*
X151049738Y-117922808D01*
X151251395Y-117863596D01*
X151438202Y-117767291D01*
X151603406Y-117637372D01*
X151741039Y-117478536D01*
X151745876Y-117470159D01*
X151844551Y-117299249D01*
X151846124Y-117296524D01*
X151914864Y-117097913D01*
X151944774Y-116889882D01*
X151934774Y-116679950D01*
X151885224Y-116475704D01*
X151885221Y-116475697D01*
X151797921Y-116284536D01*
X151797918Y-116284531D01*
X151797917Y-116284530D01*
X151797916Y-116284527D01*
X151676006Y-116113328D01*
X151676004Y-116113326D01*
X151675999Y-116113320D01*
X151523899Y-115968294D01*
X151347094Y-115854668D01*
X151151975Y-115776554D01*
X150945606Y-115736780D01*
X150945605Y-115736780D01*
X149988095Y-115736780D01*
X149831302Y-115751752D01*
X149831298Y-115751753D01*
X149629647Y-115810963D01*
X149442833Y-115907271D01*
X149277636Y-116037185D01*
X149277632Y-116037189D01*
X149139998Y-116196026D01*
X149034918Y-116378030D01*
X148966176Y-116576645D01*
X148966176Y-116576647D01*
X148950933Y-116682670D01*
X148936266Y-116784681D01*
X126543313Y-116784681D01*
X126538454Y-116682670D01*
X126488904Y-116478424D01*
X126487662Y-116475704D01*
X126401601Y-116287256D01*
X126401598Y-116287251D01*
X126401597Y-116287250D01*
X126401596Y-116287247D01*
X126279686Y-116116048D01*
X126279684Y-116116046D01*
X126279679Y-116116040D01*
X126127579Y-115971014D01*
X125950774Y-115857388D01*
X125943977Y-115854667D01*
X125755657Y-115779275D01*
X125755655Y-115779274D01*
X125549286Y-115739500D01*
X125549285Y-115739500D01*
X124591775Y-115739500D01*
X124434982Y-115754472D01*
X124434978Y-115754473D01*
X124233327Y-115813683D01*
X124046513Y-115909991D01*
X123881316Y-116039905D01*
X123881312Y-116039909D01*
X123767112Y-116171703D01*
X123708333Y-116209477D01*
X123673399Y-116214500D01*
X122150453Y-116214500D01*
X122083414Y-116194815D01*
X122062772Y-116178181D01*
X120131992Y-114247401D01*
X123539946Y-114247401D01*
X123549945Y-114457327D01*
X123599496Y-114661578D01*
X123599498Y-114661582D01*
X123686798Y-114852743D01*
X123686801Y-114852748D01*
X123686802Y-114852750D01*
X123686804Y-114852753D01*
X123794738Y-115004325D01*
X123808715Y-115023953D01*
X123808720Y-115023959D01*
X123960820Y-115168985D01*
X124055778Y-115230011D01*
X124137628Y-115282613D01*
X124332743Y-115360725D01*
X124435929Y-115380612D01*
X124539114Y-115400500D01*
X124539115Y-115400500D01*
X125496619Y-115400500D01*
X125496625Y-115400500D01*
X125653418Y-115385528D01*
X125855075Y-115326316D01*
X126041882Y-115230011D01*
X126052124Y-115221957D01*
X126130925Y-115159986D01*
X126207086Y-115100092D01*
X126344719Y-114941256D01*
X126346290Y-114938536D01*
X126449801Y-114759249D01*
X126449800Y-114759249D01*
X126449804Y-114759244D01*
X126518544Y-114560633D01*
X126548454Y-114352602D01*
X126543313Y-114244681D01*
X148936266Y-114244681D01*
X148946265Y-114454607D01*
X148995816Y-114658858D01*
X148995818Y-114658862D01*
X149083118Y-114850023D01*
X149083121Y-114850028D01*
X149083122Y-114850030D01*
X149083124Y-114850033D01*
X149179118Y-114984838D01*
X149205035Y-115021233D01*
X149205040Y-115021239D01*
X149357140Y-115166265D01*
X149463818Y-115234823D01*
X149533948Y-115279893D01*
X149729063Y-115358005D01*
X149798656Y-115371418D01*
X149935434Y-115397780D01*
X149935435Y-115397780D01*
X150892939Y-115397780D01*
X150892945Y-115397780D01*
X151049738Y-115382808D01*
X151251395Y-115323596D01*
X151438202Y-115227291D01*
X151603406Y-115097372D01*
X151741039Y-114938536D01*
X151742031Y-114936819D01*
X151830175Y-114784148D01*
X151846124Y-114756524D01*
X151914864Y-114557913D01*
X151944774Y-114349882D01*
X151934774Y-114139950D01*
X151885224Y-113935704D01*
X151862899Y-113886819D01*
X151797921Y-113744536D01*
X151797918Y-113744531D01*
X151797917Y-113744530D01*
X151797916Y-113744527D01*
X151676006Y-113573328D01*
X151676004Y-113573326D01*
X151675999Y-113573320D01*
X151523899Y-113428294D01*
X151347094Y-113314668D01*
X151151975Y-113236554D01*
X150945606Y-113196780D01*
X150945605Y-113196780D01*
X149988095Y-113196780D01*
X149832716Y-113211617D01*
X149831302Y-113211752D01*
X149831298Y-113211753D01*
X149629647Y-113270963D01*
X149442833Y-113367271D01*
X149277636Y-113497185D01*
X149277632Y-113497189D01*
X149139998Y-113656026D01*
X149034918Y-113838030D01*
X148966176Y-114036645D01*
X148966176Y-114036647D01*
X148936397Y-114243773D01*
X148936266Y-114244681D01*
X126543313Y-114244681D01*
X126538454Y-114142670D01*
X126488904Y-113938424D01*
X126487662Y-113935704D01*
X126401601Y-113747256D01*
X126401598Y-113747251D01*
X126401597Y-113747250D01*
X126401596Y-113747247D01*
X126279686Y-113576048D01*
X126279684Y-113576046D01*
X126279679Y-113576040D01*
X126127579Y-113431014D01*
X125950774Y-113317388D01*
X125943977Y-113314667D01*
X125811550Y-113261651D01*
X125755655Y-113239274D01*
X125549286Y-113199500D01*
X125549285Y-113199500D01*
X124591775Y-113199500D01*
X124434982Y-113214472D01*
X124434978Y-113214473D01*
X124233327Y-113273683D01*
X124046513Y-113369991D01*
X123881316Y-113499905D01*
X123881312Y-113499909D01*
X123743678Y-113658746D01*
X123638598Y-113840750D01*
X123569856Y-114039365D01*
X123569856Y-114039367D01*
X123540338Y-114244678D01*
X123539946Y-114247401D01*
X120131992Y-114247401D01*
X119938960Y-114054369D01*
X119905475Y-113993046D01*
X119903323Y-113979668D01*
X119885674Y-113811744D01*
X119827179Y-113631716D01*
X119732533Y-113467784D01*
X119605871Y-113327112D01*
X119592486Y-113317387D01*
X119452734Y-113215851D01*
X119452729Y-113215848D01*
X119279807Y-113138857D01*
X119279802Y-113138855D01*
X119115878Y-113104013D01*
X119094646Y-113099500D01*
X118905354Y-113099500D01*
X118884122Y-113104013D01*
X118720197Y-113138855D01*
X118720192Y-113138857D01*
X118547270Y-113215848D01*
X118547265Y-113215851D01*
X118394129Y-113327111D01*
X118267466Y-113467785D01*
X118172821Y-113631715D01*
X118172818Y-113631722D01*
X118128120Y-113769290D01*
X118114326Y-113811744D01*
X118094540Y-114000000D01*
X110768474Y-114000000D01*
X105996356Y-109227882D01*
X105991719Y-109222693D01*
X105967507Y-109192332D01*
X105916031Y-109147359D01*
X105912997Y-109144523D01*
X105904529Y-109136055D01*
X105902248Y-109134151D01*
X105872181Y-109109049D01*
X105798002Y-109044240D01*
X105797997Y-109044236D01*
X105797996Y-109044235D01*
X105794241Y-109041991D01*
X105778373Y-109030732D01*
X105775019Y-109027932D01*
X105775018Y-109027931D01*
X105775013Y-109027927D01*
X105707614Y-108989685D01*
X105689340Y-108979316D01*
X105604764Y-108928785D01*
X105604761Y-108928783D01*
X105600669Y-108927248D01*
X105583044Y-108919002D01*
X105579245Y-108916846D01*
X105486253Y-108884307D01*
X105394029Y-108849694D01*
X105394019Y-108849691D01*
X105389723Y-108848912D01*
X105370918Y-108843949D01*
X105366784Y-108842502D01*
X105366779Y-108842501D01*
X105269472Y-108827089D01*
X105172550Y-108809500D01*
X105172547Y-108809500D01*
X105168172Y-108809500D01*
X105148769Y-108807972D01*
X105144460Y-108807289D01*
X105045978Y-108809500D01*
X100038885Y-108809500D01*
X99971846Y-108789815D01*
X99926091Y-108737011D01*
X99916147Y-108667853D01*
X99945172Y-108604297D01*
X99982061Y-108575286D01*
X100167690Y-108479588D01*
X100338149Y-108345538D01*
X100480158Y-108181651D01*
X100588585Y-107993849D01*
X100659511Y-107788922D01*
X100690373Y-107574275D01*
X100680055Y-107357666D01*
X100628929Y-107146925D01*
X100538845Y-106949668D01*
X100413057Y-106773023D01*
X100413055Y-106773021D01*
X100413050Y-106773015D01*
X100256114Y-106623378D01*
X100171615Y-106569074D01*
X100073683Y-106506137D01*
X100073680Y-106506136D01*
X100073679Y-106506135D01*
X100073678Y-106506134D01*
X99872370Y-106425542D01*
X99872363Y-106425540D01*
X99751938Y-106402329D01*
X99720242Y-106390239D01*
X99719780Y-106391201D01*
X99714758Y-106388782D01*
X99655898Y-106366692D01*
X99600050Y-106324707D01*
X99575767Y-106259193D01*
X99590758Y-106190950D01*
X99640264Y-106141646D01*
X99645655Y-106138885D01*
X99696298Y-106114497D01*
X99738311Y-106102778D01*
X99766872Y-106100052D01*
X99974942Y-106038957D01*
X100167690Y-105939588D01*
X100338149Y-105805538D01*
X100480158Y-105641651D01*
X100588585Y-105453849D01*
X100659511Y-105248922D01*
X100690373Y-105034275D01*
X100680055Y-104817666D01*
X100628929Y-104606925D01*
X100538845Y-104409668D01*
X100413057Y-104233023D01*
X100413055Y-104233021D01*
X100413050Y-104233015D01*
X100256114Y-104083378D01*
X100195302Y-104044297D01*
X100073683Y-103966137D01*
X100073680Y-103966136D01*
X100073679Y-103966135D01*
X100073678Y-103966134D01*
X99872370Y-103885542D01*
X99872363Y-103885540D01*
X99751938Y-103862329D01*
X99720242Y-103850239D01*
X99719780Y-103851201D01*
X99714758Y-103848782D01*
X99613312Y-103810709D01*
X99557464Y-103768724D01*
X99533181Y-103703209D01*
X99548172Y-103634967D01*
X99597679Y-103585663D01*
X99645097Y-103571177D01*
X99766775Y-103559558D01*
X99766780Y-103559557D01*
X99974753Y-103498491D01*
X100167419Y-103399165D01*
X100337804Y-103265173D01*
X100479753Y-103101352D01*
X100588125Y-102913646D01*
X100588131Y-102913633D01*
X100659023Y-102708805D01*
X100661728Y-102690000D01*
X99457717Y-102690000D01*
X99493371Y-102651269D01*
X99544448Y-102534823D01*
X99554949Y-102408102D01*
X99523734Y-102284838D01*
X99461773Y-102190000D01*
X100658273Y-102190000D01*
X100628454Y-102067086D01*
X100628452Y-102067082D01*
X100538415Y-101869928D01*
X100538408Y-101869916D01*
X100412678Y-101693352D01*
X100412675Y-101693349D01*
X100255804Y-101543773D01*
X100255802Y-101543772D01*
X100073453Y-101426583D01*
X99872219Y-101346021D01*
X99659380Y-101305000D01*
X99420000Y-101305000D01*
X99420000Y-102151779D01*
X99353843Y-102100287D01*
X99233578Y-102059000D01*
X99138431Y-102059000D01*
X99044579Y-102074661D01*
X98932749Y-102135180D01*
X98920000Y-102149029D01*
X98920000Y-101305000D01*
X98734937Y-101305000D01*
X98573223Y-101320441D01*
X98573219Y-101320442D01*
X98365246Y-101381508D01*
X98172580Y-101480834D01*
X98002195Y-101614826D01*
X97860246Y-101778647D01*
X97751874Y-101966353D01*
X97751868Y-101966366D01*
X97680976Y-102171194D01*
X97678272Y-102190000D01*
X98882283Y-102190000D01*
X98846629Y-102228731D01*
X98795552Y-102345177D01*
X98785051Y-102471898D01*
X98816266Y-102595162D01*
X98878227Y-102690000D01*
X97681727Y-102690000D01*
X97711545Y-102812913D01*
X97711547Y-102812917D01*
X97801584Y-103010071D01*
X97801591Y-103010083D01*
X97927321Y-103186647D01*
X97927324Y-103186650D01*
X98084195Y-103336226D01*
X98084197Y-103336227D01*
X98266546Y-103453416D01*
X98358883Y-103490382D01*
X98413804Y-103533573D01*
X98436657Y-103599600D01*
X98420184Y-103667500D01*
X98369617Y-103715715D01*
X98312797Y-103729500D01*
X92713500Y-103729500D01*
X92646461Y-103709815D01*
X92625819Y-103693181D01*
X89600520Y-100667882D01*
X89595883Y-100662693D01*
X89571671Y-100632332D01*
X89520195Y-100587359D01*
X89517161Y-100584523D01*
X89508693Y-100576055D01*
X89499400Y-100568297D01*
X89476345Y-100549049D01*
X89402166Y-100484240D01*
X89402161Y-100484236D01*
X89402160Y-100484235D01*
X89398405Y-100481991D01*
X89382537Y-100470732D01*
X89379183Y-100467932D01*
X89379182Y-100467931D01*
X89379177Y-100467927D01*
X89311778Y-100429685D01*
X89293504Y-100419316D01*
X89214167Y-100371915D01*
X89208925Y-100368783D01*
X89204833Y-100367248D01*
X89187208Y-100359002D01*
X89183409Y-100356846D01*
X89090417Y-100324307D01*
X88998193Y-100289694D01*
X88998183Y-100289691D01*
X88993887Y-100288912D01*
X88975082Y-100283949D01*
X88970948Y-100282502D01*
X88970943Y-100282501D01*
X88873636Y-100267089D01*
X88776714Y-100249500D01*
X88776711Y-100249500D01*
X88772336Y-100249500D01*
X88752933Y-100247972D01*
X88748624Y-100247289D01*
X88650142Y-100249500D01*
X85822351Y-100249500D01*
X85755312Y-100229815D01*
X85709557Y-100177011D01*
X85699061Y-100138752D01*
X85694091Y-100092516D01*
X85643797Y-99957671D01*
X85643793Y-99957664D01*
X85557547Y-99842455D01*
X85557544Y-99842452D01*
X85442335Y-99756206D01*
X85442328Y-99756202D01*
X85307482Y-99705908D01*
X85307483Y-99705908D01*
X85247883Y-99699501D01*
X85247881Y-99699500D01*
X85247873Y-99699500D01*
X85247864Y-99699500D01*
X82552129Y-99699500D01*
X82552123Y-99699501D01*
X82492516Y-99705908D01*
X82357671Y-99756202D01*
X82357664Y-99756206D01*
X82242455Y-99842452D01*
X82242452Y-99842455D01*
X82156206Y-99957664D01*
X82156202Y-99957671D01*
X82105908Y-100092517D01*
X82099501Y-100152116D01*
X82099500Y-100152135D01*
X82099500Y-102847870D01*
X82099501Y-102847876D01*
X82105908Y-102907483D01*
X82156202Y-103042328D01*
X82156206Y-103042335D01*
X82242452Y-103157544D01*
X82242455Y-103157547D01*
X82357664Y-103243793D01*
X82357671Y-103243797D01*
X82492517Y-103294091D01*
X82492516Y-103294091D01*
X82499444Y-103294835D01*
X82552127Y-103300500D01*
X85247872Y-103300499D01*
X85307483Y-103294091D01*
X85442331Y-103243796D01*
X85557546Y-103157546D01*
X85643796Y-103042331D01*
X85694091Y-102907483D01*
X85699062Y-102861242D01*
X85725799Y-102796694D01*
X85783191Y-102756846D01*
X85822351Y-102750500D01*
X88094828Y-102750500D01*
X88161867Y-102770185D01*
X88182509Y-102786819D01*
X90438412Y-105042722D01*
X90471897Y-105104045D01*
X90466913Y-105173737D01*
X90425041Y-105229670D01*
X90359577Y-105254087D01*
X90328595Y-105252411D01*
X90312551Y-105249500D01*
X90312547Y-105249500D01*
X90308172Y-105249500D01*
X90288769Y-105247972D01*
X90284460Y-105247289D01*
X90185978Y-105249500D01*
X85248069Y-105249500D01*
X85181030Y-105229815D01*
X85163728Y-105216398D01*
X85025745Y-105088368D01*
X85006484Y-105075236D01*
X84802775Y-104936349D01*
X84802769Y-104936346D01*
X84802768Y-104936345D01*
X84802767Y-104936344D01*
X84559643Y-104819263D01*
X84559645Y-104819263D01*
X84301773Y-104739720D01*
X84301767Y-104739718D01*
X84034936Y-104699500D01*
X84034929Y-104699500D01*
X83765071Y-104699500D01*
X83765063Y-104699500D01*
X83498232Y-104739718D01*
X83498226Y-104739720D01*
X83240358Y-104819262D01*
X82997230Y-104936346D01*
X82774258Y-105088365D01*
X82576442Y-105271910D01*
X82408185Y-105482898D01*
X82273258Y-105716599D01*
X82273256Y-105716603D01*
X82174666Y-105967804D01*
X82174664Y-105967811D01*
X82114616Y-106230898D01*
X82094451Y-106499995D01*
X82094451Y-106500004D01*
X76200500Y-106500004D01*
X76200500Y-90700004D01*
X82094953Y-90700004D01*
X82115113Y-90969026D01*
X82115113Y-90969028D01*
X82175142Y-91232033D01*
X82175148Y-91232052D01*
X82273709Y-91483181D01*
X82273708Y-91483181D01*
X82408602Y-91716822D01*
X82462294Y-91784151D01*
X83297452Y-90948992D01*
X83307188Y-90978956D01*
X83395186Y-91117619D01*
X83514903Y-91230040D01*
X83649510Y-91304041D01*
X82814848Y-92138702D01*
X82997483Y-92263220D01*
X82997485Y-92263221D01*
X83240539Y-92380269D01*
X83240537Y-92380269D01*
X83498337Y-92459790D01*
X83498343Y-92459792D01*
X83765101Y-92499999D01*
X83765110Y-92500000D01*
X84034890Y-92500000D01*
X84034898Y-92499999D01*
X84301656Y-92459792D01*
X84301662Y-92459790D01*
X84559461Y-92380269D01*
X84802521Y-92263218D01*
X84985150Y-92138702D01*
X84147534Y-91301086D01*
X84215629Y-91274126D01*
X84348492Y-91177595D01*
X84453175Y-91051055D01*
X84501631Y-90948079D01*
X85337703Y-91784151D01*
X85337704Y-91784150D01*
X85391393Y-91716828D01*
X85391400Y-91716817D01*
X85526290Y-91483181D01*
X85624851Y-91232052D01*
X85624857Y-91232033D01*
X85684886Y-90969028D01*
X85684886Y-90969026D01*
X85705047Y-90700004D01*
X85705047Y-90699995D01*
X85684886Y-90430973D01*
X85684886Y-90430971D01*
X85624857Y-90167966D01*
X85624851Y-90167947D01*
X85526290Y-89916818D01*
X85526291Y-89916818D01*
X85391397Y-89683177D01*
X85337704Y-89615847D01*
X84502546Y-90451004D01*
X84492812Y-90421044D01*
X84404814Y-90282381D01*
X84285097Y-90169960D01*
X84150489Y-90095958D01*
X84985150Y-89261296D01*
X84802517Y-89136779D01*
X84802516Y-89136778D01*
X84559460Y-89019730D01*
X84559462Y-89019730D01*
X84301662Y-88940209D01*
X84301656Y-88940207D01*
X84034898Y-88900000D01*
X83765101Y-88900000D01*
X83498343Y-88940207D01*
X83498337Y-88940209D01*
X83240538Y-89019730D01*
X82997485Y-89136778D01*
X82997476Y-89136783D01*
X82814848Y-89261296D01*
X83652465Y-90098913D01*
X83584371Y-90125874D01*
X83451508Y-90222405D01*
X83346825Y-90348945D01*
X83298368Y-90451921D01*
X82462295Y-89615848D01*
X82408600Y-89683180D01*
X82273709Y-89916818D01*
X82175148Y-90167947D01*
X82175142Y-90167966D01*
X82115113Y-90430971D01*
X82115113Y-90430973D01*
X82094953Y-90699995D01*
X82094953Y-90700004D01*
X76200500Y-90700004D01*
X76200500Y-87047870D01*
X82099500Y-87047870D01*
X82099501Y-87047876D01*
X82105908Y-87107483D01*
X82156202Y-87242328D01*
X82156206Y-87242335D01*
X82242452Y-87357544D01*
X82242455Y-87357547D01*
X82357664Y-87443793D01*
X82357671Y-87443797D01*
X82492517Y-87494091D01*
X82492516Y-87494091D01*
X82499444Y-87494835D01*
X82552127Y-87500500D01*
X85247872Y-87500499D01*
X85307483Y-87494091D01*
X85442331Y-87443796D01*
X85557546Y-87357546D01*
X85643796Y-87242331D01*
X85643798Y-87242326D01*
X85666031Y-87182717D01*
X85707902Y-87126783D01*
X85773366Y-87102365D01*
X85841639Y-87117216D01*
X85869894Y-87138368D01*
X86563642Y-87832116D01*
X86568279Y-87837304D01*
X86592492Y-87867666D01*
X86643967Y-87912639D01*
X86647000Y-87915474D01*
X91842540Y-93111014D01*
X96923642Y-98192116D01*
X96928279Y-98197304D01*
X96952492Y-98227666D01*
X97003967Y-98272639D01*
X97007000Y-98275474D01*
X97015471Y-98283945D01*
X97015475Y-98283949D01*
X97015479Y-98283952D01*
X97047811Y-98310944D01*
X97122002Y-98375764D01*
X97125755Y-98378006D01*
X97141626Y-98389266D01*
X97144982Y-98392068D01*
X97144986Y-98392071D01*
X97230648Y-98440676D01*
X97315227Y-98491210D01*
X97315230Y-98491211D01*
X97315236Y-98491215D01*
X97319327Y-98492750D01*
X97336955Y-98500996D01*
X97340755Y-98503153D01*
X97433740Y-98535690D01*
X97525976Y-98570307D01*
X97525980Y-98570307D01*
X97525981Y-98570308D01*
X97530264Y-98571085D01*
X97549086Y-98576052D01*
X97553218Y-98577498D01*
X97650523Y-98592909D01*
X97682833Y-98598772D01*
X97747451Y-98610500D01*
X97747453Y-98610500D01*
X97751828Y-98610500D01*
X97771231Y-98612028D01*
X97772938Y-98612297D01*
X97775540Y-98612710D01*
X97874022Y-98610500D01*
X98301115Y-98610500D01*
X98368154Y-98630185D01*
X98413909Y-98682989D01*
X98423853Y-98752147D01*
X98394828Y-98815703D01*
X98357938Y-98844713D01*
X98245519Y-98902670D01*
X98172309Y-98940412D01*
X98001848Y-99074464D01*
X97859846Y-99238344D01*
X97859837Y-99238355D01*
X97751416Y-99426148D01*
X97680489Y-99631076D01*
X97680489Y-99631078D01*
X97650098Y-99842454D01*
X97649627Y-99845727D01*
X97659944Y-100062331D01*
X97711070Y-100273071D01*
X97711070Y-100273073D01*
X97777033Y-100417511D01*
X97801155Y-100470332D01*
X97916516Y-100632334D01*
X97926944Y-100646978D01*
X97926949Y-100646984D01*
X98083885Y-100796621D01*
X98083887Y-100796622D01*
X98083888Y-100796623D01*
X98266317Y-100913863D01*
X98266320Y-100913864D01*
X98266321Y-100913865D01*
X98467624Y-100994455D01*
X98467629Y-100994456D01*
X98467638Y-100994460D01*
X98627339Y-101025240D01*
X98680572Y-101035500D01*
X98680573Y-101035500D01*
X99605084Y-101035500D01*
X99605091Y-101035500D01*
X99766872Y-101020052D01*
X99974942Y-100958957D01*
X100167690Y-100859588D01*
X100338149Y-100725538D01*
X100474399Y-100568296D01*
X100533177Y-100530523D01*
X100568112Y-100525500D01*
X106803412Y-100525500D01*
X106838777Y-100531672D01*
X106838817Y-100531495D01*
X106842595Y-100532339D01*
X106845423Y-100532833D01*
X106846425Y-100533193D01*
X106846435Y-100533198D01*
X106854413Y-100534981D01*
X106876603Y-100542191D01*
X106884105Y-100545438D01*
X106940846Y-100554424D01*
X106944627Y-100555146D01*
X107000667Y-100567673D01*
X107008835Y-100567416D01*
X107032124Y-100568881D01*
X107040196Y-100570160D01*
X107040197Y-100570159D01*
X107040199Y-100570160D01*
X107040200Y-100570160D01*
X107083063Y-100566107D01*
X107097358Y-100564755D01*
X107101224Y-100564512D01*
X107158627Y-100562709D01*
X107166467Y-100560430D01*
X107189400Y-100556055D01*
X107197533Y-100555287D01*
X107251586Y-100535826D01*
X107255212Y-100534647D01*
X107310390Y-100518618D01*
X107317417Y-100514461D01*
X107338541Y-100504521D01*
X107346229Y-100501754D01*
X107393744Y-100469461D01*
X107396997Y-100467397D01*
X107446420Y-100438170D01*
X107452189Y-100432400D01*
X107470182Y-100417514D01*
X107476938Y-100412924D01*
X107514929Y-100369829D01*
X107517564Y-100367024D01*
X116189872Y-91694716D01*
X116251193Y-91661233D01*
X116320885Y-91666217D01*
X116376818Y-91708089D01*
X116401235Y-91773553D01*
X116396627Y-91816994D01*
X116394562Y-91824100D01*
X116387271Y-91870127D01*
X116386087Y-91875846D01*
X116374501Y-91920972D01*
X116374500Y-91920982D01*
X116374500Y-91941016D01*
X116372973Y-91960415D01*
X116369840Y-91980194D01*
X116369840Y-91980195D01*
X116374225Y-92026583D01*
X116374500Y-92032421D01*
X116374500Y-96630500D01*
X116354815Y-96697539D01*
X116302011Y-96743294D01*
X116250500Y-96754500D01*
X115817729Y-96754500D01*
X115750690Y-96734815D01*
X115716722Y-96702427D01*
X115653061Y-96613027D01*
X115653050Y-96613015D01*
X115496114Y-96463378D01*
X115435302Y-96424297D01*
X115313683Y-96346137D01*
X115313680Y-96346136D01*
X115313679Y-96346135D01*
X115313678Y-96346134D01*
X115112375Y-96265544D01*
X115112363Y-96265540D01*
X115112362Y-96265540D01*
X115112360Y-96265539D01*
X115112358Y-96265539D01*
X114899428Y-96224500D01*
X114899427Y-96224500D01*
X113974909Y-96224500D01*
X113813128Y-96239948D01*
X113813124Y-96239949D01*
X113605061Y-96301041D01*
X113412309Y-96400412D01*
X113241848Y-96534464D01*
X113099846Y-96698344D01*
X113099837Y-96698355D01*
X112991416Y-96886148D01*
X112920489Y-97091076D01*
X112920489Y-97091078D01*
X112898291Y-97245470D01*
X112889627Y-97305727D01*
X112899944Y-97522331D01*
X112951070Y-97733071D01*
X112951070Y-97733073D01*
X112951071Y-97733075D01*
X113041155Y-97930332D01*
X113145872Y-98077387D01*
X113166944Y-98106978D01*
X113166949Y-98106984D01*
X113323885Y-98256621D01*
X113323887Y-98256622D01*
X113323888Y-98256623D01*
X113506317Y-98373863D01*
X113506320Y-98373864D01*
X113506321Y-98373865D01*
X113707624Y-98454455D01*
X113707629Y-98454456D01*
X113707638Y-98454460D01*
X113849828Y-98481865D01*
X113920572Y-98495500D01*
X113920573Y-98495500D01*
X114845084Y-98495500D01*
X114845091Y-98495500D01*
X115006872Y-98480052D01*
X115214942Y-98418957D01*
X115407690Y-98319588D01*
X115578149Y-98185538D01*
X115697069Y-98048296D01*
X115755847Y-98010523D01*
X115790782Y-98005500D01*
X116537257Y-98005500D01*
X116552877Y-98007224D01*
X116552904Y-98006939D01*
X116560660Y-98007671D01*
X116560667Y-98007673D01*
X116629814Y-98005500D01*
X116659350Y-98005500D01*
X116666228Y-98004630D01*
X116672041Y-98004172D01*
X116718627Y-98002709D01*
X116737869Y-97997117D01*
X116756912Y-97993174D01*
X116776792Y-97990664D01*
X116820122Y-97973507D01*
X116825646Y-97971617D01*
X116829396Y-97970527D01*
X116870390Y-97958618D01*
X116887629Y-97948422D01*
X116905103Y-97939862D01*
X116923727Y-97932488D01*
X116923727Y-97932487D01*
X116923732Y-97932486D01*
X116961449Y-97905082D01*
X116966305Y-97901892D01*
X117006420Y-97878170D01*
X117020586Y-97864003D01*
X117035381Y-97851368D01*
X117051584Y-97839596D01*
X117051583Y-97839596D01*
X117051587Y-97839594D01*
X117081299Y-97803677D01*
X117085201Y-97799388D01*
X117162821Y-97721768D01*
X117224143Y-97688286D01*
X117293834Y-97693271D01*
X117349768Y-97735142D01*
X117374184Y-97800607D01*
X117374500Y-97809452D01*
X117374500Y-98689547D01*
X117354815Y-98756586D01*
X117338181Y-98777228D01*
X116857228Y-99258181D01*
X116795905Y-99291666D01*
X116769547Y-99294500D01*
X115817729Y-99294500D01*
X115750690Y-99274815D01*
X115716722Y-99242427D01*
X115653061Y-99153027D01*
X115653050Y-99153015D01*
X115496114Y-99003378D01*
X115435302Y-98964297D01*
X115313683Y-98886137D01*
X115313680Y-98886136D01*
X115313679Y-98886135D01*
X115313678Y-98886134D01*
X115112375Y-98805544D01*
X115112363Y-98805540D01*
X115112362Y-98805540D01*
X115112360Y-98805539D01*
X115112358Y-98805539D01*
X114899428Y-98764500D01*
X114899427Y-98764500D01*
X113974909Y-98764500D01*
X113813128Y-98779948D01*
X113813124Y-98779949D01*
X113605061Y-98841041D01*
X113412309Y-98940412D01*
X113241848Y-99074464D01*
X113099846Y-99238344D01*
X113099837Y-99238355D01*
X112991416Y-99426148D01*
X112920489Y-99631076D01*
X112920489Y-99631078D01*
X112890098Y-99842454D01*
X112889627Y-99845727D01*
X112899944Y-100062331D01*
X112951070Y-100273071D01*
X112951070Y-100273073D01*
X113017033Y-100417511D01*
X113041155Y-100470332D01*
X113156516Y-100632334D01*
X113166944Y-100646978D01*
X113166949Y-100646984D01*
X113323885Y-100796621D01*
X113323887Y-100796622D01*
X113323888Y-100796623D01*
X113506317Y-100913863D01*
X113506320Y-100913864D01*
X113506321Y-100913865D01*
X113707624Y-100994455D01*
X113707629Y-100994456D01*
X113707638Y-100994460D01*
X113867339Y-101025240D01*
X113920572Y-101035500D01*
X113920573Y-101035500D01*
X114845084Y-101035500D01*
X114845091Y-101035500D01*
X115006872Y-101020052D01*
X115214942Y-100958957D01*
X115407690Y-100859588D01*
X115578149Y-100725538D01*
X115697069Y-100588296D01*
X115755847Y-100550523D01*
X115790782Y-100545500D01*
X116997257Y-100545500D01*
X117012877Y-100547224D01*
X117012904Y-100546939D01*
X117020660Y-100547671D01*
X117020667Y-100547673D01*
X117089814Y-100545500D01*
X117119350Y-100545500D01*
X117126228Y-100544630D01*
X117132041Y-100544172D01*
X117178627Y-100542709D01*
X117197869Y-100537117D01*
X117216912Y-100533174D01*
X117236792Y-100530664D01*
X117280122Y-100513507D01*
X117285646Y-100511617D01*
X117296402Y-100508492D01*
X117330390Y-100498618D01*
X117347629Y-100488422D01*
X117365103Y-100479862D01*
X117383727Y-100472488D01*
X117383727Y-100472487D01*
X117383732Y-100472486D01*
X117421449Y-100445082D01*
X117426305Y-100441892D01*
X117466420Y-100418170D01*
X117480589Y-100403999D01*
X117495379Y-100391368D01*
X117511587Y-100379594D01*
X117541299Y-100343676D01*
X117545212Y-100339376D01*
X118162820Y-99721769D01*
X118224142Y-99688285D01*
X118293834Y-99693269D01*
X118349767Y-99735141D01*
X118374184Y-99800605D01*
X118374500Y-99809451D01*
X118374500Y-100689547D01*
X118354815Y-100756586D01*
X118338181Y-100777228D01*
X117317228Y-101798181D01*
X117255905Y-101831666D01*
X117229547Y-101834500D01*
X115817729Y-101834500D01*
X115750690Y-101814815D01*
X115716722Y-101782427D01*
X115653061Y-101693027D01*
X115653050Y-101693015D01*
X115496114Y-101543378D01*
X115398793Y-101480834D01*
X115313683Y-101426137D01*
X115313680Y-101426136D01*
X115313679Y-101426135D01*
X115313678Y-101426134D01*
X115112375Y-101345544D01*
X115112363Y-101345540D01*
X115112362Y-101345540D01*
X115112360Y-101345539D01*
X115112358Y-101345539D01*
X114899428Y-101304500D01*
X114899427Y-101304500D01*
X113974909Y-101304500D01*
X113813128Y-101319948D01*
X113813124Y-101319949D01*
X113605061Y-101381041D01*
X113412309Y-101480412D01*
X113241848Y-101614464D01*
X113099846Y-101778344D01*
X113099837Y-101778355D01*
X112991416Y-101966148D01*
X112920489Y-102171076D01*
X112920489Y-102171078D01*
X112889962Y-102383400D01*
X112889627Y-102385727D01*
X112899944Y-102602331D01*
X112951070Y-102813071D01*
X112951070Y-102813073D01*
X112994186Y-102907483D01*
X113041155Y-103010332D01*
X113145986Y-103157547D01*
X113166944Y-103186978D01*
X113166949Y-103186984D01*
X113323885Y-103336621D01*
X113323887Y-103336622D01*
X113323888Y-103336623D01*
X113506317Y-103453863D01*
X113506320Y-103453864D01*
X113506321Y-103453865D01*
X113707624Y-103534455D01*
X113707629Y-103534456D01*
X113707638Y-103534460D01*
X113867339Y-103565240D01*
X113920572Y-103575500D01*
X113920573Y-103575500D01*
X114845084Y-103575500D01*
X114845091Y-103575500D01*
X115006872Y-103560052D01*
X115214942Y-103498957D01*
X115407690Y-103399588D01*
X115578149Y-103265538D01*
X115697069Y-103128296D01*
X115755847Y-103090523D01*
X115790782Y-103085500D01*
X117457257Y-103085500D01*
X117472877Y-103087224D01*
X117472904Y-103086939D01*
X117480660Y-103087671D01*
X117480667Y-103087673D01*
X117549814Y-103085500D01*
X117579350Y-103085500D01*
X117586228Y-103084630D01*
X117592041Y-103084172D01*
X117638627Y-103082709D01*
X117657869Y-103077117D01*
X117676912Y-103073174D01*
X117696792Y-103070664D01*
X117740122Y-103053507D01*
X117745646Y-103051617D01*
X117749396Y-103050527D01*
X117790390Y-103038618D01*
X117807629Y-103028422D01*
X117825103Y-103019862D01*
X117843727Y-103012488D01*
X117843727Y-103012487D01*
X117843732Y-103012486D01*
X117881449Y-102985082D01*
X117886305Y-102981892D01*
X117926420Y-102958170D01*
X117940589Y-102943999D01*
X117955379Y-102931368D01*
X117971587Y-102919594D01*
X118001299Y-102883676D01*
X118005212Y-102879376D01*
X119162820Y-101721768D01*
X119224142Y-101688285D01*
X119293834Y-101693269D01*
X119349767Y-101735141D01*
X119374184Y-101800605D01*
X119374500Y-101809451D01*
X119374500Y-102689547D01*
X119354815Y-102756586D01*
X119338181Y-102777228D01*
X117777228Y-104338181D01*
X117715905Y-104371666D01*
X117689547Y-104374500D01*
X115817729Y-104374500D01*
X115750690Y-104354815D01*
X115716722Y-104322427D01*
X115653061Y-104233027D01*
X115653050Y-104233015D01*
X115496114Y-104083378D01*
X115435302Y-104044297D01*
X115313683Y-103966137D01*
X115313680Y-103966136D01*
X115313679Y-103966135D01*
X115313678Y-103966134D01*
X115112375Y-103885544D01*
X115112363Y-103885540D01*
X115112362Y-103885540D01*
X115112360Y-103885539D01*
X115112358Y-103885539D01*
X114899428Y-103844500D01*
X114899427Y-103844500D01*
X113974909Y-103844500D01*
X113813128Y-103859948D01*
X113813124Y-103859949D01*
X113605061Y-103921041D01*
X113412309Y-104020412D01*
X113241848Y-104154464D01*
X113099846Y-104318344D01*
X113099837Y-104318355D01*
X112991416Y-104506148D01*
X112920489Y-104711076D01*
X112907617Y-104800605D01*
X112891731Y-104911096D01*
X112889627Y-104925727D01*
X112899944Y-105142331D01*
X112951070Y-105353071D01*
X112951070Y-105353073D01*
X112999669Y-105459489D01*
X113041155Y-105550332D01*
X113145872Y-105697387D01*
X113166944Y-105726978D01*
X113166949Y-105726984D01*
X113323885Y-105876621D01*
X113323887Y-105876622D01*
X113323888Y-105876623D01*
X113506317Y-105993863D01*
X113506320Y-105993864D01*
X113506321Y-105993865D01*
X113707624Y-106074455D01*
X113707629Y-106074456D01*
X113707638Y-106074460D01*
X113854565Y-106102778D01*
X113920572Y-106115500D01*
X113920573Y-106115500D01*
X114845084Y-106115500D01*
X114845091Y-106115500D01*
X115006872Y-106100052D01*
X115214942Y-106038957D01*
X115407690Y-105939588D01*
X115578149Y-105805538D01*
X115697069Y-105668296D01*
X115755847Y-105630523D01*
X115790782Y-105625500D01*
X117917257Y-105625500D01*
X117932877Y-105627224D01*
X117932904Y-105626939D01*
X117940660Y-105627671D01*
X117940667Y-105627673D01*
X118009814Y-105625500D01*
X118039350Y-105625500D01*
X118046228Y-105624630D01*
X118052041Y-105624172D01*
X118098627Y-105622709D01*
X118117869Y-105617117D01*
X118136912Y-105613174D01*
X118156792Y-105610664D01*
X118176078Y-105603027D01*
X118245655Y-105596650D01*
X118307636Y-105628901D01*
X118342341Y-105689541D01*
X118338753Y-105759319D01*
X118309408Y-105806000D01*
X117237228Y-106878181D01*
X117175905Y-106911666D01*
X117149547Y-106914500D01*
X115817729Y-106914500D01*
X115750690Y-106894815D01*
X115716722Y-106862427D01*
X115653061Y-106773027D01*
X115653050Y-106773015D01*
X115496114Y-106623378D01*
X115411615Y-106569074D01*
X115313683Y-106506137D01*
X115313680Y-106506136D01*
X115313679Y-106506135D01*
X115313678Y-106506134D01*
X115112375Y-106425544D01*
X115112363Y-106425540D01*
X115112362Y-106425540D01*
X115112360Y-106425539D01*
X115112358Y-106425539D01*
X114899428Y-106384500D01*
X114899427Y-106384500D01*
X113974909Y-106384500D01*
X113813128Y-106399948D01*
X113813124Y-106399949D01*
X113605061Y-106461041D01*
X113412309Y-106560412D01*
X113241848Y-106694464D01*
X113099846Y-106858344D01*
X113099837Y-106858355D01*
X112991416Y-107046148D01*
X112920489Y-107251076D01*
X112889627Y-107465727D01*
X112899944Y-107682331D01*
X112951070Y-107893071D01*
X112951070Y-107893073D01*
X112981345Y-107959365D01*
X113041155Y-108090332D01*
X113162174Y-108260280D01*
X113166944Y-108266978D01*
X113166949Y-108266984D01*
X113323885Y-108416621D01*
X113323887Y-108416622D01*
X113323888Y-108416623D01*
X113506317Y-108533863D01*
X113506320Y-108533864D01*
X113506321Y-108533865D01*
X113707624Y-108614455D01*
X113707629Y-108614456D01*
X113707638Y-108614460D01*
X113865492Y-108644884D01*
X113920572Y-108655500D01*
X113920573Y-108655500D01*
X114845084Y-108655500D01*
X114845091Y-108655500D01*
X115006872Y-108640052D01*
X115214942Y-108578957D01*
X115407690Y-108479588D01*
X115578149Y-108345538D01*
X115697069Y-108208296D01*
X115755847Y-108170523D01*
X115790782Y-108165500D01*
X117377257Y-108165500D01*
X117392877Y-108167224D01*
X117392904Y-108166939D01*
X117400660Y-108167671D01*
X117400667Y-108167673D01*
X117469814Y-108165500D01*
X117499350Y-108165500D01*
X117506228Y-108164630D01*
X117512041Y-108164172D01*
X117558627Y-108162709D01*
X117577869Y-108157117D01*
X117596912Y-108153174D01*
X117616792Y-108150664D01*
X117660122Y-108133507D01*
X117665646Y-108131617D01*
X117669396Y-108130527D01*
X117710390Y-108118618D01*
X117727629Y-108108422D01*
X117745103Y-108099862D01*
X117763727Y-108092488D01*
X117763727Y-108092487D01*
X117763732Y-108092486D01*
X117801449Y-108065082D01*
X117806305Y-108061892D01*
X117846420Y-108038170D01*
X117860589Y-108023999D01*
X117875379Y-108011368D01*
X117891587Y-107999594D01*
X117921299Y-107963676D01*
X117925212Y-107959376D01*
X121162821Y-104721768D01*
X121224142Y-104688285D01*
X121293834Y-104693269D01*
X121349767Y-104735141D01*
X121374184Y-104800605D01*
X121374500Y-104809451D01*
X121374500Y-105689547D01*
X121354815Y-105756586D01*
X121338181Y-105777228D01*
X117697228Y-109418181D01*
X117635905Y-109451666D01*
X117609547Y-109454500D01*
X115817729Y-109454500D01*
X115750690Y-109434815D01*
X115716722Y-109402427D01*
X115653061Y-109313027D01*
X115653050Y-109313015D01*
X115496114Y-109163378D01*
X115411576Y-109109049D01*
X115313683Y-109046137D01*
X115313680Y-109046136D01*
X115313679Y-109046135D01*
X115313678Y-109046134D01*
X115112375Y-108965544D01*
X115112363Y-108965540D01*
X115112362Y-108965540D01*
X115112360Y-108965539D01*
X115112358Y-108965539D01*
X114899428Y-108924500D01*
X114899427Y-108924500D01*
X113974909Y-108924500D01*
X113813128Y-108939948D01*
X113813124Y-108939949D01*
X113605061Y-109001041D01*
X113412309Y-109100412D01*
X113241848Y-109234464D01*
X113099846Y-109398344D01*
X113099837Y-109398355D01*
X112991416Y-109586148D01*
X112920489Y-109791076D01*
X112920489Y-109791078D01*
X112892053Y-109988857D01*
X112889627Y-110005727D01*
X112899944Y-110222331D01*
X112951070Y-110433071D01*
X112951070Y-110433073D01*
X112973285Y-110481716D01*
X113041155Y-110630332D01*
X113145872Y-110777387D01*
X113166944Y-110806978D01*
X113166949Y-110806984D01*
X113323885Y-110956621D01*
X113323887Y-110956622D01*
X113323888Y-110956623D01*
X113506317Y-111073863D01*
X113506320Y-111073864D01*
X113506321Y-111073865D01*
X113707624Y-111154455D01*
X113707629Y-111154456D01*
X113707638Y-111154460D01*
X113849470Y-111181796D01*
X113920572Y-111195500D01*
X113920573Y-111195500D01*
X114845084Y-111195500D01*
X114845091Y-111195500D01*
X115006872Y-111180052D01*
X115214942Y-111118957D01*
X115407690Y-111019588D01*
X115578149Y-110885538D01*
X115697069Y-110748296D01*
X115755847Y-110710523D01*
X115790782Y-110705500D01*
X117110547Y-110705500D01*
X117177586Y-110725185D01*
X117223341Y-110777989D01*
X117233285Y-110847147D01*
X117204260Y-110910703D01*
X117198228Y-110917181D01*
X116157228Y-111958181D01*
X116095905Y-111991666D01*
X116069547Y-111994500D01*
X115817729Y-111994500D01*
X115750690Y-111974815D01*
X115716722Y-111942427D01*
X115653061Y-111853027D01*
X115653050Y-111853015D01*
X115496114Y-111703378D01*
X115411576Y-111649049D01*
X115313683Y-111586137D01*
X115313680Y-111586136D01*
X115313679Y-111586135D01*
X115313678Y-111586134D01*
X115112375Y-111505544D01*
X115112363Y-111505540D01*
X115112362Y-111505540D01*
X115112360Y-111505539D01*
X115112358Y-111505539D01*
X114899428Y-111464500D01*
X114899427Y-111464500D01*
X113974909Y-111464500D01*
X113813149Y-111479946D01*
X113813128Y-111479948D01*
X113813124Y-111479949D01*
X113605061Y-111541041D01*
X113412309Y-111640412D01*
X113241848Y-111774464D01*
X113099846Y-111938344D01*
X113099837Y-111938355D01*
X112991416Y-112126148D01*
X112920489Y-112331076D01*
X112912664Y-112385499D01*
X112898510Y-112483947D01*
X112889627Y-112545727D01*
X112899944Y-112762331D01*
X112951070Y-112973071D01*
X112951070Y-112973073D01*
X112981345Y-113039365D01*
X113041155Y-113170332D01*
X113166943Y-113346977D01*
X113166944Y-113346978D01*
X113166949Y-113346984D01*
X113323885Y-113496621D01*
X113323887Y-113496622D01*
X113323888Y-113496623D01*
X113506317Y-113613863D01*
X113506320Y-113613864D01*
X113506321Y-113613865D01*
X113707624Y-113694455D01*
X113707629Y-113694456D01*
X113707638Y-113694460D01*
X113849470Y-113721796D01*
X113920572Y-113735500D01*
X113920573Y-113735500D01*
X114845084Y-113735500D01*
X114845091Y-113735500D01*
X115006872Y-113720052D01*
X115214942Y-113658957D01*
X115407690Y-113559588D01*
X115578149Y-113425538D01*
X115697069Y-113288296D01*
X115755847Y-113250523D01*
X115790782Y-113245500D01*
X116297257Y-113245500D01*
X116312877Y-113247224D01*
X116312904Y-113246939D01*
X116320660Y-113247671D01*
X116320667Y-113247673D01*
X116389814Y-113245500D01*
X116419350Y-113245500D01*
X116426228Y-113244630D01*
X116432041Y-113244172D01*
X116478627Y-113242709D01*
X116497869Y-113237117D01*
X116516912Y-113233174D01*
X116536792Y-113230664D01*
X116580122Y-113213507D01*
X116585646Y-113211617D01*
X116589396Y-113210527D01*
X116630390Y-113198618D01*
X116647629Y-113188422D01*
X116665103Y-113179862D01*
X116683727Y-113172488D01*
X116683727Y-113172487D01*
X116683732Y-113172486D01*
X116721449Y-113145082D01*
X116726305Y-113141892D01*
X116766420Y-113118170D01*
X116780589Y-113103999D01*
X116795379Y-113091368D01*
X116811587Y-113079594D01*
X116841299Y-113043676D01*
X116845212Y-113039376D01*
X119034588Y-110850000D01*
X119894540Y-110850000D01*
X119914326Y-111038256D01*
X119914327Y-111038259D01*
X119972818Y-111218277D01*
X119972821Y-111218284D01*
X120067467Y-111382216D01*
X120178508Y-111505539D01*
X120194129Y-111522888D01*
X120347265Y-111634148D01*
X120347270Y-111634151D01*
X120520192Y-111711142D01*
X120520197Y-111711144D01*
X120705354Y-111750500D01*
X120764547Y-111750500D01*
X120831586Y-111770185D01*
X120852228Y-111786819D01*
X121209197Y-112143788D01*
X121219022Y-112156051D01*
X121219243Y-112155869D01*
X121224214Y-112161878D01*
X121250217Y-112186295D01*
X121274635Y-112209226D01*
X121295529Y-112230120D01*
X121301011Y-112234373D01*
X121305443Y-112238157D01*
X121339418Y-112270062D01*
X121356976Y-112279714D01*
X121373235Y-112290395D01*
X121389064Y-112302673D01*
X121431838Y-112321182D01*
X121437056Y-112323738D01*
X121477908Y-112346197D01*
X121497316Y-112351180D01*
X121515717Y-112357480D01*
X121534104Y-112365437D01*
X121577488Y-112372308D01*
X121580119Y-112372725D01*
X121585839Y-112373909D01*
X121630981Y-112385500D01*
X121651016Y-112385500D01*
X121670414Y-112387026D01*
X121690194Y-112390159D01*
X121690195Y-112390160D01*
X121690195Y-112390159D01*
X121690196Y-112390160D01*
X121736584Y-112385775D01*
X121742422Y-112385500D01*
X123674680Y-112385500D01*
X123741719Y-112405185D01*
X123775687Y-112437573D01*
X123808709Y-112483947D01*
X123808720Y-112483959D01*
X123960820Y-112628985D01*
X124080443Y-112705862D01*
X124137628Y-112742613D01*
X124332743Y-112820725D01*
X124412236Y-112836046D01*
X124539114Y-112860500D01*
X124539115Y-112860500D01*
X125496619Y-112860500D01*
X125496625Y-112860500D01*
X125653418Y-112845528D01*
X125855075Y-112786316D01*
X126041882Y-112690011D01*
X126207086Y-112560092D01*
X126344719Y-112401256D01*
X126351126Y-112390160D01*
X126449801Y-112219249D01*
X126449800Y-112219249D01*
X126449804Y-112219244D01*
X126518544Y-112020633D01*
X126548454Y-111812602D01*
X126543443Y-111707401D01*
X148939946Y-111707401D01*
X148949945Y-111917327D01*
X148999496Y-112121578D01*
X148999498Y-112121582D01*
X149086798Y-112312743D01*
X149086801Y-112312748D01*
X149086802Y-112312750D01*
X149086804Y-112312753D01*
X149208714Y-112483952D01*
X149208715Y-112483953D01*
X149208720Y-112483959D01*
X149360820Y-112628985D01*
X149480443Y-112705862D01*
X149537628Y-112742613D01*
X149732743Y-112820725D01*
X149812236Y-112836046D01*
X149939114Y-112860500D01*
X149939115Y-112860500D01*
X150896619Y-112860500D01*
X150896625Y-112860500D01*
X151053418Y-112845528D01*
X151255075Y-112786316D01*
X151441882Y-112690011D01*
X151607086Y-112560092D01*
X151744719Y-112401256D01*
X151751126Y-112390160D01*
X151849801Y-112219249D01*
X151849800Y-112219249D01*
X151849804Y-112219244D01*
X151918544Y-112020633D01*
X151948454Y-111812602D01*
X151938454Y-111602670D01*
X151888904Y-111398424D01*
X151884623Y-111389050D01*
X151801601Y-111207256D01*
X151801598Y-111207251D01*
X151801597Y-111207250D01*
X151801596Y-111207247D01*
X151679686Y-111036048D01*
X151679684Y-111036046D01*
X151679679Y-111036040D01*
X151527579Y-110891014D01*
X151350774Y-110777388D01*
X151155655Y-110699274D01*
X150949286Y-110659500D01*
X150949285Y-110659500D01*
X149991775Y-110659500D01*
X149834982Y-110674472D01*
X149834978Y-110674473D01*
X149633327Y-110733683D01*
X149446513Y-110829991D01*
X149281316Y-110959905D01*
X149281312Y-110959909D01*
X149143678Y-111118746D01*
X149038598Y-111300750D01*
X148969856Y-111499365D01*
X148969856Y-111499367D01*
X148940525Y-111703377D01*
X148939946Y-111707401D01*
X126543443Y-111707401D01*
X126538454Y-111602670D01*
X126488904Y-111398424D01*
X126484623Y-111389050D01*
X126401601Y-111207256D01*
X126401598Y-111207251D01*
X126401597Y-111207250D01*
X126401596Y-111207247D01*
X126279686Y-111036048D01*
X126279684Y-111036046D01*
X126279679Y-111036040D01*
X126127579Y-110891014D01*
X125950774Y-110777388D01*
X125755655Y-110699274D01*
X125549286Y-110659500D01*
X125549285Y-110659500D01*
X124591775Y-110659500D01*
X124434982Y-110674472D01*
X124434978Y-110674473D01*
X124233327Y-110733683D01*
X124046513Y-110829991D01*
X123881316Y-110959905D01*
X123881312Y-110959909D01*
X123767112Y-111091703D01*
X123708333Y-111129477D01*
X123673399Y-111134500D01*
X122020453Y-111134500D01*
X121953414Y-111114815D01*
X121932772Y-111098181D01*
X121738960Y-110904369D01*
X121705475Y-110843046D01*
X121703323Y-110829668D01*
X121685674Y-110661744D01*
X121627179Y-110481716D01*
X121532533Y-110317784D01*
X121405871Y-110177112D01*
X121368570Y-110150011D01*
X121252734Y-110065851D01*
X121252729Y-110065848D01*
X121079807Y-109988857D01*
X121079802Y-109988855D01*
X120934001Y-109957865D01*
X120894646Y-109949500D01*
X120705354Y-109949500D01*
X120672897Y-109956398D01*
X120520197Y-109988855D01*
X120520192Y-109988857D01*
X120347270Y-110065848D01*
X120347265Y-110065851D01*
X120194129Y-110177111D01*
X120067466Y-110317785D01*
X119972821Y-110481715D01*
X119972818Y-110481722D01*
X119924533Y-110630330D01*
X119914326Y-110661744D01*
X119894540Y-110850000D01*
X119034588Y-110850000D01*
X121056169Y-108828419D01*
X121117490Y-108794936D01*
X121187182Y-108799920D01*
X121243115Y-108841792D01*
X121251235Y-108854102D01*
X121267466Y-108882214D01*
X121267465Y-108882214D01*
X121394129Y-109022888D01*
X121547265Y-109134148D01*
X121547270Y-109134151D01*
X121720192Y-109211142D01*
X121720197Y-109211144D01*
X121905354Y-109250500D01*
X121964548Y-109250500D01*
X122031587Y-109270185D01*
X122052229Y-109286819D01*
X122369194Y-109603784D01*
X122379019Y-109616048D01*
X122379240Y-109615866D01*
X122384210Y-109621873D01*
X122384213Y-109621876D01*
X122384214Y-109621877D01*
X122434651Y-109669241D01*
X122455529Y-109690119D01*
X122461004Y-109694366D01*
X122465446Y-109698160D01*
X122499415Y-109730060D01*
X122499417Y-109730061D01*
X122499418Y-109730062D01*
X122516976Y-109739714D01*
X122533237Y-109750396D01*
X122549064Y-109762673D01*
X122591823Y-109781176D01*
X122597073Y-109783748D01*
X122637904Y-109806195D01*
X122637908Y-109806197D01*
X122637912Y-109806198D01*
X122657311Y-109811179D01*
X122675722Y-109817483D01*
X122694097Y-109825435D01*
X122694100Y-109825435D01*
X122694105Y-109825438D01*
X122740149Y-109832729D01*
X122745832Y-109833906D01*
X122790981Y-109845500D01*
X122811016Y-109845500D01*
X122830413Y-109847026D01*
X122850196Y-109850160D01*
X122896584Y-109845775D01*
X122902422Y-109845500D01*
X123674680Y-109845500D01*
X123741719Y-109865185D01*
X123775687Y-109897573D01*
X123808709Y-109943947D01*
X123808720Y-109943959D01*
X123960820Y-110088985D01*
X124055778Y-110150011D01*
X124137628Y-110202613D01*
X124332743Y-110280725D01*
X124435929Y-110300612D01*
X124539114Y-110320500D01*
X124539115Y-110320500D01*
X125496619Y-110320500D01*
X125496625Y-110320500D01*
X125653418Y-110305528D01*
X125855075Y-110246316D01*
X126041882Y-110150011D01*
X126207086Y-110020092D01*
X126344719Y-109861256D01*
X126351126Y-109850160D01*
X126449801Y-109679249D01*
X126449800Y-109679249D01*
X126449804Y-109679244D01*
X126518544Y-109480633D01*
X126548454Y-109272602D01*
X126543443Y-109167401D01*
X148939946Y-109167401D01*
X148949945Y-109377327D01*
X148999496Y-109581578D01*
X148999498Y-109581582D01*
X149086798Y-109772743D01*
X149086801Y-109772748D01*
X149086802Y-109772750D01*
X149086804Y-109772753D01*
X149208714Y-109943952D01*
X149208715Y-109943953D01*
X149208720Y-109943959D01*
X149360820Y-110088985D01*
X149455778Y-110150011D01*
X149537628Y-110202613D01*
X149732743Y-110280725D01*
X149835929Y-110300612D01*
X149939114Y-110320500D01*
X149939115Y-110320500D01*
X150896619Y-110320500D01*
X150896625Y-110320500D01*
X151053418Y-110305528D01*
X151255075Y-110246316D01*
X151441882Y-110150011D01*
X151607086Y-110020092D01*
X151744719Y-109861256D01*
X151751126Y-109850160D01*
X151849801Y-109679249D01*
X151849800Y-109679249D01*
X151849804Y-109679244D01*
X151918544Y-109480633D01*
X151948454Y-109272602D01*
X151938454Y-109062670D01*
X151888904Y-108858424D01*
X151884560Y-108848912D01*
X151801601Y-108667256D01*
X151801598Y-108667251D01*
X151801597Y-108667250D01*
X151801596Y-108667247D01*
X151679686Y-108496048D01*
X151679684Y-108496046D01*
X151679679Y-108496040D01*
X151527579Y-108351014D01*
X151350774Y-108237388D01*
X151155655Y-108159274D01*
X150949286Y-108119500D01*
X150949285Y-108119500D01*
X149991775Y-108119500D01*
X149834982Y-108134472D01*
X149834978Y-108134473D01*
X149633327Y-108193683D01*
X149446513Y-108289991D01*
X149281316Y-108419905D01*
X149281312Y-108419909D01*
X149143678Y-108578746D01*
X149038598Y-108760750D01*
X148969856Y-108959365D01*
X148969856Y-108959367D01*
X148940525Y-109163377D01*
X148939946Y-109167401D01*
X126543443Y-109167401D01*
X126538454Y-109062670D01*
X126488904Y-108858424D01*
X126484560Y-108848912D01*
X126401601Y-108667256D01*
X126401598Y-108667251D01*
X126401597Y-108667250D01*
X126401596Y-108667247D01*
X126279686Y-108496048D01*
X126279684Y-108496046D01*
X126279679Y-108496040D01*
X126127579Y-108351014D01*
X125950774Y-108237388D01*
X125755655Y-108159274D01*
X125549286Y-108119500D01*
X125549285Y-108119500D01*
X124591775Y-108119500D01*
X124434982Y-108134472D01*
X124434978Y-108134473D01*
X124233327Y-108193683D01*
X124046513Y-108289991D01*
X123881316Y-108419905D01*
X123881312Y-108419909D01*
X123767112Y-108551703D01*
X123708333Y-108589477D01*
X123673399Y-108594500D01*
X123180452Y-108594500D01*
X123113413Y-108574815D01*
X123092771Y-108558181D01*
X123017784Y-108483194D01*
X122938958Y-108404368D01*
X122905475Y-108343047D01*
X122903323Y-108329671D01*
X122885674Y-108161744D01*
X122827179Y-107981716D01*
X122732533Y-107817784D01*
X122605871Y-107677112D01*
X122492581Y-107594802D01*
X122449915Y-107539472D01*
X122443936Y-107469859D01*
X122476542Y-107408064D01*
X122477715Y-107406873D01*
X123328887Y-106555701D01*
X123390208Y-106522218D01*
X123459900Y-106527202D01*
X123515833Y-106569074D01*
X123540250Y-106634538D01*
X123540426Y-106637484D01*
X123549945Y-106837327D01*
X123599496Y-107041578D01*
X123599498Y-107041582D01*
X123686798Y-107232743D01*
X123686801Y-107232748D01*
X123686802Y-107232750D01*
X123686804Y-107232753D01*
X123808714Y-107403952D01*
X123808715Y-107403953D01*
X123808720Y-107403959D01*
X123960820Y-107548985D01*
X124055778Y-107610011D01*
X124137628Y-107662613D01*
X124332743Y-107740725D01*
X124393490Y-107752433D01*
X124539114Y-107780500D01*
X124539115Y-107780500D01*
X125496619Y-107780500D01*
X125496625Y-107780500D01*
X125653418Y-107765528D01*
X125855075Y-107706316D01*
X126041882Y-107610011D01*
X126207086Y-107480092D01*
X126344719Y-107321256D01*
X126366577Y-107283398D01*
X126449801Y-107139249D01*
X126449800Y-107139249D01*
X126449804Y-107139244D01*
X126518544Y-106940633D01*
X126548454Y-106732602D01*
X126543443Y-106627401D01*
X148939946Y-106627401D01*
X148949945Y-106837327D01*
X148999496Y-107041578D01*
X148999498Y-107041582D01*
X149086798Y-107232743D01*
X149086801Y-107232748D01*
X149086802Y-107232750D01*
X149086804Y-107232753D01*
X149208714Y-107403952D01*
X149208715Y-107403953D01*
X149208720Y-107403959D01*
X149360820Y-107548985D01*
X149455778Y-107610011D01*
X149537628Y-107662613D01*
X149732743Y-107740725D01*
X149793490Y-107752433D01*
X149939114Y-107780500D01*
X149939115Y-107780500D01*
X150896619Y-107780500D01*
X150896625Y-107780500D01*
X151053418Y-107765528D01*
X151255075Y-107706316D01*
X151441882Y-107610011D01*
X151607086Y-107480092D01*
X151744719Y-107321256D01*
X151766577Y-107283398D01*
X151849801Y-107139249D01*
X151849800Y-107139249D01*
X151849804Y-107139244D01*
X151918544Y-106940633D01*
X151948454Y-106732602D01*
X151938454Y-106522670D01*
X151888904Y-106318424D01*
X151863134Y-106261995D01*
X151801601Y-106127256D01*
X151801598Y-106127251D01*
X151801597Y-106127250D01*
X151801596Y-106127247D01*
X151679686Y-105956048D01*
X151679684Y-105956046D01*
X151679679Y-105956040D01*
X151527579Y-105811014D01*
X151350774Y-105697388D01*
X151331188Y-105689547D01*
X151192491Y-105634021D01*
X151155655Y-105619274D01*
X150949286Y-105579500D01*
X150949285Y-105579500D01*
X149991775Y-105579500D01*
X149834982Y-105594472D01*
X149834978Y-105594473D01*
X149633327Y-105653683D01*
X149446513Y-105749991D01*
X149281316Y-105879905D01*
X149281312Y-105879909D01*
X149143678Y-106038746D01*
X149038598Y-106220750D01*
X148969856Y-106419365D01*
X148969856Y-106419367D01*
X148940525Y-106623377D01*
X148939946Y-106627401D01*
X126543443Y-106627401D01*
X126538454Y-106522670D01*
X126488904Y-106318424D01*
X126463134Y-106261995D01*
X126401601Y-106127256D01*
X126401598Y-106127251D01*
X126401597Y-106127250D01*
X126401596Y-106127247D01*
X126279686Y-105956048D01*
X126279684Y-105956046D01*
X126279679Y-105956040D01*
X126127579Y-105811014D01*
X125950774Y-105697388D01*
X125931188Y-105689547D01*
X125792491Y-105634021D01*
X125755655Y-105619274D01*
X125549286Y-105579500D01*
X125549285Y-105579500D01*
X124591775Y-105579500D01*
X124434982Y-105594472D01*
X124434978Y-105594473D01*
X124233327Y-105653683D01*
X124046513Y-105749991D01*
X123881316Y-105879905D01*
X123881311Y-105879910D01*
X123843212Y-105923879D01*
X123784434Y-105961652D01*
X123714564Y-105961652D01*
X123655786Y-105923877D01*
X123626762Y-105860321D01*
X123625500Y-105842675D01*
X123625500Y-104978135D01*
X123645185Y-104911096D01*
X123697989Y-104865341D01*
X123767147Y-104855397D01*
X123830703Y-104884422D01*
X123835070Y-104888392D01*
X123961132Y-105008592D01*
X124137857Y-105122166D01*
X124332885Y-105200244D01*
X124539162Y-105240000D01*
X124794200Y-105240000D01*
X124794200Y-104455686D01*
X124806155Y-104467641D01*
X124919052Y-104525165D01*
X125012719Y-104540000D01*
X125075681Y-104540000D01*
X125169348Y-104525165D01*
X125282245Y-104467641D01*
X125294200Y-104455686D01*
X125294200Y-105240000D01*
X125496598Y-105240000D01*
X125653322Y-105225034D01*
X125653326Y-105225033D01*
X125854886Y-105165850D01*
X126041614Y-105069586D01*
X126206737Y-104939731D01*
X126206740Y-104939728D01*
X126344305Y-104780969D01*
X126344314Y-104780958D01*
X126449344Y-104599039D01*
X126449347Y-104599032D01*
X126518055Y-104400517D01*
X126518055Y-104400515D01*
X126519568Y-104390000D01*
X125359886Y-104390000D01*
X125371841Y-104378045D01*
X125429365Y-104265148D01*
X125449186Y-104140000D01*
X125440855Y-104087401D01*
X148939946Y-104087401D01*
X148949945Y-104297327D01*
X148999496Y-104501578D01*
X148999498Y-104501582D01*
X149086798Y-104692743D01*
X149086801Y-104692748D01*
X149086802Y-104692750D01*
X149086804Y-104692753D01*
X149203197Y-104856204D01*
X149208715Y-104863953D01*
X149208720Y-104863959D01*
X149360820Y-105008985D01*
X149470282Y-105079332D01*
X149537628Y-105122613D01*
X149732743Y-105200725D01*
X149814062Y-105216398D01*
X149939114Y-105240500D01*
X149939115Y-105240500D01*
X150896619Y-105240500D01*
X150896625Y-105240500D01*
X151053418Y-105225528D01*
X151255075Y-105166316D01*
X151441882Y-105070011D01*
X151442423Y-105069586D01*
X151607083Y-104940094D01*
X151607086Y-104940092D01*
X151744719Y-104781256D01*
X151748059Y-104775472D01*
X151849801Y-104599249D01*
X151849800Y-104599249D01*
X151849804Y-104599244D01*
X151918544Y-104400633D01*
X151948454Y-104192602D01*
X151938454Y-103982670D01*
X151888904Y-103778424D01*
X151878131Y-103754835D01*
X151801601Y-103587256D01*
X151801598Y-103587251D01*
X151801597Y-103587250D01*
X151801596Y-103587247D01*
X151679686Y-103416048D01*
X151679684Y-103416046D01*
X151679679Y-103416040D01*
X151527579Y-103271014D01*
X151350774Y-103157388D01*
X151155655Y-103079274D01*
X150949286Y-103039500D01*
X150949285Y-103039500D01*
X149991775Y-103039500D01*
X149834982Y-103054472D01*
X149834978Y-103054473D01*
X149633327Y-103113683D01*
X149446513Y-103209991D01*
X149281316Y-103339905D01*
X149281312Y-103339909D01*
X149143678Y-103498746D01*
X149038598Y-103680750D01*
X148969856Y-103879365D01*
X148969856Y-103879367D01*
X148940525Y-104083377D01*
X148939946Y-104087401D01*
X125440855Y-104087401D01*
X125429365Y-104014852D01*
X125371841Y-103901955D01*
X125359886Y-103890000D01*
X126515457Y-103890000D01*
X126488429Y-103778590D01*
X126401159Y-103587492D01*
X126279310Y-103416380D01*
X126279304Y-103416374D01*
X126127267Y-103271407D01*
X125950542Y-103157833D01*
X125755514Y-103079755D01*
X125549238Y-103040000D01*
X125294200Y-103040000D01*
X125294200Y-103824314D01*
X125282245Y-103812359D01*
X125169348Y-103754835D01*
X125075681Y-103740000D01*
X125012719Y-103740000D01*
X124919052Y-103754835D01*
X124806155Y-103812359D01*
X124794200Y-103824314D01*
X124794200Y-103040000D01*
X124591802Y-103040000D01*
X124435077Y-103054965D01*
X124435073Y-103054966D01*
X124233513Y-103114149D01*
X124046785Y-103210413D01*
X123881662Y-103340268D01*
X123881659Y-103340272D01*
X123843213Y-103384641D01*
X123784435Y-103422415D01*
X123714565Y-103422415D01*
X123655787Y-103384641D01*
X123626762Y-103321085D01*
X123625500Y-103303438D01*
X123625500Y-102438825D01*
X123645185Y-102371786D01*
X123697989Y-102326031D01*
X123767147Y-102316087D01*
X123830703Y-102345112D01*
X123835063Y-102349076D01*
X123929190Y-102438825D01*
X123960823Y-102468987D01*
X124055778Y-102530011D01*
X124137628Y-102582613D01*
X124332743Y-102660725D01*
X124435929Y-102680612D01*
X124539114Y-102700500D01*
X124539115Y-102700500D01*
X125496619Y-102700500D01*
X125496625Y-102700500D01*
X125653418Y-102685528D01*
X125855075Y-102626316D01*
X126041882Y-102530011D01*
X126207086Y-102400092D01*
X126344719Y-102241256D01*
X126351951Y-102228731D01*
X126449801Y-102059249D01*
X126449800Y-102059249D01*
X126449804Y-102059244D01*
X126518544Y-101860633D01*
X126548454Y-101652602D01*
X126543443Y-101547401D01*
X148939946Y-101547401D01*
X148949945Y-101757327D01*
X148999496Y-101961578D01*
X148999498Y-101961582D01*
X149086798Y-102152743D01*
X149086801Y-102152748D01*
X149086802Y-102152750D01*
X149086804Y-102152753D01*
X149208714Y-102323952D01*
X149208715Y-102323953D01*
X149208720Y-102323959D01*
X149360820Y-102468985D01*
X149455778Y-102530011D01*
X149537628Y-102582613D01*
X149732743Y-102660725D01*
X149835929Y-102680612D01*
X149939114Y-102700500D01*
X149939115Y-102700500D01*
X150896619Y-102700500D01*
X150896625Y-102700500D01*
X151053418Y-102685528D01*
X151255075Y-102626316D01*
X151441882Y-102530011D01*
X151607086Y-102400092D01*
X151744719Y-102241256D01*
X151751951Y-102228731D01*
X151849801Y-102059249D01*
X151849800Y-102059249D01*
X151849804Y-102059244D01*
X151918544Y-101860633D01*
X151948454Y-101652602D01*
X151938454Y-101442670D01*
X151888904Y-101238424D01*
X151861564Y-101178557D01*
X151801601Y-101047256D01*
X151801598Y-101047251D01*
X151801597Y-101047250D01*
X151801596Y-101047247D01*
X151679686Y-100876048D01*
X151679684Y-100876046D01*
X151679679Y-100876040D01*
X151527579Y-100731014D01*
X151350774Y-100617388D01*
X151155655Y-100539274D01*
X150949286Y-100499500D01*
X150949285Y-100499500D01*
X149991775Y-100499500D01*
X149835066Y-100514464D01*
X149834982Y-100514472D01*
X149834978Y-100514473D01*
X149633327Y-100573683D01*
X149446513Y-100669991D01*
X149281316Y-100799905D01*
X149281312Y-100799909D01*
X149143678Y-100958746D01*
X149038598Y-101140750D01*
X148969856Y-101339365D01*
X148969856Y-101339367D01*
X148940468Y-101543773D01*
X148939946Y-101547401D01*
X126543443Y-101547401D01*
X126538454Y-101442670D01*
X126488904Y-101238424D01*
X126461564Y-101178557D01*
X126401601Y-101047256D01*
X126401598Y-101047251D01*
X126401597Y-101047250D01*
X126401596Y-101047247D01*
X126279686Y-100876048D01*
X126279684Y-100876046D01*
X126279679Y-100876040D01*
X126127579Y-100731014D01*
X125950774Y-100617388D01*
X125755655Y-100539274D01*
X125549286Y-100499500D01*
X125549285Y-100499500D01*
X124591775Y-100499500D01*
X124435066Y-100514464D01*
X124434982Y-100514472D01*
X124434978Y-100514473D01*
X124233327Y-100573683D01*
X124046513Y-100669991D01*
X123881316Y-100799905D01*
X123881312Y-100799909D01*
X123767112Y-100931703D01*
X123708333Y-100969477D01*
X123673399Y-100974500D01*
X123482737Y-100974500D01*
X123467120Y-100972776D01*
X123467093Y-100973062D01*
X123459331Y-100972327D01*
X123390203Y-100974500D01*
X123360650Y-100974500D01*
X123359929Y-100974590D01*
X123353757Y-100975369D01*
X123347945Y-100975826D01*
X123301372Y-100977290D01*
X123301369Y-100977291D01*
X123282126Y-100982881D01*
X123263083Y-100986825D01*
X123243206Y-100989336D01*
X123223915Y-100996974D01*
X123154337Y-101003348D01*
X123092357Y-100971094D01*
X123057655Y-100910451D01*
X123061247Y-100840674D01*
X123090588Y-100794001D01*
X123886989Y-99997600D01*
X123948310Y-99964117D01*
X124018002Y-99969101D01*
X124041703Y-99980965D01*
X124137628Y-100042613D01*
X124332743Y-100120725D01*
X124426276Y-100138752D01*
X124539114Y-100160500D01*
X124539115Y-100160500D01*
X125496619Y-100160500D01*
X125496625Y-100160500D01*
X125653418Y-100145528D01*
X125855075Y-100086316D01*
X126041882Y-99990011D01*
X126207086Y-99860092D01*
X126344719Y-99701256D01*
X126345733Y-99699501D01*
X126449801Y-99519249D01*
X126449800Y-99519249D01*
X126449804Y-99519244D01*
X126518544Y-99320633D01*
X126548454Y-99112602D01*
X126543443Y-99007401D01*
X148939946Y-99007401D01*
X148949945Y-99217327D01*
X148999496Y-99421578D01*
X148999498Y-99421582D01*
X149086798Y-99612743D01*
X149086801Y-99612748D01*
X149086802Y-99612750D01*
X149086804Y-99612753D01*
X149208714Y-99783952D01*
X149208715Y-99783953D01*
X149208720Y-99783959D01*
X149360820Y-99928985D01*
X149455778Y-99990011D01*
X149537628Y-100042613D01*
X149732743Y-100120725D01*
X149826276Y-100138752D01*
X149939114Y-100160500D01*
X149939115Y-100160500D01*
X150896619Y-100160500D01*
X150896625Y-100160500D01*
X151053418Y-100145528D01*
X151255075Y-100086316D01*
X151441882Y-99990011D01*
X151607086Y-99860092D01*
X151744719Y-99701256D01*
X151745733Y-99699501D01*
X151849801Y-99519249D01*
X151849800Y-99519249D01*
X151849804Y-99519244D01*
X151918544Y-99320633D01*
X151948454Y-99112602D01*
X151938454Y-98902670D01*
X151888904Y-98698424D01*
X151881855Y-98682989D01*
X151801601Y-98507256D01*
X151801598Y-98507251D01*
X151801597Y-98507250D01*
X151801596Y-98507247D01*
X151679686Y-98336048D01*
X151679684Y-98336046D01*
X151679679Y-98336040D01*
X151527579Y-98191014D01*
X151350774Y-98077388D01*
X151155655Y-97999274D01*
X150949286Y-97959500D01*
X150949285Y-97959500D01*
X149991775Y-97959500D01*
X149834982Y-97974472D01*
X149834978Y-97974473D01*
X149633327Y-98033683D01*
X149446513Y-98129991D01*
X149281316Y-98259905D01*
X149281312Y-98259909D01*
X149143678Y-98418746D01*
X149038598Y-98600750D01*
X148969856Y-98799365D01*
X148969856Y-98799367D01*
X148940525Y-99003377D01*
X148939946Y-99007401D01*
X126543443Y-99007401D01*
X126538454Y-98902670D01*
X126488904Y-98698424D01*
X126481855Y-98682989D01*
X126401601Y-98507256D01*
X126401598Y-98507251D01*
X126401597Y-98507250D01*
X126401596Y-98507247D01*
X126279686Y-98336048D01*
X126279684Y-98336046D01*
X126279679Y-98336040D01*
X126127579Y-98191014D01*
X125950774Y-98077388D01*
X125755655Y-97999274D01*
X125549286Y-97959500D01*
X125549285Y-97959500D01*
X124591775Y-97959500D01*
X124434982Y-97974472D01*
X124434978Y-97974473D01*
X124233327Y-98033683D01*
X124046513Y-98129991D01*
X123881316Y-98259905D01*
X123881312Y-98259909D01*
X123743683Y-98418741D01*
X123743680Y-98418745D01*
X123733063Y-98437134D01*
X123688794Y-98481865D01*
X123672365Y-98491580D01*
X123654901Y-98500135D01*
X123636272Y-98507511D01*
X123636267Y-98507513D01*
X123598564Y-98534906D01*
X123593682Y-98538112D01*
X123553580Y-98561828D01*
X123539408Y-98576000D01*
X123524623Y-98588628D01*
X123508412Y-98600407D01*
X123478709Y-98636310D01*
X123474777Y-98640631D01*
X121837181Y-100278227D01*
X121775858Y-100311712D01*
X121706166Y-100306728D01*
X121650233Y-100264856D01*
X121625816Y-100199392D01*
X121625500Y-100190546D01*
X121625500Y-99310451D01*
X121645185Y-99243412D01*
X121661814Y-99222775D01*
X123637057Y-97247531D01*
X123698378Y-97214048D01*
X123768070Y-97219032D01*
X123810305Y-97245470D01*
X123960823Y-97388987D01*
X124055778Y-97450011D01*
X124137628Y-97502613D01*
X124332743Y-97580725D01*
X124435929Y-97600612D01*
X124539114Y-97620500D01*
X124539115Y-97620500D01*
X125496619Y-97620500D01*
X125496625Y-97620500D01*
X125653418Y-97605528D01*
X125855075Y-97546316D01*
X126041882Y-97450011D01*
X126207086Y-97320092D01*
X126344719Y-97161256D01*
X126385237Y-97091078D01*
X126449801Y-96979249D01*
X126449800Y-96979249D01*
X126449804Y-96979244D01*
X126518544Y-96780633D01*
X126548454Y-96572602D01*
X126543443Y-96467401D01*
X148939946Y-96467401D01*
X148949945Y-96677327D01*
X148999496Y-96881578D01*
X148999498Y-96881582D01*
X149086798Y-97072743D01*
X149086801Y-97072748D01*
X149086802Y-97072750D01*
X149086804Y-97072753D01*
X149176983Y-97199392D01*
X149208715Y-97243953D01*
X149208720Y-97243959D01*
X149360820Y-97388985D01*
X149455778Y-97450011D01*
X149537628Y-97502613D01*
X149732743Y-97580725D01*
X149835929Y-97600612D01*
X149939114Y-97620500D01*
X149939115Y-97620500D01*
X150896619Y-97620500D01*
X150896625Y-97620500D01*
X151053418Y-97605528D01*
X151255075Y-97546316D01*
X151441882Y-97450011D01*
X151607086Y-97320092D01*
X151744719Y-97161256D01*
X151785237Y-97091078D01*
X151849801Y-96979249D01*
X151849800Y-96979249D01*
X151849804Y-96979244D01*
X151918544Y-96780633D01*
X151948454Y-96572602D01*
X151938454Y-96362670D01*
X151888904Y-96158424D01*
X151861566Y-96098562D01*
X151801601Y-95967256D01*
X151801598Y-95967251D01*
X151801597Y-95967250D01*
X151801596Y-95967247D01*
X151679686Y-95796048D01*
X151679684Y-95796046D01*
X151679679Y-95796040D01*
X151527579Y-95651014D01*
X151350774Y-95537388D01*
X151155655Y-95459274D01*
X150949286Y-95419500D01*
X150949285Y-95419500D01*
X149991775Y-95419500D01*
X149834982Y-95434472D01*
X149834978Y-95434473D01*
X149633327Y-95493683D01*
X149446513Y-95589991D01*
X149281316Y-95719905D01*
X149281312Y-95719909D01*
X149143678Y-95878746D01*
X149038598Y-96060750D01*
X148969856Y-96259365D01*
X148969856Y-96259367D01*
X148940525Y-96463377D01*
X148939946Y-96467401D01*
X126543443Y-96467401D01*
X126538454Y-96362670D01*
X126488904Y-96158424D01*
X126461566Y-96098562D01*
X126401601Y-95967256D01*
X126401598Y-95967251D01*
X126401597Y-95967250D01*
X126401596Y-95967247D01*
X126279686Y-95796048D01*
X126279684Y-95796046D01*
X126279679Y-95796040D01*
X126127579Y-95651014D01*
X125950774Y-95537388D01*
X125755655Y-95459274D01*
X125549286Y-95419500D01*
X125549285Y-95419500D01*
X124591775Y-95419500D01*
X124434982Y-95434472D01*
X124434978Y-95434473D01*
X124233327Y-95493683D01*
X124046513Y-95589991D01*
X123881316Y-95719905D01*
X123881312Y-95719909D01*
X123767112Y-95851703D01*
X123708333Y-95889477D01*
X123673399Y-95894500D01*
X123562743Y-95894500D01*
X123547122Y-95892775D01*
X123547095Y-95893061D01*
X123539333Y-95892326D01*
X123470172Y-95894500D01*
X123440649Y-95894500D01*
X123433778Y-95895367D01*
X123427959Y-95895825D01*
X123381374Y-95897289D01*
X123381368Y-95897290D01*
X123362126Y-95902880D01*
X123343087Y-95906823D01*
X123323217Y-95909334D01*
X123323211Y-95909335D01*
X123323208Y-95909336D01*
X123303913Y-95916975D01*
X123234336Y-95923349D01*
X123172356Y-95891095D01*
X123137654Y-95830452D01*
X123141246Y-95760675D01*
X123170589Y-95714000D01*
X123465089Y-95419500D01*
X123935689Y-94948899D01*
X123997010Y-94915416D01*
X124066701Y-94920400D01*
X124090408Y-94932266D01*
X124137628Y-94962613D01*
X124332743Y-95040725D01*
X124435929Y-95060612D01*
X124539114Y-95080500D01*
X124539115Y-95080500D01*
X125496619Y-95080500D01*
X125496625Y-95080500D01*
X125653418Y-95065528D01*
X125855075Y-95006316D01*
X126041882Y-94910011D01*
X126207086Y-94780092D01*
X126344719Y-94621256D01*
X126449804Y-94439244D01*
X126518544Y-94240633D01*
X126548454Y-94032602D01*
X126543443Y-93927401D01*
X148939946Y-93927401D01*
X148949945Y-94137327D01*
X148999496Y-94341578D01*
X148999498Y-94341582D01*
X149086798Y-94532743D01*
X149086801Y-94532748D01*
X149086802Y-94532750D01*
X149086804Y-94532753D01*
X149149827Y-94621256D01*
X149208715Y-94703953D01*
X149208720Y-94703959D01*
X149360820Y-94848985D01*
X149455778Y-94910011D01*
X149537628Y-94962613D01*
X149732743Y-95040725D01*
X149835929Y-95060612D01*
X149939114Y-95080500D01*
X149939115Y-95080500D01*
X150896619Y-95080500D01*
X150896625Y-95080500D01*
X151053418Y-95065528D01*
X151255075Y-95006316D01*
X151441882Y-94910011D01*
X151607086Y-94780092D01*
X151744719Y-94621256D01*
X151849804Y-94439244D01*
X151918544Y-94240633D01*
X151948454Y-94032602D01*
X151938454Y-93822670D01*
X151888904Y-93618424D01*
X151861564Y-93558557D01*
X151801601Y-93427256D01*
X151801598Y-93427251D01*
X151801597Y-93427250D01*
X151801596Y-93427247D01*
X151679686Y-93256048D01*
X151679684Y-93256046D01*
X151679679Y-93256040D01*
X151527579Y-93111014D01*
X151350774Y-92997388D01*
X151155655Y-92919274D01*
X150949286Y-92879500D01*
X150949285Y-92879500D01*
X149991775Y-92879500D01*
X149834982Y-92894472D01*
X149834978Y-92894473D01*
X149633327Y-92953683D01*
X149446513Y-93049991D01*
X149281316Y-93179905D01*
X149281312Y-93179909D01*
X149143678Y-93338746D01*
X149038598Y-93520750D01*
X148969856Y-93719365D01*
X148969856Y-93719367D01*
X148955004Y-93822670D01*
X148939946Y-93927401D01*
X126543443Y-93927401D01*
X126538454Y-93822670D01*
X126488904Y-93618424D01*
X126461564Y-93558557D01*
X126401601Y-93427256D01*
X126401598Y-93427251D01*
X126401597Y-93427250D01*
X126401596Y-93427247D01*
X126279686Y-93256048D01*
X126279684Y-93256046D01*
X126279679Y-93256040D01*
X126127579Y-93111014D01*
X125950774Y-92997388D01*
X125755655Y-92919274D01*
X125549286Y-92879500D01*
X125549285Y-92879500D01*
X124591775Y-92879500D01*
X124434982Y-92894472D01*
X124434978Y-92894473D01*
X124233327Y-92953683D01*
X124046513Y-93049991D01*
X123881316Y-93179905D01*
X123881312Y-93179909D01*
X123743683Y-93338741D01*
X123743680Y-93338745D01*
X123691587Y-93428971D01*
X123647325Y-93473699D01*
X123633582Y-93481826D01*
X123619408Y-93496000D01*
X123604623Y-93508628D01*
X123588412Y-93520407D01*
X123558709Y-93556310D01*
X123554777Y-93560631D01*
X119837181Y-97278227D01*
X119775858Y-97311712D01*
X119706166Y-97306728D01*
X119650233Y-97264856D01*
X119625816Y-97199392D01*
X119625500Y-97190546D01*
X119625500Y-96310452D01*
X119645185Y-96243413D01*
X119661819Y-96222771D01*
X121661819Y-94222771D01*
X123678011Y-92206578D01*
X123739332Y-92173095D01*
X123809024Y-92178079D01*
X123851255Y-92204515D01*
X123912822Y-92263218D01*
X123960823Y-92308987D01*
X124055778Y-92370011D01*
X124137628Y-92422613D01*
X124332743Y-92500725D01*
X124435929Y-92520612D01*
X124539114Y-92540500D01*
X124539115Y-92540500D01*
X125496619Y-92540500D01*
X125496625Y-92540500D01*
X125653418Y-92525528D01*
X125855075Y-92466316D01*
X126041882Y-92370011D01*
X126207086Y-92240092D01*
X126344719Y-92081256D01*
X126449804Y-91899244D01*
X126518544Y-91700633D01*
X126548454Y-91492602D01*
X126543443Y-91387401D01*
X148939946Y-91387401D01*
X148949945Y-91597327D01*
X148999496Y-91801578D01*
X148999498Y-91801582D01*
X149086798Y-91992743D01*
X149086801Y-91992748D01*
X149086802Y-91992750D01*
X149086804Y-91992753D01*
X149149827Y-92081256D01*
X149208715Y-92163953D01*
X149208720Y-92163959D01*
X149360820Y-92308985D01*
X149455778Y-92370011D01*
X149537628Y-92422613D01*
X149732743Y-92500725D01*
X149835929Y-92520612D01*
X149939114Y-92540500D01*
X149939115Y-92540500D01*
X150896619Y-92540500D01*
X150896625Y-92540500D01*
X151053418Y-92525528D01*
X151255075Y-92466316D01*
X151441882Y-92370011D01*
X151607086Y-92240092D01*
X151744719Y-92081256D01*
X151849804Y-91899244D01*
X151918544Y-91700633D01*
X151948454Y-91492602D01*
X151938454Y-91282670D01*
X151888904Y-91078424D01*
X151876405Y-91051055D01*
X151801601Y-90887256D01*
X151801598Y-90887251D01*
X151801597Y-90887250D01*
X151801596Y-90887247D01*
X151679686Y-90716048D01*
X151679684Y-90716046D01*
X151679679Y-90716040D01*
X151527579Y-90571014D01*
X151350774Y-90457388D01*
X151311994Y-90441863D01*
X151226120Y-90407484D01*
X151155655Y-90379274D01*
X150949286Y-90339500D01*
X150949285Y-90339500D01*
X149991775Y-90339500D01*
X149834982Y-90354472D01*
X149834978Y-90354473D01*
X149633327Y-90413683D01*
X149446513Y-90509991D01*
X149281316Y-90639905D01*
X149281312Y-90639909D01*
X149143678Y-90798746D01*
X149038598Y-90980750D01*
X148969856Y-91179365D01*
X148969856Y-91179367D01*
X148955004Y-91282670D01*
X148939946Y-91387401D01*
X126543443Y-91387401D01*
X126538454Y-91282670D01*
X126488904Y-91078424D01*
X126476405Y-91051055D01*
X126401601Y-90887256D01*
X126401598Y-90887251D01*
X126401597Y-90887250D01*
X126401596Y-90887247D01*
X126279686Y-90716048D01*
X126279684Y-90716046D01*
X126279679Y-90716040D01*
X126127579Y-90571014D01*
X125950774Y-90457388D01*
X125911994Y-90441863D01*
X125826120Y-90407484D01*
X125755655Y-90379274D01*
X125549286Y-90339500D01*
X125549285Y-90339500D01*
X124591775Y-90339500D01*
X124434982Y-90354472D01*
X124434978Y-90354473D01*
X124233327Y-90413683D01*
X124046513Y-90509991D01*
X123881316Y-90639905D01*
X123881312Y-90639909D01*
X123767112Y-90771703D01*
X123708333Y-90809477D01*
X123673399Y-90814500D01*
X123642743Y-90814500D01*
X123627122Y-90812775D01*
X123627096Y-90813061D01*
X123619334Y-90812327D01*
X123619333Y-90812327D01*
X123550186Y-90814500D01*
X123520649Y-90814500D01*
X123513766Y-90815369D01*
X123507949Y-90815826D01*
X123461373Y-90817290D01*
X123442129Y-90822881D01*
X123423079Y-90826825D01*
X123403211Y-90829334D01*
X123359884Y-90846488D01*
X123354358Y-90848379D01*
X123309614Y-90861379D01*
X123309610Y-90861381D01*
X123292366Y-90871579D01*
X123274905Y-90880133D01*
X123256274Y-90887510D01*
X123256262Y-90887517D01*
X123218570Y-90914902D01*
X123213687Y-90918109D01*
X123173580Y-90941829D01*
X123159414Y-90955995D01*
X123144624Y-90968627D01*
X123128414Y-90980404D01*
X123128411Y-90980407D01*
X123098710Y-91016309D01*
X123094777Y-91020631D01*
X118837181Y-95278228D01*
X118775858Y-95311713D01*
X118706166Y-95306729D01*
X118650233Y-95264857D01*
X118625816Y-95199393D01*
X118625500Y-95190547D01*
X118625500Y-94310452D01*
X118645185Y-94243413D01*
X118661819Y-94222771D01*
X123322772Y-89561819D01*
X123384095Y-89528334D01*
X123410453Y-89525500D01*
X123674680Y-89525500D01*
X123741719Y-89545185D01*
X123775687Y-89577573D01*
X123808709Y-89623947D01*
X123808720Y-89623959D01*
X123960820Y-89768985D01*
X124055778Y-89830011D01*
X124137628Y-89882613D01*
X124332743Y-89960725D01*
X124369369Y-89967784D01*
X124539114Y-90000500D01*
X124539115Y-90000500D01*
X125496619Y-90000500D01*
X125496625Y-90000500D01*
X125653418Y-89985528D01*
X125855075Y-89926316D01*
X126041882Y-89830011D01*
X126045569Y-89827112D01*
X126187047Y-89715851D01*
X126207086Y-89700092D01*
X126344719Y-89541256D01*
X126449804Y-89359244D01*
X126518544Y-89160633D01*
X126548454Y-88952602D01*
X126543443Y-88847401D01*
X148939946Y-88847401D01*
X148949945Y-89057327D01*
X148999496Y-89261578D01*
X148999498Y-89261582D01*
X149086798Y-89452743D01*
X149086801Y-89452748D01*
X149086802Y-89452750D01*
X149086804Y-89452753D01*
X149208714Y-89623952D01*
X149208715Y-89623953D01*
X149208720Y-89623959D01*
X149360820Y-89768985D01*
X149455778Y-89830011D01*
X149537628Y-89882613D01*
X149732743Y-89960725D01*
X149769369Y-89967784D01*
X149939114Y-90000500D01*
X149939115Y-90000500D01*
X150896619Y-90000500D01*
X150896625Y-90000500D01*
X151053418Y-89985528D01*
X151255075Y-89926316D01*
X151441882Y-89830011D01*
X151445569Y-89827112D01*
X151587047Y-89715851D01*
X151607086Y-89700092D01*
X151744719Y-89541256D01*
X151849804Y-89359244D01*
X151918544Y-89160633D01*
X151948454Y-88952602D01*
X151938454Y-88742670D01*
X151888904Y-88538424D01*
X151861564Y-88478557D01*
X151801601Y-88347256D01*
X151801598Y-88347251D01*
X151801597Y-88347250D01*
X151801596Y-88347247D01*
X151679686Y-88176048D01*
X151679684Y-88176046D01*
X151679679Y-88176040D01*
X151527579Y-88031014D01*
X151350774Y-87917388D01*
X151155655Y-87839274D01*
X150949286Y-87799500D01*
X150949285Y-87799500D01*
X149991775Y-87799500D01*
X149834982Y-87814472D01*
X149834978Y-87814473D01*
X149633327Y-87873683D01*
X149446513Y-87969991D01*
X149281316Y-88099905D01*
X149281312Y-88099909D01*
X149143678Y-88258746D01*
X149038598Y-88440750D01*
X148969856Y-88639365D01*
X148969856Y-88639367D01*
X148955004Y-88742670D01*
X148939946Y-88847401D01*
X126543443Y-88847401D01*
X126538454Y-88742670D01*
X126488904Y-88538424D01*
X126461564Y-88478557D01*
X126401601Y-88347256D01*
X126401598Y-88347251D01*
X126401597Y-88347250D01*
X126401596Y-88347247D01*
X126279686Y-88176048D01*
X126279684Y-88176046D01*
X126279679Y-88176040D01*
X126127579Y-88031014D01*
X125950774Y-87917388D01*
X125755655Y-87839274D01*
X125549286Y-87799500D01*
X125549285Y-87799500D01*
X124591775Y-87799500D01*
X124434982Y-87814472D01*
X124434978Y-87814473D01*
X124233327Y-87873683D01*
X124046513Y-87969991D01*
X123881316Y-88099905D01*
X123881312Y-88099909D01*
X123767112Y-88231703D01*
X123708333Y-88269477D01*
X123673399Y-88274500D01*
X123182738Y-88274500D01*
X123167121Y-88272776D01*
X123167094Y-88273062D01*
X123159332Y-88272327D01*
X123090204Y-88274500D01*
X123060650Y-88274500D01*
X123059929Y-88274590D01*
X123053757Y-88275369D01*
X123047945Y-88275826D01*
X123001373Y-88277290D01*
X123001372Y-88277290D01*
X122982129Y-88282881D01*
X122963079Y-88286825D01*
X122943211Y-88289334D01*
X122943209Y-88289335D01*
X122899884Y-88306488D01*
X122894357Y-88308380D01*
X122849610Y-88321381D01*
X122849609Y-88321382D01*
X122832367Y-88331579D01*
X122814899Y-88340137D01*
X122796269Y-88347513D01*
X122796267Y-88347514D01*
X122758576Y-88374898D01*
X122753694Y-88378105D01*
X122713579Y-88401830D01*
X122699408Y-88416000D01*
X122684623Y-88428628D01*
X122668412Y-88440407D01*
X122638709Y-88476310D01*
X122634777Y-88480631D01*
X117837181Y-93278227D01*
X117775858Y-93311712D01*
X117706166Y-93306728D01*
X117650233Y-93264856D01*
X117625816Y-93199392D01*
X117625500Y-93190546D01*
X117625500Y-92310452D01*
X117645185Y-92243413D01*
X117661819Y-92222771D01*
X122862772Y-87021819D01*
X122924095Y-86988334D01*
X122950453Y-86985500D01*
X123674680Y-86985500D01*
X123741719Y-87005185D01*
X123775687Y-87037573D01*
X123808709Y-87083947D01*
X123808720Y-87083959D01*
X123960820Y-87228985D01*
X124055778Y-87290011D01*
X124137628Y-87342613D01*
X124332743Y-87420725D01*
X124435929Y-87440612D01*
X124539114Y-87460500D01*
X124539115Y-87460500D01*
X125496619Y-87460500D01*
X125496625Y-87460500D01*
X125653418Y-87445528D01*
X125855075Y-87386316D01*
X126041882Y-87290011D01*
X126042423Y-87289586D01*
X126102506Y-87242335D01*
X126207086Y-87160092D01*
X126344719Y-87001256D01*
X126345446Y-86999998D01*
X126449801Y-86819249D01*
X126449800Y-86819249D01*
X126449804Y-86819244D01*
X126518544Y-86620633D01*
X126548454Y-86412602D01*
X126538454Y-86202670D01*
X126515972Y-86110000D01*
X148968832Y-86110000D01*
X150128514Y-86110000D01*
X150116559Y-86121955D01*
X150059035Y-86234852D01*
X150039214Y-86360000D01*
X150059035Y-86485148D01*
X150116559Y-86598045D01*
X150128514Y-86610000D01*
X148972942Y-86610000D01*
X148999970Y-86721409D01*
X149087240Y-86912507D01*
X149209089Y-87083619D01*
X149209095Y-87083625D01*
X149361132Y-87228592D01*
X149537857Y-87342166D01*
X149732885Y-87420244D01*
X149939162Y-87460000D01*
X150194200Y-87460000D01*
X150194200Y-86675686D01*
X150206155Y-86687641D01*
X150319052Y-86745165D01*
X150412719Y-86760000D01*
X150475681Y-86760000D01*
X150569348Y-86745165D01*
X150682245Y-86687641D01*
X150694200Y-86675686D01*
X150694200Y-87460000D01*
X150896598Y-87460000D01*
X151053322Y-87445034D01*
X151053326Y-87445033D01*
X151254886Y-87385850D01*
X151441614Y-87289586D01*
X151606737Y-87159731D01*
X151606740Y-87159728D01*
X151744305Y-87000969D01*
X151744314Y-87000958D01*
X151849344Y-86819039D01*
X151849347Y-86819032D01*
X151918055Y-86620517D01*
X151918055Y-86620515D01*
X151919568Y-86610000D01*
X150759886Y-86610000D01*
X150771841Y-86598045D01*
X150829365Y-86485148D01*
X150849186Y-86360000D01*
X150829365Y-86234852D01*
X150771841Y-86121955D01*
X150759886Y-86110000D01*
X151915457Y-86110000D01*
X151888429Y-85998590D01*
X151801159Y-85807492D01*
X151679310Y-85636380D01*
X151679304Y-85636374D01*
X151527267Y-85491407D01*
X151350542Y-85377833D01*
X151155514Y-85299755D01*
X150949238Y-85260000D01*
X150694200Y-85260000D01*
X150694200Y-86044314D01*
X150682245Y-86032359D01*
X150569348Y-85974835D01*
X150475681Y-85960000D01*
X150412719Y-85960000D01*
X150319052Y-85974835D01*
X150206155Y-86032359D01*
X150194200Y-86044314D01*
X150194200Y-85260000D01*
X149991802Y-85260000D01*
X149835077Y-85274965D01*
X149835073Y-85274966D01*
X149633513Y-85334149D01*
X149446785Y-85430413D01*
X149281662Y-85560268D01*
X149281659Y-85560271D01*
X149144094Y-85719030D01*
X149144085Y-85719041D01*
X149039055Y-85900960D01*
X149039052Y-85900967D01*
X148970344Y-86099482D01*
X148970344Y-86099484D01*
X148968832Y-86110000D01*
X126515972Y-86110000D01*
X126488904Y-85998424D01*
X126478131Y-85974835D01*
X126401601Y-85807256D01*
X126401598Y-85807251D01*
X126401597Y-85807250D01*
X126401596Y-85807247D01*
X126279686Y-85636048D01*
X126279684Y-85636046D01*
X126279679Y-85636040D01*
X126127579Y-85491014D01*
X125950774Y-85377388D01*
X125933778Y-85370584D01*
X125755657Y-85299275D01*
X125755655Y-85299274D01*
X125549286Y-85259500D01*
X125549285Y-85259500D01*
X124591775Y-85259500D01*
X124451267Y-85272917D01*
X124434982Y-85274472D01*
X124434978Y-85274473D01*
X124233327Y-85333683D01*
X124046513Y-85429991D01*
X123881316Y-85559905D01*
X123881312Y-85559909D01*
X123767112Y-85691703D01*
X123708333Y-85729477D01*
X123673399Y-85734500D01*
X122722737Y-85734500D01*
X122707120Y-85732776D01*
X122707093Y-85733062D01*
X122699331Y-85732327D01*
X122630203Y-85734500D01*
X122600650Y-85734500D01*
X122599929Y-85734590D01*
X122593757Y-85735369D01*
X122587945Y-85735826D01*
X122541372Y-85737290D01*
X122541369Y-85737291D01*
X122522126Y-85742881D01*
X122503083Y-85746825D01*
X122483204Y-85749336D01*
X122483203Y-85749337D01*
X122463913Y-85756974D01*
X122394334Y-85763348D01*
X122332355Y-85731093D01*
X122297654Y-85670450D01*
X122301247Y-85600673D01*
X122330587Y-85554001D01*
X122383786Y-85500802D01*
X122396048Y-85490980D01*
X122395865Y-85490759D01*
X122401867Y-85485792D01*
X122401877Y-85485786D01*
X122449241Y-85435348D01*
X122470120Y-85414470D01*
X122474373Y-85408986D01*
X122478150Y-85404563D01*
X122510062Y-85370582D01*
X122519714Y-85353023D01*
X122530389Y-85336772D01*
X122542674Y-85320936D01*
X122561186Y-85278152D01*
X122563742Y-85272935D01*
X122586197Y-85232092D01*
X122591180Y-85212680D01*
X122597477Y-85194291D01*
X122605438Y-85175895D01*
X122612729Y-85129853D01*
X122613908Y-85124162D01*
X122625500Y-85079019D01*
X122625500Y-85058983D01*
X122627027Y-85039582D01*
X122630160Y-85019804D01*
X122625775Y-84973415D01*
X122625500Y-84967577D01*
X122625500Y-83767401D01*
X123539946Y-83767401D01*
X123549945Y-83977327D01*
X123599496Y-84181578D01*
X123599498Y-84181582D01*
X123686798Y-84372743D01*
X123686801Y-84372748D01*
X123686802Y-84372750D01*
X123686804Y-84372753D01*
X123808714Y-84543952D01*
X123808715Y-84543953D01*
X123808720Y-84543959D01*
X123960820Y-84688985D01*
X124055778Y-84750011D01*
X124137628Y-84802613D01*
X124332743Y-84880725D01*
X124435929Y-84900612D01*
X124539114Y-84920500D01*
X124539115Y-84920500D01*
X125496619Y-84920500D01*
X125496625Y-84920500D01*
X125653418Y-84905528D01*
X125855075Y-84846316D01*
X126041882Y-84750011D01*
X126207086Y-84620092D01*
X126344719Y-84461256D01*
X126398109Y-84368783D01*
X126445228Y-84287170D01*
X126449804Y-84279244D01*
X126518544Y-84080633D01*
X126548454Y-83872602D01*
X126543443Y-83767401D01*
X148939946Y-83767401D01*
X148949945Y-83977327D01*
X148999496Y-84181578D01*
X148999498Y-84181582D01*
X149086798Y-84372743D01*
X149086801Y-84372748D01*
X149086802Y-84372750D01*
X149086804Y-84372753D01*
X149208714Y-84543952D01*
X149208715Y-84543953D01*
X149208720Y-84543959D01*
X149360820Y-84688985D01*
X149455778Y-84750011D01*
X149537628Y-84802613D01*
X149732743Y-84880725D01*
X149835929Y-84900612D01*
X149939114Y-84920500D01*
X149939115Y-84920500D01*
X150896619Y-84920500D01*
X150896625Y-84920500D01*
X151053418Y-84905528D01*
X151255075Y-84846316D01*
X151441882Y-84750011D01*
X151607086Y-84620092D01*
X151744719Y-84461256D01*
X151798109Y-84368783D01*
X151845228Y-84287170D01*
X151849804Y-84279244D01*
X151918544Y-84080633D01*
X151948454Y-83872602D01*
X151938454Y-83662670D01*
X151888904Y-83458424D01*
X151888901Y-83458417D01*
X151801601Y-83267256D01*
X151801598Y-83267251D01*
X151801597Y-83267250D01*
X151801596Y-83267247D01*
X151679686Y-83096048D01*
X151679684Y-83096046D01*
X151679679Y-83096040D01*
X151527579Y-82951014D01*
X151350774Y-82837388D01*
X151155655Y-82759274D01*
X150949286Y-82719500D01*
X150949285Y-82719500D01*
X149991775Y-82719500D01*
X149834982Y-82734472D01*
X149834978Y-82734473D01*
X149633327Y-82793683D01*
X149446513Y-82889991D01*
X149281316Y-83019905D01*
X149281312Y-83019909D01*
X149143678Y-83178746D01*
X149038598Y-83360750D01*
X148969856Y-83559365D01*
X148969856Y-83559367D01*
X148950351Y-83695034D01*
X148939946Y-83767401D01*
X126543443Y-83767401D01*
X126538454Y-83662670D01*
X126488904Y-83458424D01*
X126488901Y-83458417D01*
X126401601Y-83267256D01*
X126401598Y-83267251D01*
X126401597Y-83267250D01*
X126401596Y-83267247D01*
X126279686Y-83096048D01*
X126279684Y-83096046D01*
X126279679Y-83096040D01*
X126127579Y-82951014D01*
X125950774Y-82837388D01*
X125755655Y-82759274D01*
X125549286Y-82719500D01*
X125549285Y-82719500D01*
X124591775Y-82719500D01*
X124434982Y-82734472D01*
X124434978Y-82734473D01*
X124233327Y-82793683D01*
X124046513Y-82889991D01*
X123881316Y-83019905D01*
X123881312Y-83019909D01*
X123743678Y-83178746D01*
X123638598Y-83360750D01*
X123569856Y-83559365D01*
X123569856Y-83559367D01*
X123550351Y-83695034D01*
X123539946Y-83767401D01*
X122625500Y-83767401D01*
X122625500Y-82570844D01*
X122627697Y-82547606D01*
X122629227Y-82539588D01*
X122625621Y-82482275D01*
X122625500Y-82478403D01*
X122625500Y-81227401D01*
X123539946Y-81227401D01*
X123549945Y-81437327D01*
X123599496Y-81641578D01*
X123599498Y-81641582D01*
X123686798Y-81832743D01*
X123686801Y-81832748D01*
X123686802Y-81832750D01*
X123686804Y-81832753D01*
X123749827Y-81921256D01*
X123808715Y-82003953D01*
X123808720Y-82003959D01*
X123960820Y-82148985D01*
X124055778Y-82210011D01*
X124137628Y-82262613D01*
X124332743Y-82340725D01*
X124435929Y-82360612D01*
X124539114Y-82380500D01*
X124539115Y-82380500D01*
X125496619Y-82380500D01*
X125496625Y-82380500D01*
X125653418Y-82365528D01*
X125855075Y-82306316D01*
X126041882Y-82210011D01*
X126207086Y-82080092D01*
X126344719Y-81921256D01*
X126378184Y-81863294D01*
X126449801Y-81739249D01*
X126449800Y-81739249D01*
X126449804Y-81739244D01*
X126518544Y-81540633D01*
X126548454Y-81332602D01*
X126543443Y-81227401D01*
X148939946Y-81227401D01*
X148949945Y-81437327D01*
X148999496Y-81641578D01*
X148999498Y-81641582D01*
X149086798Y-81832743D01*
X149086801Y-81832748D01*
X149086802Y-81832750D01*
X149086804Y-81832753D01*
X149149827Y-81921256D01*
X149208715Y-82003953D01*
X149208720Y-82003959D01*
X149360820Y-82148985D01*
X149455778Y-82210011D01*
X149537628Y-82262613D01*
X149732743Y-82340725D01*
X149835929Y-82360612D01*
X149939114Y-82380500D01*
X149939115Y-82380500D01*
X150896619Y-82380500D01*
X150896625Y-82380500D01*
X151053418Y-82365528D01*
X151255075Y-82306316D01*
X151441882Y-82210011D01*
X151607086Y-82080092D01*
X151744719Y-81921256D01*
X151778184Y-81863294D01*
X151849801Y-81739249D01*
X151849800Y-81739249D01*
X151849804Y-81739244D01*
X151918544Y-81540633D01*
X151948454Y-81332602D01*
X151938454Y-81122670D01*
X151888904Y-80918424D01*
X151860235Y-80855647D01*
X151801601Y-80727256D01*
X151801598Y-80727251D01*
X151801597Y-80727250D01*
X151801596Y-80727247D01*
X151679686Y-80556048D01*
X151679684Y-80556046D01*
X151679679Y-80556040D01*
X151527579Y-80411014D01*
X151350774Y-80297388D01*
X151155655Y-80219274D01*
X150949286Y-80179500D01*
X150949285Y-80179500D01*
X149991775Y-80179500D01*
X149834982Y-80194472D01*
X149834978Y-80194473D01*
X149633327Y-80253683D01*
X149446513Y-80349991D01*
X149281316Y-80479905D01*
X149281312Y-80479909D01*
X149143678Y-80638746D01*
X149038598Y-80820750D01*
X148969856Y-81019365D01*
X148969856Y-81019367D01*
X148955004Y-81122670D01*
X148939946Y-81227401D01*
X126543443Y-81227401D01*
X126538454Y-81122670D01*
X126488904Y-80918424D01*
X126460235Y-80855647D01*
X126401601Y-80727256D01*
X126401598Y-80727251D01*
X126401597Y-80727250D01*
X126401596Y-80727247D01*
X126279686Y-80556048D01*
X126279684Y-80556046D01*
X126279679Y-80556040D01*
X126127579Y-80411014D01*
X125950774Y-80297388D01*
X125755655Y-80219274D01*
X125549286Y-80179500D01*
X125549285Y-80179500D01*
X124591775Y-80179500D01*
X124434982Y-80194472D01*
X124434978Y-80194473D01*
X124233327Y-80253683D01*
X124046513Y-80349991D01*
X123881316Y-80479905D01*
X123881312Y-80479909D01*
X123743678Y-80638746D01*
X123638598Y-80820750D01*
X123569856Y-81019365D01*
X123569856Y-81019367D01*
X123555004Y-81122670D01*
X123539946Y-81227401D01*
X122625500Y-81227401D01*
X122625500Y-78687401D01*
X123539946Y-78687401D01*
X123549945Y-78897327D01*
X123599496Y-79101578D01*
X123599498Y-79101582D01*
X123686798Y-79292743D01*
X123686801Y-79292748D01*
X123686802Y-79292750D01*
X123686804Y-79292753D01*
X123749827Y-79381256D01*
X123808715Y-79463953D01*
X123808720Y-79463959D01*
X123960820Y-79608985D01*
X124055778Y-79670011D01*
X124137628Y-79722613D01*
X124332743Y-79800725D01*
X124435929Y-79820612D01*
X124539114Y-79840500D01*
X124539115Y-79840500D01*
X125496619Y-79840500D01*
X125496625Y-79840500D01*
X125653418Y-79825528D01*
X125855075Y-79766316D01*
X126041882Y-79670011D01*
X126075361Y-79643683D01*
X126119482Y-79608985D01*
X126207086Y-79540092D01*
X126344719Y-79381256D01*
X126370343Y-79336875D01*
X126449801Y-79199249D01*
X126449800Y-79199249D01*
X126449804Y-79199244D01*
X126518544Y-79000633D01*
X126548454Y-78792602D01*
X126543443Y-78687401D01*
X148939946Y-78687401D01*
X148949945Y-78897327D01*
X148999496Y-79101578D01*
X148999498Y-79101582D01*
X149086798Y-79292743D01*
X149086801Y-79292748D01*
X149086802Y-79292750D01*
X149086804Y-79292753D01*
X149149827Y-79381256D01*
X149208715Y-79463953D01*
X149208720Y-79463959D01*
X149360820Y-79608985D01*
X149455778Y-79670011D01*
X149537628Y-79722613D01*
X149732743Y-79800725D01*
X149835929Y-79820612D01*
X149939114Y-79840500D01*
X149939115Y-79840500D01*
X150896619Y-79840500D01*
X150896625Y-79840500D01*
X151053418Y-79825528D01*
X151255075Y-79766316D01*
X151441882Y-79670011D01*
X151475361Y-79643683D01*
X151519482Y-79608985D01*
X151607086Y-79540092D01*
X151744719Y-79381256D01*
X151770343Y-79336875D01*
X151849801Y-79199249D01*
X151849800Y-79199249D01*
X151849804Y-79199244D01*
X151918544Y-79000633D01*
X151948454Y-78792602D01*
X151938454Y-78582670D01*
X151888904Y-78378424D01*
X151888901Y-78378417D01*
X151801601Y-78187256D01*
X151801598Y-78187251D01*
X151801597Y-78187250D01*
X151801596Y-78187247D01*
X151679686Y-78016048D01*
X151679684Y-78016046D01*
X151679679Y-78016040D01*
X151527579Y-77871014D01*
X151350774Y-77757388D01*
X151313785Y-77742580D01*
X151155657Y-77679275D01*
X151155655Y-77679274D01*
X150949286Y-77639500D01*
X150949285Y-77639500D01*
X149991775Y-77639500D01*
X149841098Y-77653888D01*
X149834982Y-77654472D01*
X149834978Y-77654473D01*
X149633327Y-77713683D01*
X149446513Y-77809991D01*
X149281316Y-77939905D01*
X149281312Y-77939909D01*
X149143678Y-78098746D01*
X149038598Y-78280750D01*
X148969856Y-78479365D01*
X148969856Y-78479367D01*
X148946017Y-78645177D01*
X148939946Y-78687401D01*
X126543443Y-78687401D01*
X126538454Y-78582670D01*
X126488904Y-78378424D01*
X126488901Y-78378417D01*
X126401601Y-78187256D01*
X126401598Y-78187251D01*
X126401597Y-78187250D01*
X126401596Y-78187247D01*
X126279686Y-78016048D01*
X126279684Y-78016046D01*
X126279679Y-78016040D01*
X126127579Y-77871014D01*
X125950774Y-77757388D01*
X125913785Y-77742580D01*
X125755657Y-77679275D01*
X125755655Y-77679274D01*
X125549286Y-77639500D01*
X125549285Y-77639500D01*
X124591775Y-77639500D01*
X124441098Y-77653888D01*
X124434982Y-77654472D01*
X124434978Y-77654473D01*
X124233327Y-77713683D01*
X124046513Y-77809991D01*
X123881316Y-77939905D01*
X123881312Y-77939909D01*
X123743678Y-78098746D01*
X123638598Y-78280750D01*
X123569856Y-78479365D01*
X123569856Y-78479367D01*
X123546017Y-78645177D01*
X123539946Y-78687401D01*
X122625500Y-78687401D01*
X122625500Y-76147401D01*
X123539946Y-76147401D01*
X123549945Y-76357327D01*
X123599496Y-76561578D01*
X123599498Y-76561582D01*
X123686798Y-76752743D01*
X123686801Y-76752748D01*
X123686802Y-76752750D01*
X123686804Y-76752753D01*
X123749827Y-76841256D01*
X123808715Y-76923953D01*
X123808720Y-76923959D01*
X123960820Y-77068985D01*
X124055778Y-77130011D01*
X124137628Y-77182613D01*
X124332743Y-77260725D01*
X124435929Y-77280612D01*
X124539114Y-77300500D01*
X124539115Y-77300500D01*
X125496619Y-77300500D01*
X125496625Y-77300500D01*
X125653418Y-77285528D01*
X125855075Y-77226316D01*
X126041882Y-77130011D01*
X126207086Y-77000092D01*
X126344719Y-76841256D01*
X126449804Y-76659244D01*
X126518544Y-76460633D01*
X126548454Y-76252602D01*
X126543443Y-76147401D01*
X148939946Y-76147401D01*
X148949945Y-76357327D01*
X148999496Y-76561578D01*
X148999498Y-76561582D01*
X149086798Y-76752743D01*
X149086801Y-76752748D01*
X149086802Y-76752750D01*
X149086804Y-76752753D01*
X149149827Y-76841256D01*
X149208715Y-76923953D01*
X149208720Y-76923959D01*
X149360820Y-77068985D01*
X149455778Y-77130011D01*
X149537628Y-77182613D01*
X149732743Y-77260725D01*
X149835929Y-77280612D01*
X149939114Y-77300500D01*
X149939115Y-77300500D01*
X150896619Y-77300500D01*
X150896625Y-77300500D01*
X151053418Y-77285528D01*
X151255075Y-77226316D01*
X151441882Y-77130011D01*
X151607086Y-77000092D01*
X151744719Y-76841256D01*
X151849804Y-76659244D01*
X151918544Y-76460633D01*
X151948454Y-76252602D01*
X151938454Y-76042670D01*
X151888904Y-75838424D01*
X151882607Y-75824635D01*
X151801601Y-75647256D01*
X151801598Y-75647251D01*
X151801597Y-75647250D01*
X151801596Y-75647247D01*
X151679686Y-75476048D01*
X151679684Y-75476046D01*
X151679679Y-75476040D01*
X151527579Y-75331014D01*
X151350774Y-75217388D01*
X151155655Y-75139274D01*
X150949286Y-75099500D01*
X150949285Y-75099500D01*
X149991775Y-75099500D01*
X149834982Y-75114472D01*
X149834978Y-75114473D01*
X149633327Y-75173683D01*
X149446513Y-75269991D01*
X149281316Y-75399905D01*
X149281312Y-75399909D01*
X149143678Y-75558746D01*
X149038598Y-75740750D01*
X148969856Y-75939365D01*
X148969856Y-75939367D01*
X148942430Y-76130127D01*
X148939946Y-76147401D01*
X126543443Y-76147401D01*
X126538454Y-76042670D01*
X126488904Y-75838424D01*
X126482607Y-75824635D01*
X126401601Y-75647256D01*
X126401598Y-75647251D01*
X126401597Y-75647250D01*
X126401596Y-75647247D01*
X126279686Y-75476048D01*
X126279684Y-75476046D01*
X126279679Y-75476040D01*
X126127579Y-75331014D01*
X125950774Y-75217388D01*
X125755655Y-75139274D01*
X125549286Y-75099500D01*
X125549285Y-75099500D01*
X124591775Y-75099500D01*
X124434982Y-75114472D01*
X124434978Y-75114473D01*
X124233327Y-75173683D01*
X124046513Y-75269991D01*
X123881316Y-75399905D01*
X123881312Y-75399909D01*
X123743678Y-75558746D01*
X123638598Y-75740750D01*
X123569856Y-75939365D01*
X123569856Y-75939367D01*
X123542430Y-76130127D01*
X123539946Y-76147401D01*
X122625500Y-76147401D01*
X122625500Y-73607401D01*
X123539946Y-73607401D01*
X123549945Y-73817327D01*
X123599496Y-74021578D01*
X123599498Y-74021582D01*
X123686798Y-74212743D01*
X123686801Y-74212748D01*
X123686802Y-74212750D01*
X123686804Y-74212753D01*
X123749827Y-74301256D01*
X123808715Y-74383953D01*
X123808720Y-74383959D01*
X123960820Y-74528985D01*
X124055778Y-74590011D01*
X124137628Y-74642613D01*
X124332743Y-74720725D01*
X124435929Y-74740612D01*
X124539114Y-74760500D01*
X124539115Y-74760500D01*
X125496619Y-74760500D01*
X125496625Y-74760500D01*
X125653418Y-74745528D01*
X125855075Y-74686316D01*
X126041882Y-74590011D01*
X126072608Y-74565848D01*
X126119482Y-74528985D01*
X126207086Y-74460092D01*
X126344719Y-74301256D01*
X126449804Y-74119244D01*
X126518544Y-73920633D01*
X126548454Y-73712602D01*
X126543443Y-73607401D01*
X148939946Y-73607401D01*
X148949945Y-73817327D01*
X148999496Y-74021578D01*
X148999498Y-74021582D01*
X149086798Y-74212743D01*
X149086801Y-74212748D01*
X149086802Y-74212750D01*
X149086804Y-74212753D01*
X149149827Y-74301256D01*
X149208715Y-74383953D01*
X149208720Y-74383959D01*
X149360820Y-74528985D01*
X149455778Y-74590011D01*
X149537628Y-74642613D01*
X149732743Y-74720725D01*
X149835929Y-74740612D01*
X149939114Y-74760500D01*
X149939115Y-74760500D01*
X150896619Y-74760500D01*
X150896625Y-74760500D01*
X151053418Y-74745528D01*
X151255075Y-74686316D01*
X151441882Y-74590011D01*
X151472608Y-74565848D01*
X151519482Y-74528985D01*
X151607086Y-74460092D01*
X151744719Y-74301256D01*
X151849804Y-74119244D01*
X151918544Y-73920633D01*
X151948454Y-73712602D01*
X151938454Y-73502670D01*
X151888904Y-73298424D01*
X151888901Y-73298417D01*
X151801601Y-73107256D01*
X151801598Y-73107251D01*
X151801597Y-73107250D01*
X151801596Y-73107247D01*
X151679686Y-72936048D01*
X151679684Y-72936046D01*
X151679679Y-72936040D01*
X151527579Y-72791014D01*
X151350774Y-72677388D01*
X151155655Y-72599274D01*
X150949286Y-72559500D01*
X150949285Y-72559500D01*
X149991775Y-72559500D01*
X149834982Y-72574472D01*
X149834978Y-72574473D01*
X149633327Y-72633683D01*
X149446513Y-72729991D01*
X149281316Y-72859905D01*
X149281312Y-72859909D01*
X149143678Y-73018746D01*
X149038598Y-73200750D01*
X148969856Y-73399365D01*
X148969856Y-73399367D01*
X148955004Y-73502670D01*
X148939946Y-73607401D01*
X126543443Y-73607401D01*
X126538454Y-73502670D01*
X126488904Y-73298424D01*
X126488901Y-73298417D01*
X126401601Y-73107256D01*
X126401598Y-73107251D01*
X126401597Y-73107250D01*
X126401596Y-73107247D01*
X126279686Y-72936048D01*
X126279684Y-72936046D01*
X126279679Y-72936040D01*
X126127579Y-72791014D01*
X125950774Y-72677388D01*
X125755655Y-72599274D01*
X125549286Y-72559500D01*
X125549285Y-72559500D01*
X124591775Y-72559500D01*
X124434982Y-72574472D01*
X124434978Y-72574473D01*
X124233327Y-72633683D01*
X124046513Y-72729991D01*
X123881316Y-72859905D01*
X123881312Y-72859909D01*
X123743678Y-73018746D01*
X123638598Y-73200750D01*
X123569856Y-73399365D01*
X123569856Y-73399367D01*
X123555004Y-73502670D01*
X123539946Y-73607401D01*
X122625500Y-73607401D01*
X122625500Y-72430452D01*
X122645185Y-72363413D01*
X122661819Y-72342771D01*
X123222771Y-71781819D01*
X123284094Y-71748334D01*
X123310452Y-71745500D01*
X123433436Y-71745500D01*
X123500475Y-71765185D01*
X123546230Y-71817989D01*
X123549618Y-71826167D01*
X123600402Y-71962328D01*
X123600406Y-71962335D01*
X123686652Y-72077544D01*
X123686655Y-72077547D01*
X123801864Y-72163793D01*
X123801871Y-72163797D01*
X123936717Y-72214091D01*
X123936716Y-72214091D01*
X123943644Y-72214835D01*
X123996327Y-72220500D01*
X126092072Y-72220499D01*
X126151683Y-72214091D01*
X126286531Y-72163796D01*
X126401746Y-72077546D01*
X126487996Y-71962331D01*
X126538291Y-71827483D01*
X126544700Y-71767873D01*
X126544699Y-70870000D01*
X148968832Y-70870000D01*
X150128514Y-70870000D01*
X150116559Y-70881955D01*
X150059035Y-70994852D01*
X150039214Y-71120000D01*
X150059035Y-71245148D01*
X150116559Y-71358045D01*
X150128514Y-71370000D01*
X148972942Y-71370000D01*
X148999970Y-71481409D01*
X149087240Y-71672507D01*
X149209089Y-71843619D01*
X149209095Y-71843625D01*
X149361132Y-71988592D01*
X149537857Y-72102166D01*
X149732885Y-72180244D01*
X149939162Y-72220000D01*
X150194200Y-72220000D01*
X150194200Y-71435686D01*
X150206155Y-71447641D01*
X150319052Y-71505165D01*
X150412719Y-71520000D01*
X150475681Y-71520000D01*
X150569348Y-71505165D01*
X150682245Y-71447641D01*
X150694200Y-71435686D01*
X150694200Y-72220000D01*
X150896598Y-72220000D01*
X151053322Y-72205034D01*
X151053326Y-72205033D01*
X151254886Y-72145850D01*
X151441614Y-72049586D01*
X151606737Y-71919731D01*
X151606740Y-71919728D01*
X151744305Y-71760969D01*
X151744314Y-71760958D01*
X151849344Y-71579039D01*
X151849347Y-71579032D01*
X151918055Y-71380517D01*
X151918055Y-71380515D01*
X151919568Y-71370000D01*
X150759886Y-71370000D01*
X150771841Y-71358045D01*
X150829365Y-71245148D01*
X150849186Y-71120000D01*
X150829365Y-70994852D01*
X150771841Y-70881955D01*
X150759886Y-70870000D01*
X151915457Y-70870000D01*
X151888429Y-70758590D01*
X151801159Y-70567492D01*
X151679310Y-70396380D01*
X151679304Y-70396374D01*
X151527267Y-70251407D01*
X151350542Y-70137833D01*
X151155514Y-70059755D01*
X150949238Y-70020000D01*
X150694200Y-70020000D01*
X150694200Y-70804314D01*
X150682245Y-70792359D01*
X150569348Y-70734835D01*
X150475681Y-70720000D01*
X150412719Y-70720000D01*
X150319052Y-70734835D01*
X150206155Y-70792359D01*
X150194200Y-70804314D01*
X150194200Y-70020000D01*
X149991802Y-70020000D01*
X149835077Y-70034965D01*
X149835073Y-70034966D01*
X149633513Y-70094149D01*
X149446785Y-70190413D01*
X149281662Y-70320268D01*
X149281659Y-70320271D01*
X149144094Y-70479030D01*
X149144085Y-70479041D01*
X149039055Y-70660960D01*
X149039052Y-70660967D01*
X148970344Y-70859482D01*
X148970344Y-70859484D01*
X148968832Y-70870000D01*
X126544699Y-70870000D01*
X126544699Y-70472128D01*
X126539499Y-70423757D01*
X126538291Y-70412516D01*
X126487997Y-70277671D01*
X126487993Y-70277664D01*
X126401747Y-70162455D01*
X126401744Y-70162452D01*
X126286535Y-70076206D01*
X126286528Y-70076202D01*
X126151682Y-70025908D01*
X126151683Y-70025908D01*
X126092083Y-70019501D01*
X126092081Y-70019500D01*
X126092073Y-70019500D01*
X126092064Y-70019500D01*
X123996329Y-70019500D01*
X123996323Y-70019501D01*
X123936716Y-70025908D01*
X123801871Y-70076202D01*
X123801864Y-70076206D01*
X123686655Y-70162452D01*
X123686652Y-70162455D01*
X123600406Y-70277664D01*
X123600402Y-70277671D01*
X123549618Y-70413833D01*
X123507747Y-70469767D01*
X123442283Y-70494184D01*
X123433436Y-70494500D01*
X123082743Y-70494500D01*
X123067122Y-70492775D01*
X123067095Y-70493061D01*
X123059333Y-70492326D01*
X122990172Y-70494500D01*
X122960649Y-70494500D01*
X122953778Y-70495367D01*
X122947959Y-70495825D01*
X122901374Y-70497289D01*
X122901368Y-70497290D01*
X122882126Y-70502880D01*
X122863087Y-70506823D01*
X122843217Y-70509334D01*
X122843203Y-70509337D01*
X122799883Y-70526488D01*
X122794358Y-70528380D01*
X122749613Y-70541380D01*
X122749610Y-70541381D01*
X122732366Y-70551579D01*
X122714905Y-70560133D01*
X122696274Y-70567510D01*
X122696262Y-70567517D01*
X122658570Y-70594902D01*
X122653687Y-70598109D01*
X122613580Y-70621829D01*
X122599414Y-70635995D01*
X122584624Y-70648627D01*
X122568414Y-70660404D01*
X122568411Y-70660407D01*
X122538710Y-70696309D01*
X122534777Y-70700631D01*
X121616208Y-71619199D01*
X121603951Y-71629020D01*
X121604134Y-71629241D01*
X121598123Y-71634213D01*
X121550772Y-71684636D01*
X121529889Y-71705519D01*
X121529877Y-71705532D01*
X121525621Y-71711017D01*
X121521837Y-71715447D01*
X121489937Y-71749418D01*
X121489936Y-71749420D01*
X121480284Y-71766976D01*
X121469610Y-71783226D01*
X121457329Y-71799061D01*
X121457324Y-71799068D01*
X121438815Y-71841838D01*
X121436245Y-71847084D01*
X121413803Y-71887906D01*
X121408822Y-71907307D01*
X121402521Y-71925710D01*
X121394562Y-71944102D01*
X121394561Y-71944105D01*
X121387271Y-71990127D01*
X121386087Y-71995846D01*
X121374501Y-72040972D01*
X121374500Y-72040982D01*
X121374500Y-72061016D01*
X121372973Y-72080415D01*
X121369840Y-72100194D01*
X121369840Y-72100195D01*
X121374225Y-72146583D01*
X121374500Y-72152421D01*
X121374500Y-81750500D01*
X121354815Y-81817539D01*
X121302011Y-81863294D01*
X121250500Y-81874500D01*
X106722894Y-81874500D01*
X106655855Y-81854815D01*
X106610100Y-81802011D01*
X106600156Y-81732853D01*
X106615507Y-81688500D01*
X106627179Y-81668284D01*
X106685674Y-81488256D01*
X106705460Y-81300000D01*
X106685674Y-81111744D01*
X106627179Y-80931716D01*
X106532533Y-80767784D01*
X106405871Y-80627112D01*
X106355706Y-80590665D01*
X106252734Y-80515851D01*
X106252729Y-80515848D01*
X106079807Y-80438857D01*
X106079802Y-80438855D01*
X105894644Y-80399499D01*
X105888178Y-80398820D01*
X105888447Y-80396254D01*
X105832461Y-80379815D01*
X105786706Y-80327011D01*
X105775500Y-80275500D01*
X105775500Y-80133486D01*
X105795185Y-80066447D01*
X105827572Y-80032479D01*
X105896977Y-79983057D01*
X105897339Y-79982678D01*
X106046621Y-79826114D01*
X106046620Y-79826114D01*
X106046623Y-79826112D01*
X106163863Y-79643683D01*
X106205335Y-79540092D01*
X106244455Y-79442375D01*
X106244455Y-79442373D01*
X106244460Y-79442362D01*
X106285500Y-79229427D01*
X106285500Y-79175091D01*
X106554500Y-79175091D01*
X106565735Y-79292748D01*
X106569948Y-79336871D01*
X106569949Y-79336875D01*
X106631041Y-79544938D01*
X106631042Y-79544941D01*
X106631043Y-79544942D01*
X106730412Y-79737690D01*
X106811262Y-79840500D01*
X106864464Y-79908151D01*
X106911286Y-79948723D01*
X107028349Y-80050158D01*
X107028352Y-80050160D01*
X107028355Y-80050162D01*
X107129998Y-80108845D01*
X107216151Y-80158585D01*
X107421078Y-80229511D01*
X107635725Y-80260373D01*
X107852334Y-80250055D01*
X108063075Y-80198929D01*
X108260332Y-80108845D01*
X108436977Y-79983057D01*
X108437339Y-79982678D01*
X108586621Y-79826114D01*
X108586620Y-79826114D01*
X108586623Y-79826112D01*
X108703863Y-79643683D01*
X108745335Y-79540092D01*
X108784455Y-79442375D01*
X108784455Y-79442373D01*
X108784460Y-79442362D01*
X108825500Y-79229427D01*
X108825500Y-79175091D01*
X109094500Y-79175091D01*
X109105735Y-79292748D01*
X109109948Y-79336871D01*
X109109949Y-79336875D01*
X109171041Y-79544938D01*
X109171042Y-79544941D01*
X109171043Y-79544942D01*
X109270412Y-79737690D01*
X109351262Y-79840500D01*
X109404464Y-79908151D01*
X109451286Y-79948723D01*
X109568349Y-80050158D01*
X109568352Y-80050160D01*
X109568355Y-80050162D01*
X109669998Y-80108845D01*
X109756151Y-80158585D01*
X109961078Y-80229511D01*
X110175725Y-80260373D01*
X110392334Y-80250055D01*
X110603075Y-80198929D01*
X110800332Y-80108845D01*
X110976977Y-79983057D01*
X110977339Y-79982678D01*
X111126621Y-79826114D01*
X111126620Y-79826114D01*
X111126623Y-79826112D01*
X111243863Y-79643683D01*
X111285335Y-79540092D01*
X111324455Y-79442375D01*
X111324455Y-79442373D01*
X111324460Y-79442362D01*
X111365500Y-79229427D01*
X111365500Y-79175091D01*
X111634500Y-79175091D01*
X111645735Y-79292748D01*
X111649948Y-79336871D01*
X111649949Y-79336875D01*
X111711041Y-79544938D01*
X111711042Y-79544941D01*
X111711043Y-79544942D01*
X111810412Y-79737690D01*
X111891262Y-79840500D01*
X111944464Y-79908151D01*
X111991286Y-79948723D01*
X112108349Y-80050158D01*
X112108352Y-80050160D01*
X112108355Y-80050162D01*
X112209998Y-80108845D01*
X112296151Y-80158585D01*
X112501078Y-80229511D01*
X112715725Y-80260373D01*
X112932334Y-80250055D01*
X113143075Y-80198929D01*
X113340332Y-80108845D01*
X113516977Y-79983057D01*
X113517339Y-79982678D01*
X113666621Y-79826114D01*
X113666620Y-79826114D01*
X113666623Y-79826112D01*
X113783863Y-79643683D01*
X113825335Y-79540092D01*
X113864455Y-79442375D01*
X113864455Y-79442373D01*
X113864460Y-79442362D01*
X113905500Y-79229427D01*
X113905500Y-79175091D01*
X114174500Y-79175091D01*
X114185735Y-79292748D01*
X114189948Y-79336871D01*
X114189949Y-79336875D01*
X114251041Y-79544938D01*
X114251042Y-79544941D01*
X114251043Y-79544942D01*
X114350412Y-79737690D01*
X114431262Y-79840500D01*
X114484464Y-79908151D01*
X114531286Y-79948723D01*
X114648349Y-80050158D01*
X114648352Y-80050160D01*
X114648355Y-80050162D01*
X114749998Y-80108845D01*
X114836151Y-80158585D01*
X115041078Y-80229511D01*
X115255725Y-80260373D01*
X115472334Y-80250055D01*
X115683075Y-80198929D01*
X115880332Y-80108845D01*
X116056977Y-79983057D01*
X116057339Y-79982678D01*
X116206621Y-79826114D01*
X116206620Y-79826114D01*
X116206623Y-79826112D01*
X116323863Y-79643683D01*
X116365335Y-79540092D01*
X116404455Y-79442375D01*
X116404455Y-79442373D01*
X116404460Y-79442362D01*
X116445500Y-79229427D01*
X116445500Y-79175091D01*
X116714500Y-79175091D01*
X116725735Y-79292748D01*
X116729948Y-79336871D01*
X116729949Y-79336875D01*
X116791041Y-79544938D01*
X116791042Y-79544941D01*
X116791043Y-79544942D01*
X116890412Y-79737690D01*
X116971262Y-79840500D01*
X117024464Y-79908151D01*
X117071286Y-79948723D01*
X117188349Y-80050158D01*
X117188352Y-80050160D01*
X117188355Y-80050162D01*
X117289998Y-80108845D01*
X117376151Y-80158585D01*
X117581078Y-80229511D01*
X117795725Y-80260373D01*
X118012334Y-80250055D01*
X118223075Y-80198929D01*
X118420332Y-80108845D01*
X118596977Y-79983057D01*
X118597339Y-79982678D01*
X118746621Y-79826114D01*
X118746620Y-79826114D01*
X118746623Y-79826112D01*
X118863863Y-79643683D01*
X118905335Y-79540092D01*
X118944455Y-79442375D01*
X118944455Y-79442373D01*
X118944460Y-79442362D01*
X118985500Y-79229427D01*
X118985500Y-78304909D01*
X118970052Y-78143128D01*
X118908957Y-77935058D01*
X118809588Y-77742310D01*
X118675538Y-77571851D01*
X118511651Y-77429842D01*
X118511647Y-77429840D01*
X118511644Y-77429837D01*
X118323851Y-77321416D01*
X118323850Y-77321415D01*
X118323849Y-77321415D01*
X118227390Y-77288030D01*
X118118923Y-77250489D01*
X118065260Y-77242773D01*
X117904275Y-77219627D01*
X117904272Y-77219627D01*
X117687668Y-77229944D01*
X117476928Y-77281070D01*
X117476926Y-77281070D01*
X117279669Y-77371154D01*
X117103021Y-77496944D01*
X117103015Y-77496949D01*
X116953378Y-77653885D01*
X116836135Y-77836320D01*
X116836134Y-77836321D01*
X116755544Y-78037624D01*
X116755539Y-78037641D01*
X116743762Y-78098746D01*
X116714500Y-78250573D01*
X116714500Y-79175091D01*
X116445500Y-79175091D01*
X116445500Y-78304909D01*
X116430052Y-78143128D01*
X116368957Y-77935058D01*
X116269588Y-77742310D01*
X116135538Y-77571851D01*
X115971651Y-77429842D01*
X115971647Y-77429840D01*
X115971644Y-77429837D01*
X115783851Y-77321416D01*
X115783850Y-77321415D01*
X115783849Y-77321415D01*
X115687390Y-77288030D01*
X115578923Y-77250489D01*
X115525260Y-77242773D01*
X115364275Y-77219627D01*
X115364272Y-77219627D01*
X115147668Y-77229944D01*
X114936928Y-77281070D01*
X114936926Y-77281070D01*
X114739669Y-77371154D01*
X114563021Y-77496944D01*
X114563015Y-77496949D01*
X114413378Y-77653885D01*
X114296135Y-77836320D01*
X114296134Y-77836321D01*
X114215544Y-78037624D01*
X114215539Y-78037641D01*
X114203762Y-78098746D01*
X114174500Y-78250573D01*
X114174500Y-79175091D01*
X113905500Y-79175091D01*
X113905500Y-78304909D01*
X113890052Y-78143128D01*
X113828957Y-77935058D01*
X113729588Y-77742310D01*
X113595538Y-77571851D01*
X113431651Y-77429842D01*
X113431647Y-77429840D01*
X113431644Y-77429837D01*
X113243851Y-77321416D01*
X113243850Y-77321415D01*
X113243849Y-77321415D01*
X113147390Y-77288030D01*
X113038923Y-77250489D01*
X112985260Y-77242773D01*
X112824275Y-77219627D01*
X112824272Y-77219627D01*
X112607668Y-77229944D01*
X112396928Y-77281070D01*
X112396926Y-77281070D01*
X112199669Y-77371154D01*
X112023021Y-77496944D01*
X112023015Y-77496949D01*
X111873378Y-77653885D01*
X111756135Y-77836320D01*
X111756134Y-77836321D01*
X111675544Y-78037624D01*
X111675539Y-78037641D01*
X111663762Y-78098746D01*
X111634500Y-78250573D01*
X111634500Y-79175091D01*
X111365500Y-79175091D01*
X111365500Y-78304909D01*
X111350052Y-78143128D01*
X111288957Y-77935058D01*
X111189588Y-77742310D01*
X111055538Y-77571851D01*
X110891651Y-77429842D01*
X110891647Y-77429840D01*
X110891644Y-77429837D01*
X110703851Y-77321416D01*
X110703850Y-77321415D01*
X110703849Y-77321415D01*
X110607390Y-77288030D01*
X110498923Y-77250489D01*
X110445260Y-77242773D01*
X110284275Y-77219627D01*
X110284272Y-77219627D01*
X110067668Y-77229944D01*
X109856928Y-77281070D01*
X109856926Y-77281070D01*
X109659669Y-77371154D01*
X109483021Y-77496944D01*
X109483015Y-77496949D01*
X109333378Y-77653885D01*
X109216135Y-77836320D01*
X109216134Y-77836321D01*
X109135544Y-78037624D01*
X109135539Y-78037641D01*
X109123762Y-78098746D01*
X109094500Y-78250573D01*
X109094500Y-79175091D01*
X108825500Y-79175091D01*
X108825500Y-78304909D01*
X108810052Y-78143128D01*
X108748957Y-77935058D01*
X108649588Y-77742310D01*
X108515538Y-77571851D01*
X108515535Y-77571848D01*
X108358297Y-77435600D01*
X108320523Y-77376821D01*
X108315500Y-77341887D01*
X108315500Y-76570452D01*
X108335185Y-76503413D01*
X108351819Y-76482771D01*
X108547772Y-76286819D01*
X108609095Y-76253334D01*
X108635453Y-76250500D01*
X108694644Y-76250500D01*
X108694646Y-76250500D01*
X108879803Y-76211144D01*
X109052730Y-76134151D01*
X109205871Y-76022888D01*
X109332533Y-75882216D01*
X109427179Y-75718284D01*
X109485674Y-75538256D01*
X109505460Y-75350000D01*
X109485674Y-75161744D01*
X109427179Y-74981716D01*
X109332533Y-74817784D01*
X109205871Y-74677112D01*
X109205870Y-74677111D01*
X109052734Y-74565851D01*
X109052729Y-74565848D01*
X108879807Y-74488857D01*
X108879802Y-74488855D01*
X108734001Y-74457865D01*
X108694646Y-74449500D01*
X108505354Y-74449500D01*
X108472897Y-74456398D01*
X108320197Y-74488855D01*
X108320192Y-74488857D01*
X108147270Y-74565848D01*
X108147265Y-74565851D01*
X107994129Y-74677111D01*
X107867466Y-74817785D01*
X107772821Y-74981715D01*
X107772818Y-74981722D01*
X107714327Y-75161740D01*
X107714326Y-75161744D01*
X107702949Y-75269991D01*
X107696679Y-75329649D01*
X107670094Y-75394263D01*
X107661039Y-75404368D01*
X107306208Y-75759199D01*
X107293951Y-75769020D01*
X107294134Y-75769241D01*
X107288123Y-75774213D01*
X107240772Y-75824636D01*
X107219889Y-75845519D01*
X107219877Y-75845532D01*
X107215621Y-75851017D01*
X107211837Y-75855447D01*
X107179937Y-75889418D01*
X107179936Y-75889420D01*
X107170284Y-75906976D01*
X107159610Y-75923226D01*
X107147329Y-75939061D01*
X107147324Y-75939068D01*
X107128815Y-75981838D01*
X107126245Y-75987084D01*
X107103803Y-76027906D01*
X107098822Y-76047307D01*
X107092521Y-76065710D01*
X107084562Y-76084102D01*
X107084561Y-76084105D01*
X107077271Y-76130127D01*
X107076087Y-76135846D01*
X107064501Y-76180972D01*
X107064500Y-76180982D01*
X107064500Y-76201016D01*
X107062973Y-76220415D01*
X107059840Y-76240194D01*
X107059840Y-76240195D01*
X107064225Y-76286583D01*
X107064500Y-76292421D01*
X107064500Y-77346513D01*
X107044815Y-77413552D01*
X107012427Y-77447520D01*
X106943027Y-77496938D01*
X106943015Y-77496949D01*
X106793378Y-77653885D01*
X106676135Y-77836320D01*
X106676134Y-77836321D01*
X106595544Y-78037624D01*
X106595539Y-78037641D01*
X106583762Y-78098746D01*
X106554500Y-78250573D01*
X106554500Y-79175091D01*
X106285500Y-79175091D01*
X106285500Y-78304909D01*
X106270052Y-78143128D01*
X106208957Y-77935058D01*
X106109588Y-77742310D01*
X105975538Y-77571851D01*
X105811651Y-77429842D01*
X105811647Y-77429840D01*
X105811644Y-77429837D01*
X105623851Y-77321416D01*
X105623850Y-77321415D01*
X105623849Y-77321415D01*
X105527390Y-77288030D01*
X105418923Y-77250489D01*
X105365260Y-77242773D01*
X105204275Y-77219627D01*
X105204272Y-77219627D01*
X104987668Y-77229944D01*
X104776928Y-77281070D01*
X104776926Y-77281070D01*
X104579669Y-77371154D01*
X104403021Y-77496944D01*
X104403015Y-77496949D01*
X104253378Y-77653885D01*
X104136135Y-77836320D01*
X104136134Y-77836321D01*
X104055544Y-78037624D01*
X104055539Y-78037641D01*
X104043762Y-78098746D01*
X104014500Y-78250573D01*
X104014500Y-79175091D01*
X104025735Y-79292748D01*
X104029948Y-79336871D01*
X104029949Y-79336875D01*
X104091041Y-79544938D01*
X104091042Y-79544941D01*
X104091043Y-79544942D01*
X104190412Y-79737690D01*
X104324462Y-79908149D01*
X104324464Y-79908150D01*
X104324465Y-79908152D01*
X104324467Y-79908154D01*
X104481702Y-80044398D01*
X104519477Y-80103176D01*
X104524500Y-80138111D01*
X104524500Y-80567255D01*
X104522775Y-80582872D01*
X104523061Y-80582899D01*
X104522326Y-80590665D01*
X104524500Y-80659814D01*
X104524500Y-80689343D01*
X104524501Y-80689360D01*
X104525368Y-80696231D01*
X104525826Y-80702050D01*
X104527290Y-80748624D01*
X104527291Y-80748627D01*
X104532880Y-80767867D01*
X104536824Y-80786911D01*
X104539336Y-80806792D01*
X104544865Y-80820756D01*
X104556490Y-80850119D01*
X104558382Y-80855647D01*
X104571381Y-80900388D01*
X104581580Y-80917634D01*
X104590138Y-80935103D01*
X104597514Y-80953732D01*
X104624898Y-80991423D01*
X104628106Y-80996307D01*
X104651827Y-81036416D01*
X104651833Y-81036424D01*
X104665990Y-81050580D01*
X104678628Y-81065376D01*
X104690405Y-81081586D01*
X104690406Y-81081587D01*
X104726303Y-81111283D01*
X104730626Y-81115216D01*
X104861039Y-81245630D01*
X104894524Y-81306953D01*
X104896678Y-81320343D01*
X104914326Y-81488256D01*
X104914327Y-81488259D01*
X104972818Y-81668277D01*
X104972821Y-81668284D01*
X104984493Y-81688500D01*
X105000966Y-81756400D01*
X104978113Y-81822427D01*
X104923192Y-81865618D01*
X104877106Y-81874500D01*
X104310452Y-81874500D01*
X104243413Y-81854815D01*
X104222771Y-81838181D01*
X102817242Y-80432652D01*
X102783757Y-80371329D01*
X102788741Y-80301637D01*
X102830613Y-80245704D01*
X102875689Y-80224466D01*
X102982913Y-80198454D01*
X102982917Y-80198452D01*
X103180071Y-80108415D01*
X103180083Y-80108408D01*
X103356647Y-79982678D01*
X103356650Y-79982675D01*
X103506226Y-79825804D01*
X103506227Y-79825802D01*
X103623416Y-79643453D01*
X103703978Y-79442219D01*
X103745000Y-79229379D01*
X103745000Y-78990000D01*
X102897717Y-78990000D01*
X102933371Y-78951269D01*
X102984448Y-78834823D01*
X102994949Y-78708102D01*
X102963734Y-78584838D01*
X102901773Y-78490000D01*
X103745000Y-78490000D01*
X103745000Y-78304936D01*
X103729558Y-78143223D01*
X103729557Y-78143219D01*
X103668491Y-77935246D01*
X103569165Y-77742580D01*
X103435173Y-77572195D01*
X103271352Y-77430246D01*
X103083646Y-77321874D01*
X103083633Y-77321868D01*
X102878805Y-77250976D01*
X102860000Y-77248272D01*
X102860000Y-78451779D01*
X102793843Y-78400287D01*
X102673578Y-78359000D01*
X102578431Y-78359000D01*
X102484579Y-78374661D01*
X102372749Y-78435180D01*
X102360000Y-78449029D01*
X102360000Y-77251727D01*
X102237086Y-77281545D01*
X102237082Y-77281547D01*
X102039928Y-77371584D01*
X102039916Y-77371591D01*
X101863352Y-77497321D01*
X101863349Y-77497324D01*
X101713773Y-77654195D01*
X101713772Y-77654197D01*
X101596583Y-77836546D01*
X101516021Y-78037780D01*
X101475000Y-78250620D01*
X101475000Y-78490000D01*
X102322283Y-78490000D01*
X102286629Y-78528731D01*
X102235552Y-78645177D01*
X102225051Y-78771898D01*
X102256266Y-78895162D01*
X102318227Y-78990000D01*
X101425953Y-78990000D01*
X101358914Y-78970315D01*
X101338272Y-78953681D01*
X101241819Y-78857228D01*
X101208334Y-78795905D01*
X101205500Y-78769547D01*
X101205500Y-78304915D01*
X101205500Y-78304909D01*
X101190052Y-78143128D01*
X101128957Y-77935058D01*
X101029588Y-77742310D01*
X100895538Y-77571851D01*
X100731651Y-77429842D01*
X100731647Y-77429840D01*
X100731644Y-77429837D01*
X100543851Y-77321416D01*
X100543850Y-77321415D01*
X100543849Y-77321415D01*
X100447390Y-77288030D01*
X100338923Y-77250489D01*
X100285260Y-77242773D01*
X100124275Y-77219627D01*
X100124272Y-77219627D01*
X99907668Y-77229944D01*
X99696928Y-77281070D01*
X99696926Y-77281070D01*
X99499669Y-77371154D01*
X99323021Y-77496944D01*
X99323015Y-77496949D01*
X99173378Y-77653885D01*
X99056135Y-77836320D01*
X99056134Y-77836321D01*
X98975544Y-78037624D01*
X98975539Y-78037641D01*
X98963762Y-78098746D01*
X98934500Y-78250573D01*
X98934500Y-79175091D01*
X98945735Y-79292748D01*
X98949948Y-79336871D01*
X98949949Y-79336875D01*
X99011041Y-79544938D01*
X99011042Y-79544941D01*
X99011043Y-79544942D01*
X99110412Y-79737690D01*
X99191262Y-79840500D01*
X99244464Y-79908151D01*
X99291286Y-79948723D01*
X99408349Y-80050158D01*
X99408352Y-80050160D01*
X99408355Y-80050162D01*
X99509998Y-80108845D01*
X99596151Y-80158585D01*
X99801078Y-80229511D01*
X100015725Y-80260373D01*
X100232334Y-80250055D01*
X100443075Y-80198929D01*
X100619631Y-80118298D01*
X100688788Y-80108355D01*
X100752344Y-80137380D01*
X100758821Y-80143411D01*
X102156040Y-81540631D01*
X103499197Y-82883788D01*
X103509022Y-82896051D01*
X103509243Y-82895869D01*
X103514214Y-82901878D01*
X103540217Y-82926295D01*
X103564635Y-82949226D01*
X103585529Y-82970120D01*
X103591011Y-82974373D01*
X103595443Y-82978157D01*
X103629418Y-83010062D01*
X103646976Y-83019714D01*
X103663233Y-83030393D01*
X103679064Y-83042673D01*
X103698737Y-83051186D01*
X103721833Y-83061182D01*
X103727077Y-83063750D01*
X103767908Y-83086197D01*
X103780523Y-83089435D01*
X103787305Y-83091177D01*
X103805719Y-83097481D01*
X103824104Y-83105438D01*
X103870157Y-83112732D01*
X103875826Y-83113906D01*
X103920981Y-83125500D01*
X103941016Y-83125500D01*
X103960413Y-83127026D01*
X103980196Y-83130160D01*
X104026584Y-83125775D01*
X104032422Y-83125500D01*
X121250500Y-83125500D01*
X121317539Y-83145185D01*
X121363294Y-83197989D01*
X121374500Y-83249500D01*
X121374500Y-84689547D01*
X121354815Y-84756586D01*
X121338181Y-84777228D01*
X115609255Y-90506153D01*
X115547932Y-90539638D01*
X115478240Y-90534654D01*
X115422307Y-90492782D01*
X115398253Y-90431434D01*
X115385674Y-90311744D01*
X115327179Y-90131716D01*
X115232533Y-89967784D01*
X115105871Y-89827112D01*
X115105870Y-89827111D01*
X114952734Y-89715851D01*
X114952729Y-89715848D01*
X114779807Y-89638857D01*
X114779803Y-89638856D01*
X114723718Y-89626934D01*
X114662236Y-89593741D01*
X114628460Y-89532577D01*
X114625500Y-89505644D01*
X114625500Y-88214188D01*
X114645185Y-88147149D01*
X114678377Y-88112613D01*
X114726836Y-88078681D01*
X114839139Y-88000047D01*
X115000047Y-87839139D01*
X115130568Y-87652734D01*
X115226739Y-87446496D01*
X115285635Y-87226692D01*
X115305468Y-87000000D01*
X115304199Y-86985500D01*
X115289635Y-86819032D01*
X115285635Y-86773308D01*
X115226739Y-86553504D01*
X115130568Y-86347266D01*
X115000047Y-86160861D01*
X115000045Y-86160858D01*
X114839141Y-85999954D01*
X114652734Y-85869432D01*
X114652732Y-85869431D01*
X114446497Y-85773261D01*
X114441992Y-85772054D01*
X114386408Y-85739961D01*
X114044401Y-85397953D01*
X114125148Y-85385165D01*
X114238045Y-85327641D01*
X114327641Y-85238045D01*
X114385165Y-85125148D01*
X114397953Y-85044400D01*
X115079025Y-85725472D01*
X115130136Y-85652478D01*
X115226264Y-85446331D01*
X115226269Y-85446317D01*
X115285139Y-85226610D01*
X115285141Y-85226599D01*
X115304966Y-85000002D01*
X115304966Y-84999997D01*
X115285141Y-84773400D01*
X115285139Y-84773389D01*
X115226269Y-84553682D01*
X115226265Y-84553673D01*
X115130133Y-84347516D01*
X115130131Y-84347512D01*
X115079026Y-84274526D01*
X115079025Y-84274526D01*
X114397953Y-84955598D01*
X114385165Y-84874852D01*
X114327641Y-84761955D01*
X114238045Y-84672359D01*
X114125148Y-84614835D01*
X114044400Y-84602046D01*
X114725472Y-83920974D01*
X114725471Y-83920973D01*
X114652483Y-83869866D01*
X114652481Y-83869865D01*
X114446326Y-83773734D01*
X114446317Y-83773730D01*
X114226610Y-83714860D01*
X114226599Y-83714858D01*
X114000002Y-83695034D01*
X113999998Y-83695034D01*
X113773400Y-83714858D01*
X113773389Y-83714860D01*
X113553682Y-83773730D01*
X113553673Y-83773734D01*
X113347513Y-83869868D01*
X113274527Y-83920972D01*
X113274526Y-83920973D01*
X113955600Y-84602046D01*
X113874852Y-84614835D01*
X113761955Y-84672359D01*
X113672359Y-84761955D01*
X113614835Y-84874852D01*
X113602046Y-84955599D01*
X112920973Y-84274526D01*
X112920972Y-84274527D01*
X112869868Y-84347513D01*
X112773734Y-84553673D01*
X112773730Y-84553682D01*
X112714860Y-84773389D01*
X112714858Y-84773400D01*
X112695034Y-84999997D01*
X112695034Y-85000002D01*
X112714858Y-85226599D01*
X112714860Y-85226610D01*
X112773730Y-85446317D01*
X112773734Y-85446326D01*
X112869865Y-85652481D01*
X112869866Y-85652483D01*
X112920973Y-85725471D01*
X112920974Y-85725472D01*
X113602046Y-85044399D01*
X113614835Y-85125148D01*
X113672359Y-85238045D01*
X113761955Y-85327641D01*
X113874852Y-85385165D01*
X113955599Y-85397953D01*
X113613590Y-85739961D01*
X113558012Y-85772052D01*
X113553508Y-85773259D01*
X113553503Y-85773260D01*
X113347267Y-85869431D01*
X113347265Y-85869432D01*
X113160858Y-85999954D01*
X112999954Y-86160858D01*
X112887387Y-86321623D01*
X112832811Y-86365248D01*
X112785812Y-86374500D01*
X108234116Y-86374500D01*
X108167077Y-86354815D01*
X108121322Y-86302011D01*
X108120560Y-86300309D01*
X108102257Y-86258583D01*
X108102255Y-86258578D01*
X107970551Y-86056990D01*
X107807463Y-85879829D01*
X107668991Y-85772052D01*
X107617441Y-85731929D01*
X107405665Y-85617321D01*
X107405656Y-85617318D01*
X107177916Y-85539134D01*
X106948231Y-85500807D01*
X106940399Y-85499500D01*
X106699601Y-85499500D01*
X106691769Y-85500807D01*
X106462083Y-85539134D01*
X106234343Y-85617318D01*
X106234334Y-85617321D01*
X106022558Y-85731929D01*
X105888456Y-85836305D01*
X105832537Y-85879829D01*
X105832534Y-85879831D01*
X105832534Y-85879832D01*
X105669450Y-86056988D01*
X105669446Y-86056994D01*
X105653507Y-86081389D01*
X105600359Y-86126744D01*
X105531127Y-86136165D01*
X105467793Y-86106661D01*
X105445892Y-86081385D01*
X105430154Y-86057296D01*
X105267126Y-85880202D01*
X105267116Y-85880193D01*
X105077168Y-85732350D01*
X105077159Y-85732344D01*
X104865468Y-85617784D01*
X104865454Y-85617778D01*
X104637791Y-85539619D01*
X104530000Y-85521633D01*
X104530000Y-86508316D01*
X104501181Y-86490791D01*
X104355596Y-86450000D01*
X104242378Y-86450000D01*
X104130217Y-86465416D01*
X104030000Y-86508946D01*
X104030000Y-85521633D01*
X104029999Y-85521633D01*
X103922208Y-85539619D01*
X103694545Y-85617778D01*
X103694531Y-85617784D01*
X103482840Y-85732344D01*
X103482838Y-85732345D01*
X103340252Y-85843325D01*
X103275258Y-85868967D01*
X103206718Y-85855400D01*
X103156393Y-85806932D01*
X103147907Y-85788801D01*
X103145140Y-85781383D01*
X103136296Y-85757669D01*
X103136295Y-85757668D01*
X103136293Y-85757664D01*
X103050047Y-85642455D01*
X103050044Y-85642452D01*
X102934835Y-85556206D01*
X102934828Y-85556202D01*
X102799982Y-85505908D01*
X102799983Y-85505908D01*
X102740383Y-85499501D01*
X102740381Y-85499500D01*
X102740373Y-85499500D01*
X102740364Y-85499500D01*
X100739629Y-85499500D01*
X100739623Y-85499501D01*
X100680016Y-85505908D01*
X100545171Y-85556202D01*
X100545164Y-85556206D01*
X100429957Y-85642451D01*
X100429951Y-85642457D01*
X100387015Y-85699812D01*
X100331081Y-85741682D01*
X100287749Y-85749500D01*
X95539535Y-85749500D01*
X95472496Y-85729815D01*
X95426741Y-85677011D01*
X95416797Y-85607853D01*
X95427153Y-85573095D01*
X95486265Y-85446326D01*
X95486269Y-85446317D01*
X95545139Y-85226610D01*
X95545141Y-85226599D01*
X95564966Y-85000002D01*
X95564966Y-84999997D01*
X95545141Y-84773400D01*
X95545139Y-84773389D01*
X95486269Y-84553682D01*
X95486265Y-84553673D01*
X95390133Y-84347516D01*
X95390131Y-84347512D01*
X95339025Y-84274526D01*
X94657953Y-84955598D01*
X94645165Y-84874852D01*
X94587641Y-84761955D01*
X94498045Y-84672359D01*
X94385148Y-84614835D01*
X94304400Y-84602046D01*
X94985472Y-83920974D01*
X94985471Y-83920973D01*
X94912483Y-83869866D01*
X94912481Y-83869865D01*
X94706326Y-83773734D01*
X94706317Y-83773730D01*
X94486610Y-83714860D01*
X94486599Y-83714858D01*
X94260002Y-83695034D01*
X94259998Y-83695034D01*
X94033400Y-83714858D01*
X94033389Y-83714860D01*
X93813682Y-83773730D01*
X93813673Y-83773734D01*
X93607513Y-83869868D01*
X93534527Y-83920972D01*
X93534526Y-83920973D01*
X94215600Y-84602046D01*
X94134852Y-84614835D01*
X94021955Y-84672359D01*
X93932359Y-84761955D01*
X93874835Y-84874852D01*
X93862046Y-84955600D01*
X93180973Y-84274527D01*
X93129868Y-84347513D01*
X93033734Y-84553673D01*
X93033730Y-84553682D01*
X92974860Y-84773389D01*
X92974858Y-84773400D01*
X92955034Y-84999997D01*
X92955034Y-85000002D01*
X92974858Y-85226599D01*
X92974860Y-85226610D01*
X93033730Y-85446317D01*
X93033734Y-85446326D01*
X93092847Y-85573095D01*
X93103339Y-85642173D01*
X93074819Y-85705957D01*
X93016343Y-85744196D01*
X92980465Y-85749500D01*
X88069337Y-85749500D01*
X88002298Y-85729815D01*
X87981656Y-85713181D01*
X86936356Y-84667882D01*
X86931719Y-84662693D01*
X86907507Y-84632332D01*
X86856031Y-84587359D01*
X86852997Y-84584523D01*
X86844529Y-84576055D01*
X86817730Y-84553682D01*
X86812181Y-84549049D01*
X86738002Y-84484240D01*
X86737997Y-84484236D01*
X86737996Y-84484235D01*
X86734241Y-84481991D01*
X86718373Y-84470732D01*
X86715019Y-84467932D01*
X86715018Y-84467931D01*
X86715013Y-84467927D01*
X86647614Y-84429685D01*
X86629340Y-84419316D01*
X86573540Y-84385977D01*
X86544761Y-84368783D01*
X86540669Y-84367248D01*
X86523044Y-84359002D01*
X86519245Y-84356846D01*
X86426253Y-84324307D01*
X86334029Y-84289694D01*
X86334019Y-84289691D01*
X86329723Y-84288912D01*
X86310918Y-84283949D01*
X86306784Y-84282502D01*
X86306779Y-84282501D01*
X86209472Y-84267089D01*
X86112550Y-84249500D01*
X86112547Y-84249500D01*
X86108172Y-84249500D01*
X86088769Y-84247972D01*
X86084460Y-84247289D01*
X85985978Y-84249500D01*
X85764141Y-84249500D01*
X85697102Y-84229815D01*
X85651347Y-84177011D01*
X85647969Y-84168859D01*
X85643796Y-84157669D01*
X85643793Y-84157665D01*
X85643793Y-84157664D01*
X85557547Y-84042455D01*
X85557544Y-84042452D01*
X85442335Y-83956206D01*
X85442328Y-83956202D01*
X85307482Y-83905908D01*
X85307483Y-83905908D01*
X85247883Y-83899501D01*
X85247881Y-83899500D01*
X85247873Y-83899500D01*
X85247864Y-83899500D01*
X82552129Y-83899500D01*
X82552123Y-83899501D01*
X82492516Y-83905908D01*
X82357671Y-83956202D01*
X82357664Y-83956206D01*
X82242455Y-84042452D01*
X82242452Y-84042455D01*
X82156206Y-84157664D01*
X82156202Y-84157671D01*
X82105908Y-84292517D01*
X82099501Y-84352116D01*
X82099500Y-84352135D01*
X82099500Y-87047870D01*
X76200500Y-87047870D01*
X76200500Y-66107763D01*
X79425787Y-66107763D01*
X79455413Y-66377013D01*
X79455415Y-66377024D01*
X79523926Y-66639082D01*
X79523928Y-66639088D01*
X79629870Y-66888390D01*
X79701998Y-67006575D01*
X79770979Y-67119605D01*
X79770986Y-67119615D01*
X79944253Y-67327819D01*
X79944259Y-67327824D01*
X80145998Y-67508582D01*
X80371910Y-67658044D01*
X80617176Y-67773020D01*
X80617183Y-67773022D01*
X80617185Y-67773023D01*
X80876557Y-67851057D01*
X80876564Y-67851058D01*
X80876569Y-67851060D01*
X81144561Y-67890500D01*
X81144566Y-67890500D01*
X81347636Y-67890500D01*
X81399133Y-67886730D01*
X81550156Y-67875677D01*
X81662758Y-67850593D01*
X81814546Y-67816782D01*
X81814548Y-67816781D01*
X81814553Y-67816780D01*
X82067558Y-67720014D01*
X82303777Y-67587441D01*
X82518177Y-67421888D01*
X82706186Y-67226881D01*
X82863799Y-67006579D01*
X82937787Y-66862669D01*
X82987649Y-66765690D01*
X82987651Y-66765684D01*
X82987656Y-66765675D01*
X83075118Y-66509305D01*
X83124319Y-66242933D01*
X83134212Y-65972235D01*
X83104586Y-65702982D01*
X83036072Y-65440912D01*
X82930130Y-65191610D01*
X82789018Y-64960390D01*
X82699747Y-64853119D01*
X82615746Y-64752180D01*
X82615740Y-64752175D01*
X82414002Y-64571418D01*
X82188092Y-64421957D01*
X82121391Y-64390689D01*
X81942824Y-64306980D01*
X81942819Y-64306978D01*
X81942814Y-64306976D01*
X81683442Y-64228942D01*
X81683428Y-64228939D01*
X81567791Y-64211921D01*
X81415439Y-64189500D01*
X81212369Y-64189500D01*
X81212364Y-64189500D01*
X81009844Y-64204323D01*
X81009831Y-64204325D01*
X80745453Y-64263217D01*
X80745446Y-64263220D01*
X80492439Y-64359987D01*
X80256226Y-64492557D01*
X80041822Y-64658112D01*
X79853822Y-64853109D01*
X79853816Y-64853116D01*
X79696202Y-65073419D01*
X79696199Y-65073424D01*
X79572350Y-65314309D01*
X79572343Y-65314327D01*
X79484884Y-65570685D01*
X79484881Y-65570699D01*
X79435681Y-65837068D01*
X79435680Y-65837075D01*
X79425787Y-66107763D01*
X76200500Y-66107763D01*
X76200500Y-66040000D01*
X76209501Y-65822364D01*
X76218457Y-65617263D01*
X76218869Y-65612349D01*
X76246056Y-65394247D01*
X76273059Y-65189141D01*
X76273835Y-65184588D01*
X76318904Y-64969646D01*
X76363768Y-64767278D01*
X76364865Y-64763044D01*
X76427533Y-64552549D01*
X76446448Y-64492557D01*
X76489945Y-64354602D01*
X76491270Y-64350838D01*
X76571169Y-64146075D01*
X76650640Y-63954216D01*
X76652185Y-63950789D01*
X76748759Y-63753243D01*
X76844712Y-63568921D01*
X76846428Y-63565842D01*
X76959020Y-63376889D01*
X77070794Y-63201441D01*
X77072555Y-63198831D01*
X77200462Y-63019686D01*
X77327169Y-62854559D01*
X77328999Y-62852289D01*
X77471331Y-62684237D01*
X77612951Y-62529686D01*
X77769686Y-62372951D01*
X77924247Y-62231323D01*
X78092289Y-62088999D01*
X78094559Y-62087169D01*
X78259670Y-61960473D01*
X78438831Y-61832555D01*
X78441441Y-61830794D01*
X78616889Y-61719020D01*
X78805842Y-61606428D01*
X78808921Y-61604712D01*
X78993243Y-61508759D01*
X79190789Y-61412185D01*
X79194216Y-61410640D01*
X79386059Y-61331175D01*
X79590838Y-61251270D01*
X79594602Y-61249945D01*
X79775892Y-61192784D01*
X79792550Y-61187533D01*
X79818593Y-61179779D01*
X80003044Y-61124865D01*
X80007278Y-61123768D01*
X80209646Y-61078904D01*
X80424588Y-61033835D01*
X80429141Y-61033059D01*
X80634278Y-61006052D01*
X80852349Y-60978869D01*
X80857263Y-60978457D01*
X81062364Y-60969501D01*
X81280000Y-60960500D01*
X81280500Y-60960500D01*
X128376000Y-60960500D01*
X128443039Y-60980185D01*
G37*
%TD.AperFunction*%
%TD*%
M02*
