%TF.GenerationSoftware,KiCad,Pcbnew,7.0.8*%
%TF.CreationDate,2024-04-18T13:17:51+02:00*%
%TF.ProjectId,pendulo_invertido,70656e64-756c-46f5-9f69-6e7665727469,rev?*%
%TF.SameCoordinates,Original*%
%TF.FileFunction,Legend,Top*%
%TF.FilePolarity,Positive*%
%FSLAX46Y46*%
G04 Gerber Fmt 4.6, Leading zero omitted, Abs format (unit mm)*
G04 Created by KiCad (PCBNEW 7.0.8) date 2024-04-18 13:17:51*
%MOMM*%
%LPD*%
G01*
G04 APERTURE LIST*
%ADD10C,0.300000*%
%ADD11C,0.150000*%
%ADD12C,0.100000*%
%ADD13C,0.120000*%
G04 APERTURE END LIST*
D10*
X154554510Y-86300828D02*
X154554510Y-84800828D01*
X154554510Y-84800828D02*
X155125939Y-84800828D01*
X155125939Y-84800828D02*
X155268796Y-84872257D01*
X155268796Y-84872257D02*
X155340225Y-84943685D01*
X155340225Y-84943685D02*
X155411653Y-85086542D01*
X155411653Y-85086542D02*
X155411653Y-85300828D01*
X155411653Y-85300828D02*
X155340225Y-85443685D01*
X155340225Y-85443685D02*
X155268796Y-85515114D01*
X155268796Y-85515114D02*
X155125939Y-85586542D01*
X155125939Y-85586542D02*
X154554510Y-85586542D01*
X156697368Y-86300828D02*
X156697368Y-85515114D01*
X156697368Y-85515114D02*
X156625939Y-85372257D01*
X156625939Y-85372257D02*
X156483082Y-85300828D01*
X156483082Y-85300828D02*
X156197368Y-85300828D01*
X156197368Y-85300828D02*
X156054510Y-85372257D01*
X156697368Y-86229400D02*
X156554510Y-86300828D01*
X156554510Y-86300828D02*
X156197368Y-86300828D01*
X156197368Y-86300828D02*
X156054510Y-86229400D01*
X156054510Y-86229400D02*
X155983082Y-86086542D01*
X155983082Y-86086542D02*
X155983082Y-85943685D01*
X155983082Y-85943685D02*
X156054510Y-85800828D01*
X156054510Y-85800828D02*
X156197368Y-85729400D01*
X156197368Y-85729400D02*
X156554510Y-85729400D01*
X156554510Y-85729400D02*
X156697368Y-85657971D01*
X157411653Y-86300828D02*
X157411653Y-84800828D01*
X157411653Y-85372257D02*
X157554511Y-85300828D01*
X157554511Y-85300828D02*
X157840225Y-85300828D01*
X157840225Y-85300828D02*
X157983082Y-85372257D01*
X157983082Y-85372257D02*
X158054511Y-85443685D01*
X158054511Y-85443685D02*
X158125939Y-85586542D01*
X158125939Y-85586542D02*
X158125939Y-86015114D01*
X158125939Y-86015114D02*
X158054511Y-86157971D01*
X158054511Y-86157971D02*
X157983082Y-86229400D01*
X157983082Y-86229400D02*
X157840225Y-86300828D01*
X157840225Y-86300828D02*
X157554511Y-86300828D01*
X157554511Y-86300828D02*
X157411653Y-86229400D01*
X158983082Y-86300828D02*
X158840225Y-86229400D01*
X158840225Y-86229400D02*
X158768796Y-86086542D01*
X158768796Y-86086542D02*
X158768796Y-84800828D01*
X159768796Y-86300828D02*
X159625939Y-86229400D01*
X159625939Y-86229400D02*
X159554510Y-86157971D01*
X159554510Y-86157971D02*
X159483082Y-86015114D01*
X159483082Y-86015114D02*
X159483082Y-85586542D01*
X159483082Y-85586542D02*
X159554510Y-85443685D01*
X159554510Y-85443685D02*
X159625939Y-85372257D01*
X159625939Y-85372257D02*
X159768796Y-85300828D01*
X159768796Y-85300828D02*
X159983082Y-85300828D01*
X159983082Y-85300828D02*
X160125939Y-85372257D01*
X160125939Y-85372257D02*
X160197368Y-85443685D01*
X160197368Y-85443685D02*
X160268796Y-85586542D01*
X160268796Y-85586542D02*
X160268796Y-86015114D01*
X160268796Y-86015114D02*
X160197368Y-86157971D01*
X160197368Y-86157971D02*
X160125939Y-86229400D01*
X160125939Y-86229400D02*
X159983082Y-86300828D01*
X159983082Y-86300828D02*
X159768796Y-86300828D01*
X160697368Y-85300828D02*
X161268796Y-85300828D01*
X160911653Y-86300828D02*
X160911653Y-85015114D01*
X160911653Y-85015114D02*
X160983082Y-84872257D01*
X160983082Y-84872257D02*
X161125939Y-84800828D01*
X161125939Y-84800828D02*
X161268796Y-84800828D01*
X162411654Y-86229400D02*
X162268796Y-86300828D01*
X162268796Y-86300828D02*
X161983082Y-86300828D01*
X161983082Y-86300828D02*
X161840225Y-86229400D01*
X161840225Y-86229400D02*
X161768796Y-86157971D01*
X161768796Y-86157971D02*
X161697368Y-86015114D01*
X161697368Y-86015114D02*
X161697368Y-85586542D01*
X161697368Y-85586542D02*
X161768796Y-85443685D01*
X161768796Y-85443685D02*
X161840225Y-85372257D01*
X161840225Y-85372257D02*
X161983082Y-85300828D01*
X161983082Y-85300828D02*
X162268796Y-85300828D01*
X162268796Y-85300828D02*
X162411654Y-85372257D01*
X162697368Y-86443685D02*
X163840225Y-86443685D01*
X164125939Y-84943685D02*
X164197367Y-84872257D01*
X164197367Y-84872257D02*
X164340225Y-84800828D01*
X164340225Y-84800828D02*
X164697367Y-84800828D01*
X164697367Y-84800828D02*
X164840225Y-84872257D01*
X164840225Y-84872257D02*
X164911653Y-84943685D01*
X164911653Y-84943685D02*
X164983082Y-85086542D01*
X164983082Y-85086542D02*
X164983082Y-85229400D01*
X164983082Y-85229400D02*
X164911653Y-85443685D01*
X164911653Y-85443685D02*
X164054510Y-86300828D01*
X164054510Y-86300828D02*
X164983082Y-86300828D01*
X165554510Y-84943685D02*
X165625938Y-84872257D01*
X165625938Y-84872257D02*
X165768796Y-84800828D01*
X165768796Y-84800828D02*
X166125938Y-84800828D01*
X166125938Y-84800828D02*
X166268796Y-84872257D01*
X166268796Y-84872257D02*
X166340224Y-84943685D01*
X166340224Y-84943685D02*
X166411653Y-85086542D01*
X166411653Y-85086542D02*
X166411653Y-85229400D01*
X166411653Y-85229400D02*
X166340224Y-85443685D01*
X166340224Y-85443685D02*
X165483081Y-86300828D01*
X165483081Y-86300828D02*
X166411653Y-86300828D01*
D11*
X103518095Y-82184819D02*
X103518095Y-82994342D01*
X103518095Y-82994342D02*
X103565714Y-83089580D01*
X103565714Y-83089580D02*
X103613333Y-83137200D01*
X103613333Y-83137200D02*
X103708571Y-83184819D01*
X103708571Y-83184819D02*
X103899047Y-83184819D01*
X103899047Y-83184819D02*
X103994285Y-83137200D01*
X103994285Y-83137200D02*
X104041904Y-83089580D01*
X104041904Y-83089580D02*
X104089523Y-82994342D01*
X104089523Y-82994342D02*
X104089523Y-82184819D01*
X105041904Y-82184819D02*
X104565714Y-82184819D01*
X104565714Y-82184819D02*
X104518095Y-82661009D01*
X104518095Y-82661009D02*
X104565714Y-82613390D01*
X104565714Y-82613390D02*
X104660952Y-82565771D01*
X104660952Y-82565771D02*
X104899047Y-82565771D01*
X104899047Y-82565771D02*
X104994285Y-82613390D01*
X104994285Y-82613390D02*
X105041904Y-82661009D01*
X105041904Y-82661009D02*
X105089523Y-82756247D01*
X105089523Y-82756247D02*
X105089523Y-82994342D01*
X105089523Y-82994342D02*
X105041904Y-83089580D01*
X105041904Y-83089580D02*
X104994285Y-83137200D01*
X104994285Y-83137200D02*
X104899047Y-83184819D01*
X104899047Y-83184819D02*
X104660952Y-83184819D01*
X104660952Y-83184819D02*
X104565714Y-83137200D01*
X104565714Y-83137200D02*
X104518095Y-83089580D01*
X161798095Y-113094819D02*
X161798095Y-112094819D01*
X161798095Y-112571009D02*
X162369523Y-112571009D01*
X162369523Y-113094819D02*
X162369523Y-112094819D01*
X163274285Y-112428152D02*
X163274285Y-113094819D01*
X163036190Y-112047200D02*
X162798095Y-112761485D01*
X162798095Y-112761485D02*
X163417142Y-112761485D01*
X82866666Y-81354819D02*
X82866666Y-82069104D01*
X82866666Y-82069104D02*
X82819047Y-82211961D01*
X82819047Y-82211961D02*
X82723809Y-82307200D01*
X82723809Y-82307200D02*
X82580952Y-82354819D01*
X82580952Y-82354819D02*
X82485714Y-82354819D01*
X83247619Y-81354819D02*
X83866666Y-81354819D01*
X83866666Y-81354819D02*
X83533333Y-81735771D01*
X83533333Y-81735771D02*
X83676190Y-81735771D01*
X83676190Y-81735771D02*
X83771428Y-81783390D01*
X83771428Y-81783390D02*
X83819047Y-81831009D01*
X83819047Y-81831009D02*
X83866666Y-81926247D01*
X83866666Y-81926247D02*
X83866666Y-82164342D01*
X83866666Y-82164342D02*
X83819047Y-82259580D01*
X83819047Y-82259580D02*
X83771428Y-82307200D01*
X83771428Y-82307200D02*
X83676190Y-82354819D01*
X83676190Y-82354819D02*
X83390476Y-82354819D01*
X83390476Y-82354819D02*
X83295238Y-82307200D01*
X83295238Y-82307200D02*
X83247619Y-82259580D01*
X159666666Y-97254819D02*
X159666666Y-97969104D01*
X159666666Y-97969104D02*
X159619047Y-98111961D01*
X159619047Y-98111961D02*
X159523809Y-98207200D01*
X159523809Y-98207200D02*
X159380952Y-98254819D01*
X159380952Y-98254819D02*
X159285714Y-98254819D01*
X160095238Y-97350057D02*
X160142857Y-97302438D01*
X160142857Y-97302438D02*
X160238095Y-97254819D01*
X160238095Y-97254819D02*
X160476190Y-97254819D01*
X160476190Y-97254819D02*
X160571428Y-97302438D01*
X160571428Y-97302438D02*
X160619047Y-97350057D01*
X160619047Y-97350057D02*
X160666666Y-97445295D01*
X160666666Y-97445295D02*
X160666666Y-97540533D01*
X160666666Y-97540533D02*
X160619047Y-97683390D01*
X160619047Y-97683390D02*
X160047619Y-98254819D01*
X160047619Y-98254819D02*
X160666666Y-98254819D01*
D12*
X108327419Y-72401904D02*
X109136942Y-72401904D01*
X109136942Y-72401904D02*
X109232180Y-72354285D01*
X109232180Y-72354285D02*
X109279800Y-72306666D01*
X109279800Y-72306666D02*
X109327419Y-72211428D01*
X109327419Y-72211428D02*
X109327419Y-72020952D01*
X109327419Y-72020952D02*
X109279800Y-71925714D01*
X109279800Y-71925714D02*
X109232180Y-71878095D01*
X109232180Y-71878095D02*
X109136942Y-71830476D01*
X109136942Y-71830476D02*
X108327419Y-71830476D01*
X108422657Y-71401904D02*
X108375038Y-71354285D01*
X108375038Y-71354285D02*
X108327419Y-71259047D01*
X108327419Y-71259047D02*
X108327419Y-71020952D01*
X108327419Y-71020952D02*
X108375038Y-70925714D01*
X108375038Y-70925714D02*
X108422657Y-70878095D01*
X108422657Y-70878095D02*
X108517895Y-70830476D01*
X108517895Y-70830476D02*
X108613133Y-70830476D01*
X108613133Y-70830476D02*
X108755990Y-70878095D01*
X108755990Y-70878095D02*
X109327419Y-71449523D01*
X109327419Y-71449523D02*
X109327419Y-70830476D01*
D11*
X96974819Y-74381904D02*
X95974819Y-74381904D01*
X95974819Y-74381904D02*
X96689104Y-74048571D01*
X96689104Y-74048571D02*
X95974819Y-73715238D01*
X95974819Y-73715238D02*
X96974819Y-73715238D01*
X96974819Y-73239047D02*
X95974819Y-73239047D01*
X95974819Y-73239047D02*
X95974819Y-72858095D01*
X95974819Y-72858095D02*
X96022438Y-72762857D01*
X96022438Y-72762857D02*
X96070057Y-72715238D01*
X96070057Y-72715238D02*
X96165295Y-72667619D01*
X96165295Y-72667619D02*
X96308152Y-72667619D01*
X96308152Y-72667619D02*
X96403390Y-72715238D01*
X96403390Y-72715238D02*
X96451009Y-72762857D01*
X96451009Y-72762857D02*
X96498628Y-72858095D01*
X96498628Y-72858095D02*
X96498628Y-73239047D01*
X95974819Y-72239047D02*
X96784342Y-72239047D01*
X96784342Y-72239047D02*
X96879580Y-72191428D01*
X96879580Y-72191428D02*
X96927200Y-72143809D01*
X96927200Y-72143809D02*
X96974819Y-72048571D01*
X96974819Y-72048571D02*
X96974819Y-71858095D01*
X96974819Y-71858095D02*
X96927200Y-71762857D01*
X96927200Y-71762857D02*
X96879580Y-71715238D01*
X96879580Y-71715238D02*
X96784342Y-71667619D01*
X96784342Y-71667619D02*
X95974819Y-71667619D01*
X95974819Y-70762857D02*
X95974819Y-70953333D01*
X95974819Y-70953333D02*
X96022438Y-71048571D01*
X96022438Y-71048571D02*
X96070057Y-71096190D01*
X96070057Y-71096190D02*
X96212914Y-71191428D01*
X96212914Y-71191428D02*
X96403390Y-71239047D01*
X96403390Y-71239047D02*
X96784342Y-71239047D01*
X96784342Y-71239047D02*
X96879580Y-71191428D01*
X96879580Y-71191428D02*
X96927200Y-71143809D01*
X96927200Y-71143809D02*
X96974819Y-71048571D01*
X96974819Y-71048571D02*
X96974819Y-70858095D01*
X96974819Y-70858095D02*
X96927200Y-70762857D01*
X96927200Y-70762857D02*
X96879580Y-70715238D01*
X96879580Y-70715238D02*
X96784342Y-70667619D01*
X96784342Y-70667619D02*
X96546247Y-70667619D01*
X96546247Y-70667619D02*
X96451009Y-70715238D01*
X96451009Y-70715238D02*
X96403390Y-70762857D01*
X96403390Y-70762857D02*
X96355771Y-70858095D01*
X96355771Y-70858095D02*
X96355771Y-71048571D01*
X96355771Y-71048571D02*
X96403390Y-71143809D01*
X96403390Y-71143809D02*
X96451009Y-71191428D01*
X96451009Y-71191428D02*
X96546247Y-71239047D01*
X95974819Y-70048571D02*
X95974819Y-69953333D01*
X95974819Y-69953333D02*
X96022438Y-69858095D01*
X96022438Y-69858095D02*
X96070057Y-69810476D01*
X96070057Y-69810476D02*
X96165295Y-69762857D01*
X96165295Y-69762857D02*
X96355771Y-69715238D01*
X96355771Y-69715238D02*
X96593866Y-69715238D01*
X96593866Y-69715238D02*
X96784342Y-69762857D01*
X96784342Y-69762857D02*
X96879580Y-69810476D01*
X96879580Y-69810476D02*
X96927200Y-69858095D01*
X96927200Y-69858095D02*
X96974819Y-69953333D01*
X96974819Y-69953333D02*
X96974819Y-70048571D01*
X96974819Y-70048571D02*
X96927200Y-70143809D01*
X96927200Y-70143809D02*
X96879580Y-70191428D01*
X96879580Y-70191428D02*
X96784342Y-70239047D01*
X96784342Y-70239047D02*
X96593866Y-70286666D01*
X96593866Y-70286666D02*
X96355771Y-70286666D01*
X96355771Y-70286666D02*
X96165295Y-70239047D01*
X96165295Y-70239047D02*
X96070057Y-70191428D01*
X96070057Y-70191428D02*
X96022438Y-70143809D01*
X96022438Y-70143809D02*
X95974819Y-70048571D01*
X95974819Y-68810476D02*
X95974819Y-69286666D01*
X95974819Y-69286666D02*
X96451009Y-69334285D01*
X96451009Y-69334285D02*
X96403390Y-69286666D01*
X96403390Y-69286666D02*
X96355771Y-69191428D01*
X96355771Y-69191428D02*
X96355771Y-68953333D01*
X96355771Y-68953333D02*
X96403390Y-68858095D01*
X96403390Y-68858095D02*
X96451009Y-68810476D01*
X96451009Y-68810476D02*
X96546247Y-68762857D01*
X96546247Y-68762857D02*
X96784342Y-68762857D01*
X96784342Y-68762857D02*
X96879580Y-68810476D01*
X96879580Y-68810476D02*
X96927200Y-68858095D01*
X96927200Y-68858095D02*
X96974819Y-68953333D01*
X96974819Y-68953333D02*
X96974819Y-69191428D01*
X96974819Y-69191428D02*
X96927200Y-69286666D01*
X96927200Y-69286666D02*
X96879580Y-69334285D01*
X95974819Y-68143809D02*
X95974819Y-68048571D01*
X95974819Y-68048571D02*
X96022438Y-67953333D01*
X96022438Y-67953333D02*
X96070057Y-67905714D01*
X96070057Y-67905714D02*
X96165295Y-67858095D01*
X96165295Y-67858095D02*
X96355771Y-67810476D01*
X96355771Y-67810476D02*
X96593866Y-67810476D01*
X96593866Y-67810476D02*
X96784342Y-67858095D01*
X96784342Y-67858095D02*
X96879580Y-67905714D01*
X96879580Y-67905714D02*
X96927200Y-67953333D01*
X96927200Y-67953333D02*
X96974819Y-68048571D01*
X96974819Y-68048571D02*
X96974819Y-68143809D01*
X96974819Y-68143809D02*
X96927200Y-68239047D01*
X96927200Y-68239047D02*
X96879580Y-68286666D01*
X96879580Y-68286666D02*
X96784342Y-68334285D01*
X96784342Y-68334285D02*
X96593866Y-68381904D01*
X96593866Y-68381904D02*
X96355771Y-68381904D01*
X96355771Y-68381904D02*
X96165295Y-68334285D01*
X96165295Y-68334285D02*
X96070057Y-68286666D01*
X96070057Y-68286666D02*
X96022438Y-68239047D01*
X96022438Y-68239047D02*
X95974819Y-68143809D01*
D12*
X106028095Y-104437419D02*
X106028095Y-105246942D01*
X106028095Y-105246942D02*
X106075714Y-105342180D01*
X106075714Y-105342180D02*
X106123333Y-105389800D01*
X106123333Y-105389800D02*
X106218571Y-105437419D01*
X106218571Y-105437419D02*
X106409047Y-105437419D01*
X106409047Y-105437419D02*
X106504285Y-105389800D01*
X106504285Y-105389800D02*
X106551904Y-105342180D01*
X106551904Y-105342180D02*
X106599523Y-105246942D01*
X106599523Y-105246942D02*
X106599523Y-104437419D01*
X106980476Y-104437419D02*
X107599523Y-104437419D01*
X107599523Y-104437419D02*
X107266190Y-104818371D01*
X107266190Y-104818371D02*
X107409047Y-104818371D01*
X107409047Y-104818371D02*
X107504285Y-104865990D01*
X107504285Y-104865990D02*
X107551904Y-104913609D01*
X107551904Y-104913609D02*
X107599523Y-105008847D01*
X107599523Y-105008847D02*
X107599523Y-105246942D01*
X107599523Y-105246942D02*
X107551904Y-105342180D01*
X107551904Y-105342180D02*
X107504285Y-105389800D01*
X107504285Y-105389800D02*
X107409047Y-105437419D01*
X107409047Y-105437419D02*
X107123333Y-105437419D01*
X107123333Y-105437419D02*
X107028095Y-105389800D01*
X107028095Y-105389800D02*
X106980476Y-105342180D01*
D11*
X102537143Y-93434819D02*
X103108571Y-93434819D01*
X102822857Y-94434819D02*
X102822857Y-93434819D01*
X103775238Y-93911009D02*
X103918095Y-93958628D01*
X103918095Y-93958628D02*
X103965714Y-94006247D01*
X103965714Y-94006247D02*
X104013333Y-94101485D01*
X104013333Y-94101485D02*
X104013333Y-94244342D01*
X104013333Y-94244342D02*
X103965714Y-94339580D01*
X103965714Y-94339580D02*
X103918095Y-94387200D01*
X103918095Y-94387200D02*
X103822857Y-94434819D01*
X103822857Y-94434819D02*
X103441905Y-94434819D01*
X103441905Y-94434819D02*
X103441905Y-93434819D01*
X103441905Y-93434819D02*
X103775238Y-93434819D01*
X103775238Y-93434819D02*
X103870476Y-93482438D01*
X103870476Y-93482438D02*
X103918095Y-93530057D01*
X103918095Y-93530057D02*
X103965714Y-93625295D01*
X103965714Y-93625295D02*
X103965714Y-93720533D01*
X103965714Y-93720533D02*
X103918095Y-93815771D01*
X103918095Y-93815771D02*
X103870476Y-93863390D01*
X103870476Y-93863390D02*
X103775238Y-93911009D01*
X103775238Y-93911009D02*
X103441905Y-93911009D01*
X104870476Y-93434819D02*
X104680000Y-93434819D01*
X104680000Y-93434819D02*
X104584762Y-93482438D01*
X104584762Y-93482438D02*
X104537143Y-93530057D01*
X104537143Y-93530057D02*
X104441905Y-93672914D01*
X104441905Y-93672914D02*
X104394286Y-93863390D01*
X104394286Y-93863390D02*
X104394286Y-94244342D01*
X104394286Y-94244342D02*
X104441905Y-94339580D01*
X104441905Y-94339580D02*
X104489524Y-94387200D01*
X104489524Y-94387200D02*
X104584762Y-94434819D01*
X104584762Y-94434819D02*
X104775238Y-94434819D01*
X104775238Y-94434819D02*
X104870476Y-94387200D01*
X104870476Y-94387200D02*
X104918095Y-94339580D01*
X104918095Y-94339580D02*
X104965714Y-94244342D01*
X104965714Y-94244342D02*
X104965714Y-94006247D01*
X104965714Y-94006247D02*
X104918095Y-93911009D01*
X104918095Y-93911009D02*
X104870476Y-93863390D01*
X104870476Y-93863390D02*
X104775238Y-93815771D01*
X104775238Y-93815771D02*
X104584762Y-93815771D01*
X104584762Y-93815771D02*
X104489524Y-93863390D01*
X104489524Y-93863390D02*
X104441905Y-93911009D01*
X104441905Y-93911009D02*
X104394286Y-94006247D01*
X105822857Y-93434819D02*
X105632381Y-93434819D01*
X105632381Y-93434819D02*
X105537143Y-93482438D01*
X105537143Y-93482438D02*
X105489524Y-93530057D01*
X105489524Y-93530057D02*
X105394286Y-93672914D01*
X105394286Y-93672914D02*
X105346667Y-93863390D01*
X105346667Y-93863390D02*
X105346667Y-94244342D01*
X105346667Y-94244342D02*
X105394286Y-94339580D01*
X105394286Y-94339580D02*
X105441905Y-94387200D01*
X105441905Y-94387200D02*
X105537143Y-94434819D01*
X105537143Y-94434819D02*
X105727619Y-94434819D01*
X105727619Y-94434819D02*
X105822857Y-94387200D01*
X105822857Y-94387200D02*
X105870476Y-94339580D01*
X105870476Y-94339580D02*
X105918095Y-94244342D01*
X105918095Y-94244342D02*
X105918095Y-94006247D01*
X105918095Y-94006247D02*
X105870476Y-93911009D01*
X105870476Y-93911009D02*
X105822857Y-93863390D01*
X105822857Y-93863390D02*
X105727619Y-93815771D01*
X105727619Y-93815771D02*
X105537143Y-93815771D01*
X105537143Y-93815771D02*
X105441905Y-93863390D01*
X105441905Y-93863390D02*
X105394286Y-93911009D01*
X105394286Y-93911009D02*
X105346667Y-94006247D01*
X106870476Y-94434819D02*
X106299048Y-94434819D01*
X106584762Y-94434819D02*
X106584762Y-93434819D01*
X106584762Y-93434819D02*
X106489524Y-93577676D01*
X106489524Y-93577676D02*
X106394286Y-93672914D01*
X106394286Y-93672914D02*
X106299048Y-93720533D01*
X107251429Y-93530057D02*
X107299048Y-93482438D01*
X107299048Y-93482438D02*
X107394286Y-93434819D01*
X107394286Y-93434819D02*
X107632381Y-93434819D01*
X107632381Y-93434819D02*
X107727619Y-93482438D01*
X107727619Y-93482438D02*
X107775238Y-93530057D01*
X107775238Y-93530057D02*
X107822857Y-93625295D01*
X107822857Y-93625295D02*
X107822857Y-93720533D01*
X107822857Y-93720533D02*
X107775238Y-93863390D01*
X107775238Y-93863390D02*
X107203810Y-94434819D01*
X107203810Y-94434819D02*
X107822857Y-94434819D01*
X108584762Y-93911009D02*
X108251429Y-93911009D01*
X108251429Y-94434819D02*
X108251429Y-93434819D01*
X108251429Y-93434819D02*
X108727619Y-93434819D01*
X109108572Y-94434819D02*
X109108572Y-93434819D01*
X109108572Y-93434819D02*
X109680000Y-94434819D01*
X109680000Y-94434819D02*
X109680000Y-93434819D01*
X110680000Y-93482438D02*
X110584762Y-93434819D01*
X110584762Y-93434819D02*
X110441905Y-93434819D01*
X110441905Y-93434819D02*
X110299048Y-93482438D01*
X110299048Y-93482438D02*
X110203810Y-93577676D01*
X110203810Y-93577676D02*
X110156191Y-93672914D01*
X110156191Y-93672914D02*
X110108572Y-93863390D01*
X110108572Y-93863390D02*
X110108572Y-94006247D01*
X110108572Y-94006247D02*
X110156191Y-94196723D01*
X110156191Y-94196723D02*
X110203810Y-94291961D01*
X110203810Y-94291961D02*
X110299048Y-94387200D01*
X110299048Y-94387200D02*
X110441905Y-94434819D01*
X110441905Y-94434819D02*
X110537143Y-94434819D01*
X110537143Y-94434819D02*
X110680000Y-94387200D01*
X110680000Y-94387200D02*
X110727619Y-94339580D01*
X110727619Y-94339580D02*
X110727619Y-94006247D01*
X110727619Y-94006247D02*
X110537143Y-94006247D01*
X80518095Y-62294819D02*
X80518095Y-61294819D01*
X80518095Y-61771009D02*
X81089523Y-61771009D01*
X81089523Y-62294819D02*
X81089523Y-61294819D01*
X82089523Y-62294819D02*
X81518095Y-62294819D01*
X81803809Y-62294819D02*
X81803809Y-61294819D01*
X81803809Y-61294819D02*
X81708571Y-61437676D01*
X81708571Y-61437676D02*
X81613333Y-61532914D01*
X81613333Y-61532914D02*
X81518095Y-61580533D01*
X82766666Y-96954819D02*
X82766666Y-97669104D01*
X82766666Y-97669104D02*
X82719047Y-97811961D01*
X82719047Y-97811961D02*
X82623809Y-97907200D01*
X82623809Y-97907200D02*
X82480952Y-97954819D01*
X82480952Y-97954819D02*
X82385714Y-97954819D01*
X83766666Y-97954819D02*
X83195238Y-97954819D01*
X83480952Y-97954819D02*
X83480952Y-96954819D01*
X83480952Y-96954819D02*
X83385714Y-97097676D01*
X83385714Y-97097676D02*
X83290476Y-97192914D01*
X83290476Y-97192914D02*
X83195238Y-97240533D01*
X80518095Y-113094819D02*
X80518095Y-112094819D01*
X80518095Y-112571009D02*
X81089523Y-112571009D01*
X81089523Y-113094819D02*
X81089523Y-112094819D01*
X81470476Y-112094819D02*
X82089523Y-112094819D01*
X82089523Y-112094819D02*
X81756190Y-112475771D01*
X81756190Y-112475771D02*
X81899047Y-112475771D01*
X81899047Y-112475771D02*
X81994285Y-112523390D01*
X81994285Y-112523390D02*
X82041904Y-112571009D01*
X82041904Y-112571009D02*
X82089523Y-112666247D01*
X82089523Y-112666247D02*
X82089523Y-112904342D01*
X82089523Y-112904342D02*
X82041904Y-112999580D01*
X82041904Y-112999580D02*
X81994285Y-113047200D01*
X81994285Y-113047200D02*
X81899047Y-113094819D01*
X81899047Y-113094819D02*
X81613333Y-113094819D01*
X81613333Y-113094819D02*
X81518095Y-113047200D01*
X81518095Y-113047200D02*
X81470476Y-112999580D01*
X161798095Y-62294819D02*
X161798095Y-61294819D01*
X161798095Y-61771009D02*
X162369523Y-61771009D01*
X162369523Y-62294819D02*
X162369523Y-61294819D01*
X162798095Y-61390057D02*
X162845714Y-61342438D01*
X162845714Y-61342438D02*
X162940952Y-61294819D01*
X162940952Y-61294819D02*
X163179047Y-61294819D01*
X163179047Y-61294819D02*
X163274285Y-61342438D01*
X163274285Y-61342438D02*
X163321904Y-61390057D01*
X163321904Y-61390057D02*
X163369523Y-61485295D01*
X163369523Y-61485295D02*
X163369523Y-61580533D01*
X163369523Y-61580533D02*
X163321904Y-61723390D01*
X163321904Y-61723390D02*
X162750476Y-62294819D01*
X162750476Y-62294819D02*
X163369523Y-62294819D01*
X110889580Y-86806666D02*
X110937200Y-86854285D01*
X110937200Y-86854285D02*
X110984819Y-86997142D01*
X110984819Y-86997142D02*
X110984819Y-87092380D01*
X110984819Y-87092380D02*
X110937200Y-87235237D01*
X110937200Y-87235237D02*
X110841961Y-87330475D01*
X110841961Y-87330475D02*
X110746723Y-87378094D01*
X110746723Y-87378094D02*
X110556247Y-87425713D01*
X110556247Y-87425713D02*
X110413390Y-87425713D01*
X110413390Y-87425713D02*
X110222914Y-87378094D01*
X110222914Y-87378094D02*
X110127676Y-87330475D01*
X110127676Y-87330475D02*
X110032438Y-87235237D01*
X110032438Y-87235237D02*
X109984819Y-87092380D01*
X109984819Y-87092380D02*
X109984819Y-86997142D01*
X109984819Y-86997142D02*
X110032438Y-86854285D01*
X110032438Y-86854285D02*
X110080057Y-86806666D01*
X110080057Y-86425713D02*
X110032438Y-86378094D01*
X110032438Y-86378094D02*
X109984819Y-86282856D01*
X109984819Y-86282856D02*
X109984819Y-86044761D01*
X109984819Y-86044761D02*
X110032438Y-85949523D01*
X110032438Y-85949523D02*
X110080057Y-85901904D01*
X110080057Y-85901904D02*
X110175295Y-85854285D01*
X110175295Y-85854285D02*
X110270533Y-85854285D01*
X110270533Y-85854285D02*
X110413390Y-85901904D01*
X110413390Y-85901904D02*
X110984819Y-86473332D01*
X110984819Y-86473332D02*
X110984819Y-85854285D01*
X136982295Y-68474819D02*
X136982295Y-69284342D01*
X136982295Y-69284342D02*
X137029914Y-69379580D01*
X137029914Y-69379580D02*
X137077533Y-69427200D01*
X137077533Y-69427200D02*
X137172771Y-69474819D01*
X137172771Y-69474819D02*
X137363247Y-69474819D01*
X137363247Y-69474819D02*
X137458485Y-69427200D01*
X137458485Y-69427200D02*
X137506104Y-69379580D01*
X137506104Y-69379580D02*
X137553723Y-69284342D01*
X137553723Y-69284342D02*
X137553723Y-68474819D01*
X138553723Y-69474819D02*
X137982295Y-69474819D01*
X138268009Y-69474819D02*
X138268009Y-68474819D01*
X138268009Y-68474819D02*
X138172771Y-68617676D01*
X138172771Y-68617676D02*
X138077533Y-68712914D01*
X138077533Y-68712914D02*
X137982295Y-68760533D01*
X137675209Y-101749999D02*
X137675209Y-101416666D01*
X138199019Y-101273809D02*
X138199019Y-101749999D01*
X138199019Y-101749999D02*
X137199019Y-101749999D01*
X137199019Y-101749999D02*
X137199019Y-101273809D01*
X138151400Y-100892856D02*
X138199019Y-100749999D01*
X138199019Y-100749999D02*
X138199019Y-100511904D01*
X138199019Y-100511904D02*
X138151400Y-100416666D01*
X138151400Y-100416666D02*
X138103780Y-100369047D01*
X138103780Y-100369047D02*
X138008542Y-100321428D01*
X138008542Y-100321428D02*
X137913304Y-100321428D01*
X137913304Y-100321428D02*
X137818066Y-100369047D01*
X137818066Y-100369047D02*
X137770447Y-100416666D01*
X137770447Y-100416666D02*
X137722828Y-100511904D01*
X137722828Y-100511904D02*
X137675209Y-100702380D01*
X137675209Y-100702380D02*
X137627590Y-100797618D01*
X137627590Y-100797618D02*
X137579971Y-100845237D01*
X137579971Y-100845237D02*
X137484733Y-100892856D01*
X137484733Y-100892856D02*
X137389495Y-100892856D01*
X137389495Y-100892856D02*
X137294257Y-100845237D01*
X137294257Y-100845237D02*
X137246638Y-100797618D01*
X137246638Y-100797618D02*
X137199019Y-100702380D01*
X137199019Y-100702380D02*
X137199019Y-100464285D01*
X137199019Y-100464285D02*
X137246638Y-100321428D01*
X138199019Y-99892856D02*
X137199019Y-99892856D01*
X137199019Y-99892856D02*
X137199019Y-99511904D01*
X137199019Y-99511904D02*
X137246638Y-99416666D01*
X137246638Y-99416666D02*
X137294257Y-99369047D01*
X137294257Y-99369047D02*
X137389495Y-99321428D01*
X137389495Y-99321428D02*
X137532352Y-99321428D01*
X137532352Y-99321428D02*
X137627590Y-99369047D01*
X137627590Y-99369047D02*
X137675209Y-99416666D01*
X137675209Y-99416666D02*
X137722828Y-99511904D01*
X137722828Y-99511904D02*
X137722828Y-99892856D01*
X137199019Y-98988094D02*
X137199019Y-98369047D01*
X137199019Y-98369047D02*
X137579971Y-98702380D01*
X137579971Y-98702380D02*
X137579971Y-98559523D01*
X137579971Y-98559523D02*
X137627590Y-98464285D01*
X137627590Y-98464285D02*
X137675209Y-98416666D01*
X137675209Y-98416666D02*
X137770447Y-98369047D01*
X137770447Y-98369047D02*
X138008542Y-98369047D01*
X138008542Y-98369047D02*
X138103780Y-98416666D01*
X138103780Y-98416666D02*
X138151400Y-98464285D01*
X138151400Y-98464285D02*
X138199019Y-98559523D01*
X138199019Y-98559523D02*
X138199019Y-98845237D01*
X138199019Y-98845237D02*
X138151400Y-98940475D01*
X138151400Y-98940475D02*
X138103780Y-98988094D01*
X137294257Y-97988094D02*
X137246638Y-97940475D01*
X137246638Y-97940475D02*
X137199019Y-97845237D01*
X137199019Y-97845237D02*
X137199019Y-97607142D01*
X137199019Y-97607142D02*
X137246638Y-97511904D01*
X137246638Y-97511904D02*
X137294257Y-97464285D01*
X137294257Y-97464285D02*
X137389495Y-97416666D01*
X137389495Y-97416666D02*
X137484733Y-97416666D01*
X137484733Y-97416666D02*
X137627590Y-97464285D01*
X137627590Y-97464285D02*
X138199019Y-98035713D01*
X138199019Y-98035713D02*
X138199019Y-97416666D01*
X137818066Y-96988094D02*
X137818066Y-96226190D01*
X138199019Y-95749999D02*
X137199019Y-95749999D01*
X137199019Y-95749999D02*
X137199019Y-95511904D01*
X137199019Y-95511904D02*
X137246638Y-95369047D01*
X137246638Y-95369047D02*
X137341876Y-95273809D01*
X137341876Y-95273809D02*
X137437114Y-95226190D01*
X137437114Y-95226190D02*
X137627590Y-95178571D01*
X137627590Y-95178571D02*
X137770447Y-95178571D01*
X137770447Y-95178571D02*
X137960923Y-95226190D01*
X137960923Y-95226190D02*
X138056161Y-95273809D01*
X138056161Y-95273809D02*
X138151400Y-95369047D01*
X138151400Y-95369047D02*
X138199019Y-95511904D01*
X138199019Y-95511904D02*
X138199019Y-95749999D01*
X138151400Y-94369047D02*
X138199019Y-94464285D01*
X138199019Y-94464285D02*
X138199019Y-94654761D01*
X138199019Y-94654761D02*
X138151400Y-94749999D01*
X138151400Y-94749999D02*
X138056161Y-94797618D01*
X138056161Y-94797618D02*
X137675209Y-94797618D01*
X137675209Y-94797618D02*
X137579971Y-94749999D01*
X137579971Y-94749999D02*
X137532352Y-94654761D01*
X137532352Y-94654761D02*
X137532352Y-94464285D01*
X137532352Y-94464285D02*
X137579971Y-94369047D01*
X137579971Y-94369047D02*
X137675209Y-94321428D01*
X137675209Y-94321428D02*
X137770447Y-94321428D01*
X137770447Y-94321428D02*
X137865685Y-94797618D01*
X137532352Y-93988094D02*
X138199019Y-93749999D01*
X138199019Y-93749999D02*
X137532352Y-93511904D01*
X138199019Y-93130951D02*
X137199019Y-93130951D01*
X138199019Y-92559523D02*
X137627590Y-92988094D01*
X137199019Y-92559523D02*
X137770447Y-93130951D01*
X138199019Y-92130951D02*
X137532352Y-92130951D01*
X137199019Y-92130951D02*
X137246638Y-92178570D01*
X137246638Y-92178570D02*
X137294257Y-92130951D01*
X137294257Y-92130951D02*
X137246638Y-92083332D01*
X137246638Y-92083332D02*
X137199019Y-92130951D01*
X137199019Y-92130951D02*
X137294257Y-92130951D01*
X137532352Y-91797618D02*
X137532352Y-91416666D01*
X137199019Y-91654761D02*
X138056161Y-91654761D01*
X138056161Y-91654761D02*
X138151400Y-91607142D01*
X138151400Y-91607142D02*
X138199019Y-91511904D01*
X138199019Y-91511904D02*
X138199019Y-91416666D01*
X138103780Y-90511904D02*
X138151400Y-90559523D01*
X138151400Y-90559523D02*
X138199019Y-90702380D01*
X138199019Y-90702380D02*
X138199019Y-90797618D01*
X138199019Y-90797618D02*
X138151400Y-90940475D01*
X138151400Y-90940475D02*
X138056161Y-91035713D01*
X138056161Y-91035713D02*
X137960923Y-91083332D01*
X137960923Y-91083332D02*
X137770447Y-91130951D01*
X137770447Y-91130951D02*
X137627590Y-91130951D01*
X137627590Y-91130951D02*
X137437114Y-91083332D01*
X137437114Y-91083332D02*
X137341876Y-91035713D01*
X137341876Y-91035713D02*
X137246638Y-90940475D01*
X137246638Y-90940475D02*
X137199019Y-90797618D01*
X137199019Y-90797618D02*
X137199019Y-90702380D01*
X137199019Y-90702380D02*
X137246638Y-90559523D01*
X137246638Y-90559523D02*
X137294257Y-90511904D01*
X137199019Y-89464284D02*
X138199019Y-89130951D01*
X138199019Y-89130951D02*
X137199019Y-88797618D01*
X137532352Y-88035713D02*
X138199019Y-88035713D01*
X137151400Y-88273808D02*
X137865685Y-88511903D01*
X137865685Y-88511903D02*
X137865685Y-87892856D01*
X127241541Y-70574819D02*
X127860588Y-70574819D01*
X127860588Y-70574819D02*
X127527255Y-70955771D01*
X127527255Y-70955771D02*
X127670112Y-70955771D01*
X127670112Y-70955771D02*
X127765350Y-71003390D01*
X127765350Y-71003390D02*
X127812969Y-71051009D01*
X127812969Y-71051009D02*
X127860588Y-71146247D01*
X127860588Y-71146247D02*
X127860588Y-71384342D01*
X127860588Y-71384342D02*
X127812969Y-71479580D01*
X127812969Y-71479580D02*
X127765350Y-71527200D01*
X127765350Y-71527200D02*
X127670112Y-71574819D01*
X127670112Y-71574819D02*
X127384398Y-71574819D01*
X127384398Y-71574819D02*
X127289160Y-71527200D01*
X127289160Y-71527200D02*
X127241541Y-71479580D01*
X128146303Y-70574819D02*
X128479636Y-71574819D01*
X128479636Y-71574819D02*
X128812969Y-70574819D01*
X129051065Y-70574819D02*
X129670112Y-70574819D01*
X129670112Y-70574819D02*
X129336779Y-70955771D01*
X129336779Y-70955771D02*
X129479636Y-70955771D01*
X129479636Y-70955771D02*
X129574874Y-71003390D01*
X129574874Y-71003390D02*
X129622493Y-71051009D01*
X129622493Y-71051009D02*
X129670112Y-71146247D01*
X129670112Y-71146247D02*
X129670112Y-71384342D01*
X129670112Y-71384342D02*
X129622493Y-71479580D01*
X129622493Y-71479580D02*
X129574874Y-71527200D01*
X129574874Y-71527200D02*
X129479636Y-71574819D01*
X129479636Y-71574819D02*
X129193922Y-71574819D01*
X129193922Y-71574819D02*
X129098684Y-71527200D01*
X129098684Y-71527200D02*
X129051065Y-71479580D01*
X126979550Y-114586104D02*
X126946217Y-114624200D01*
X126946217Y-114624200D02*
X126846217Y-114662295D01*
X126846217Y-114662295D02*
X126779550Y-114662295D01*
X126779550Y-114662295D02*
X126679550Y-114624200D01*
X126679550Y-114624200D02*
X126612884Y-114548009D01*
X126612884Y-114548009D02*
X126579550Y-114471819D01*
X126579550Y-114471819D02*
X126546217Y-114319438D01*
X126546217Y-114319438D02*
X126546217Y-114205152D01*
X126546217Y-114205152D02*
X126579550Y-114052771D01*
X126579550Y-114052771D02*
X126612884Y-113976580D01*
X126612884Y-113976580D02*
X126679550Y-113900390D01*
X126679550Y-113900390D02*
X126779550Y-113862295D01*
X126779550Y-113862295D02*
X126846217Y-113862295D01*
X126846217Y-113862295D02*
X126946217Y-113900390D01*
X126946217Y-113900390D02*
X126979550Y-113938485D01*
X127279550Y-114662295D02*
X127279550Y-113862295D01*
X127279550Y-113862295D02*
X127512884Y-114433723D01*
X127512884Y-114433723D02*
X127746217Y-113862295D01*
X127746217Y-113862295D02*
X127746217Y-114662295D01*
X128079550Y-114662295D02*
X128079550Y-113862295D01*
X128079550Y-113862295D02*
X128246217Y-113862295D01*
X128246217Y-113862295D02*
X128346217Y-113900390D01*
X128346217Y-113900390D02*
X128412884Y-113976580D01*
X128412884Y-113976580D02*
X128446217Y-114052771D01*
X128446217Y-114052771D02*
X128479550Y-114205152D01*
X128479550Y-114205152D02*
X128479550Y-114319438D01*
X128479550Y-114319438D02*
X128446217Y-114471819D01*
X128446217Y-114471819D02*
X128412884Y-114548009D01*
X128412884Y-114548009D02*
X128346217Y-114624200D01*
X128346217Y-114624200D02*
X128246217Y-114662295D01*
X128246217Y-114662295D02*
X128079550Y-114662295D01*
X126946217Y-96120390D02*
X126879550Y-96082295D01*
X126879550Y-96082295D02*
X126779550Y-96082295D01*
X126779550Y-96082295D02*
X126679550Y-96120390D01*
X126679550Y-96120390D02*
X126612884Y-96196580D01*
X126612884Y-96196580D02*
X126579550Y-96272771D01*
X126579550Y-96272771D02*
X126546217Y-96425152D01*
X126546217Y-96425152D02*
X126546217Y-96539438D01*
X126546217Y-96539438D02*
X126579550Y-96691819D01*
X126579550Y-96691819D02*
X126612884Y-96768009D01*
X126612884Y-96768009D02*
X126679550Y-96844200D01*
X126679550Y-96844200D02*
X126779550Y-96882295D01*
X126779550Y-96882295D02*
X126846217Y-96882295D01*
X126846217Y-96882295D02*
X126946217Y-96844200D01*
X126946217Y-96844200D02*
X126979550Y-96806104D01*
X126979550Y-96806104D02*
X126979550Y-96539438D01*
X126979550Y-96539438D02*
X126846217Y-96539438D01*
X127279550Y-96882295D02*
X127279550Y-96082295D01*
X127279550Y-96082295D02*
X127546217Y-96082295D01*
X127546217Y-96082295D02*
X127612884Y-96120390D01*
X127612884Y-96120390D02*
X127646217Y-96158485D01*
X127646217Y-96158485D02*
X127679550Y-96234676D01*
X127679550Y-96234676D02*
X127679550Y-96348961D01*
X127679550Y-96348961D02*
X127646217Y-96425152D01*
X127646217Y-96425152D02*
X127612884Y-96463247D01*
X127612884Y-96463247D02*
X127546217Y-96501342D01*
X127546217Y-96501342D02*
X127279550Y-96501342D01*
X127979550Y-96882295D02*
X127979550Y-96082295D01*
X128446217Y-96082295D02*
X128579550Y-96082295D01*
X128579550Y-96082295D02*
X128646217Y-96120390D01*
X128646217Y-96120390D02*
X128712883Y-96196580D01*
X128712883Y-96196580D02*
X128746217Y-96348961D01*
X128746217Y-96348961D02*
X128746217Y-96615628D01*
X128746217Y-96615628D02*
X128712883Y-96768009D01*
X128712883Y-96768009D02*
X128646217Y-96844200D01*
X128646217Y-96844200D02*
X128579550Y-96882295D01*
X128579550Y-96882295D02*
X128446217Y-96882295D01*
X128446217Y-96882295D02*
X128379550Y-96844200D01*
X128379550Y-96844200D02*
X128312883Y-96768009D01*
X128312883Y-96768009D02*
X128279550Y-96615628D01*
X128279550Y-96615628D02*
X128279550Y-96348961D01*
X128279550Y-96348961D02*
X128312883Y-96196580D01*
X128312883Y-96196580D02*
X128379550Y-96120390D01*
X128379550Y-96120390D02*
X128446217Y-96082295D01*
X129012883Y-96158485D02*
X129046216Y-96120390D01*
X129046216Y-96120390D02*
X129112883Y-96082295D01*
X129112883Y-96082295D02*
X129279550Y-96082295D01*
X129279550Y-96082295D02*
X129346216Y-96120390D01*
X129346216Y-96120390D02*
X129379550Y-96158485D01*
X129379550Y-96158485D02*
X129412883Y-96234676D01*
X129412883Y-96234676D02*
X129412883Y-96310866D01*
X129412883Y-96310866D02*
X129379550Y-96425152D01*
X129379550Y-96425152D02*
X128979550Y-96882295D01*
X128979550Y-96882295D02*
X129412883Y-96882295D01*
X129646217Y-96082295D02*
X130112883Y-96082295D01*
X130112883Y-96082295D02*
X129812883Y-96882295D01*
X126579550Y-112122295D02*
X126579550Y-111322295D01*
X126579550Y-111322295D02*
X126746217Y-111322295D01*
X126746217Y-111322295D02*
X126846217Y-111360390D01*
X126846217Y-111360390D02*
X126912884Y-111436580D01*
X126912884Y-111436580D02*
X126946217Y-111512771D01*
X126946217Y-111512771D02*
X126979550Y-111665152D01*
X126979550Y-111665152D02*
X126979550Y-111779438D01*
X126979550Y-111779438D02*
X126946217Y-111931819D01*
X126946217Y-111931819D02*
X126912884Y-112008009D01*
X126912884Y-112008009D02*
X126846217Y-112084200D01*
X126846217Y-112084200D02*
X126746217Y-112122295D01*
X126746217Y-112122295D02*
X126579550Y-112122295D01*
X127212884Y-111322295D02*
X127646217Y-111322295D01*
X127646217Y-111322295D02*
X127412884Y-111627057D01*
X127412884Y-111627057D02*
X127512884Y-111627057D01*
X127512884Y-111627057D02*
X127579550Y-111665152D01*
X127579550Y-111665152D02*
X127612884Y-111703247D01*
X127612884Y-111703247D02*
X127646217Y-111779438D01*
X127646217Y-111779438D02*
X127646217Y-111969914D01*
X127646217Y-111969914D02*
X127612884Y-112046104D01*
X127612884Y-112046104D02*
X127579550Y-112084200D01*
X127579550Y-112084200D02*
X127512884Y-112122295D01*
X127512884Y-112122295D02*
X127312884Y-112122295D01*
X127312884Y-112122295D02*
X127246217Y-112084200D01*
X127246217Y-112084200D02*
X127212884Y-112046104D01*
X147675515Y-117126104D02*
X147642182Y-117164200D01*
X147642182Y-117164200D02*
X147542182Y-117202295D01*
X147542182Y-117202295D02*
X147475515Y-117202295D01*
X147475515Y-117202295D02*
X147375515Y-117164200D01*
X147375515Y-117164200D02*
X147308849Y-117088009D01*
X147308849Y-117088009D02*
X147275515Y-117011819D01*
X147275515Y-117011819D02*
X147242182Y-116859438D01*
X147242182Y-116859438D02*
X147242182Y-116745152D01*
X147242182Y-116745152D02*
X147275515Y-116592771D01*
X147275515Y-116592771D02*
X147308849Y-116516580D01*
X147308849Y-116516580D02*
X147375515Y-116440390D01*
X147375515Y-116440390D02*
X147475515Y-116402295D01*
X147475515Y-116402295D02*
X147542182Y-116402295D01*
X147542182Y-116402295D02*
X147642182Y-116440390D01*
X147642182Y-116440390D02*
X147675515Y-116478485D01*
X148308849Y-117202295D02*
X147975515Y-117202295D01*
X147975515Y-117202295D02*
X147975515Y-116402295D01*
X148542182Y-117202295D02*
X148542182Y-116402295D01*
X148942182Y-117202295D02*
X148642182Y-116745152D01*
X148942182Y-116402295D02*
X148542182Y-116859438D01*
X147875515Y-114662295D02*
X147875515Y-113862295D01*
X147875515Y-113862295D02*
X148042182Y-113862295D01*
X148042182Y-113862295D02*
X148142182Y-113900390D01*
X148142182Y-113900390D02*
X148208849Y-113976580D01*
X148208849Y-113976580D02*
X148242182Y-114052771D01*
X148242182Y-114052771D02*
X148275515Y-114205152D01*
X148275515Y-114205152D02*
X148275515Y-114319438D01*
X148275515Y-114319438D02*
X148242182Y-114471819D01*
X148242182Y-114471819D02*
X148208849Y-114548009D01*
X148208849Y-114548009D02*
X148142182Y-114624200D01*
X148142182Y-114624200D02*
X148042182Y-114662295D01*
X148042182Y-114662295D02*
X147875515Y-114662295D01*
X148708849Y-113862295D02*
X148775515Y-113862295D01*
X148775515Y-113862295D02*
X148842182Y-113900390D01*
X148842182Y-113900390D02*
X148875515Y-113938485D01*
X148875515Y-113938485D02*
X148908849Y-114014676D01*
X148908849Y-114014676D02*
X148942182Y-114167057D01*
X148942182Y-114167057D02*
X148942182Y-114357533D01*
X148942182Y-114357533D02*
X148908849Y-114509914D01*
X148908849Y-114509914D02*
X148875515Y-114586104D01*
X148875515Y-114586104D02*
X148842182Y-114624200D01*
X148842182Y-114624200D02*
X148775515Y-114662295D01*
X148775515Y-114662295D02*
X148708849Y-114662295D01*
X148708849Y-114662295D02*
X148642182Y-114624200D01*
X148642182Y-114624200D02*
X148608849Y-114586104D01*
X148608849Y-114586104D02*
X148575515Y-114509914D01*
X148575515Y-114509914D02*
X148542182Y-114357533D01*
X148542182Y-114357533D02*
X148542182Y-114167057D01*
X148542182Y-114167057D02*
X148575515Y-114014676D01*
X148575515Y-114014676D02*
X148608849Y-113938485D01*
X148608849Y-113938485D02*
X148642182Y-113900390D01*
X148642182Y-113900390D02*
X148708849Y-113862295D01*
X126479550Y-75762295D02*
X126712884Y-76562295D01*
X126712884Y-76562295D02*
X126946217Y-75762295D01*
X127179550Y-76562295D02*
X127179550Y-75762295D01*
X127179550Y-75762295D02*
X127446217Y-75762295D01*
X127446217Y-75762295D02*
X127512884Y-75800390D01*
X127512884Y-75800390D02*
X127546217Y-75838485D01*
X127546217Y-75838485D02*
X127579550Y-75914676D01*
X127579550Y-75914676D02*
X127579550Y-76028961D01*
X127579550Y-76028961D02*
X127546217Y-76105152D01*
X127546217Y-76105152D02*
X127512884Y-76143247D01*
X127512884Y-76143247D02*
X127446217Y-76181342D01*
X127446217Y-76181342D02*
X127179550Y-76181342D01*
X128379550Y-75724200D02*
X127779550Y-76752771D01*
X128979550Y-75800390D02*
X128912883Y-75762295D01*
X128912883Y-75762295D02*
X128812883Y-75762295D01*
X128812883Y-75762295D02*
X128712883Y-75800390D01*
X128712883Y-75800390D02*
X128646217Y-75876580D01*
X128646217Y-75876580D02*
X128612883Y-75952771D01*
X128612883Y-75952771D02*
X128579550Y-76105152D01*
X128579550Y-76105152D02*
X128579550Y-76219438D01*
X128579550Y-76219438D02*
X128612883Y-76371819D01*
X128612883Y-76371819D02*
X128646217Y-76448009D01*
X128646217Y-76448009D02*
X128712883Y-76524200D01*
X128712883Y-76524200D02*
X128812883Y-76562295D01*
X128812883Y-76562295D02*
X128879550Y-76562295D01*
X128879550Y-76562295D02*
X128979550Y-76524200D01*
X128979550Y-76524200D02*
X129012883Y-76486104D01*
X129012883Y-76486104D02*
X129012883Y-76219438D01*
X129012883Y-76219438D02*
X128879550Y-76219438D01*
X129312883Y-76562295D02*
X129312883Y-75762295D01*
X129312883Y-75762295D02*
X129579550Y-75762295D01*
X129579550Y-75762295D02*
X129646217Y-75800390D01*
X129646217Y-75800390D02*
X129679550Y-75838485D01*
X129679550Y-75838485D02*
X129712883Y-75914676D01*
X129712883Y-75914676D02*
X129712883Y-76028961D01*
X129712883Y-76028961D02*
X129679550Y-76105152D01*
X129679550Y-76105152D02*
X129646217Y-76143247D01*
X129646217Y-76143247D02*
X129579550Y-76181342D01*
X129579550Y-76181342D02*
X129312883Y-76181342D01*
X130012883Y-76562295D02*
X130012883Y-75762295D01*
X130479550Y-75762295D02*
X130612883Y-75762295D01*
X130612883Y-75762295D02*
X130679550Y-75800390D01*
X130679550Y-75800390D02*
X130746216Y-75876580D01*
X130746216Y-75876580D02*
X130779550Y-76028961D01*
X130779550Y-76028961D02*
X130779550Y-76295628D01*
X130779550Y-76295628D02*
X130746216Y-76448009D01*
X130746216Y-76448009D02*
X130679550Y-76524200D01*
X130679550Y-76524200D02*
X130612883Y-76562295D01*
X130612883Y-76562295D02*
X130479550Y-76562295D01*
X130479550Y-76562295D02*
X130412883Y-76524200D01*
X130412883Y-76524200D02*
X130346216Y-76448009D01*
X130346216Y-76448009D02*
X130312883Y-76295628D01*
X130312883Y-76295628D02*
X130312883Y-76028961D01*
X130312883Y-76028961D02*
X130346216Y-75876580D01*
X130346216Y-75876580D02*
X130412883Y-75800390D01*
X130412883Y-75800390D02*
X130479550Y-75762295D01*
X131012883Y-75762295D02*
X131446216Y-75762295D01*
X131446216Y-75762295D02*
X131212883Y-76067057D01*
X131212883Y-76067057D02*
X131312883Y-76067057D01*
X131312883Y-76067057D02*
X131379549Y-76105152D01*
X131379549Y-76105152D02*
X131412883Y-76143247D01*
X131412883Y-76143247D02*
X131446216Y-76219438D01*
X131446216Y-76219438D02*
X131446216Y-76409914D01*
X131446216Y-76409914D02*
X131412883Y-76486104D01*
X131412883Y-76486104D02*
X131379549Y-76524200D01*
X131379549Y-76524200D02*
X131312883Y-76562295D01*
X131312883Y-76562295D02*
X131112883Y-76562295D01*
X131112883Y-76562295D02*
X131046216Y-76524200D01*
X131046216Y-76524200D02*
X131012883Y-76486104D01*
X132046216Y-75762295D02*
X131912883Y-75762295D01*
X131912883Y-75762295D02*
X131846216Y-75800390D01*
X131846216Y-75800390D02*
X131812883Y-75838485D01*
X131812883Y-75838485D02*
X131746216Y-75952771D01*
X131746216Y-75952771D02*
X131712883Y-76105152D01*
X131712883Y-76105152D02*
X131712883Y-76409914D01*
X131712883Y-76409914D02*
X131746216Y-76486104D01*
X131746216Y-76486104D02*
X131779550Y-76524200D01*
X131779550Y-76524200D02*
X131846216Y-76562295D01*
X131846216Y-76562295D02*
X131979550Y-76562295D01*
X131979550Y-76562295D02*
X132046216Y-76524200D01*
X132046216Y-76524200D02*
X132079550Y-76486104D01*
X132079550Y-76486104D02*
X132112883Y-76409914D01*
X132112883Y-76409914D02*
X132112883Y-76219438D01*
X132112883Y-76219438D02*
X132079550Y-76143247D01*
X132079550Y-76143247D02*
X132046216Y-76105152D01*
X132046216Y-76105152D02*
X131979550Y-76067057D01*
X131979550Y-76067057D02*
X131846216Y-76067057D01*
X131846216Y-76067057D02*
X131779550Y-76105152D01*
X131779550Y-76105152D02*
X131746216Y-76143247D01*
X131746216Y-76143247D02*
X131712883Y-76219438D01*
X126546121Y-73588289D02*
X126879454Y-73588289D01*
X127022311Y-74112099D02*
X126546121Y-74112099D01*
X126546121Y-74112099D02*
X126546121Y-73112099D01*
X126546121Y-73112099D02*
X127022311Y-73112099D01*
X127450883Y-74112099D02*
X127450883Y-73112099D01*
X127450883Y-73112099D02*
X128022311Y-74112099D01*
X128022311Y-74112099D02*
X128022311Y-73112099D01*
X129212787Y-73064480D02*
X128355645Y-74350194D01*
X130117549Y-74112099D02*
X129784216Y-73635908D01*
X129546121Y-74112099D02*
X129546121Y-73112099D01*
X129546121Y-73112099D02*
X129927073Y-73112099D01*
X129927073Y-73112099D02*
X130022311Y-73159718D01*
X130022311Y-73159718D02*
X130069930Y-73207337D01*
X130069930Y-73207337D02*
X130117549Y-73302575D01*
X130117549Y-73302575D02*
X130117549Y-73445432D01*
X130117549Y-73445432D02*
X130069930Y-73540670D01*
X130069930Y-73540670D02*
X130022311Y-73588289D01*
X130022311Y-73588289D02*
X129927073Y-73635908D01*
X129927073Y-73635908D02*
X129546121Y-73635908D01*
X130546121Y-73588289D02*
X130879454Y-73588289D01*
X131022311Y-74112099D02*
X130546121Y-74112099D01*
X130546121Y-74112099D02*
X130546121Y-73112099D01*
X130546121Y-73112099D02*
X131022311Y-73112099D01*
X131403264Y-74064480D02*
X131546121Y-74112099D01*
X131546121Y-74112099D02*
X131784216Y-74112099D01*
X131784216Y-74112099D02*
X131879454Y-74064480D01*
X131879454Y-74064480D02*
X131927073Y-74016860D01*
X131927073Y-74016860D02*
X131974692Y-73921622D01*
X131974692Y-73921622D02*
X131974692Y-73826384D01*
X131974692Y-73826384D02*
X131927073Y-73731146D01*
X131927073Y-73731146D02*
X131879454Y-73683527D01*
X131879454Y-73683527D02*
X131784216Y-73635908D01*
X131784216Y-73635908D02*
X131593740Y-73588289D01*
X131593740Y-73588289D02*
X131498502Y-73540670D01*
X131498502Y-73540670D02*
X131450883Y-73493051D01*
X131450883Y-73493051D02*
X131403264Y-73397813D01*
X131403264Y-73397813D02*
X131403264Y-73302575D01*
X131403264Y-73302575D02*
X131450883Y-73207337D01*
X131450883Y-73207337D02*
X131498502Y-73159718D01*
X131498502Y-73159718D02*
X131593740Y-73112099D01*
X131593740Y-73112099D02*
X131831835Y-73112099D01*
X131831835Y-73112099D02*
X131974692Y-73159718D01*
X132403264Y-73588289D02*
X132736597Y-73588289D01*
X132879454Y-74112099D02*
X132403264Y-74112099D01*
X132403264Y-74112099D02*
X132403264Y-73112099D01*
X132403264Y-73112099D02*
X132879454Y-73112099D01*
X133165169Y-73112099D02*
X133736597Y-73112099D01*
X133450883Y-74112099D02*
X133450883Y-73112099D01*
X146475516Y-103740390D02*
X146408849Y-103702295D01*
X146408849Y-103702295D02*
X146308849Y-103702295D01*
X146308849Y-103702295D02*
X146208849Y-103740390D01*
X146208849Y-103740390D02*
X146142183Y-103816580D01*
X146142183Y-103816580D02*
X146108849Y-103892771D01*
X146108849Y-103892771D02*
X146075516Y-104045152D01*
X146075516Y-104045152D02*
X146075516Y-104159438D01*
X146075516Y-104159438D02*
X146108849Y-104311819D01*
X146108849Y-104311819D02*
X146142183Y-104388009D01*
X146142183Y-104388009D02*
X146208849Y-104464200D01*
X146208849Y-104464200D02*
X146308849Y-104502295D01*
X146308849Y-104502295D02*
X146375516Y-104502295D01*
X146375516Y-104502295D02*
X146475516Y-104464200D01*
X146475516Y-104464200D02*
X146508849Y-104426104D01*
X146508849Y-104426104D02*
X146508849Y-104159438D01*
X146508849Y-104159438D02*
X146375516Y-104159438D01*
X146808849Y-104502295D02*
X146808849Y-103702295D01*
X146808849Y-103702295D02*
X147075516Y-103702295D01*
X147075516Y-103702295D02*
X147142183Y-103740390D01*
X147142183Y-103740390D02*
X147175516Y-103778485D01*
X147175516Y-103778485D02*
X147208849Y-103854676D01*
X147208849Y-103854676D02*
X147208849Y-103968961D01*
X147208849Y-103968961D02*
X147175516Y-104045152D01*
X147175516Y-104045152D02*
X147142183Y-104083247D01*
X147142183Y-104083247D02*
X147075516Y-104121342D01*
X147075516Y-104121342D02*
X146808849Y-104121342D01*
X147508849Y-104502295D02*
X147508849Y-103702295D01*
X147975516Y-103702295D02*
X148108849Y-103702295D01*
X148108849Y-103702295D02*
X148175516Y-103740390D01*
X148175516Y-103740390D02*
X148242182Y-103816580D01*
X148242182Y-103816580D02*
X148275516Y-103968961D01*
X148275516Y-103968961D02*
X148275516Y-104235628D01*
X148275516Y-104235628D02*
X148242182Y-104388009D01*
X148242182Y-104388009D02*
X148175516Y-104464200D01*
X148175516Y-104464200D02*
X148108849Y-104502295D01*
X148108849Y-104502295D02*
X147975516Y-104502295D01*
X147975516Y-104502295D02*
X147908849Y-104464200D01*
X147908849Y-104464200D02*
X147842182Y-104388009D01*
X147842182Y-104388009D02*
X147808849Y-104235628D01*
X147808849Y-104235628D02*
X147808849Y-103968961D01*
X147808849Y-103968961D02*
X147842182Y-103816580D01*
X147842182Y-103816580D02*
X147908849Y-103740390D01*
X147908849Y-103740390D02*
X147975516Y-103702295D01*
X148708849Y-103702295D02*
X148775515Y-103702295D01*
X148775515Y-103702295D02*
X148842182Y-103740390D01*
X148842182Y-103740390D02*
X148875515Y-103778485D01*
X148875515Y-103778485D02*
X148908849Y-103854676D01*
X148908849Y-103854676D02*
X148942182Y-104007057D01*
X148942182Y-104007057D02*
X148942182Y-104197533D01*
X148942182Y-104197533D02*
X148908849Y-104349914D01*
X148908849Y-104349914D02*
X148875515Y-104426104D01*
X148875515Y-104426104D02*
X148842182Y-104464200D01*
X148842182Y-104464200D02*
X148775515Y-104502295D01*
X148775515Y-104502295D02*
X148708849Y-104502295D01*
X148708849Y-104502295D02*
X148642182Y-104464200D01*
X148642182Y-104464200D02*
X148608849Y-104426104D01*
X148608849Y-104426104D02*
X148575515Y-104349914D01*
X148575515Y-104349914D02*
X148542182Y-104197533D01*
X148542182Y-104197533D02*
X148542182Y-104007057D01*
X148542182Y-104007057D02*
X148575515Y-103854676D01*
X148575515Y-103854676D02*
X148608849Y-103778485D01*
X148608849Y-103778485D02*
X148642182Y-103740390D01*
X148642182Y-103740390D02*
X148708849Y-103702295D01*
X146789801Y-70622438D02*
X146694563Y-70574819D01*
X146694563Y-70574819D02*
X146551706Y-70574819D01*
X146551706Y-70574819D02*
X146408849Y-70622438D01*
X146408849Y-70622438D02*
X146313611Y-70717676D01*
X146313611Y-70717676D02*
X146265992Y-70812914D01*
X146265992Y-70812914D02*
X146218373Y-71003390D01*
X146218373Y-71003390D02*
X146218373Y-71146247D01*
X146218373Y-71146247D02*
X146265992Y-71336723D01*
X146265992Y-71336723D02*
X146313611Y-71431961D01*
X146313611Y-71431961D02*
X146408849Y-71527200D01*
X146408849Y-71527200D02*
X146551706Y-71574819D01*
X146551706Y-71574819D02*
X146646944Y-71574819D01*
X146646944Y-71574819D02*
X146789801Y-71527200D01*
X146789801Y-71527200D02*
X146837420Y-71479580D01*
X146837420Y-71479580D02*
X146837420Y-71146247D01*
X146837420Y-71146247D02*
X146646944Y-71146247D01*
X147265992Y-71574819D02*
X147265992Y-70574819D01*
X147265992Y-70574819D02*
X147837420Y-71574819D01*
X147837420Y-71574819D02*
X147837420Y-70574819D01*
X148313611Y-71574819D02*
X148313611Y-70574819D01*
X148313611Y-70574819D02*
X148551706Y-70574819D01*
X148551706Y-70574819D02*
X148694563Y-70622438D01*
X148694563Y-70622438D02*
X148789801Y-70717676D01*
X148789801Y-70717676D02*
X148837420Y-70812914D01*
X148837420Y-70812914D02*
X148885039Y-71003390D01*
X148885039Y-71003390D02*
X148885039Y-71146247D01*
X148885039Y-71146247D02*
X148837420Y-71336723D01*
X148837420Y-71336723D02*
X148789801Y-71431961D01*
X148789801Y-71431961D02*
X148694563Y-71527200D01*
X148694563Y-71527200D02*
X148551706Y-71574819D01*
X148551706Y-71574819D02*
X148313611Y-71574819D01*
X126946217Y-85960390D02*
X126879550Y-85922295D01*
X126879550Y-85922295D02*
X126779550Y-85922295D01*
X126779550Y-85922295D02*
X126679550Y-85960390D01*
X126679550Y-85960390D02*
X126612884Y-86036580D01*
X126612884Y-86036580D02*
X126579550Y-86112771D01*
X126579550Y-86112771D02*
X126546217Y-86265152D01*
X126546217Y-86265152D02*
X126546217Y-86379438D01*
X126546217Y-86379438D02*
X126579550Y-86531819D01*
X126579550Y-86531819D02*
X126612884Y-86608009D01*
X126612884Y-86608009D02*
X126679550Y-86684200D01*
X126679550Y-86684200D02*
X126779550Y-86722295D01*
X126779550Y-86722295D02*
X126846217Y-86722295D01*
X126846217Y-86722295D02*
X126946217Y-86684200D01*
X126946217Y-86684200D02*
X126979550Y-86646104D01*
X126979550Y-86646104D02*
X126979550Y-86379438D01*
X126979550Y-86379438D02*
X126846217Y-86379438D01*
X127279550Y-86722295D02*
X127279550Y-85922295D01*
X127279550Y-85922295D02*
X127546217Y-85922295D01*
X127546217Y-85922295D02*
X127612884Y-85960390D01*
X127612884Y-85960390D02*
X127646217Y-85998485D01*
X127646217Y-85998485D02*
X127679550Y-86074676D01*
X127679550Y-86074676D02*
X127679550Y-86188961D01*
X127679550Y-86188961D02*
X127646217Y-86265152D01*
X127646217Y-86265152D02*
X127612884Y-86303247D01*
X127612884Y-86303247D02*
X127546217Y-86341342D01*
X127546217Y-86341342D02*
X127279550Y-86341342D01*
X127979550Y-86722295D02*
X127979550Y-85922295D01*
X128446217Y-85922295D02*
X128579550Y-85922295D01*
X128579550Y-85922295D02*
X128646217Y-85960390D01*
X128646217Y-85960390D02*
X128712883Y-86036580D01*
X128712883Y-86036580D02*
X128746217Y-86188961D01*
X128746217Y-86188961D02*
X128746217Y-86455628D01*
X128746217Y-86455628D02*
X128712883Y-86608009D01*
X128712883Y-86608009D02*
X128646217Y-86684200D01*
X128646217Y-86684200D02*
X128579550Y-86722295D01*
X128579550Y-86722295D02*
X128446217Y-86722295D01*
X128446217Y-86722295D02*
X128379550Y-86684200D01*
X128379550Y-86684200D02*
X128312883Y-86608009D01*
X128312883Y-86608009D02*
X128279550Y-86455628D01*
X128279550Y-86455628D02*
X128279550Y-86188961D01*
X128279550Y-86188961D02*
X128312883Y-86036580D01*
X128312883Y-86036580D02*
X128379550Y-85960390D01*
X128379550Y-85960390D02*
X128446217Y-85922295D01*
X128979550Y-85922295D02*
X129412883Y-85922295D01*
X129412883Y-85922295D02*
X129179550Y-86227057D01*
X129179550Y-86227057D02*
X129279550Y-86227057D01*
X129279550Y-86227057D02*
X129346216Y-86265152D01*
X129346216Y-86265152D02*
X129379550Y-86303247D01*
X129379550Y-86303247D02*
X129412883Y-86379438D01*
X129412883Y-86379438D02*
X129412883Y-86569914D01*
X129412883Y-86569914D02*
X129379550Y-86646104D01*
X129379550Y-86646104D02*
X129346216Y-86684200D01*
X129346216Y-86684200D02*
X129279550Y-86722295D01*
X129279550Y-86722295D02*
X129079550Y-86722295D01*
X129079550Y-86722295D02*
X129012883Y-86684200D01*
X129012883Y-86684200D02*
X128979550Y-86646104D01*
X129679550Y-85998485D02*
X129712883Y-85960390D01*
X129712883Y-85960390D02*
X129779550Y-85922295D01*
X129779550Y-85922295D02*
X129946217Y-85922295D01*
X129946217Y-85922295D02*
X130012883Y-85960390D01*
X130012883Y-85960390D02*
X130046217Y-85998485D01*
X130046217Y-85998485D02*
X130079550Y-86074676D01*
X130079550Y-86074676D02*
X130079550Y-86150866D01*
X130079550Y-86150866D02*
X130046217Y-86265152D01*
X130046217Y-86265152D02*
X129646217Y-86722295D01*
X129646217Y-86722295D02*
X130079550Y-86722295D01*
X126946217Y-106280390D02*
X126879550Y-106242295D01*
X126879550Y-106242295D02*
X126779550Y-106242295D01*
X126779550Y-106242295D02*
X126679550Y-106280390D01*
X126679550Y-106280390D02*
X126612884Y-106356580D01*
X126612884Y-106356580D02*
X126579550Y-106432771D01*
X126579550Y-106432771D02*
X126546217Y-106585152D01*
X126546217Y-106585152D02*
X126546217Y-106699438D01*
X126546217Y-106699438D02*
X126579550Y-106851819D01*
X126579550Y-106851819D02*
X126612884Y-106928009D01*
X126612884Y-106928009D02*
X126679550Y-107004200D01*
X126679550Y-107004200D02*
X126779550Y-107042295D01*
X126779550Y-107042295D02*
X126846217Y-107042295D01*
X126846217Y-107042295D02*
X126946217Y-107004200D01*
X126946217Y-107004200D02*
X126979550Y-106966104D01*
X126979550Y-106966104D02*
X126979550Y-106699438D01*
X126979550Y-106699438D02*
X126846217Y-106699438D01*
X127279550Y-107042295D02*
X127279550Y-106242295D01*
X127279550Y-106242295D02*
X127546217Y-106242295D01*
X127546217Y-106242295D02*
X127612884Y-106280390D01*
X127612884Y-106280390D02*
X127646217Y-106318485D01*
X127646217Y-106318485D02*
X127679550Y-106394676D01*
X127679550Y-106394676D02*
X127679550Y-106508961D01*
X127679550Y-106508961D02*
X127646217Y-106585152D01*
X127646217Y-106585152D02*
X127612884Y-106623247D01*
X127612884Y-106623247D02*
X127546217Y-106661342D01*
X127546217Y-106661342D02*
X127279550Y-106661342D01*
X127979550Y-107042295D02*
X127979550Y-106242295D01*
X128446217Y-106242295D02*
X128579550Y-106242295D01*
X128579550Y-106242295D02*
X128646217Y-106280390D01*
X128646217Y-106280390D02*
X128712883Y-106356580D01*
X128712883Y-106356580D02*
X128746217Y-106508961D01*
X128746217Y-106508961D02*
X128746217Y-106775628D01*
X128746217Y-106775628D02*
X128712883Y-106928009D01*
X128712883Y-106928009D02*
X128646217Y-107004200D01*
X128646217Y-107004200D02*
X128579550Y-107042295D01*
X128579550Y-107042295D02*
X128446217Y-107042295D01*
X128446217Y-107042295D02*
X128379550Y-107004200D01*
X128379550Y-107004200D02*
X128312883Y-106928009D01*
X128312883Y-106928009D02*
X128279550Y-106775628D01*
X128279550Y-106775628D02*
X128279550Y-106508961D01*
X128279550Y-106508961D02*
X128312883Y-106356580D01*
X128312883Y-106356580D02*
X128379550Y-106280390D01*
X128379550Y-106280390D02*
X128446217Y-106242295D01*
X129412883Y-107042295D02*
X129012883Y-107042295D01*
X129212883Y-107042295D02*
X129212883Y-106242295D01*
X129212883Y-106242295D02*
X129146216Y-106356580D01*
X129146216Y-106356580D02*
X129079550Y-106432771D01*
X129079550Y-106432771D02*
X129012883Y-106470866D01*
X129646217Y-106242295D02*
X130079550Y-106242295D01*
X130079550Y-106242295D02*
X129846217Y-106547057D01*
X129846217Y-106547057D02*
X129946217Y-106547057D01*
X129946217Y-106547057D02*
X130012883Y-106585152D01*
X130012883Y-106585152D02*
X130046217Y-106623247D01*
X130046217Y-106623247D02*
X130079550Y-106699438D01*
X130079550Y-106699438D02*
X130079550Y-106889914D01*
X130079550Y-106889914D02*
X130046217Y-106966104D01*
X130046217Y-106966104D02*
X130012883Y-107004200D01*
X130012883Y-107004200D02*
X129946217Y-107042295D01*
X129946217Y-107042295D02*
X129746217Y-107042295D01*
X129746217Y-107042295D02*
X129679550Y-107004200D01*
X129679550Y-107004200D02*
X129646217Y-106966104D01*
X130879550Y-106204200D02*
X130279550Y-107232771D01*
X131112883Y-107042295D02*
X131112883Y-106242295D01*
X131112883Y-106242295D02*
X131346217Y-106813723D01*
X131346217Y-106813723D02*
X131579550Y-106242295D01*
X131579550Y-106242295D02*
X131579550Y-107042295D01*
X131812883Y-106242295D02*
X132212883Y-106242295D01*
X132012883Y-107042295D02*
X132012883Y-106242295D01*
X132846216Y-106966104D02*
X132812883Y-107004200D01*
X132812883Y-107004200D02*
X132712883Y-107042295D01*
X132712883Y-107042295D02*
X132646216Y-107042295D01*
X132646216Y-107042295D02*
X132546216Y-107004200D01*
X132546216Y-107004200D02*
X132479550Y-106928009D01*
X132479550Y-106928009D02*
X132446216Y-106851819D01*
X132446216Y-106851819D02*
X132412883Y-106699438D01*
X132412883Y-106699438D02*
X132412883Y-106585152D01*
X132412883Y-106585152D02*
X132446216Y-106432771D01*
X132446216Y-106432771D02*
X132479550Y-106356580D01*
X132479550Y-106356580D02*
X132546216Y-106280390D01*
X132546216Y-106280390D02*
X132646216Y-106242295D01*
X132646216Y-106242295D02*
X132712883Y-106242295D01*
X132712883Y-106242295D02*
X132812883Y-106280390D01*
X132812883Y-106280390D02*
X132846216Y-106318485D01*
X133146216Y-107042295D02*
X133146216Y-106242295D01*
X133546216Y-107042295D02*
X133246216Y-106585152D01*
X133546216Y-106242295D02*
X133146216Y-106699438D01*
X142275516Y-80880390D02*
X142208849Y-80842295D01*
X142208849Y-80842295D02*
X142108849Y-80842295D01*
X142108849Y-80842295D02*
X142008849Y-80880390D01*
X142008849Y-80880390D02*
X141942183Y-80956580D01*
X141942183Y-80956580D02*
X141908849Y-81032771D01*
X141908849Y-81032771D02*
X141875516Y-81185152D01*
X141875516Y-81185152D02*
X141875516Y-81299438D01*
X141875516Y-81299438D02*
X141908849Y-81451819D01*
X141908849Y-81451819D02*
X141942183Y-81528009D01*
X141942183Y-81528009D02*
X142008849Y-81604200D01*
X142008849Y-81604200D02*
X142108849Y-81642295D01*
X142108849Y-81642295D02*
X142175516Y-81642295D01*
X142175516Y-81642295D02*
X142275516Y-81604200D01*
X142275516Y-81604200D02*
X142308849Y-81566104D01*
X142308849Y-81566104D02*
X142308849Y-81299438D01*
X142308849Y-81299438D02*
X142175516Y-81299438D01*
X142608849Y-81642295D02*
X142608849Y-80842295D01*
X142608849Y-80842295D02*
X142875516Y-80842295D01*
X142875516Y-80842295D02*
X142942183Y-80880390D01*
X142942183Y-80880390D02*
X142975516Y-80918485D01*
X142975516Y-80918485D02*
X143008849Y-80994676D01*
X143008849Y-80994676D02*
X143008849Y-81108961D01*
X143008849Y-81108961D02*
X142975516Y-81185152D01*
X142975516Y-81185152D02*
X142942183Y-81223247D01*
X142942183Y-81223247D02*
X142875516Y-81261342D01*
X142875516Y-81261342D02*
X142608849Y-81261342D01*
X143308849Y-81642295D02*
X143308849Y-80842295D01*
X143775516Y-80842295D02*
X143908849Y-80842295D01*
X143908849Y-80842295D02*
X143975516Y-80880390D01*
X143975516Y-80880390D02*
X144042182Y-80956580D01*
X144042182Y-80956580D02*
X144075516Y-81108961D01*
X144075516Y-81108961D02*
X144075516Y-81375628D01*
X144075516Y-81375628D02*
X144042182Y-81528009D01*
X144042182Y-81528009D02*
X143975516Y-81604200D01*
X143975516Y-81604200D02*
X143908849Y-81642295D01*
X143908849Y-81642295D02*
X143775516Y-81642295D01*
X143775516Y-81642295D02*
X143708849Y-81604200D01*
X143708849Y-81604200D02*
X143642182Y-81528009D01*
X143642182Y-81528009D02*
X143608849Y-81375628D01*
X143608849Y-81375628D02*
X143608849Y-81108961D01*
X143608849Y-81108961D02*
X143642182Y-80956580D01*
X143642182Y-80956580D02*
X143708849Y-80880390D01*
X143708849Y-80880390D02*
X143775516Y-80842295D01*
X144308849Y-80842295D02*
X144742182Y-80842295D01*
X144742182Y-80842295D02*
X144508849Y-81147057D01*
X144508849Y-81147057D02*
X144608849Y-81147057D01*
X144608849Y-81147057D02*
X144675515Y-81185152D01*
X144675515Y-81185152D02*
X144708849Y-81223247D01*
X144708849Y-81223247D02*
X144742182Y-81299438D01*
X144742182Y-81299438D02*
X144742182Y-81489914D01*
X144742182Y-81489914D02*
X144708849Y-81566104D01*
X144708849Y-81566104D02*
X144675515Y-81604200D01*
X144675515Y-81604200D02*
X144608849Y-81642295D01*
X144608849Y-81642295D02*
X144408849Y-81642295D01*
X144408849Y-81642295D02*
X144342182Y-81604200D01*
X144342182Y-81604200D02*
X144308849Y-81566104D01*
X145542182Y-80804200D02*
X144942182Y-81832771D01*
X145775515Y-80842295D02*
X145775515Y-81489914D01*
X145775515Y-81489914D02*
X145808849Y-81566104D01*
X145808849Y-81566104D02*
X145842182Y-81604200D01*
X145842182Y-81604200D02*
X145908849Y-81642295D01*
X145908849Y-81642295D02*
X146042182Y-81642295D01*
X146042182Y-81642295D02*
X146108849Y-81604200D01*
X146108849Y-81604200D02*
X146142182Y-81566104D01*
X146142182Y-81566104D02*
X146175515Y-81489914D01*
X146175515Y-81489914D02*
X146175515Y-80842295D01*
X146642182Y-80842295D02*
X146708848Y-80842295D01*
X146708848Y-80842295D02*
X146775515Y-80880390D01*
X146775515Y-80880390D02*
X146808848Y-80918485D01*
X146808848Y-80918485D02*
X146842182Y-80994676D01*
X146842182Y-80994676D02*
X146875515Y-81147057D01*
X146875515Y-81147057D02*
X146875515Y-81337533D01*
X146875515Y-81337533D02*
X146842182Y-81489914D01*
X146842182Y-81489914D02*
X146808848Y-81566104D01*
X146808848Y-81566104D02*
X146775515Y-81604200D01*
X146775515Y-81604200D02*
X146708848Y-81642295D01*
X146708848Y-81642295D02*
X146642182Y-81642295D01*
X146642182Y-81642295D02*
X146575515Y-81604200D01*
X146575515Y-81604200D02*
X146542182Y-81566104D01*
X146542182Y-81566104D02*
X146508848Y-81489914D01*
X146508848Y-81489914D02*
X146475515Y-81337533D01*
X146475515Y-81337533D02*
X146475515Y-81147057D01*
X146475515Y-81147057D02*
X146508848Y-80994676D01*
X146508848Y-80994676D02*
X146542182Y-80918485D01*
X146542182Y-80918485D02*
X146575515Y-80880390D01*
X146575515Y-80880390D02*
X146642182Y-80842295D01*
X147575515Y-81642295D02*
X147342182Y-81261342D01*
X147175515Y-81642295D02*
X147175515Y-80842295D01*
X147175515Y-80842295D02*
X147442182Y-80842295D01*
X147442182Y-80842295D02*
X147508849Y-80880390D01*
X147508849Y-80880390D02*
X147542182Y-80918485D01*
X147542182Y-80918485D02*
X147575515Y-80994676D01*
X147575515Y-80994676D02*
X147575515Y-81108961D01*
X147575515Y-81108961D02*
X147542182Y-81185152D01*
X147542182Y-81185152D02*
X147508849Y-81223247D01*
X147508849Y-81223247D02*
X147442182Y-81261342D01*
X147442182Y-81261342D02*
X147175515Y-81261342D01*
X147808849Y-80842295D02*
X148275515Y-81642295D01*
X148275515Y-80842295D02*
X147808849Y-81642295D01*
X148542182Y-81642295D02*
X148542182Y-80842295D01*
X148542182Y-80842295D02*
X148708849Y-80842295D01*
X148708849Y-80842295D02*
X148808849Y-80880390D01*
X148808849Y-80880390D02*
X148875516Y-80956580D01*
X148875516Y-80956580D02*
X148908849Y-81032771D01*
X148908849Y-81032771D02*
X148942182Y-81185152D01*
X148942182Y-81185152D02*
X148942182Y-81299438D01*
X148942182Y-81299438D02*
X148908849Y-81451819D01*
X148908849Y-81451819D02*
X148875516Y-81528009D01*
X148875516Y-81528009D02*
X148808849Y-81604200D01*
X148808849Y-81604200D02*
X148708849Y-81642295D01*
X148708849Y-81642295D02*
X148542182Y-81642295D01*
X145808849Y-83420390D02*
X145742182Y-83382295D01*
X145742182Y-83382295D02*
X145642182Y-83382295D01*
X145642182Y-83382295D02*
X145542182Y-83420390D01*
X145542182Y-83420390D02*
X145475516Y-83496580D01*
X145475516Y-83496580D02*
X145442182Y-83572771D01*
X145442182Y-83572771D02*
X145408849Y-83725152D01*
X145408849Y-83725152D02*
X145408849Y-83839438D01*
X145408849Y-83839438D02*
X145442182Y-83991819D01*
X145442182Y-83991819D02*
X145475516Y-84068009D01*
X145475516Y-84068009D02*
X145542182Y-84144200D01*
X145542182Y-84144200D02*
X145642182Y-84182295D01*
X145642182Y-84182295D02*
X145708849Y-84182295D01*
X145708849Y-84182295D02*
X145808849Y-84144200D01*
X145808849Y-84144200D02*
X145842182Y-84106104D01*
X145842182Y-84106104D02*
X145842182Y-83839438D01*
X145842182Y-83839438D02*
X145708849Y-83839438D01*
X146142182Y-84182295D02*
X146142182Y-83382295D01*
X146142182Y-83382295D02*
X146408849Y-83382295D01*
X146408849Y-83382295D02*
X146475516Y-83420390D01*
X146475516Y-83420390D02*
X146508849Y-83458485D01*
X146508849Y-83458485D02*
X146542182Y-83534676D01*
X146542182Y-83534676D02*
X146542182Y-83648961D01*
X146542182Y-83648961D02*
X146508849Y-83725152D01*
X146508849Y-83725152D02*
X146475516Y-83763247D01*
X146475516Y-83763247D02*
X146408849Y-83801342D01*
X146408849Y-83801342D02*
X146142182Y-83801342D01*
X146842182Y-84182295D02*
X146842182Y-83382295D01*
X147308849Y-83382295D02*
X147442182Y-83382295D01*
X147442182Y-83382295D02*
X147508849Y-83420390D01*
X147508849Y-83420390D02*
X147575515Y-83496580D01*
X147575515Y-83496580D02*
X147608849Y-83648961D01*
X147608849Y-83648961D02*
X147608849Y-83915628D01*
X147608849Y-83915628D02*
X147575515Y-84068009D01*
X147575515Y-84068009D02*
X147508849Y-84144200D01*
X147508849Y-84144200D02*
X147442182Y-84182295D01*
X147442182Y-84182295D02*
X147308849Y-84182295D01*
X147308849Y-84182295D02*
X147242182Y-84144200D01*
X147242182Y-84144200D02*
X147175515Y-84068009D01*
X147175515Y-84068009D02*
X147142182Y-83915628D01*
X147142182Y-83915628D02*
X147142182Y-83648961D01*
X147142182Y-83648961D02*
X147175515Y-83496580D01*
X147175515Y-83496580D02*
X147242182Y-83420390D01*
X147242182Y-83420390D02*
X147308849Y-83382295D01*
X147875515Y-83458485D02*
X147908848Y-83420390D01*
X147908848Y-83420390D02*
X147975515Y-83382295D01*
X147975515Y-83382295D02*
X148142182Y-83382295D01*
X148142182Y-83382295D02*
X148208848Y-83420390D01*
X148208848Y-83420390D02*
X148242182Y-83458485D01*
X148242182Y-83458485D02*
X148275515Y-83534676D01*
X148275515Y-83534676D02*
X148275515Y-83610866D01*
X148275515Y-83610866D02*
X148242182Y-83725152D01*
X148242182Y-83725152D02*
X147842182Y-84182295D01*
X147842182Y-84182295D02*
X148275515Y-84182295D01*
X148942182Y-84182295D02*
X148542182Y-84182295D01*
X148742182Y-84182295D02*
X148742182Y-83382295D01*
X148742182Y-83382295D02*
X148675515Y-83496580D01*
X148675515Y-83496580D02*
X148608849Y-83572771D01*
X148608849Y-83572771D02*
X148542182Y-83610866D01*
X146475516Y-106280390D02*
X146408849Y-106242295D01*
X146408849Y-106242295D02*
X146308849Y-106242295D01*
X146308849Y-106242295D02*
X146208849Y-106280390D01*
X146208849Y-106280390D02*
X146142183Y-106356580D01*
X146142183Y-106356580D02*
X146108849Y-106432771D01*
X146108849Y-106432771D02*
X146075516Y-106585152D01*
X146075516Y-106585152D02*
X146075516Y-106699438D01*
X146075516Y-106699438D02*
X146108849Y-106851819D01*
X146108849Y-106851819D02*
X146142183Y-106928009D01*
X146142183Y-106928009D02*
X146208849Y-107004200D01*
X146208849Y-107004200D02*
X146308849Y-107042295D01*
X146308849Y-107042295D02*
X146375516Y-107042295D01*
X146375516Y-107042295D02*
X146475516Y-107004200D01*
X146475516Y-107004200D02*
X146508849Y-106966104D01*
X146508849Y-106966104D02*
X146508849Y-106699438D01*
X146508849Y-106699438D02*
X146375516Y-106699438D01*
X146808849Y-107042295D02*
X146808849Y-106242295D01*
X146808849Y-106242295D02*
X147075516Y-106242295D01*
X147075516Y-106242295D02*
X147142183Y-106280390D01*
X147142183Y-106280390D02*
X147175516Y-106318485D01*
X147175516Y-106318485D02*
X147208849Y-106394676D01*
X147208849Y-106394676D02*
X147208849Y-106508961D01*
X147208849Y-106508961D02*
X147175516Y-106585152D01*
X147175516Y-106585152D02*
X147142183Y-106623247D01*
X147142183Y-106623247D02*
X147075516Y-106661342D01*
X147075516Y-106661342D02*
X146808849Y-106661342D01*
X147508849Y-107042295D02*
X147508849Y-106242295D01*
X147975516Y-106242295D02*
X148108849Y-106242295D01*
X148108849Y-106242295D02*
X148175516Y-106280390D01*
X148175516Y-106280390D02*
X148242182Y-106356580D01*
X148242182Y-106356580D02*
X148275516Y-106508961D01*
X148275516Y-106508961D02*
X148275516Y-106775628D01*
X148275516Y-106775628D02*
X148242182Y-106928009D01*
X148242182Y-106928009D02*
X148175516Y-107004200D01*
X148175516Y-107004200D02*
X148108849Y-107042295D01*
X148108849Y-107042295D02*
X147975516Y-107042295D01*
X147975516Y-107042295D02*
X147908849Y-107004200D01*
X147908849Y-107004200D02*
X147842182Y-106928009D01*
X147842182Y-106928009D02*
X147808849Y-106775628D01*
X147808849Y-106775628D02*
X147808849Y-106508961D01*
X147808849Y-106508961D02*
X147842182Y-106356580D01*
X147842182Y-106356580D02*
X147908849Y-106280390D01*
X147908849Y-106280390D02*
X147975516Y-106242295D01*
X148542182Y-106318485D02*
X148575515Y-106280390D01*
X148575515Y-106280390D02*
X148642182Y-106242295D01*
X148642182Y-106242295D02*
X148808849Y-106242295D01*
X148808849Y-106242295D02*
X148875515Y-106280390D01*
X148875515Y-106280390D02*
X148908849Y-106318485D01*
X148908849Y-106318485D02*
X148942182Y-106394676D01*
X148942182Y-106394676D02*
X148942182Y-106470866D01*
X148942182Y-106470866D02*
X148908849Y-106585152D01*
X148908849Y-106585152D02*
X148508849Y-107042295D01*
X148508849Y-107042295D02*
X148942182Y-107042295D01*
X146789801Y-85862438D02*
X146694563Y-85814819D01*
X146694563Y-85814819D02*
X146551706Y-85814819D01*
X146551706Y-85814819D02*
X146408849Y-85862438D01*
X146408849Y-85862438D02*
X146313611Y-85957676D01*
X146313611Y-85957676D02*
X146265992Y-86052914D01*
X146265992Y-86052914D02*
X146218373Y-86243390D01*
X146218373Y-86243390D02*
X146218373Y-86386247D01*
X146218373Y-86386247D02*
X146265992Y-86576723D01*
X146265992Y-86576723D02*
X146313611Y-86671961D01*
X146313611Y-86671961D02*
X146408849Y-86767200D01*
X146408849Y-86767200D02*
X146551706Y-86814819D01*
X146551706Y-86814819D02*
X146646944Y-86814819D01*
X146646944Y-86814819D02*
X146789801Y-86767200D01*
X146789801Y-86767200D02*
X146837420Y-86719580D01*
X146837420Y-86719580D02*
X146837420Y-86386247D01*
X146837420Y-86386247D02*
X146646944Y-86386247D01*
X147265992Y-86814819D02*
X147265992Y-85814819D01*
X147265992Y-85814819D02*
X147837420Y-86814819D01*
X147837420Y-86814819D02*
X147837420Y-85814819D01*
X148313611Y-86814819D02*
X148313611Y-85814819D01*
X148313611Y-85814819D02*
X148551706Y-85814819D01*
X148551706Y-85814819D02*
X148694563Y-85862438D01*
X148694563Y-85862438D02*
X148789801Y-85957676D01*
X148789801Y-85957676D02*
X148837420Y-86052914D01*
X148837420Y-86052914D02*
X148885039Y-86243390D01*
X148885039Y-86243390D02*
X148885039Y-86386247D01*
X148885039Y-86386247D02*
X148837420Y-86576723D01*
X148837420Y-86576723D02*
X148789801Y-86671961D01*
X148789801Y-86671961D02*
X148694563Y-86767200D01*
X148694563Y-86767200D02*
X148551706Y-86814819D01*
X148551706Y-86814819D02*
X148313611Y-86814819D01*
X146475516Y-93580390D02*
X146408849Y-93542295D01*
X146408849Y-93542295D02*
X146308849Y-93542295D01*
X146308849Y-93542295D02*
X146208849Y-93580390D01*
X146208849Y-93580390D02*
X146142183Y-93656580D01*
X146142183Y-93656580D02*
X146108849Y-93732771D01*
X146108849Y-93732771D02*
X146075516Y-93885152D01*
X146075516Y-93885152D02*
X146075516Y-93999438D01*
X146075516Y-93999438D02*
X146108849Y-94151819D01*
X146108849Y-94151819D02*
X146142183Y-94228009D01*
X146142183Y-94228009D02*
X146208849Y-94304200D01*
X146208849Y-94304200D02*
X146308849Y-94342295D01*
X146308849Y-94342295D02*
X146375516Y-94342295D01*
X146375516Y-94342295D02*
X146475516Y-94304200D01*
X146475516Y-94304200D02*
X146508849Y-94266104D01*
X146508849Y-94266104D02*
X146508849Y-93999438D01*
X146508849Y-93999438D02*
X146375516Y-93999438D01*
X146808849Y-94342295D02*
X146808849Y-93542295D01*
X146808849Y-93542295D02*
X147075516Y-93542295D01*
X147075516Y-93542295D02*
X147142183Y-93580390D01*
X147142183Y-93580390D02*
X147175516Y-93618485D01*
X147175516Y-93618485D02*
X147208849Y-93694676D01*
X147208849Y-93694676D02*
X147208849Y-93808961D01*
X147208849Y-93808961D02*
X147175516Y-93885152D01*
X147175516Y-93885152D02*
X147142183Y-93923247D01*
X147142183Y-93923247D02*
X147075516Y-93961342D01*
X147075516Y-93961342D02*
X146808849Y-93961342D01*
X147508849Y-94342295D02*
X147508849Y-93542295D01*
X147975516Y-93542295D02*
X148108849Y-93542295D01*
X148108849Y-93542295D02*
X148175516Y-93580390D01*
X148175516Y-93580390D02*
X148242182Y-93656580D01*
X148242182Y-93656580D02*
X148275516Y-93808961D01*
X148275516Y-93808961D02*
X148275516Y-94075628D01*
X148275516Y-94075628D02*
X148242182Y-94228009D01*
X148242182Y-94228009D02*
X148175516Y-94304200D01*
X148175516Y-94304200D02*
X148108849Y-94342295D01*
X148108849Y-94342295D02*
X147975516Y-94342295D01*
X147975516Y-94342295D02*
X147908849Y-94304200D01*
X147908849Y-94304200D02*
X147842182Y-94228009D01*
X147842182Y-94228009D02*
X147808849Y-94075628D01*
X147808849Y-94075628D02*
X147808849Y-93808961D01*
X147808849Y-93808961D02*
X147842182Y-93656580D01*
X147842182Y-93656580D02*
X147908849Y-93580390D01*
X147908849Y-93580390D02*
X147975516Y-93542295D01*
X148908849Y-93542295D02*
X148575515Y-93542295D01*
X148575515Y-93542295D02*
X148542182Y-93923247D01*
X148542182Y-93923247D02*
X148575515Y-93885152D01*
X148575515Y-93885152D02*
X148642182Y-93847057D01*
X148642182Y-93847057D02*
X148808849Y-93847057D01*
X148808849Y-93847057D02*
X148875515Y-93885152D01*
X148875515Y-93885152D02*
X148908849Y-93923247D01*
X148908849Y-93923247D02*
X148942182Y-93999438D01*
X148942182Y-93999438D02*
X148942182Y-94189914D01*
X148942182Y-94189914D02*
X148908849Y-94266104D01*
X148908849Y-94266104D02*
X148875515Y-94304200D01*
X148875515Y-94304200D02*
X148808849Y-94342295D01*
X148808849Y-94342295D02*
X148642182Y-94342295D01*
X148642182Y-94342295D02*
X148575515Y-94304200D01*
X148575515Y-94304200D02*
X148542182Y-94266104D01*
X145808849Y-73260390D02*
X145742182Y-73222295D01*
X145742182Y-73222295D02*
X145642182Y-73222295D01*
X145642182Y-73222295D02*
X145542182Y-73260390D01*
X145542182Y-73260390D02*
X145475516Y-73336580D01*
X145475516Y-73336580D02*
X145442182Y-73412771D01*
X145442182Y-73412771D02*
X145408849Y-73565152D01*
X145408849Y-73565152D02*
X145408849Y-73679438D01*
X145408849Y-73679438D02*
X145442182Y-73831819D01*
X145442182Y-73831819D02*
X145475516Y-73908009D01*
X145475516Y-73908009D02*
X145542182Y-73984200D01*
X145542182Y-73984200D02*
X145642182Y-74022295D01*
X145642182Y-74022295D02*
X145708849Y-74022295D01*
X145708849Y-74022295D02*
X145808849Y-73984200D01*
X145808849Y-73984200D02*
X145842182Y-73946104D01*
X145842182Y-73946104D02*
X145842182Y-73679438D01*
X145842182Y-73679438D02*
X145708849Y-73679438D01*
X146142182Y-74022295D02*
X146142182Y-73222295D01*
X146142182Y-73222295D02*
X146408849Y-73222295D01*
X146408849Y-73222295D02*
X146475516Y-73260390D01*
X146475516Y-73260390D02*
X146508849Y-73298485D01*
X146508849Y-73298485D02*
X146542182Y-73374676D01*
X146542182Y-73374676D02*
X146542182Y-73488961D01*
X146542182Y-73488961D02*
X146508849Y-73565152D01*
X146508849Y-73565152D02*
X146475516Y-73603247D01*
X146475516Y-73603247D02*
X146408849Y-73641342D01*
X146408849Y-73641342D02*
X146142182Y-73641342D01*
X146842182Y-74022295D02*
X146842182Y-73222295D01*
X147308849Y-73222295D02*
X147442182Y-73222295D01*
X147442182Y-73222295D02*
X147508849Y-73260390D01*
X147508849Y-73260390D02*
X147575515Y-73336580D01*
X147575515Y-73336580D02*
X147608849Y-73488961D01*
X147608849Y-73488961D02*
X147608849Y-73755628D01*
X147608849Y-73755628D02*
X147575515Y-73908009D01*
X147575515Y-73908009D02*
X147508849Y-73984200D01*
X147508849Y-73984200D02*
X147442182Y-74022295D01*
X147442182Y-74022295D02*
X147308849Y-74022295D01*
X147308849Y-74022295D02*
X147242182Y-73984200D01*
X147242182Y-73984200D02*
X147175515Y-73908009D01*
X147175515Y-73908009D02*
X147142182Y-73755628D01*
X147142182Y-73755628D02*
X147142182Y-73488961D01*
X147142182Y-73488961D02*
X147175515Y-73336580D01*
X147175515Y-73336580D02*
X147242182Y-73260390D01*
X147242182Y-73260390D02*
X147308849Y-73222295D01*
X147875515Y-73298485D02*
X147908848Y-73260390D01*
X147908848Y-73260390D02*
X147975515Y-73222295D01*
X147975515Y-73222295D02*
X148142182Y-73222295D01*
X148142182Y-73222295D02*
X148208848Y-73260390D01*
X148208848Y-73260390D02*
X148242182Y-73298485D01*
X148242182Y-73298485D02*
X148275515Y-73374676D01*
X148275515Y-73374676D02*
X148275515Y-73450866D01*
X148275515Y-73450866D02*
X148242182Y-73565152D01*
X148242182Y-73565152D02*
X147842182Y-74022295D01*
X147842182Y-74022295D02*
X148275515Y-74022295D01*
X148508849Y-73222295D02*
X148942182Y-73222295D01*
X148942182Y-73222295D02*
X148708849Y-73527057D01*
X148708849Y-73527057D02*
X148808849Y-73527057D01*
X148808849Y-73527057D02*
X148875515Y-73565152D01*
X148875515Y-73565152D02*
X148908849Y-73603247D01*
X148908849Y-73603247D02*
X148942182Y-73679438D01*
X148942182Y-73679438D02*
X148942182Y-73869914D01*
X148942182Y-73869914D02*
X148908849Y-73946104D01*
X148908849Y-73946104D02*
X148875515Y-73984200D01*
X148875515Y-73984200D02*
X148808849Y-74022295D01*
X148808849Y-74022295D02*
X148608849Y-74022295D01*
X148608849Y-74022295D02*
X148542182Y-73984200D01*
X148542182Y-73984200D02*
X148508849Y-73946104D01*
X145808849Y-75800390D02*
X145742182Y-75762295D01*
X145742182Y-75762295D02*
X145642182Y-75762295D01*
X145642182Y-75762295D02*
X145542182Y-75800390D01*
X145542182Y-75800390D02*
X145475516Y-75876580D01*
X145475516Y-75876580D02*
X145442182Y-75952771D01*
X145442182Y-75952771D02*
X145408849Y-76105152D01*
X145408849Y-76105152D02*
X145408849Y-76219438D01*
X145408849Y-76219438D02*
X145442182Y-76371819D01*
X145442182Y-76371819D02*
X145475516Y-76448009D01*
X145475516Y-76448009D02*
X145542182Y-76524200D01*
X145542182Y-76524200D02*
X145642182Y-76562295D01*
X145642182Y-76562295D02*
X145708849Y-76562295D01*
X145708849Y-76562295D02*
X145808849Y-76524200D01*
X145808849Y-76524200D02*
X145842182Y-76486104D01*
X145842182Y-76486104D02*
X145842182Y-76219438D01*
X145842182Y-76219438D02*
X145708849Y-76219438D01*
X146142182Y-76562295D02*
X146142182Y-75762295D01*
X146142182Y-75762295D02*
X146408849Y-75762295D01*
X146408849Y-75762295D02*
X146475516Y-75800390D01*
X146475516Y-75800390D02*
X146508849Y-75838485D01*
X146508849Y-75838485D02*
X146542182Y-75914676D01*
X146542182Y-75914676D02*
X146542182Y-76028961D01*
X146542182Y-76028961D02*
X146508849Y-76105152D01*
X146508849Y-76105152D02*
X146475516Y-76143247D01*
X146475516Y-76143247D02*
X146408849Y-76181342D01*
X146408849Y-76181342D02*
X146142182Y-76181342D01*
X146842182Y-76562295D02*
X146842182Y-75762295D01*
X147308849Y-75762295D02*
X147442182Y-75762295D01*
X147442182Y-75762295D02*
X147508849Y-75800390D01*
X147508849Y-75800390D02*
X147575515Y-75876580D01*
X147575515Y-75876580D02*
X147608849Y-76028961D01*
X147608849Y-76028961D02*
X147608849Y-76295628D01*
X147608849Y-76295628D02*
X147575515Y-76448009D01*
X147575515Y-76448009D02*
X147508849Y-76524200D01*
X147508849Y-76524200D02*
X147442182Y-76562295D01*
X147442182Y-76562295D02*
X147308849Y-76562295D01*
X147308849Y-76562295D02*
X147242182Y-76524200D01*
X147242182Y-76524200D02*
X147175515Y-76448009D01*
X147175515Y-76448009D02*
X147142182Y-76295628D01*
X147142182Y-76295628D02*
X147142182Y-76028961D01*
X147142182Y-76028961D02*
X147175515Y-75876580D01*
X147175515Y-75876580D02*
X147242182Y-75800390D01*
X147242182Y-75800390D02*
X147308849Y-75762295D01*
X147875515Y-75838485D02*
X147908848Y-75800390D01*
X147908848Y-75800390D02*
X147975515Y-75762295D01*
X147975515Y-75762295D02*
X148142182Y-75762295D01*
X148142182Y-75762295D02*
X148208848Y-75800390D01*
X148208848Y-75800390D02*
X148242182Y-75838485D01*
X148242182Y-75838485D02*
X148275515Y-75914676D01*
X148275515Y-75914676D02*
X148275515Y-75990866D01*
X148275515Y-75990866D02*
X148242182Y-76105152D01*
X148242182Y-76105152D02*
X147842182Y-76562295D01*
X147842182Y-76562295D02*
X148275515Y-76562295D01*
X148542182Y-75838485D02*
X148575515Y-75800390D01*
X148575515Y-75800390D02*
X148642182Y-75762295D01*
X148642182Y-75762295D02*
X148808849Y-75762295D01*
X148808849Y-75762295D02*
X148875515Y-75800390D01*
X148875515Y-75800390D02*
X148908849Y-75838485D01*
X148908849Y-75838485D02*
X148942182Y-75914676D01*
X148942182Y-75914676D02*
X148942182Y-75990866D01*
X148942182Y-75990866D02*
X148908849Y-76105152D01*
X148908849Y-76105152D02*
X148508849Y-76562295D01*
X148508849Y-76562295D02*
X148942182Y-76562295D01*
X145808849Y-91040390D02*
X145742182Y-91002295D01*
X145742182Y-91002295D02*
X145642182Y-91002295D01*
X145642182Y-91002295D02*
X145542182Y-91040390D01*
X145542182Y-91040390D02*
X145475516Y-91116580D01*
X145475516Y-91116580D02*
X145442182Y-91192771D01*
X145442182Y-91192771D02*
X145408849Y-91345152D01*
X145408849Y-91345152D02*
X145408849Y-91459438D01*
X145408849Y-91459438D02*
X145442182Y-91611819D01*
X145442182Y-91611819D02*
X145475516Y-91688009D01*
X145475516Y-91688009D02*
X145542182Y-91764200D01*
X145542182Y-91764200D02*
X145642182Y-91802295D01*
X145642182Y-91802295D02*
X145708849Y-91802295D01*
X145708849Y-91802295D02*
X145808849Y-91764200D01*
X145808849Y-91764200D02*
X145842182Y-91726104D01*
X145842182Y-91726104D02*
X145842182Y-91459438D01*
X145842182Y-91459438D02*
X145708849Y-91459438D01*
X146142182Y-91802295D02*
X146142182Y-91002295D01*
X146142182Y-91002295D02*
X146408849Y-91002295D01*
X146408849Y-91002295D02*
X146475516Y-91040390D01*
X146475516Y-91040390D02*
X146508849Y-91078485D01*
X146508849Y-91078485D02*
X146542182Y-91154676D01*
X146542182Y-91154676D02*
X146542182Y-91268961D01*
X146542182Y-91268961D02*
X146508849Y-91345152D01*
X146508849Y-91345152D02*
X146475516Y-91383247D01*
X146475516Y-91383247D02*
X146408849Y-91421342D01*
X146408849Y-91421342D02*
X146142182Y-91421342D01*
X146842182Y-91802295D02*
X146842182Y-91002295D01*
X147308849Y-91002295D02*
X147442182Y-91002295D01*
X147442182Y-91002295D02*
X147508849Y-91040390D01*
X147508849Y-91040390D02*
X147575515Y-91116580D01*
X147575515Y-91116580D02*
X147608849Y-91268961D01*
X147608849Y-91268961D02*
X147608849Y-91535628D01*
X147608849Y-91535628D02*
X147575515Y-91688009D01*
X147575515Y-91688009D02*
X147508849Y-91764200D01*
X147508849Y-91764200D02*
X147442182Y-91802295D01*
X147442182Y-91802295D02*
X147308849Y-91802295D01*
X147308849Y-91802295D02*
X147242182Y-91764200D01*
X147242182Y-91764200D02*
X147175515Y-91688009D01*
X147175515Y-91688009D02*
X147142182Y-91535628D01*
X147142182Y-91535628D02*
X147142182Y-91268961D01*
X147142182Y-91268961D02*
X147175515Y-91116580D01*
X147175515Y-91116580D02*
X147242182Y-91040390D01*
X147242182Y-91040390D02*
X147308849Y-91002295D01*
X148275515Y-91802295D02*
X147875515Y-91802295D01*
X148075515Y-91802295D02*
X148075515Y-91002295D01*
X148075515Y-91002295D02*
X148008848Y-91116580D01*
X148008848Y-91116580D02*
X147942182Y-91192771D01*
X147942182Y-91192771D02*
X147875515Y-91230866D01*
X148675515Y-91345152D02*
X148608849Y-91307057D01*
X148608849Y-91307057D02*
X148575515Y-91268961D01*
X148575515Y-91268961D02*
X148542182Y-91192771D01*
X148542182Y-91192771D02*
X148542182Y-91154676D01*
X148542182Y-91154676D02*
X148575515Y-91078485D01*
X148575515Y-91078485D02*
X148608849Y-91040390D01*
X148608849Y-91040390D02*
X148675515Y-91002295D01*
X148675515Y-91002295D02*
X148808849Y-91002295D01*
X148808849Y-91002295D02*
X148875515Y-91040390D01*
X148875515Y-91040390D02*
X148908849Y-91078485D01*
X148908849Y-91078485D02*
X148942182Y-91154676D01*
X148942182Y-91154676D02*
X148942182Y-91192771D01*
X148942182Y-91192771D02*
X148908849Y-91268961D01*
X148908849Y-91268961D02*
X148875515Y-91307057D01*
X148875515Y-91307057D02*
X148808849Y-91345152D01*
X148808849Y-91345152D02*
X148675515Y-91345152D01*
X148675515Y-91345152D02*
X148608849Y-91383247D01*
X148608849Y-91383247D02*
X148575515Y-91421342D01*
X148575515Y-91421342D02*
X148542182Y-91497533D01*
X148542182Y-91497533D02*
X148542182Y-91649914D01*
X148542182Y-91649914D02*
X148575515Y-91726104D01*
X148575515Y-91726104D02*
X148608849Y-91764200D01*
X148608849Y-91764200D02*
X148675515Y-91802295D01*
X148675515Y-91802295D02*
X148808849Y-91802295D01*
X148808849Y-91802295D02*
X148875515Y-91764200D01*
X148875515Y-91764200D02*
X148908849Y-91726104D01*
X148908849Y-91726104D02*
X148942182Y-91649914D01*
X148942182Y-91649914D02*
X148942182Y-91497533D01*
X148942182Y-91497533D02*
X148908849Y-91421342D01*
X148908849Y-91421342D02*
X148875515Y-91383247D01*
X148875515Y-91383247D02*
X148808849Y-91345152D01*
X127123489Y-116546099D02*
X126647299Y-116546099D01*
X126647299Y-116546099D02*
X126599680Y-117022289D01*
X126599680Y-117022289D02*
X126647299Y-116974670D01*
X126647299Y-116974670D02*
X126742537Y-116927051D01*
X126742537Y-116927051D02*
X126980632Y-116927051D01*
X126980632Y-116927051D02*
X127075870Y-116974670D01*
X127075870Y-116974670D02*
X127123489Y-117022289D01*
X127123489Y-117022289D02*
X127171108Y-117117527D01*
X127171108Y-117117527D02*
X127171108Y-117355622D01*
X127171108Y-117355622D02*
X127123489Y-117450860D01*
X127123489Y-117450860D02*
X127075870Y-117498480D01*
X127075870Y-117498480D02*
X126980632Y-117546099D01*
X126980632Y-117546099D02*
X126742537Y-117546099D01*
X126742537Y-117546099D02*
X126647299Y-117498480D01*
X126647299Y-117498480D02*
X126599680Y-117450860D01*
X127456823Y-116546099D02*
X127790156Y-117546099D01*
X127790156Y-117546099D02*
X128123489Y-116546099D01*
X142308850Y-108820390D02*
X142242183Y-108782295D01*
X142242183Y-108782295D02*
X142142183Y-108782295D01*
X142142183Y-108782295D02*
X142042183Y-108820390D01*
X142042183Y-108820390D02*
X141975517Y-108896580D01*
X141975517Y-108896580D02*
X141942183Y-108972771D01*
X141942183Y-108972771D02*
X141908850Y-109125152D01*
X141908850Y-109125152D02*
X141908850Y-109239438D01*
X141908850Y-109239438D02*
X141942183Y-109391819D01*
X141942183Y-109391819D02*
X141975517Y-109468009D01*
X141975517Y-109468009D02*
X142042183Y-109544200D01*
X142042183Y-109544200D02*
X142142183Y-109582295D01*
X142142183Y-109582295D02*
X142208850Y-109582295D01*
X142208850Y-109582295D02*
X142308850Y-109544200D01*
X142308850Y-109544200D02*
X142342183Y-109506104D01*
X142342183Y-109506104D02*
X142342183Y-109239438D01*
X142342183Y-109239438D02*
X142208850Y-109239438D01*
X142642183Y-109582295D02*
X142642183Y-108782295D01*
X142642183Y-108782295D02*
X142908850Y-108782295D01*
X142908850Y-108782295D02*
X142975517Y-108820390D01*
X142975517Y-108820390D02*
X143008850Y-108858485D01*
X143008850Y-108858485D02*
X143042183Y-108934676D01*
X143042183Y-108934676D02*
X143042183Y-109048961D01*
X143042183Y-109048961D02*
X143008850Y-109125152D01*
X143008850Y-109125152D02*
X142975517Y-109163247D01*
X142975517Y-109163247D02*
X142908850Y-109201342D01*
X142908850Y-109201342D02*
X142642183Y-109201342D01*
X143342183Y-109582295D02*
X143342183Y-108782295D01*
X143808850Y-108782295D02*
X143942183Y-108782295D01*
X143942183Y-108782295D02*
X144008850Y-108820390D01*
X144008850Y-108820390D02*
X144075516Y-108896580D01*
X144075516Y-108896580D02*
X144108850Y-109048961D01*
X144108850Y-109048961D02*
X144108850Y-109315628D01*
X144108850Y-109315628D02*
X144075516Y-109468009D01*
X144075516Y-109468009D02*
X144008850Y-109544200D01*
X144008850Y-109544200D02*
X143942183Y-109582295D01*
X143942183Y-109582295D02*
X143808850Y-109582295D01*
X143808850Y-109582295D02*
X143742183Y-109544200D01*
X143742183Y-109544200D02*
X143675516Y-109468009D01*
X143675516Y-109468009D02*
X143642183Y-109315628D01*
X143642183Y-109315628D02*
X143642183Y-109048961D01*
X143642183Y-109048961D02*
X143675516Y-108896580D01*
X143675516Y-108896580D02*
X143742183Y-108820390D01*
X143742183Y-108820390D02*
X143808850Y-108782295D01*
X144775516Y-109582295D02*
X144375516Y-109582295D01*
X144575516Y-109582295D02*
X144575516Y-108782295D01*
X144575516Y-108782295D02*
X144508849Y-108896580D01*
X144508849Y-108896580D02*
X144442183Y-108972771D01*
X144442183Y-108972771D02*
X144375516Y-109010866D01*
X145408850Y-108782295D02*
X145075516Y-108782295D01*
X145075516Y-108782295D02*
X145042183Y-109163247D01*
X145042183Y-109163247D02*
X145075516Y-109125152D01*
X145075516Y-109125152D02*
X145142183Y-109087057D01*
X145142183Y-109087057D02*
X145308850Y-109087057D01*
X145308850Y-109087057D02*
X145375516Y-109125152D01*
X145375516Y-109125152D02*
X145408850Y-109163247D01*
X145408850Y-109163247D02*
X145442183Y-109239438D01*
X145442183Y-109239438D02*
X145442183Y-109429914D01*
X145442183Y-109429914D02*
X145408850Y-109506104D01*
X145408850Y-109506104D02*
X145375516Y-109544200D01*
X145375516Y-109544200D02*
X145308850Y-109582295D01*
X145308850Y-109582295D02*
X145142183Y-109582295D01*
X145142183Y-109582295D02*
X145075516Y-109544200D01*
X145075516Y-109544200D02*
X145042183Y-109506104D01*
X146242183Y-108744200D02*
X145642183Y-109772771D01*
X146475516Y-109582295D02*
X146475516Y-108782295D01*
X146475516Y-108782295D02*
X146708850Y-109353723D01*
X146708850Y-109353723D02*
X146942183Y-108782295D01*
X146942183Y-108782295D02*
X146942183Y-109582295D01*
X147175516Y-108782295D02*
X147575516Y-108782295D01*
X147375516Y-109582295D02*
X147375516Y-108782295D01*
X147808849Y-109582295D02*
X147808849Y-108782295D01*
X147808849Y-108782295D02*
X147975516Y-108782295D01*
X147975516Y-108782295D02*
X148075516Y-108820390D01*
X148075516Y-108820390D02*
X148142183Y-108896580D01*
X148142183Y-108896580D02*
X148175516Y-108972771D01*
X148175516Y-108972771D02*
X148208849Y-109125152D01*
X148208849Y-109125152D02*
X148208849Y-109239438D01*
X148208849Y-109239438D02*
X148175516Y-109391819D01*
X148175516Y-109391819D02*
X148142183Y-109468009D01*
X148142183Y-109468009D02*
X148075516Y-109544200D01*
X148075516Y-109544200D02*
X147975516Y-109582295D01*
X147975516Y-109582295D02*
X147808849Y-109582295D01*
X148642183Y-108782295D02*
X148775516Y-108782295D01*
X148775516Y-108782295D02*
X148842183Y-108820390D01*
X148842183Y-108820390D02*
X148908849Y-108896580D01*
X148908849Y-108896580D02*
X148942183Y-109048961D01*
X148942183Y-109048961D02*
X148942183Y-109315628D01*
X148942183Y-109315628D02*
X148908849Y-109468009D01*
X148908849Y-109468009D02*
X148842183Y-109544200D01*
X148842183Y-109544200D02*
X148775516Y-109582295D01*
X148775516Y-109582295D02*
X148642183Y-109582295D01*
X148642183Y-109582295D02*
X148575516Y-109544200D01*
X148575516Y-109544200D02*
X148508849Y-109468009D01*
X148508849Y-109468009D02*
X148475516Y-109315628D01*
X148475516Y-109315628D02*
X148475516Y-109048961D01*
X148475516Y-109048961D02*
X148508849Y-108896580D01*
X148508849Y-108896580D02*
X148575516Y-108820390D01*
X148575516Y-108820390D02*
X148642183Y-108782295D01*
X145808849Y-96120390D02*
X145742182Y-96082295D01*
X145742182Y-96082295D02*
X145642182Y-96082295D01*
X145642182Y-96082295D02*
X145542182Y-96120390D01*
X145542182Y-96120390D02*
X145475516Y-96196580D01*
X145475516Y-96196580D02*
X145442182Y-96272771D01*
X145442182Y-96272771D02*
X145408849Y-96425152D01*
X145408849Y-96425152D02*
X145408849Y-96539438D01*
X145408849Y-96539438D02*
X145442182Y-96691819D01*
X145442182Y-96691819D02*
X145475516Y-96768009D01*
X145475516Y-96768009D02*
X145542182Y-96844200D01*
X145542182Y-96844200D02*
X145642182Y-96882295D01*
X145642182Y-96882295D02*
X145708849Y-96882295D01*
X145708849Y-96882295D02*
X145808849Y-96844200D01*
X145808849Y-96844200D02*
X145842182Y-96806104D01*
X145842182Y-96806104D02*
X145842182Y-96539438D01*
X145842182Y-96539438D02*
X145708849Y-96539438D01*
X146142182Y-96882295D02*
X146142182Y-96082295D01*
X146142182Y-96082295D02*
X146408849Y-96082295D01*
X146408849Y-96082295D02*
X146475516Y-96120390D01*
X146475516Y-96120390D02*
X146508849Y-96158485D01*
X146508849Y-96158485D02*
X146542182Y-96234676D01*
X146542182Y-96234676D02*
X146542182Y-96348961D01*
X146542182Y-96348961D02*
X146508849Y-96425152D01*
X146508849Y-96425152D02*
X146475516Y-96463247D01*
X146475516Y-96463247D02*
X146408849Y-96501342D01*
X146408849Y-96501342D02*
X146142182Y-96501342D01*
X146842182Y-96882295D02*
X146842182Y-96082295D01*
X147308849Y-96082295D02*
X147442182Y-96082295D01*
X147442182Y-96082295D02*
X147508849Y-96120390D01*
X147508849Y-96120390D02*
X147575515Y-96196580D01*
X147575515Y-96196580D02*
X147608849Y-96348961D01*
X147608849Y-96348961D02*
X147608849Y-96615628D01*
X147608849Y-96615628D02*
X147575515Y-96768009D01*
X147575515Y-96768009D02*
X147508849Y-96844200D01*
X147508849Y-96844200D02*
X147442182Y-96882295D01*
X147442182Y-96882295D02*
X147308849Y-96882295D01*
X147308849Y-96882295D02*
X147242182Y-96844200D01*
X147242182Y-96844200D02*
X147175515Y-96768009D01*
X147175515Y-96768009D02*
X147142182Y-96615628D01*
X147142182Y-96615628D02*
X147142182Y-96348961D01*
X147142182Y-96348961D02*
X147175515Y-96196580D01*
X147175515Y-96196580D02*
X147242182Y-96120390D01*
X147242182Y-96120390D02*
X147308849Y-96082295D01*
X148275515Y-96882295D02*
X147875515Y-96882295D01*
X148075515Y-96882295D02*
X148075515Y-96082295D01*
X148075515Y-96082295D02*
X148008848Y-96196580D01*
X148008848Y-96196580D02*
X147942182Y-96272771D01*
X147942182Y-96272771D02*
X147875515Y-96310866D01*
X148508849Y-96082295D02*
X148975515Y-96082295D01*
X148975515Y-96082295D02*
X148675515Y-96882295D01*
X127174788Y-103642438D02*
X127079550Y-103594819D01*
X127079550Y-103594819D02*
X126936693Y-103594819D01*
X126936693Y-103594819D02*
X126793836Y-103642438D01*
X126793836Y-103642438D02*
X126698598Y-103737676D01*
X126698598Y-103737676D02*
X126650979Y-103832914D01*
X126650979Y-103832914D02*
X126603360Y-104023390D01*
X126603360Y-104023390D02*
X126603360Y-104166247D01*
X126603360Y-104166247D02*
X126650979Y-104356723D01*
X126650979Y-104356723D02*
X126698598Y-104451961D01*
X126698598Y-104451961D02*
X126793836Y-104547200D01*
X126793836Y-104547200D02*
X126936693Y-104594819D01*
X126936693Y-104594819D02*
X127031931Y-104594819D01*
X127031931Y-104594819D02*
X127174788Y-104547200D01*
X127174788Y-104547200D02*
X127222407Y-104499580D01*
X127222407Y-104499580D02*
X127222407Y-104166247D01*
X127222407Y-104166247D02*
X127031931Y-104166247D01*
X127650979Y-104594819D02*
X127650979Y-103594819D01*
X127650979Y-103594819D02*
X128222407Y-104594819D01*
X128222407Y-104594819D02*
X128222407Y-103594819D01*
X128698598Y-104594819D02*
X128698598Y-103594819D01*
X128698598Y-103594819D02*
X128936693Y-103594819D01*
X128936693Y-103594819D02*
X129079550Y-103642438D01*
X129079550Y-103642438D02*
X129174788Y-103737676D01*
X129174788Y-103737676D02*
X129222407Y-103832914D01*
X129222407Y-103832914D02*
X129270026Y-104023390D01*
X129270026Y-104023390D02*
X129270026Y-104166247D01*
X129270026Y-104166247D02*
X129222407Y-104356723D01*
X129222407Y-104356723D02*
X129174788Y-104451961D01*
X129174788Y-104451961D02*
X129079550Y-104547200D01*
X129079550Y-104547200D02*
X128936693Y-104594819D01*
X128936693Y-104594819D02*
X128698598Y-104594819D01*
X146475516Y-101200390D02*
X146408849Y-101162295D01*
X146408849Y-101162295D02*
X146308849Y-101162295D01*
X146308849Y-101162295D02*
X146208849Y-101200390D01*
X146208849Y-101200390D02*
X146142183Y-101276580D01*
X146142183Y-101276580D02*
X146108849Y-101352771D01*
X146108849Y-101352771D02*
X146075516Y-101505152D01*
X146075516Y-101505152D02*
X146075516Y-101619438D01*
X146075516Y-101619438D02*
X146108849Y-101771819D01*
X146108849Y-101771819D02*
X146142183Y-101848009D01*
X146142183Y-101848009D02*
X146208849Y-101924200D01*
X146208849Y-101924200D02*
X146308849Y-101962295D01*
X146308849Y-101962295D02*
X146375516Y-101962295D01*
X146375516Y-101962295D02*
X146475516Y-101924200D01*
X146475516Y-101924200D02*
X146508849Y-101886104D01*
X146508849Y-101886104D02*
X146508849Y-101619438D01*
X146508849Y-101619438D02*
X146375516Y-101619438D01*
X146808849Y-101962295D02*
X146808849Y-101162295D01*
X146808849Y-101162295D02*
X147075516Y-101162295D01*
X147075516Y-101162295D02*
X147142183Y-101200390D01*
X147142183Y-101200390D02*
X147175516Y-101238485D01*
X147175516Y-101238485D02*
X147208849Y-101314676D01*
X147208849Y-101314676D02*
X147208849Y-101428961D01*
X147208849Y-101428961D02*
X147175516Y-101505152D01*
X147175516Y-101505152D02*
X147142183Y-101543247D01*
X147142183Y-101543247D02*
X147075516Y-101581342D01*
X147075516Y-101581342D02*
X146808849Y-101581342D01*
X147508849Y-101962295D02*
X147508849Y-101162295D01*
X147975516Y-101162295D02*
X148108849Y-101162295D01*
X148108849Y-101162295D02*
X148175516Y-101200390D01*
X148175516Y-101200390D02*
X148242182Y-101276580D01*
X148242182Y-101276580D02*
X148275516Y-101428961D01*
X148275516Y-101428961D02*
X148275516Y-101695628D01*
X148275516Y-101695628D02*
X148242182Y-101848009D01*
X148242182Y-101848009D02*
X148175516Y-101924200D01*
X148175516Y-101924200D02*
X148108849Y-101962295D01*
X148108849Y-101962295D02*
X147975516Y-101962295D01*
X147975516Y-101962295D02*
X147908849Y-101924200D01*
X147908849Y-101924200D02*
X147842182Y-101848009D01*
X147842182Y-101848009D02*
X147808849Y-101695628D01*
X147808849Y-101695628D02*
X147808849Y-101428961D01*
X147808849Y-101428961D02*
X147842182Y-101276580D01*
X147842182Y-101276580D02*
X147908849Y-101200390D01*
X147908849Y-101200390D02*
X147975516Y-101162295D01*
X148875515Y-101428961D02*
X148875515Y-101962295D01*
X148708849Y-101124200D02*
X148542182Y-101695628D01*
X148542182Y-101695628D02*
X148975515Y-101695628D01*
X145808849Y-98660390D02*
X145742182Y-98622295D01*
X145742182Y-98622295D02*
X145642182Y-98622295D01*
X145642182Y-98622295D02*
X145542182Y-98660390D01*
X145542182Y-98660390D02*
X145475516Y-98736580D01*
X145475516Y-98736580D02*
X145442182Y-98812771D01*
X145442182Y-98812771D02*
X145408849Y-98965152D01*
X145408849Y-98965152D02*
X145408849Y-99079438D01*
X145408849Y-99079438D02*
X145442182Y-99231819D01*
X145442182Y-99231819D02*
X145475516Y-99308009D01*
X145475516Y-99308009D02*
X145542182Y-99384200D01*
X145542182Y-99384200D02*
X145642182Y-99422295D01*
X145642182Y-99422295D02*
X145708849Y-99422295D01*
X145708849Y-99422295D02*
X145808849Y-99384200D01*
X145808849Y-99384200D02*
X145842182Y-99346104D01*
X145842182Y-99346104D02*
X145842182Y-99079438D01*
X145842182Y-99079438D02*
X145708849Y-99079438D01*
X146142182Y-99422295D02*
X146142182Y-98622295D01*
X146142182Y-98622295D02*
X146408849Y-98622295D01*
X146408849Y-98622295D02*
X146475516Y-98660390D01*
X146475516Y-98660390D02*
X146508849Y-98698485D01*
X146508849Y-98698485D02*
X146542182Y-98774676D01*
X146542182Y-98774676D02*
X146542182Y-98888961D01*
X146542182Y-98888961D02*
X146508849Y-98965152D01*
X146508849Y-98965152D02*
X146475516Y-99003247D01*
X146475516Y-99003247D02*
X146408849Y-99041342D01*
X146408849Y-99041342D02*
X146142182Y-99041342D01*
X146842182Y-99422295D02*
X146842182Y-98622295D01*
X147308849Y-98622295D02*
X147442182Y-98622295D01*
X147442182Y-98622295D02*
X147508849Y-98660390D01*
X147508849Y-98660390D02*
X147575515Y-98736580D01*
X147575515Y-98736580D02*
X147608849Y-98888961D01*
X147608849Y-98888961D02*
X147608849Y-99155628D01*
X147608849Y-99155628D02*
X147575515Y-99308009D01*
X147575515Y-99308009D02*
X147508849Y-99384200D01*
X147508849Y-99384200D02*
X147442182Y-99422295D01*
X147442182Y-99422295D02*
X147308849Y-99422295D01*
X147308849Y-99422295D02*
X147242182Y-99384200D01*
X147242182Y-99384200D02*
X147175515Y-99308009D01*
X147175515Y-99308009D02*
X147142182Y-99155628D01*
X147142182Y-99155628D02*
X147142182Y-98888961D01*
X147142182Y-98888961D02*
X147175515Y-98736580D01*
X147175515Y-98736580D02*
X147242182Y-98660390D01*
X147242182Y-98660390D02*
X147308849Y-98622295D01*
X148275515Y-99422295D02*
X147875515Y-99422295D01*
X148075515Y-99422295D02*
X148075515Y-98622295D01*
X148075515Y-98622295D02*
X148008848Y-98736580D01*
X148008848Y-98736580D02*
X147942182Y-98812771D01*
X147942182Y-98812771D02*
X147875515Y-98850866D01*
X148875515Y-98622295D02*
X148742182Y-98622295D01*
X148742182Y-98622295D02*
X148675515Y-98660390D01*
X148675515Y-98660390D02*
X148642182Y-98698485D01*
X148642182Y-98698485D02*
X148575515Y-98812771D01*
X148575515Y-98812771D02*
X148542182Y-98965152D01*
X148542182Y-98965152D02*
X148542182Y-99269914D01*
X148542182Y-99269914D02*
X148575515Y-99346104D01*
X148575515Y-99346104D02*
X148608849Y-99384200D01*
X148608849Y-99384200D02*
X148675515Y-99422295D01*
X148675515Y-99422295D02*
X148808849Y-99422295D01*
X148808849Y-99422295D02*
X148875515Y-99384200D01*
X148875515Y-99384200D02*
X148908849Y-99346104D01*
X148908849Y-99346104D02*
X148942182Y-99269914D01*
X148942182Y-99269914D02*
X148942182Y-99079438D01*
X148942182Y-99079438D02*
X148908849Y-99003247D01*
X148908849Y-99003247D02*
X148875515Y-98965152D01*
X148875515Y-98965152D02*
X148808849Y-98927057D01*
X148808849Y-98927057D02*
X148675515Y-98927057D01*
X148675515Y-98927057D02*
X148608849Y-98965152D01*
X148608849Y-98965152D02*
X148575515Y-99003247D01*
X148575515Y-99003247D02*
X148542182Y-99079438D01*
X126946217Y-88500390D02*
X126879550Y-88462295D01*
X126879550Y-88462295D02*
X126779550Y-88462295D01*
X126779550Y-88462295D02*
X126679550Y-88500390D01*
X126679550Y-88500390D02*
X126612884Y-88576580D01*
X126612884Y-88576580D02*
X126579550Y-88652771D01*
X126579550Y-88652771D02*
X126546217Y-88805152D01*
X126546217Y-88805152D02*
X126546217Y-88919438D01*
X126546217Y-88919438D02*
X126579550Y-89071819D01*
X126579550Y-89071819D02*
X126612884Y-89148009D01*
X126612884Y-89148009D02*
X126679550Y-89224200D01*
X126679550Y-89224200D02*
X126779550Y-89262295D01*
X126779550Y-89262295D02*
X126846217Y-89262295D01*
X126846217Y-89262295D02*
X126946217Y-89224200D01*
X126946217Y-89224200D02*
X126979550Y-89186104D01*
X126979550Y-89186104D02*
X126979550Y-88919438D01*
X126979550Y-88919438D02*
X126846217Y-88919438D01*
X127279550Y-89262295D02*
X127279550Y-88462295D01*
X127279550Y-88462295D02*
X127546217Y-88462295D01*
X127546217Y-88462295D02*
X127612884Y-88500390D01*
X127612884Y-88500390D02*
X127646217Y-88538485D01*
X127646217Y-88538485D02*
X127679550Y-88614676D01*
X127679550Y-88614676D02*
X127679550Y-88728961D01*
X127679550Y-88728961D02*
X127646217Y-88805152D01*
X127646217Y-88805152D02*
X127612884Y-88843247D01*
X127612884Y-88843247D02*
X127546217Y-88881342D01*
X127546217Y-88881342D02*
X127279550Y-88881342D01*
X127979550Y-89262295D02*
X127979550Y-88462295D01*
X128446217Y-88462295D02*
X128579550Y-88462295D01*
X128579550Y-88462295D02*
X128646217Y-88500390D01*
X128646217Y-88500390D02*
X128712883Y-88576580D01*
X128712883Y-88576580D02*
X128746217Y-88728961D01*
X128746217Y-88728961D02*
X128746217Y-88995628D01*
X128746217Y-88995628D02*
X128712883Y-89148009D01*
X128712883Y-89148009D02*
X128646217Y-89224200D01*
X128646217Y-89224200D02*
X128579550Y-89262295D01*
X128579550Y-89262295D02*
X128446217Y-89262295D01*
X128446217Y-89262295D02*
X128379550Y-89224200D01*
X128379550Y-89224200D02*
X128312883Y-89148009D01*
X128312883Y-89148009D02*
X128279550Y-88995628D01*
X128279550Y-88995628D02*
X128279550Y-88728961D01*
X128279550Y-88728961D02*
X128312883Y-88576580D01*
X128312883Y-88576580D02*
X128379550Y-88500390D01*
X128379550Y-88500390D02*
X128446217Y-88462295D01*
X128979550Y-88462295D02*
X129412883Y-88462295D01*
X129412883Y-88462295D02*
X129179550Y-88767057D01*
X129179550Y-88767057D02*
X129279550Y-88767057D01*
X129279550Y-88767057D02*
X129346216Y-88805152D01*
X129346216Y-88805152D02*
X129379550Y-88843247D01*
X129379550Y-88843247D02*
X129412883Y-88919438D01*
X129412883Y-88919438D02*
X129412883Y-89109914D01*
X129412883Y-89109914D02*
X129379550Y-89186104D01*
X129379550Y-89186104D02*
X129346216Y-89224200D01*
X129346216Y-89224200D02*
X129279550Y-89262295D01*
X129279550Y-89262295D02*
X129079550Y-89262295D01*
X129079550Y-89262295D02*
X129012883Y-89224200D01*
X129012883Y-89224200D02*
X128979550Y-89186104D01*
X129646217Y-88462295D02*
X130079550Y-88462295D01*
X130079550Y-88462295D02*
X129846217Y-88767057D01*
X129846217Y-88767057D02*
X129946217Y-88767057D01*
X129946217Y-88767057D02*
X130012883Y-88805152D01*
X130012883Y-88805152D02*
X130046217Y-88843247D01*
X130046217Y-88843247D02*
X130079550Y-88919438D01*
X130079550Y-88919438D02*
X130079550Y-89109914D01*
X130079550Y-89109914D02*
X130046217Y-89186104D01*
X130046217Y-89186104D02*
X130012883Y-89224200D01*
X130012883Y-89224200D02*
X129946217Y-89262295D01*
X129946217Y-89262295D02*
X129746217Y-89262295D01*
X129746217Y-89262295D02*
X129679550Y-89224200D01*
X129679550Y-89224200D02*
X129646217Y-89186104D01*
X126946217Y-83420390D02*
X126879550Y-83382295D01*
X126879550Y-83382295D02*
X126779550Y-83382295D01*
X126779550Y-83382295D02*
X126679550Y-83420390D01*
X126679550Y-83420390D02*
X126612884Y-83496580D01*
X126612884Y-83496580D02*
X126579550Y-83572771D01*
X126579550Y-83572771D02*
X126546217Y-83725152D01*
X126546217Y-83725152D02*
X126546217Y-83839438D01*
X126546217Y-83839438D02*
X126579550Y-83991819D01*
X126579550Y-83991819D02*
X126612884Y-84068009D01*
X126612884Y-84068009D02*
X126679550Y-84144200D01*
X126679550Y-84144200D02*
X126779550Y-84182295D01*
X126779550Y-84182295D02*
X126846217Y-84182295D01*
X126846217Y-84182295D02*
X126946217Y-84144200D01*
X126946217Y-84144200D02*
X126979550Y-84106104D01*
X126979550Y-84106104D02*
X126979550Y-83839438D01*
X126979550Y-83839438D02*
X126846217Y-83839438D01*
X127279550Y-84182295D02*
X127279550Y-83382295D01*
X127279550Y-83382295D02*
X127546217Y-83382295D01*
X127546217Y-83382295D02*
X127612884Y-83420390D01*
X127612884Y-83420390D02*
X127646217Y-83458485D01*
X127646217Y-83458485D02*
X127679550Y-83534676D01*
X127679550Y-83534676D02*
X127679550Y-83648961D01*
X127679550Y-83648961D02*
X127646217Y-83725152D01*
X127646217Y-83725152D02*
X127612884Y-83763247D01*
X127612884Y-83763247D02*
X127546217Y-83801342D01*
X127546217Y-83801342D02*
X127279550Y-83801342D01*
X127979550Y-84182295D02*
X127979550Y-83382295D01*
X128446217Y-83382295D02*
X128579550Y-83382295D01*
X128579550Y-83382295D02*
X128646217Y-83420390D01*
X128646217Y-83420390D02*
X128712883Y-83496580D01*
X128712883Y-83496580D02*
X128746217Y-83648961D01*
X128746217Y-83648961D02*
X128746217Y-83915628D01*
X128746217Y-83915628D02*
X128712883Y-84068009D01*
X128712883Y-84068009D02*
X128646217Y-84144200D01*
X128646217Y-84144200D02*
X128579550Y-84182295D01*
X128579550Y-84182295D02*
X128446217Y-84182295D01*
X128446217Y-84182295D02*
X128379550Y-84144200D01*
X128379550Y-84144200D02*
X128312883Y-84068009D01*
X128312883Y-84068009D02*
X128279550Y-83915628D01*
X128279550Y-83915628D02*
X128279550Y-83648961D01*
X128279550Y-83648961D02*
X128312883Y-83496580D01*
X128312883Y-83496580D02*
X128379550Y-83420390D01*
X128379550Y-83420390D02*
X128446217Y-83382295D01*
X128979550Y-83382295D02*
X129412883Y-83382295D01*
X129412883Y-83382295D02*
X129179550Y-83687057D01*
X129179550Y-83687057D02*
X129279550Y-83687057D01*
X129279550Y-83687057D02*
X129346216Y-83725152D01*
X129346216Y-83725152D02*
X129379550Y-83763247D01*
X129379550Y-83763247D02*
X129412883Y-83839438D01*
X129412883Y-83839438D02*
X129412883Y-84029914D01*
X129412883Y-84029914D02*
X129379550Y-84106104D01*
X129379550Y-84106104D02*
X129346216Y-84144200D01*
X129346216Y-84144200D02*
X129279550Y-84182295D01*
X129279550Y-84182295D02*
X129079550Y-84182295D01*
X129079550Y-84182295D02*
X129012883Y-84144200D01*
X129012883Y-84144200D02*
X128979550Y-84106104D01*
X130046217Y-83382295D02*
X129712883Y-83382295D01*
X129712883Y-83382295D02*
X129679550Y-83763247D01*
X129679550Y-83763247D02*
X129712883Y-83725152D01*
X129712883Y-83725152D02*
X129779550Y-83687057D01*
X129779550Y-83687057D02*
X129946217Y-83687057D01*
X129946217Y-83687057D02*
X130012883Y-83725152D01*
X130012883Y-83725152D02*
X130046217Y-83763247D01*
X130046217Y-83763247D02*
X130079550Y-83839438D01*
X130079550Y-83839438D02*
X130079550Y-84029914D01*
X130079550Y-84029914D02*
X130046217Y-84106104D01*
X130046217Y-84106104D02*
X130012883Y-84144200D01*
X130012883Y-84144200D02*
X129946217Y-84182295D01*
X129946217Y-84182295D02*
X129779550Y-84182295D01*
X129779550Y-84182295D02*
X129712883Y-84144200D01*
X129712883Y-84144200D02*
X129679550Y-84106104D01*
X126946217Y-80880390D02*
X126879550Y-80842295D01*
X126879550Y-80842295D02*
X126779550Y-80842295D01*
X126779550Y-80842295D02*
X126679550Y-80880390D01*
X126679550Y-80880390D02*
X126612884Y-80956580D01*
X126612884Y-80956580D02*
X126579550Y-81032771D01*
X126579550Y-81032771D02*
X126546217Y-81185152D01*
X126546217Y-81185152D02*
X126546217Y-81299438D01*
X126546217Y-81299438D02*
X126579550Y-81451819D01*
X126579550Y-81451819D02*
X126612884Y-81528009D01*
X126612884Y-81528009D02*
X126679550Y-81604200D01*
X126679550Y-81604200D02*
X126779550Y-81642295D01*
X126779550Y-81642295D02*
X126846217Y-81642295D01*
X126846217Y-81642295D02*
X126946217Y-81604200D01*
X126946217Y-81604200D02*
X126979550Y-81566104D01*
X126979550Y-81566104D02*
X126979550Y-81299438D01*
X126979550Y-81299438D02*
X126846217Y-81299438D01*
X127279550Y-81642295D02*
X127279550Y-80842295D01*
X127279550Y-80842295D02*
X127546217Y-80842295D01*
X127546217Y-80842295D02*
X127612884Y-80880390D01*
X127612884Y-80880390D02*
X127646217Y-80918485D01*
X127646217Y-80918485D02*
X127679550Y-80994676D01*
X127679550Y-80994676D02*
X127679550Y-81108961D01*
X127679550Y-81108961D02*
X127646217Y-81185152D01*
X127646217Y-81185152D02*
X127612884Y-81223247D01*
X127612884Y-81223247D02*
X127546217Y-81261342D01*
X127546217Y-81261342D02*
X127279550Y-81261342D01*
X127979550Y-81642295D02*
X127979550Y-80842295D01*
X128446217Y-80842295D02*
X128579550Y-80842295D01*
X128579550Y-80842295D02*
X128646217Y-80880390D01*
X128646217Y-80880390D02*
X128712883Y-80956580D01*
X128712883Y-80956580D02*
X128746217Y-81108961D01*
X128746217Y-81108961D02*
X128746217Y-81375628D01*
X128746217Y-81375628D02*
X128712883Y-81528009D01*
X128712883Y-81528009D02*
X128646217Y-81604200D01*
X128646217Y-81604200D02*
X128579550Y-81642295D01*
X128579550Y-81642295D02*
X128446217Y-81642295D01*
X128446217Y-81642295D02*
X128379550Y-81604200D01*
X128379550Y-81604200D02*
X128312883Y-81528009D01*
X128312883Y-81528009D02*
X128279550Y-81375628D01*
X128279550Y-81375628D02*
X128279550Y-81108961D01*
X128279550Y-81108961D02*
X128312883Y-80956580D01*
X128312883Y-80956580D02*
X128379550Y-80880390D01*
X128379550Y-80880390D02*
X128446217Y-80842295D01*
X128979550Y-80842295D02*
X129412883Y-80842295D01*
X129412883Y-80842295D02*
X129179550Y-81147057D01*
X129179550Y-81147057D02*
X129279550Y-81147057D01*
X129279550Y-81147057D02*
X129346216Y-81185152D01*
X129346216Y-81185152D02*
X129379550Y-81223247D01*
X129379550Y-81223247D02*
X129412883Y-81299438D01*
X129412883Y-81299438D02*
X129412883Y-81489914D01*
X129412883Y-81489914D02*
X129379550Y-81566104D01*
X129379550Y-81566104D02*
X129346216Y-81604200D01*
X129346216Y-81604200D02*
X129279550Y-81642295D01*
X129279550Y-81642295D02*
X129079550Y-81642295D01*
X129079550Y-81642295D02*
X129012883Y-81604200D01*
X129012883Y-81604200D02*
X128979550Y-81566104D01*
X130012883Y-81108961D02*
X130012883Y-81642295D01*
X129846217Y-80804200D02*
X129679550Y-81375628D01*
X129679550Y-81375628D02*
X130112883Y-81375628D01*
X145808849Y-88500390D02*
X145742182Y-88462295D01*
X145742182Y-88462295D02*
X145642182Y-88462295D01*
X145642182Y-88462295D02*
X145542182Y-88500390D01*
X145542182Y-88500390D02*
X145475516Y-88576580D01*
X145475516Y-88576580D02*
X145442182Y-88652771D01*
X145442182Y-88652771D02*
X145408849Y-88805152D01*
X145408849Y-88805152D02*
X145408849Y-88919438D01*
X145408849Y-88919438D02*
X145442182Y-89071819D01*
X145442182Y-89071819D02*
X145475516Y-89148009D01*
X145475516Y-89148009D02*
X145542182Y-89224200D01*
X145542182Y-89224200D02*
X145642182Y-89262295D01*
X145642182Y-89262295D02*
X145708849Y-89262295D01*
X145708849Y-89262295D02*
X145808849Y-89224200D01*
X145808849Y-89224200D02*
X145842182Y-89186104D01*
X145842182Y-89186104D02*
X145842182Y-88919438D01*
X145842182Y-88919438D02*
X145708849Y-88919438D01*
X146142182Y-89262295D02*
X146142182Y-88462295D01*
X146142182Y-88462295D02*
X146408849Y-88462295D01*
X146408849Y-88462295D02*
X146475516Y-88500390D01*
X146475516Y-88500390D02*
X146508849Y-88538485D01*
X146508849Y-88538485D02*
X146542182Y-88614676D01*
X146542182Y-88614676D02*
X146542182Y-88728961D01*
X146542182Y-88728961D02*
X146508849Y-88805152D01*
X146508849Y-88805152D02*
X146475516Y-88843247D01*
X146475516Y-88843247D02*
X146408849Y-88881342D01*
X146408849Y-88881342D02*
X146142182Y-88881342D01*
X146842182Y-89262295D02*
X146842182Y-88462295D01*
X147308849Y-88462295D02*
X147442182Y-88462295D01*
X147442182Y-88462295D02*
X147508849Y-88500390D01*
X147508849Y-88500390D02*
X147575515Y-88576580D01*
X147575515Y-88576580D02*
X147608849Y-88728961D01*
X147608849Y-88728961D02*
X147608849Y-88995628D01*
X147608849Y-88995628D02*
X147575515Y-89148009D01*
X147575515Y-89148009D02*
X147508849Y-89224200D01*
X147508849Y-89224200D02*
X147442182Y-89262295D01*
X147442182Y-89262295D02*
X147308849Y-89262295D01*
X147308849Y-89262295D02*
X147242182Y-89224200D01*
X147242182Y-89224200D02*
X147175515Y-89148009D01*
X147175515Y-89148009D02*
X147142182Y-88995628D01*
X147142182Y-88995628D02*
X147142182Y-88728961D01*
X147142182Y-88728961D02*
X147175515Y-88576580D01*
X147175515Y-88576580D02*
X147242182Y-88500390D01*
X147242182Y-88500390D02*
X147308849Y-88462295D01*
X148275515Y-89262295D02*
X147875515Y-89262295D01*
X148075515Y-89262295D02*
X148075515Y-88462295D01*
X148075515Y-88462295D02*
X148008848Y-88576580D01*
X148008848Y-88576580D02*
X147942182Y-88652771D01*
X147942182Y-88652771D02*
X147875515Y-88690866D01*
X148608849Y-89262295D02*
X148742182Y-89262295D01*
X148742182Y-89262295D02*
X148808849Y-89224200D01*
X148808849Y-89224200D02*
X148842182Y-89186104D01*
X148842182Y-89186104D02*
X148908849Y-89071819D01*
X148908849Y-89071819D02*
X148942182Y-88919438D01*
X148942182Y-88919438D02*
X148942182Y-88614676D01*
X148942182Y-88614676D02*
X148908849Y-88538485D01*
X148908849Y-88538485D02*
X148875515Y-88500390D01*
X148875515Y-88500390D02*
X148808849Y-88462295D01*
X148808849Y-88462295D02*
X148675515Y-88462295D01*
X148675515Y-88462295D02*
X148608849Y-88500390D01*
X148608849Y-88500390D02*
X148575515Y-88538485D01*
X148575515Y-88538485D02*
X148542182Y-88614676D01*
X148542182Y-88614676D02*
X148542182Y-88805152D01*
X148542182Y-88805152D02*
X148575515Y-88881342D01*
X148575515Y-88881342D02*
X148608849Y-88919438D01*
X148608849Y-88919438D02*
X148675515Y-88957533D01*
X148675515Y-88957533D02*
X148808849Y-88957533D01*
X148808849Y-88957533D02*
X148875515Y-88919438D01*
X148875515Y-88919438D02*
X148908849Y-88881342D01*
X148908849Y-88881342D02*
X148942182Y-88805152D01*
X126579550Y-109582295D02*
X126579550Y-108782295D01*
X126579550Y-108782295D02*
X126746217Y-108782295D01*
X126746217Y-108782295D02*
X126846217Y-108820390D01*
X126846217Y-108820390D02*
X126912884Y-108896580D01*
X126912884Y-108896580D02*
X126946217Y-108972771D01*
X126946217Y-108972771D02*
X126979550Y-109125152D01*
X126979550Y-109125152D02*
X126979550Y-109239438D01*
X126979550Y-109239438D02*
X126946217Y-109391819D01*
X126946217Y-109391819D02*
X126912884Y-109468009D01*
X126912884Y-109468009D02*
X126846217Y-109544200D01*
X126846217Y-109544200D02*
X126746217Y-109582295D01*
X126746217Y-109582295D02*
X126579550Y-109582295D01*
X127246217Y-108858485D02*
X127279550Y-108820390D01*
X127279550Y-108820390D02*
X127346217Y-108782295D01*
X127346217Y-108782295D02*
X127512884Y-108782295D01*
X127512884Y-108782295D02*
X127579550Y-108820390D01*
X127579550Y-108820390D02*
X127612884Y-108858485D01*
X127612884Y-108858485D02*
X127646217Y-108934676D01*
X127646217Y-108934676D02*
X127646217Y-109010866D01*
X127646217Y-109010866D02*
X127612884Y-109125152D01*
X127612884Y-109125152D02*
X127212884Y-109582295D01*
X127212884Y-109582295D02*
X127646217Y-109582295D01*
X126479550Y-78302295D02*
X126712884Y-79102295D01*
X126712884Y-79102295D02*
X126946217Y-78302295D01*
X127179550Y-79102295D02*
X127179550Y-78302295D01*
X127179550Y-78302295D02*
X127579550Y-79102295D01*
X127579550Y-79102295D02*
X127579550Y-78302295D01*
X128412883Y-78264200D02*
X127812883Y-79292771D01*
X129012883Y-78340390D02*
X128946216Y-78302295D01*
X128946216Y-78302295D02*
X128846216Y-78302295D01*
X128846216Y-78302295D02*
X128746216Y-78340390D01*
X128746216Y-78340390D02*
X128679550Y-78416580D01*
X128679550Y-78416580D02*
X128646216Y-78492771D01*
X128646216Y-78492771D02*
X128612883Y-78645152D01*
X128612883Y-78645152D02*
X128612883Y-78759438D01*
X128612883Y-78759438D02*
X128646216Y-78911819D01*
X128646216Y-78911819D02*
X128679550Y-78988009D01*
X128679550Y-78988009D02*
X128746216Y-79064200D01*
X128746216Y-79064200D02*
X128846216Y-79102295D01*
X128846216Y-79102295D02*
X128912883Y-79102295D01*
X128912883Y-79102295D02*
X129012883Y-79064200D01*
X129012883Y-79064200D02*
X129046216Y-79026104D01*
X129046216Y-79026104D02*
X129046216Y-78759438D01*
X129046216Y-78759438D02*
X128912883Y-78759438D01*
X129346216Y-79102295D02*
X129346216Y-78302295D01*
X129346216Y-78302295D02*
X129612883Y-78302295D01*
X129612883Y-78302295D02*
X129679550Y-78340390D01*
X129679550Y-78340390D02*
X129712883Y-78378485D01*
X129712883Y-78378485D02*
X129746216Y-78454676D01*
X129746216Y-78454676D02*
X129746216Y-78568961D01*
X129746216Y-78568961D02*
X129712883Y-78645152D01*
X129712883Y-78645152D02*
X129679550Y-78683247D01*
X129679550Y-78683247D02*
X129612883Y-78721342D01*
X129612883Y-78721342D02*
X129346216Y-78721342D01*
X130046216Y-79102295D02*
X130046216Y-78302295D01*
X130512883Y-78302295D02*
X130646216Y-78302295D01*
X130646216Y-78302295D02*
X130712883Y-78340390D01*
X130712883Y-78340390D02*
X130779549Y-78416580D01*
X130779549Y-78416580D02*
X130812883Y-78568961D01*
X130812883Y-78568961D02*
X130812883Y-78835628D01*
X130812883Y-78835628D02*
X130779549Y-78988009D01*
X130779549Y-78988009D02*
X130712883Y-79064200D01*
X130712883Y-79064200D02*
X130646216Y-79102295D01*
X130646216Y-79102295D02*
X130512883Y-79102295D01*
X130512883Y-79102295D02*
X130446216Y-79064200D01*
X130446216Y-79064200D02*
X130379549Y-78988009D01*
X130379549Y-78988009D02*
X130346216Y-78835628D01*
X130346216Y-78835628D02*
X130346216Y-78568961D01*
X130346216Y-78568961D02*
X130379549Y-78416580D01*
X130379549Y-78416580D02*
X130446216Y-78340390D01*
X130446216Y-78340390D02*
X130512883Y-78302295D01*
X131046216Y-78302295D02*
X131479549Y-78302295D01*
X131479549Y-78302295D02*
X131246216Y-78607057D01*
X131246216Y-78607057D02*
X131346216Y-78607057D01*
X131346216Y-78607057D02*
X131412882Y-78645152D01*
X131412882Y-78645152D02*
X131446216Y-78683247D01*
X131446216Y-78683247D02*
X131479549Y-78759438D01*
X131479549Y-78759438D02*
X131479549Y-78949914D01*
X131479549Y-78949914D02*
X131446216Y-79026104D01*
X131446216Y-79026104D02*
X131412882Y-79064200D01*
X131412882Y-79064200D02*
X131346216Y-79102295D01*
X131346216Y-79102295D02*
X131146216Y-79102295D01*
X131146216Y-79102295D02*
X131079549Y-79064200D01*
X131079549Y-79064200D02*
X131046216Y-79026104D01*
X131812883Y-79102295D02*
X131946216Y-79102295D01*
X131946216Y-79102295D02*
X132012883Y-79064200D01*
X132012883Y-79064200D02*
X132046216Y-79026104D01*
X132046216Y-79026104D02*
X132112883Y-78911819D01*
X132112883Y-78911819D02*
X132146216Y-78759438D01*
X132146216Y-78759438D02*
X132146216Y-78454676D01*
X132146216Y-78454676D02*
X132112883Y-78378485D01*
X132112883Y-78378485D02*
X132079549Y-78340390D01*
X132079549Y-78340390D02*
X132012883Y-78302295D01*
X132012883Y-78302295D02*
X131879549Y-78302295D01*
X131879549Y-78302295D02*
X131812883Y-78340390D01*
X131812883Y-78340390D02*
X131779549Y-78378485D01*
X131779549Y-78378485D02*
X131746216Y-78454676D01*
X131746216Y-78454676D02*
X131746216Y-78645152D01*
X131746216Y-78645152D02*
X131779549Y-78721342D01*
X131779549Y-78721342D02*
X131812883Y-78759438D01*
X131812883Y-78759438D02*
X131879549Y-78797533D01*
X131879549Y-78797533D02*
X132012883Y-78797533D01*
X132012883Y-78797533D02*
X132079549Y-78759438D01*
X132079549Y-78759438D02*
X132112883Y-78721342D01*
X132112883Y-78721342D02*
X132146216Y-78645152D01*
X126946217Y-101200390D02*
X126879550Y-101162295D01*
X126879550Y-101162295D02*
X126779550Y-101162295D01*
X126779550Y-101162295D02*
X126679550Y-101200390D01*
X126679550Y-101200390D02*
X126612884Y-101276580D01*
X126612884Y-101276580D02*
X126579550Y-101352771D01*
X126579550Y-101352771D02*
X126546217Y-101505152D01*
X126546217Y-101505152D02*
X126546217Y-101619438D01*
X126546217Y-101619438D02*
X126579550Y-101771819D01*
X126579550Y-101771819D02*
X126612884Y-101848009D01*
X126612884Y-101848009D02*
X126679550Y-101924200D01*
X126679550Y-101924200D02*
X126779550Y-101962295D01*
X126779550Y-101962295D02*
X126846217Y-101962295D01*
X126846217Y-101962295D02*
X126946217Y-101924200D01*
X126946217Y-101924200D02*
X126979550Y-101886104D01*
X126979550Y-101886104D02*
X126979550Y-101619438D01*
X126979550Y-101619438D02*
X126846217Y-101619438D01*
X127279550Y-101962295D02*
X127279550Y-101162295D01*
X127279550Y-101162295D02*
X127546217Y-101162295D01*
X127546217Y-101162295D02*
X127612884Y-101200390D01*
X127612884Y-101200390D02*
X127646217Y-101238485D01*
X127646217Y-101238485D02*
X127679550Y-101314676D01*
X127679550Y-101314676D02*
X127679550Y-101428961D01*
X127679550Y-101428961D02*
X127646217Y-101505152D01*
X127646217Y-101505152D02*
X127612884Y-101543247D01*
X127612884Y-101543247D02*
X127546217Y-101581342D01*
X127546217Y-101581342D02*
X127279550Y-101581342D01*
X127979550Y-101962295D02*
X127979550Y-101162295D01*
X128446217Y-101162295D02*
X128579550Y-101162295D01*
X128579550Y-101162295D02*
X128646217Y-101200390D01*
X128646217Y-101200390D02*
X128712883Y-101276580D01*
X128712883Y-101276580D02*
X128746217Y-101428961D01*
X128746217Y-101428961D02*
X128746217Y-101695628D01*
X128746217Y-101695628D02*
X128712883Y-101848009D01*
X128712883Y-101848009D02*
X128646217Y-101924200D01*
X128646217Y-101924200D02*
X128579550Y-101962295D01*
X128579550Y-101962295D02*
X128446217Y-101962295D01*
X128446217Y-101962295D02*
X128379550Y-101924200D01*
X128379550Y-101924200D02*
X128312883Y-101848009D01*
X128312883Y-101848009D02*
X128279550Y-101695628D01*
X128279550Y-101695628D02*
X128279550Y-101428961D01*
X128279550Y-101428961D02*
X128312883Y-101276580D01*
X128312883Y-101276580D02*
X128379550Y-101200390D01*
X128379550Y-101200390D02*
X128446217Y-101162295D01*
X129412883Y-101962295D02*
X129012883Y-101962295D01*
X129212883Y-101962295D02*
X129212883Y-101162295D01*
X129212883Y-101162295D02*
X129146216Y-101276580D01*
X129146216Y-101276580D02*
X129079550Y-101352771D01*
X129079550Y-101352771D02*
X129012883Y-101390866D01*
X129679550Y-101238485D02*
X129712883Y-101200390D01*
X129712883Y-101200390D02*
X129779550Y-101162295D01*
X129779550Y-101162295D02*
X129946217Y-101162295D01*
X129946217Y-101162295D02*
X130012883Y-101200390D01*
X130012883Y-101200390D02*
X130046217Y-101238485D01*
X130046217Y-101238485D02*
X130079550Y-101314676D01*
X130079550Y-101314676D02*
X130079550Y-101390866D01*
X130079550Y-101390866D02*
X130046217Y-101505152D01*
X130046217Y-101505152D02*
X129646217Y-101962295D01*
X129646217Y-101962295D02*
X130079550Y-101962295D01*
X130879550Y-101124200D02*
X130279550Y-102152771D01*
X131112883Y-101962295D02*
X131112883Y-101162295D01*
X131112883Y-101162295D02*
X131346217Y-101733723D01*
X131346217Y-101733723D02*
X131579550Y-101162295D01*
X131579550Y-101162295D02*
X131579550Y-101962295D01*
X131812883Y-101162295D02*
X132212883Y-101162295D01*
X132012883Y-101962295D02*
X132012883Y-101162295D01*
X132446216Y-101962295D02*
X132446216Y-101162295D01*
X132446216Y-101162295D02*
X132612883Y-101162295D01*
X132612883Y-101162295D02*
X132712883Y-101200390D01*
X132712883Y-101200390D02*
X132779550Y-101276580D01*
X132779550Y-101276580D02*
X132812883Y-101352771D01*
X132812883Y-101352771D02*
X132846216Y-101505152D01*
X132846216Y-101505152D02*
X132846216Y-101619438D01*
X132846216Y-101619438D02*
X132812883Y-101771819D01*
X132812883Y-101771819D02*
X132779550Y-101848009D01*
X132779550Y-101848009D02*
X132712883Y-101924200D01*
X132712883Y-101924200D02*
X132612883Y-101962295D01*
X132612883Y-101962295D02*
X132446216Y-101962295D01*
X133146216Y-101962295D02*
X133146216Y-101162295D01*
X126946217Y-98660390D02*
X126879550Y-98622295D01*
X126879550Y-98622295D02*
X126779550Y-98622295D01*
X126779550Y-98622295D02*
X126679550Y-98660390D01*
X126679550Y-98660390D02*
X126612884Y-98736580D01*
X126612884Y-98736580D02*
X126579550Y-98812771D01*
X126579550Y-98812771D02*
X126546217Y-98965152D01*
X126546217Y-98965152D02*
X126546217Y-99079438D01*
X126546217Y-99079438D02*
X126579550Y-99231819D01*
X126579550Y-99231819D02*
X126612884Y-99308009D01*
X126612884Y-99308009D02*
X126679550Y-99384200D01*
X126679550Y-99384200D02*
X126779550Y-99422295D01*
X126779550Y-99422295D02*
X126846217Y-99422295D01*
X126846217Y-99422295D02*
X126946217Y-99384200D01*
X126946217Y-99384200D02*
X126979550Y-99346104D01*
X126979550Y-99346104D02*
X126979550Y-99079438D01*
X126979550Y-99079438D02*
X126846217Y-99079438D01*
X127279550Y-99422295D02*
X127279550Y-98622295D01*
X127279550Y-98622295D02*
X127546217Y-98622295D01*
X127546217Y-98622295D02*
X127612884Y-98660390D01*
X127612884Y-98660390D02*
X127646217Y-98698485D01*
X127646217Y-98698485D02*
X127679550Y-98774676D01*
X127679550Y-98774676D02*
X127679550Y-98888961D01*
X127679550Y-98888961D02*
X127646217Y-98965152D01*
X127646217Y-98965152D02*
X127612884Y-99003247D01*
X127612884Y-99003247D02*
X127546217Y-99041342D01*
X127546217Y-99041342D02*
X127279550Y-99041342D01*
X127979550Y-99422295D02*
X127979550Y-98622295D01*
X128446217Y-98622295D02*
X128579550Y-98622295D01*
X128579550Y-98622295D02*
X128646217Y-98660390D01*
X128646217Y-98660390D02*
X128712883Y-98736580D01*
X128712883Y-98736580D02*
X128746217Y-98888961D01*
X128746217Y-98888961D02*
X128746217Y-99155628D01*
X128746217Y-99155628D02*
X128712883Y-99308009D01*
X128712883Y-99308009D02*
X128646217Y-99384200D01*
X128646217Y-99384200D02*
X128579550Y-99422295D01*
X128579550Y-99422295D02*
X128446217Y-99422295D01*
X128446217Y-99422295D02*
X128379550Y-99384200D01*
X128379550Y-99384200D02*
X128312883Y-99308009D01*
X128312883Y-99308009D02*
X128279550Y-99155628D01*
X128279550Y-99155628D02*
X128279550Y-98888961D01*
X128279550Y-98888961D02*
X128312883Y-98736580D01*
X128312883Y-98736580D02*
X128379550Y-98660390D01*
X128379550Y-98660390D02*
X128446217Y-98622295D01*
X129412883Y-99422295D02*
X129012883Y-99422295D01*
X129212883Y-99422295D02*
X129212883Y-98622295D01*
X129212883Y-98622295D02*
X129146216Y-98736580D01*
X129146216Y-98736580D02*
X129079550Y-98812771D01*
X129079550Y-98812771D02*
X129012883Y-98850866D01*
X130012883Y-98888961D02*
X130012883Y-99422295D01*
X129846217Y-98584200D02*
X129679550Y-99155628D01*
X129679550Y-99155628D02*
X130112883Y-99155628D01*
X130879550Y-98584200D02*
X130279550Y-99612771D01*
X131112883Y-99422295D02*
X131112883Y-98622295D01*
X131112883Y-98622295D02*
X131346217Y-99193723D01*
X131346217Y-99193723D02*
X131579550Y-98622295D01*
X131579550Y-98622295D02*
X131579550Y-99422295D01*
X131812883Y-98622295D02*
X132212883Y-98622295D01*
X132012883Y-99422295D02*
X132012883Y-98622295D01*
X132446216Y-99422295D02*
X132446216Y-98622295D01*
X132446216Y-98622295D02*
X132679550Y-99193723D01*
X132679550Y-99193723D02*
X132912883Y-98622295D01*
X132912883Y-98622295D02*
X132912883Y-99422295D01*
X133212883Y-99384200D02*
X133312883Y-99422295D01*
X133312883Y-99422295D02*
X133479550Y-99422295D01*
X133479550Y-99422295D02*
X133546216Y-99384200D01*
X133546216Y-99384200D02*
X133579550Y-99346104D01*
X133579550Y-99346104D02*
X133612883Y-99269914D01*
X133612883Y-99269914D02*
X133612883Y-99193723D01*
X133612883Y-99193723D02*
X133579550Y-99117533D01*
X133579550Y-99117533D02*
X133546216Y-99079438D01*
X133546216Y-99079438D02*
X133479550Y-99041342D01*
X133479550Y-99041342D02*
X133346216Y-99003247D01*
X133346216Y-99003247D02*
X133279550Y-98965152D01*
X133279550Y-98965152D02*
X133246216Y-98927057D01*
X133246216Y-98927057D02*
X133212883Y-98850866D01*
X133212883Y-98850866D02*
X133212883Y-98774676D01*
X133212883Y-98774676D02*
X133246216Y-98698485D01*
X133246216Y-98698485D02*
X133279550Y-98660390D01*
X133279550Y-98660390D02*
X133346216Y-98622295D01*
X133346216Y-98622295D02*
X133512883Y-98622295D01*
X133512883Y-98622295D02*
X133612883Y-98660390D01*
X126946217Y-91040390D02*
X126879550Y-91002295D01*
X126879550Y-91002295D02*
X126779550Y-91002295D01*
X126779550Y-91002295D02*
X126679550Y-91040390D01*
X126679550Y-91040390D02*
X126612884Y-91116580D01*
X126612884Y-91116580D02*
X126579550Y-91192771D01*
X126579550Y-91192771D02*
X126546217Y-91345152D01*
X126546217Y-91345152D02*
X126546217Y-91459438D01*
X126546217Y-91459438D02*
X126579550Y-91611819D01*
X126579550Y-91611819D02*
X126612884Y-91688009D01*
X126612884Y-91688009D02*
X126679550Y-91764200D01*
X126679550Y-91764200D02*
X126779550Y-91802295D01*
X126779550Y-91802295D02*
X126846217Y-91802295D01*
X126846217Y-91802295D02*
X126946217Y-91764200D01*
X126946217Y-91764200D02*
X126979550Y-91726104D01*
X126979550Y-91726104D02*
X126979550Y-91459438D01*
X126979550Y-91459438D02*
X126846217Y-91459438D01*
X127279550Y-91802295D02*
X127279550Y-91002295D01*
X127279550Y-91002295D02*
X127546217Y-91002295D01*
X127546217Y-91002295D02*
X127612884Y-91040390D01*
X127612884Y-91040390D02*
X127646217Y-91078485D01*
X127646217Y-91078485D02*
X127679550Y-91154676D01*
X127679550Y-91154676D02*
X127679550Y-91268961D01*
X127679550Y-91268961D02*
X127646217Y-91345152D01*
X127646217Y-91345152D02*
X127612884Y-91383247D01*
X127612884Y-91383247D02*
X127546217Y-91421342D01*
X127546217Y-91421342D02*
X127279550Y-91421342D01*
X127979550Y-91802295D02*
X127979550Y-91002295D01*
X128446217Y-91002295D02*
X128579550Y-91002295D01*
X128579550Y-91002295D02*
X128646217Y-91040390D01*
X128646217Y-91040390D02*
X128712883Y-91116580D01*
X128712883Y-91116580D02*
X128746217Y-91268961D01*
X128746217Y-91268961D02*
X128746217Y-91535628D01*
X128746217Y-91535628D02*
X128712883Y-91688009D01*
X128712883Y-91688009D02*
X128646217Y-91764200D01*
X128646217Y-91764200D02*
X128579550Y-91802295D01*
X128579550Y-91802295D02*
X128446217Y-91802295D01*
X128446217Y-91802295D02*
X128379550Y-91764200D01*
X128379550Y-91764200D02*
X128312883Y-91688009D01*
X128312883Y-91688009D02*
X128279550Y-91535628D01*
X128279550Y-91535628D02*
X128279550Y-91268961D01*
X128279550Y-91268961D02*
X128312883Y-91116580D01*
X128312883Y-91116580D02*
X128379550Y-91040390D01*
X128379550Y-91040390D02*
X128446217Y-91002295D01*
X129012883Y-91078485D02*
X129046216Y-91040390D01*
X129046216Y-91040390D02*
X129112883Y-91002295D01*
X129112883Y-91002295D02*
X129279550Y-91002295D01*
X129279550Y-91002295D02*
X129346216Y-91040390D01*
X129346216Y-91040390D02*
X129379550Y-91078485D01*
X129379550Y-91078485D02*
X129412883Y-91154676D01*
X129412883Y-91154676D02*
X129412883Y-91230866D01*
X129412883Y-91230866D02*
X129379550Y-91345152D01*
X129379550Y-91345152D02*
X128979550Y-91802295D01*
X128979550Y-91802295D02*
X129412883Y-91802295D01*
X130046217Y-91002295D02*
X129712883Y-91002295D01*
X129712883Y-91002295D02*
X129679550Y-91383247D01*
X129679550Y-91383247D02*
X129712883Y-91345152D01*
X129712883Y-91345152D02*
X129779550Y-91307057D01*
X129779550Y-91307057D02*
X129946217Y-91307057D01*
X129946217Y-91307057D02*
X130012883Y-91345152D01*
X130012883Y-91345152D02*
X130046217Y-91383247D01*
X130046217Y-91383247D02*
X130079550Y-91459438D01*
X130079550Y-91459438D02*
X130079550Y-91649914D01*
X130079550Y-91649914D02*
X130046217Y-91726104D01*
X130046217Y-91726104D02*
X130012883Y-91764200D01*
X130012883Y-91764200D02*
X129946217Y-91802295D01*
X129946217Y-91802295D02*
X129779550Y-91802295D01*
X129779550Y-91802295D02*
X129712883Y-91764200D01*
X129712883Y-91764200D02*
X129679550Y-91726104D01*
X142442183Y-78340390D02*
X142375516Y-78302295D01*
X142375516Y-78302295D02*
X142275516Y-78302295D01*
X142275516Y-78302295D02*
X142175516Y-78340390D01*
X142175516Y-78340390D02*
X142108850Y-78416580D01*
X142108850Y-78416580D02*
X142075516Y-78492771D01*
X142075516Y-78492771D02*
X142042183Y-78645152D01*
X142042183Y-78645152D02*
X142042183Y-78759438D01*
X142042183Y-78759438D02*
X142075516Y-78911819D01*
X142075516Y-78911819D02*
X142108850Y-78988009D01*
X142108850Y-78988009D02*
X142175516Y-79064200D01*
X142175516Y-79064200D02*
X142275516Y-79102295D01*
X142275516Y-79102295D02*
X142342183Y-79102295D01*
X142342183Y-79102295D02*
X142442183Y-79064200D01*
X142442183Y-79064200D02*
X142475516Y-79026104D01*
X142475516Y-79026104D02*
X142475516Y-78759438D01*
X142475516Y-78759438D02*
X142342183Y-78759438D01*
X142775516Y-79102295D02*
X142775516Y-78302295D01*
X142775516Y-78302295D02*
X143042183Y-78302295D01*
X143042183Y-78302295D02*
X143108850Y-78340390D01*
X143108850Y-78340390D02*
X143142183Y-78378485D01*
X143142183Y-78378485D02*
X143175516Y-78454676D01*
X143175516Y-78454676D02*
X143175516Y-78568961D01*
X143175516Y-78568961D02*
X143142183Y-78645152D01*
X143142183Y-78645152D02*
X143108850Y-78683247D01*
X143108850Y-78683247D02*
X143042183Y-78721342D01*
X143042183Y-78721342D02*
X142775516Y-78721342D01*
X143475516Y-79102295D02*
X143475516Y-78302295D01*
X143942183Y-78302295D02*
X144075516Y-78302295D01*
X144075516Y-78302295D02*
X144142183Y-78340390D01*
X144142183Y-78340390D02*
X144208849Y-78416580D01*
X144208849Y-78416580D02*
X144242183Y-78568961D01*
X144242183Y-78568961D02*
X144242183Y-78835628D01*
X144242183Y-78835628D02*
X144208849Y-78988009D01*
X144208849Y-78988009D02*
X144142183Y-79064200D01*
X144142183Y-79064200D02*
X144075516Y-79102295D01*
X144075516Y-79102295D02*
X143942183Y-79102295D01*
X143942183Y-79102295D02*
X143875516Y-79064200D01*
X143875516Y-79064200D02*
X143808849Y-78988009D01*
X143808849Y-78988009D02*
X143775516Y-78835628D01*
X143775516Y-78835628D02*
X143775516Y-78568961D01*
X143775516Y-78568961D02*
X143808849Y-78416580D01*
X143808849Y-78416580D02*
X143875516Y-78340390D01*
X143875516Y-78340390D02*
X143942183Y-78302295D01*
X144908849Y-79102295D02*
X144508849Y-79102295D01*
X144708849Y-79102295D02*
X144708849Y-78302295D01*
X144708849Y-78302295D02*
X144642182Y-78416580D01*
X144642182Y-78416580D02*
X144575516Y-78492771D01*
X144575516Y-78492771D02*
X144508849Y-78530866D01*
X145708849Y-78264200D02*
X145108849Y-79292771D01*
X145942182Y-78302295D02*
X145942182Y-78949914D01*
X145942182Y-78949914D02*
X145975516Y-79026104D01*
X145975516Y-79026104D02*
X146008849Y-79064200D01*
X146008849Y-79064200D02*
X146075516Y-79102295D01*
X146075516Y-79102295D02*
X146208849Y-79102295D01*
X146208849Y-79102295D02*
X146275516Y-79064200D01*
X146275516Y-79064200D02*
X146308849Y-79026104D01*
X146308849Y-79026104D02*
X146342182Y-78949914D01*
X146342182Y-78949914D02*
X146342182Y-78302295D01*
X146808849Y-78302295D02*
X146875515Y-78302295D01*
X146875515Y-78302295D02*
X146942182Y-78340390D01*
X146942182Y-78340390D02*
X146975515Y-78378485D01*
X146975515Y-78378485D02*
X147008849Y-78454676D01*
X147008849Y-78454676D02*
X147042182Y-78607057D01*
X147042182Y-78607057D02*
X147042182Y-78797533D01*
X147042182Y-78797533D02*
X147008849Y-78949914D01*
X147008849Y-78949914D02*
X146975515Y-79026104D01*
X146975515Y-79026104D02*
X146942182Y-79064200D01*
X146942182Y-79064200D02*
X146875515Y-79102295D01*
X146875515Y-79102295D02*
X146808849Y-79102295D01*
X146808849Y-79102295D02*
X146742182Y-79064200D01*
X146742182Y-79064200D02*
X146708849Y-79026104D01*
X146708849Y-79026104D02*
X146675515Y-78949914D01*
X146675515Y-78949914D02*
X146642182Y-78797533D01*
X146642182Y-78797533D02*
X146642182Y-78607057D01*
X146642182Y-78607057D02*
X146675515Y-78454676D01*
X146675515Y-78454676D02*
X146708849Y-78378485D01*
X146708849Y-78378485D02*
X146742182Y-78340390D01*
X146742182Y-78340390D02*
X146808849Y-78302295D01*
X147242182Y-78302295D02*
X147642182Y-78302295D01*
X147442182Y-79102295D02*
X147442182Y-78302295D01*
X147808849Y-78302295D02*
X148275515Y-79102295D01*
X148275515Y-78302295D02*
X147808849Y-79102295D01*
X148542182Y-79102295D02*
X148542182Y-78302295D01*
X148542182Y-78302295D02*
X148708849Y-78302295D01*
X148708849Y-78302295D02*
X148808849Y-78340390D01*
X148808849Y-78340390D02*
X148875516Y-78416580D01*
X148875516Y-78416580D02*
X148908849Y-78492771D01*
X148908849Y-78492771D02*
X148942182Y-78645152D01*
X148942182Y-78645152D02*
X148942182Y-78759438D01*
X148942182Y-78759438D02*
X148908849Y-78911819D01*
X148908849Y-78911819D02*
X148875516Y-78988009D01*
X148875516Y-78988009D02*
X148808849Y-79064200D01*
X148808849Y-79064200D02*
X148708849Y-79102295D01*
X148708849Y-79102295D02*
X148542182Y-79102295D01*
X126946217Y-93580390D02*
X126879550Y-93542295D01*
X126879550Y-93542295D02*
X126779550Y-93542295D01*
X126779550Y-93542295D02*
X126679550Y-93580390D01*
X126679550Y-93580390D02*
X126612884Y-93656580D01*
X126612884Y-93656580D02*
X126579550Y-93732771D01*
X126579550Y-93732771D02*
X126546217Y-93885152D01*
X126546217Y-93885152D02*
X126546217Y-93999438D01*
X126546217Y-93999438D02*
X126579550Y-94151819D01*
X126579550Y-94151819D02*
X126612884Y-94228009D01*
X126612884Y-94228009D02*
X126679550Y-94304200D01*
X126679550Y-94304200D02*
X126779550Y-94342295D01*
X126779550Y-94342295D02*
X126846217Y-94342295D01*
X126846217Y-94342295D02*
X126946217Y-94304200D01*
X126946217Y-94304200D02*
X126979550Y-94266104D01*
X126979550Y-94266104D02*
X126979550Y-93999438D01*
X126979550Y-93999438D02*
X126846217Y-93999438D01*
X127279550Y-94342295D02*
X127279550Y-93542295D01*
X127279550Y-93542295D02*
X127546217Y-93542295D01*
X127546217Y-93542295D02*
X127612884Y-93580390D01*
X127612884Y-93580390D02*
X127646217Y-93618485D01*
X127646217Y-93618485D02*
X127679550Y-93694676D01*
X127679550Y-93694676D02*
X127679550Y-93808961D01*
X127679550Y-93808961D02*
X127646217Y-93885152D01*
X127646217Y-93885152D02*
X127612884Y-93923247D01*
X127612884Y-93923247D02*
X127546217Y-93961342D01*
X127546217Y-93961342D02*
X127279550Y-93961342D01*
X127979550Y-94342295D02*
X127979550Y-93542295D01*
X128446217Y-93542295D02*
X128579550Y-93542295D01*
X128579550Y-93542295D02*
X128646217Y-93580390D01*
X128646217Y-93580390D02*
X128712883Y-93656580D01*
X128712883Y-93656580D02*
X128746217Y-93808961D01*
X128746217Y-93808961D02*
X128746217Y-94075628D01*
X128746217Y-94075628D02*
X128712883Y-94228009D01*
X128712883Y-94228009D02*
X128646217Y-94304200D01*
X128646217Y-94304200D02*
X128579550Y-94342295D01*
X128579550Y-94342295D02*
X128446217Y-94342295D01*
X128446217Y-94342295D02*
X128379550Y-94304200D01*
X128379550Y-94304200D02*
X128312883Y-94228009D01*
X128312883Y-94228009D02*
X128279550Y-94075628D01*
X128279550Y-94075628D02*
X128279550Y-93808961D01*
X128279550Y-93808961D02*
X128312883Y-93656580D01*
X128312883Y-93656580D02*
X128379550Y-93580390D01*
X128379550Y-93580390D02*
X128446217Y-93542295D01*
X129012883Y-93618485D02*
X129046216Y-93580390D01*
X129046216Y-93580390D02*
X129112883Y-93542295D01*
X129112883Y-93542295D02*
X129279550Y-93542295D01*
X129279550Y-93542295D02*
X129346216Y-93580390D01*
X129346216Y-93580390D02*
X129379550Y-93618485D01*
X129379550Y-93618485D02*
X129412883Y-93694676D01*
X129412883Y-93694676D02*
X129412883Y-93770866D01*
X129412883Y-93770866D02*
X129379550Y-93885152D01*
X129379550Y-93885152D02*
X128979550Y-94342295D01*
X128979550Y-94342295D02*
X129412883Y-94342295D01*
X130012883Y-93542295D02*
X129879550Y-93542295D01*
X129879550Y-93542295D02*
X129812883Y-93580390D01*
X129812883Y-93580390D02*
X129779550Y-93618485D01*
X129779550Y-93618485D02*
X129712883Y-93732771D01*
X129712883Y-93732771D02*
X129679550Y-93885152D01*
X129679550Y-93885152D02*
X129679550Y-94189914D01*
X129679550Y-94189914D02*
X129712883Y-94266104D01*
X129712883Y-94266104D02*
X129746217Y-94304200D01*
X129746217Y-94304200D02*
X129812883Y-94342295D01*
X129812883Y-94342295D02*
X129946217Y-94342295D01*
X129946217Y-94342295D02*
X130012883Y-94304200D01*
X130012883Y-94304200D02*
X130046217Y-94266104D01*
X130046217Y-94266104D02*
X130079550Y-94189914D01*
X130079550Y-94189914D02*
X130079550Y-93999438D01*
X130079550Y-93999438D02*
X130046217Y-93923247D01*
X130046217Y-93923247D02*
X130012883Y-93885152D01*
X130012883Y-93885152D02*
X129946217Y-93847057D01*
X129946217Y-93847057D02*
X129812883Y-93847057D01*
X129812883Y-93847057D02*
X129746217Y-93885152D01*
X129746217Y-93885152D02*
X129712883Y-93923247D01*
X129712883Y-93923247D02*
X129679550Y-93999438D01*
X147875515Y-112122295D02*
X147875515Y-111322295D01*
X147875515Y-111322295D02*
X148042182Y-111322295D01*
X148042182Y-111322295D02*
X148142182Y-111360390D01*
X148142182Y-111360390D02*
X148208849Y-111436580D01*
X148208849Y-111436580D02*
X148242182Y-111512771D01*
X148242182Y-111512771D02*
X148275515Y-111665152D01*
X148275515Y-111665152D02*
X148275515Y-111779438D01*
X148275515Y-111779438D02*
X148242182Y-111931819D01*
X148242182Y-111931819D02*
X148208849Y-112008009D01*
X148208849Y-112008009D02*
X148142182Y-112084200D01*
X148142182Y-112084200D02*
X148042182Y-112122295D01*
X148042182Y-112122295D02*
X147875515Y-112122295D01*
X148942182Y-112122295D02*
X148542182Y-112122295D01*
X148742182Y-112122295D02*
X148742182Y-111322295D01*
X148742182Y-111322295D02*
X148675515Y-111436580D01*
X148675515Y-111436580D02*
X148608849Y-111512771D01*
X148608849Y-111512771D02*
X148542182Y-111550866D01*
X90869580Y-86166666D02*
X90917200Y-86214285D01*
X90917200Y-86214285D02*
X90964819Y-86357142D01*
X90964819Y-86357142D02*
X90964819Y-86452380D01*
X90964819Y-86452380D02*
X90917200Y-86595237D01*
X90917200Y-86595237D02*
X90821961Y-86690475D01*
X90821961Y-86690475D02*
X90726723Y-86738094D01*
X90726723Y-86738094D02*
X90536247Y-86785713D01*
X90536247Y-86785713D02*
X90393390Y-86785713D01*
X90393390Y-86785713D02*
X90202914Y-86738094D01*
X90202914Y-86738094D02*
X90107676Y-86690475D01*
X90107676Y-86690475D02*
X90012438Y-86595237D01*
X90012438Y-86595237D02*
X89964819Y-86452380D01*
X89964819Y-86452380D02*
X89964819Y-86357142D01*
X89964819Y-86357142D02*
X90012438Y-86214285D01*
X90012438Y-86214285D02*
X90060057Y-86166666D01*
X90964819Y-85214285D02*
X90964819Y-85785713D01*
X90964819Y-85499999D02*
X89964819Y-85499999D01*
X89964819Y-85499999D02*
X90107676Y-85595237D01*
X90107676Y-85595237D02*
X90202914Y-85690475D01*
X90202914Y-85690475D02*
X90250533Y-85785713D01*
D13*
%TO.C,U5*%
X99160000Y-83730000D02*
X99160000Y-88371000D01*
X99160000Y-83730000D02*
X109400000Y-83730000D01*
X99160000Y-85240000D02*
X109400000Y-85240000D01*
X99160000Y-88371000D02*
X109400000Y-88371000D01*
X102430000Y-83730000D02*
X102430000Y-85240000D01*
X106131000Y-83730000D02*
X106131000Y-85240000D01*
X109400000Y-83730000D02*
X109400000Y-88371000D01*
%TO.C,J3*%
X79240000Y-82900000D02*
X78600000Y-82900000D01*
X78600000Y-82900000D02*
X78600000Y-83300000D01*
X87960000Y-83140000D02*
X78840000Y-83140000D01*
X87960000Y-83140000D02*
X87960000Y-93260000D01*
X80400000Y-83140000D02*
X80400000Y-93260000D01*
X79300000Y-83140000D02*
X79300000Y-93260000D01*
X78840000Y-83140000D02*
X78840000Y-93260000D01*
X82619000Y-84152000D02*
X82512000Y-84046000D01*
X82353000Y-84418000D02*
X82246000Y-84312000D01*
X85554000Y-87088000D02*
X85447000Y-86981000D01*
X85288000Y-87354000D02*
X85181000Y-87247000D01*
X82908000Y-89442000D02*
X82512000Y-89047000D01*
X82626000Y-89693000D02*
X82246000Y-89313000D01*
X85554000Y-92088000D02*
X85174000Y-91708000D01*
X85288000Y-92354000D02*
X84892000Y-91959000D01*
X87960000Y-93260000D02*
X78840000Y-93260000D01*
X86080000Y-85700000D02*
G75*
G03*
X86080000Y-85700000I-2180000J0D01*
G01*
X86080000Y-90700000D02*
G75*
G03*
X86080000Y-90700000I-2180000J0D01*
G01*
%TO.C,J2*%
X164680000Y-109400000D02*
X165320000Y-109400000D01*
X165320000Y-109400000D02*
X165320000Y-109000000D01*
X155960000Y-109160000D02*
X165080000Y-109160000D01*
X155960000Y-109160000D02*
X155960000Y-99040000D01*
X163520000Y-109160000D02*
X163520000Y-99040000D01*
X164620000Y-109160000D02*
X164620000Y-99040000D01*
X165080000Y-109160000D02*
X165080000Y-99040000D01*
X161301000Y-108148000D02*
X161408000Y-108254000D01*
X161567000Y-107882000D02*
X161674000Y-107988000D01*
X158366000Y-105212000D02*
X158473000Y-105319000D01*
X158632000Y-104946000D02*
X158739000Y-105053000D01*
X161012000Y-102858000D02*
X161408000Y-103253000D01*
X161294000Y-102607000D02*
X161674000Y-102987000D01*
X158366000Y-100212000D02*
X158746000Y-100592000D01*
X158632000Y-99946000D02*
X159028000Y-100341000D01*
X155960000Y-99040000D02*
X165080000Y-99040000D01*
X162200000Y-106600000D02*
G75*
G03*
X162200000Y-106600000I-2180000J0D01*
G01*
X162200000Y-101600000D02*
G75*
G03*
X162200000Y-101600000I-2180000J0D01*
G01*
D12*
%TO.C,U2*%
X98470000Y-80140000D02*
X119470000Y-80140000D01*
X119470000Y-80140000D02*
X119470000Y-64140000D01*
X119470000Y-64140000D02*
X98470000Y-64140000D01*
X98470000Y-64140000D02*
X98470000Y-80140000D01*
%TO.C,U3*%
X97810000Y-95760000D02*
X115770000Y-95760000D01*
X115770000Y-95760000D02*
X115770000Y-116160000D01*
X115770000Y-116160000D02*
X97810000Y-116160000D01*
X97810000Y-116160000D02*
X97810000Y-95760000D01*
D13*
%TO.C,J1*%
X79240000Y-98700000D02*
X78600000Y-98700000D01*
X78600000Y-98700000D02*
X78600000Y-99100000D01*
X87960000Y-98940000D02*
X78840000Y-98940000D01*
X87960000Y-98940000D02*
X87960000Y-109060000D01*
X80400000Y-98940000D02*
X80400000Y-109060000D01*
X79300000Y-98940000D02*
X79300000Y-109060000D01*
X78840000Y-98940000D02*
X78840000Y-109060000D01*
X82619000Y-99952000D02*
X82512000Y-99846000D01*
X82353000Y-100218000D02*
X82246000Y-100112000D01*
X85554000Y-102888000D02*
X85447000Y-102781000D01*
X85288000Y-103154000D02*
X85181000Y-103047000D01*
X82908000Y-105242000D02*
X82512000Y-104847000D01*
X82626000Y-105493000D02*
X82246000Y-105113000D01*
X85554000Y-107888000D02*
X85174000Y-107508000D01*
X85288000Y-108154000D02*
X84892000Y-107759000D01*
X87960000Y-109060000D02*
X78840000Y-109060000D01*
X86080000Y-101500000D02*
G75*
G03*
X86080000Y-101500000I-2180000J0D01*
G01*
X86080000Y-106500000D02*
G75*
G03*
X86080000Y-106500000I-2180000J0D01*
G01*
%TO.C,C2*%
X116620000Y-86000000D02*
G75*
G03*
X116620000Y-86000000I-2620000J0D01*
G01*
%TO.C,U1*%
X123544200Y-117940000D02*
X151944199Y-117940000D01*
X123544201Y-70020000D02*
X123544200Y-117940000D01*
X128774320Y-64106880D02*
X146757520Y-64106880D01*
X128774320Y-69999680D02*
X128774320Y-64106880D01*
X146757520Y-64106880D02*
X146757520Y-69999680D01*
X151944199Y-117940000D02*
X151944200Y-70020000D01*
X151944200Y-70020000D02*
X123544201Y-70020000D01*
%TO.C,C1*%
X96880000Y-86000000D02*
G75*
G03*
X96880000Y-86000000I-2620000J0D01*
G01*
%TD*%
M02*
